<?xml version="1.0" encoding="UTF-8" standalone="no"?>
<!-- Created with Inkscape (http://www.inkscape.org/) -->

<svg
   xmlns:dc="http://purl.org/dc/elements/1.1/"
   xmlns:cc="http://creativecommons.org/ns#"
   xmlns:rdf="http://www.w3.org/1999/02/22-rdf-syntax-ns#"
   xmlns:svg="http://www.w3.org/2000/svg"
   xmlns="http://www.w3.org/2000/svg"
   xmlns:sodipodi="http://sodipodi.sourceforge.net/DTD/sodipodi-0.dtd"
   xmlns:inkscape="http://www.inkscape.org/namespaces/inkscape"
   width="1080"
   height="1517"
   id="svg2"
   version="1.1"
   inkscape:version="0.48.5 r10040"
   inkscape:export-filename="/Users/jonathan/Downloads/2020-09-10.svg.png"
   inkscape:export-xdpi="240"
   inkscape:export-ydpi="240"
   sodipodi:docname="New document 1">
  <defs
     id="defs4" />
  <sodipodi:namedview
     id="base"
     pagecolor="#ffffff"
     bordercolor="#666666"
     borderopacity="1.0"
     inkscape:pageopacity="0.0"
     inkscape:pageshadow="2"
     inkscape:zoom="0.98994949"
     inkscape:cx="420.28351"
     inkscape:cy="976.1452"
     inkscape:document-units="px"
     inkscape:current-layer="layer1"
     showgrid="false"
     fit-margin-top="0"
     fit-margin-left="0"
     fit-margin-right="0"
     fit-margin-bottom="0"
     inkscape:window-width="1280"
     inkscape:window-height="708"
     inkscape:window-x="0"
     inkscape:window-y="1"
     inkscape:window-maximized="1" />
  <metadata
     id="metadata7">
    <rdf:RDF>
      <cc:Work
         rdf:about="">
        <dc:format>image/svg+xml</dc:format>
        <dc:type
           rdf:resource="http://purl.org/dc/dcmitype/StillImage" />
        <dc:title></dc:title>
      </cc:Work>
    </rdf:RDF>
  </metadata>
  <g
     inkscape:label="Layer 1"
     inkscape:groupmode="layer"
     id="layer1"
     transform="translate(-202.85715,60.423531)">
    <path
       style="fill:#000000"
       d="m 1041.208,1321.0483 c -0.3373,-0.8788 1.5316,-5.0221 4.3977,-9.75 7.5503,-12.4547 11.6872,-20.2668 16.2688,-30.7218 2.2897,-5.225 8.8101,-19.175 14.4898,-31 8.4856,-17.6672 14.5213,-33 12.9901,-33 -0.172,0 -2.8147,3.7601 -5.8726,8.3558 -3.5121,5.2784 -9.804,12.436 -17.0838,19.4344 -10.8077,10.3899 -11.3536,11.0982 -8.7825,11.3942 1.6301,0.1876 2.7417,0.9238 2.7417,1.8156 0,1.1667 -1.3334,1.5 -6,1.5 -5.3901,0 -5.9817,-0.203 -5.82,-1.9966 0.099,-1.0982 2.3489,-3.7618 5,-5.9191 10.2846,-8.3694 23.9329,-23.1885 29.3439,-31.8612 4.243,-6.8006 5.9264,-8.7146 7.4761,-8.5 5.2987,0.7336 1.9031,15.0239 -8.502,35.7808 -3.3074,6.5978 -5.8252,11.9961 -5.5952,11.9961 0.5455,0 9.6391,-14.6 17.7141,-28.4404 9.8949,-16.9596 14.1344,-20.3883 18.9295,-15.3096 4.5723,4.8427 0.9786,18.7957 -8.3892,32.572 -4.4977,6.6143 -6.3963,12.871 -4.4831,14.7729 3.0361,3.018 14.6694,-5.2767 23.2745,-16.5949 3.7799,-4.9715 4.3529,-6.5089 5.9647,-16 2.5102,-14.7828 7.8004,-30.5947 12.6814,-37.9041 5.695,-8.5283 12.2882,-15.5953 13.7226,-14.7088 2.0386,1.2599 1.3643,10.8975 -1.2414,17.7438 -3.5352,9.2885 -13.6536,30.1696 -18.9699,39.1479 -2.5333,4.2783 -4.6114,8.5533 -4.6179,9.5 -0.01,0.9467 -0.6408,4.0837 -1.4095,6.9712 -0.7687,2.8875 -0.9834,5.25 -0.4772,5.25 3.1375,0 10.7359,-5.1445 16.2823,-11.0239 5.7816,-6.1288 10.1105,-13.2441 13.5222,-22.2261 1.2998,-3.422 4.0941,-3.6796 4.0941,-0.3774 0,1.3049 -1.8,8.003 -4,14.8846 -2.2,6.8816 -4,13.2389 -4,14.1274 0,3.2405 4.3201,1.6647 9.137,-3.3328 5.341,-5.5411 8.253,-10.6825 9.2928,-16.4072 1.4741,-8.1154 4.6612,-16.623 6.6201,-17.6713 4.7221,-2.5272 3.6869,7.5728 -2.0536,20.0346 -2.198,4.7716 -3.9963,9.5131 -3.9963,10.5368 0,2.9371 7.3351,-4.7576 12.6735,-13.2947 3.4676,-5.5455 5.0681,-7.25 6.8075,-7.25 2.5226,0 4.0801,1.4781 4.7415,4.5 0.396,1.809 0.5624,1.7427 1.7431,-0.695 2.6838,-5.5411 7.3157,-3.8946 7.4577,2.651 0.042,1.946 0.1284,3.5394 0.1916,3.5411 0.3669,0.01 10.5023,-17.1258 11.9966,-20.2816 1.1114,-2.3473 2.3798,-3.6729 3.3402,-3.4906 2.8213,0.5354 2.4449,9.6262 -0.9664,23.334 -1.7159,6.8955 -2.9533,13.037 -2.7497,13.6478 0.4987,1.4961 21.0168,-23.5328 28.0361,-34.1998 2.5148,-3.8215 5.7283,-5.2154 5.7283,-2.4846 0,0.9179 -0.843,2.8634 -1.8733,4.3233 -1.0304,1.4599 -3.3026,5.5794 -5.0494,9.1544 l -3.1761,6.5 3.0147,-3.5 c 1.658,-1.925 4.0419,-5.4125 5.2976,-7.75 3.7253,-6.9347 4.7865,-5.6386 4.7865,5.8457 0,11.024 1.2827,14.8008 5.7123,16.8191 4.6865,2.1353 7.0973,1.3786 9.2877,-2.9148 2.0288,-3.9768 3.3434,-4.8714 4.4728,-3.044 0.9393,1.5198 -2.0378,7.6259 -4.5897,9.4133 -3.0579,2.1419 -6.1329,2.0595 -10.6729,-0.2861 -5.1139,-2.6421 -6.6005,-5.4426 -7.1973,-13.558 l -0.5129,-6.9748 -6.9033,8.9748 c -8.8406,11.4936 -10.7532,13.1154 -11.9103,10.1 -0.2901,-0.7561 0.541,-3.6811 1.847,-6.5 1.306,-2.8188 2.2322,-5.1252 2.0581,-5.1252 -0.1741,0 -2.6164,3.0928 -5.4273,6.8729 -6.4492,8.6729 -11.683,13.3371 -14.5134,12.9337 -3.2244,-0.4596 -3.1585,-3.4566 0.38,-17.2735 1.7477,-6.8243 3.0055,-12.9242 2.7951,-13.5553 -0.2103,-0.6311 -3.9266,4.9658 -8.2584,12.4374 -4.5233,7.8021 -8.5074,13.5848 -9.3594,13.5848 -1.5106,0 -1.4675,-1.703 0.3666,-14.5 0.5146,-3.5909 0.2144,-3.2385 -2.9353,3.4458 -1.9297,4.0951 -3.7333,8.3051 -4.0079,9.3553 -0.7094,2.7126 -3.1916,1.4855 -2.8369,-1.4023 1.1122,-9.0553 1.3101,-15.8988 0.4598,-15.8988 -0.5342,0 -2.6769,2.5875 -4.7615,5.75 -8.8548,13.4331 -14.4639,18.1789 -18.0087,15.2369 -1.2333,-1.0236 -2.254,-0.5321 -5.9279,2.8544 -5.0861,4.6882 -8.6111,5.9104 -12.2561,4.2496 -2.2921,-1.0443 -2.4997,-1.5924 -2.0367,-5.3769 0.2835,-2.3177 0.8439,-5.114 1.2454,-6.214 0.4213,-1.1545 -0.9059,-0.2337 -3.1395,2.1784 -5.6954,6.1502 -12.4385,10.801 -17.8613,12.3193 -4.3279,1.2117 -4.9097,1.1736 -6.0584,-0.3973 -0.899,-1.2294 -1.0044,-2.6666 -0.3602,-4.9125 1.4414,-5.0261 1.0864,-5.411 -1.4916,-1.6172 -1.3212,1.9443 -4.8087,5.3707 -7.75,7.6142 -9.4248,7.189 -14.4102,8.8181 -18.2942,5.9781 -2.9066,-2.1254 -1.7473,-11.4499 2.1032,-16.9158 8.7662,-12.4438 13.585,-24.726 11.4981,-29.3063 -2.2428,-4.9224 -4.8479,-2.625 -13.1076,11.5591 -7.8825,13.5364 -13.3227,22.3512 -20.058,32.5 -7.5722,11.4098 -14.3945,23.355 -21.9886,38.5 -6.1921,12.349 -11.5556,21 -13.0198,21 -0.5741,0 -1.3077,-0.6877 -1.6302,-1.5282 z m 100.4771,-107.0325 c 8.4076,-17.0213 13.4258,-30.494 11.3284,-30.4144 -1.562,0.059 -10.5753,13.4367 -12.8535,19.077 -3.4971,8.658 -8.6395,29.5681 -6.8255,27.7541 0.2626,-0.2626 4.0203,-7.6501 8.3506,-16.4167 z m -271.43272,75.66 c -3.33245,-2.0321 -7.39523,-7.7905 -7.39523,-10.4817 0,-1.3698 -1.03723,-1.1228 -6.17331,1.4699 -3.39532,1.7139 -6.8066,3.7496 -7.58062,4.5236 -0.77402,0.774 -1.81065,1.158 -2.30362,0.8533 -0.49297,-0.3046 -2.78719,-0.045 -5.09828,0.5776 -5.38096,1.4489 -11.92293,0.4649 -14.81362,-2.2282 -3.27126,-3.0476 -2.16953,-9.0013 3.94417,-21.3138 6.31917,-12.7263 10.31845,-17.7209 13.8566,-17.305 2.16998,0.255 2.95666,1.2877 4.80306,6.305 1.3462,3.6581 2.2533,8.5371 2.32399,12.5 l 0.11595,6.5 13.40635,-27 c 13.94395,-28.0827 16.42808,-32.1327 19.08396,-31.1136 2.32091,0.8906 1.52136,6.1626 -0.90388,5.9598 -1.46039,-0.1221 -4.70464,5.7002 -15.75,28.2654 -7.65091,15.6305 -13.91075,28.8622 -13.91075,29.4037 0,1.4235 0.76709,1.2436 5.11385,-1.1994 2.90614,-1.6334 3.89664,-2.8312 3.92774,-4.75 0.0502,-3.0983 2.88574,-10.917 4.95841,-13.6723 2.04831,-2.723 6.08428,-5.3936 8.15108,-5.3936 2.34929,0 4.84892,2.7093 4.84892,5.2557 0,4.3063 -4.20554,10.8347 -9.60654,14.9125 -4.73134,3.5722 -5.29711,4.3737 -4.72594,6.6949 1.62351,6.5978 7.13517,10.7693 12.65547,9.5783 5.57992,-1.2039 11.04339,-4.527 15.96882,-9.7127 3.43431,-3.6158 5.09809,-4.7388 5.87295,-3.9639 2.32669,2.3267 -6.10614,10.8836 -14.66476,14.8806 -6.06109,2.8306 -11.93562,2.9962 -16.10477,0.4539 z m -27.49651,-7.364 c 2.61391,-1.3461 4.34642,-5.9872 5.51034,-14.7613 0.55733,-4.2014 0.22825,-6.7666 -1.57284,-12.2604 l -2.27764,-6.9474 -2.52929,3.0374 c -3.76372,4.52 -12.01906,21.1264 -12.72431,25.5963 -0.48941,3.1019 -0.23749,4.1763 1.23097,5.25 2.30041,1.6821 9.16995,1.7296 12.36277,0.085 z m 34.10128,-24.161 c 0,-5.1653 -5.45616,-1.5135 -8.45227,5.6572 -2.9223,6.9941 -1.8576,7.6355 3.47384,2.0928 3.34168,-3.474 4.97843,-6.022 4.97843,-7.75 z m 93.01057,18.9384 c -0.67888,-0.818 -0.99984,-2.0555 -0.71325,-2.75 0.28658,-0.6945 1.22237,-2.9009 2.07953,-4.9032 l 1.55846,-3.6404 -6.71765,3.2901 c -7.70783,3.775 -19.19848,7.4979 -23.073,7.4755 -3.18334,-0.018 -4.4876,-0.8048 -5.95184,-3.5884 -0.93749,-1.7822 -0.15808,-3.9384 5.1003,-14.1097 3.41378,-6.6032 8.70835,-15.7816 11.7657,-20.3963 3.05736,-4.6146 8.20579,-13.1153 11.44098,-18.8903 8.36451,-14.9312 16.27313,-26.8051 19.07728,-28.6425 3.35253,-2.1966 7.20691,-1.0663 8.0684,2.3661 1.00049,3.9863 -1.88135,11.1585 -9.90148,24.6424 -7.95805,13.3795 -14.15932,20.246 -24.00149,26.576 -3.71662,2.3904 -7.60991,5.7438 -8.65174,7.4521 -4.05434,6.6477 -9.97315,18.9872 -9.48575,19.7758 1.76105,2.8495 17.89559,-2.0189 29.85095,-9.007 3.32422,-1.943 8.38985,-5.9677 11.25697,-8.9436 2.86711,-2.9758 5.76399,-5.227 6.4375,-5.0025 2.72906,0.9097 1.77958,3.1523 -3.49931,8.2652 -5.3701,5.2012 -12.81985,17.518 -10.5957,17.518 1.94408,0 9.31555,-5.6984 15.41327,-11.915 7.55032,-7.6975 10.71505,-8.2086 7.0599,-1.1403 -2.44107,4.7205 -2.97368,10.441 -1.11568,11.983 2.23437,1.8544 7.96583,0.7492 12.83903,-2.4758 2.6506,-1.754 4.3047,-2.2953 4.9727,-1.6272 1.4198,1.4197 0.3024,2.7821 -4.6729,5.6979 -8.57751,5.0267 -17.88508,2.7869 -17.88508,-4.3039 l 0,-2.8924 -7.43843,5.3369 c -7.62249,5.4689 -11.0462,6.466 -13.21767,3.8495 z m -1.099,-45.7319 c 6.6014,-6.726 20.08843,-30.3906 20.08843,-35.2476 0,-6.994 -5.68693,-0.1184 -18.99149,22.9611 -5.0711,8.7968 -10.07256,17.1913 -11.11435,18.6543 -1.04179,1.4631 -1.89416,2.966 -1.89416,3.3398 0,0.9921 7.04573,-4.7499 11.91157,-9.7076 z m -270.66157,-33.4431 c -1.51959,-0.6131 -1.6435,-16.1209 -0.24241,-30.3377 1.22452,-12.4251 4.50573,-32.793 5.82247,-36.1427 0.57136,-1.4535 0.79294,-3.5829 0.49241,-4.7322 -0.41426,-1.5841 0.0737,-2.3252 2.01766,-3.0643 1.41024,-0.5362 3.3377,-2.4567 4.28324,-4.2678 2.70457,-5.1805 5.32684,-24.457 6.36545,-46.793 0.52428,-11.275 1.88883,-29.05 3.03234,-39.5 1.39488,-12.7472 2.36538,-30.8474 2.94899,-55.00003 0.85364,-35.3271 2.36136,-54.7221 5.54721,-71.35771 0.88031,-4.59673 1.42671,-8.53155 1.21422,-8.74404 -0.56854,-0.56854 -9.36647,6.20294 -17.30032,13.31549 -17.58072,15.76079 -39.08323,29.10826 -56.39375,35.00596 -12.07477,4.1139 -12.99055,4.2717 -24.81226,4.2759 -12.25431,0 -12.27638,0.01 -13.25,2.5695 -0.53639,1.4108 -0.97525,3.7437 -0.97525,5.1843 0,1.4405 -0.88303,4.4487 -1.96229,6.6849 -2.05677,4.2614 -3.75321,10.515 -11.54698,42.56573 -2.60801,10.725 -6.06132,23.55 -7.67403,28.5 -3.79868,11.6595 -7.25029,26.759 -9.82368,42.9749 -1.13248,7.1361 -3.3942,18.1514 -5.02604,24.4783 -1.63184,6.3268 -2.97257,13.9882 -2.9794,17.0251 -0.0156,6.9344 -3.97357,21.4551 -7.27251,26.681 -3.23207,5.1199 -11.25641,12.3058 -19.05024,17.0596 l -6.16483,3.7602 -14.55471,0.5748 c -13.59543,0.5369 -14.99464,0.7807 -21.22956,3.6984 -3.67116,1.7179 -8.59654,4.4433 -10.94529,6.0563 -2.34874,1.6131 -9.44544,5.5281 -15.77044,8.7001 -10.73587,5.3839 -12.24618,5.8541 -22.72995,7.0767 -6.17647,0.7202 -12.92647,1.7807 -15,2.3565 -2.07353,0.5758 -10.22704,1.0495 -18.11892,1.0525 -11.4913,0 -15.07599,-0.3367 -18,-1.713 -3.86325,-1.8185 -25.62698,-23.1356 -45.64851,-44.7118 -6.59856,-7.111 -17.17356,-17.121 -23.5,-22.2446 -17.69544,-14.331 -24.3388,-20.3198 -26.30579,-23.7137 -2.81455,-4.8564 -2.05802,-19.4416 1.35479,-26.1189 6.73062,-13.1689 17.34509,-31.1898 20.82494,-35.3559 5.36522,-6.4233 14.49225,-23.2832 16.97315,-31.3536 2.43715,-7.9281 3.96897,-11.027 9.76764,-19.76053 2.84886,-4.2907 4.98515,-9.0885 6.24367,-14.0224 2.94789,-11.5568 28.85042,-61.6286 40.59533,-78.47428 3.56927,-5.11939 8.09634,-12.50955 10.06016,-16.42259 3.47598,-6.92612 8.48349,-20.8042 8.48349,-23.51158 0,-0.74066 0.66968,-1.90244 1.48817,-2.58173 2.81649,-2.33748 2.83377,1.71363 0.0454,10.65678 -4.07937,13.08394 -6.67684,18.27245 -16.8647,33.68749 -9.96884,15.08367 -14.57793,23.3463 -29.3671,52.64591 -5.82779,11.5457 -9.92189,21.0229 -10.89129,25.2114 -1.09988,4.7524 -3.1597,9.1914 -7.05648,15.2069 -3.19023,4.9249 -6.97253,12.60653 -8.99914,18.27673 -3.98571,11.1515 -11.54658,25.1365 -18.13543,33.5443 -2.4737,3.1566 -7.41115,11.0316 -10.9721,17.5 -12.21809,22.1939 -11.70149,20.8634 -11.70849,30.156 l -0.006,8.3954 6.98372,6.4433 c 3.84105,3.5439 12.15872,10.6295 18.48372,15.7458 11.25309,9.1026 20.17911,17.9259 44.59818,44.0847 6.654,7.1281 15.39442,15.6546 19.42316,18.9478 l 7.32499,5.9877 15.07684,-0.086 c 8.29225,-0.048 16.90482,-0.6047 19.13904,-1.238 2.23421,-0.6334 8.42274,-1.6037 13.75227,-2.1564 8.80716,-0.9132 10.71278,-1.5177 20.91459,-6.6341 6.1735,-3.0961 12.58497,-6.6503 14.24773,-7.8981 1.66276,-1.2479 6.3982,-3.9664 10.5232,-6.0413 7.36994,-3.707 7.76468,-3.7856 22.76255,-4.531 14.81973,-0.7366 15.4145,-0.8517 20.5,-3.9685 11.88147,-7.2819 19.76062,-15.8844 21.59878,-23.5816 0.50759,-2.1255 1.64644,-6.5466 2.53078,-9.8247 0.88434,-3.2781 1.60789,-8.5588 1.60789,-11.7349 0,-3.2216 1.12441,-9.65 2.54323,-14.5399 1.39878,-4.8208 3.6854,-15.7401 5.0814,-24.2651 2.71743,-16.5947 6.29224,-32.7295 8.85193,-39.953 2.23416,-6.3048 8.93494,-31.4476 12.00541,-45.04703 1.42806,-6.325 4.42689,-17.6877 6.66406,-25.2505 2.23718,-7.5627 3.82705,-14.3773 3.53306,-15.1434 -0.33264,-0.8669 -2.92233,-1.6678 -6.85681,-2.1208 -9.59026,-1.104 -23.74095,-5.8336 -34.05993,-11.38396 -5.82004,-3.13045 -12.04969,-5.5937 -16.76235,-6.62796 -12.16153,-2.66902 -25.50545,-7.20061 -34.29017,-11.64492 -4.51569,-2.28481 -12.71011,-5.62505 -18.21011,-7.42317 l -10,-3.2693 -0.72087,24.68181 c -2.30373,78.87783 -3.47444,101.22493 -5.48857,104.76843 -0.91534,1.6104 -0.91266,3.6644 0.0117,9 0.65874,3.8024 1.14214,14.1198 1.07421,22.9275 l -0.12352,16.0142 -5.36865,12.7776 c -4.26426,10.1491 -5.83578,12.8948 -7.63947,13.3475 -4.69333,1.1779 -5.24485,-0.6586 -5.24485,-17.4656 0,-8.5621 0.45157,-18.0695 1.0035,-21.1276 3.3096,-18.3379 4.20572,-22.2789 5.97575,-26.2804 1.07909,-2.4394 2.89796,-5.6253 4.04193,-7.0796 1.62751,-2.069 1.93347,-3.425 1.40656,-6.2337 -0.57765,-3.0791 -0.38231,-3.6656 1.37381,-4.1249 2.49371,-0.6521 2.79384,-3.7629 4.0851,-42.34163 2.59055,-77.39679 2.60665,-79.87923 0.52301,-80.60986 -15.04207,-5.27456 -24.08282,-11.53901 -30.94641,-21.44317 -1.58352,-2.28502 -3.91056,-4.54674 -5.17119,-5.02603 -1.26061,-0.47929 -2.29204,-1.55653 -2.29204,-2.39387 0,-0.83734 -1.56738,-3.70412 -3.48307,-6.37062 -3.2962,-4.58807 -7.15813,-17.30995 -5.88168,-19.37529 1.21031,-1.95831 3.37719,-0.44868 4.30575,2.99974 0.55995,2.07949 1.68798,4.66699 2.50674,5.75 1.44655,1.9134 1.489,1.89839 1.50093,-0.5309 0.0336,-6.83888 -4.89599,-36.42521 -12.0226,-72.15708 -2.31339,-11.59907 -2.50124,-27.93534 -0.45238,-39.34292 1.57884,-8.79067 6.26356,-22.39151 10.22049,-29.67251 2.28003,-4.19538 13.23209,-14.45695 20.54096,-19.2459 3.0836,-2.02045 14.99992,-2.46133 17.19892,-0.63632 0.96162,0.79808 1.56594,0.88843 1.56594,0.23414 0,-0.58602 2.61412,-4.12862 5.80916,-7.87245 3.19504,-3.74383 6.82693,-8.27122 8.07087,-10.06086 4.29179,-6.17455 14.31712,-24.7751 18.71214,-34.71766 4.30345,-9.73544 4.40762,-10.22087 4.39905,-20.5 -0.008,-9.7586 -1.06922,-28.55966 -2.57864,-45.69037 -0.51773,-5.87587 -0.97058,-7.25073 -2.52182,-7.65638 -1.28301,-0.33552 -1.89076,-1.38905 -1.89076,-3.27766 0,-8.55595 27.22974,-23.23577 60.91411,-32.83938 15.56889,-4.43879 28.53279,-5.9033 47.69799,-5.38837 8.46334,0.22739 15.3879,0.23437 15.3879,0.0155 0,-0.21886 -2.07636,-2.70734 -4.61414,-5.52996 -2.53777,-2.82262 -5.01277,-6.18053 -5.5,-7.46203 -0.48722,-1.2815 -0.88044,-8.0382 -0.87381,-15.0149 0.0111,-11.7462 0.20041,-13.01445 2.55748,-17.13818 1.39999,-2.4493 4.2578,-5.91899 6.35069,-7.71043 2.57672,-2.20557 3.98462,-4.36245 4.36082,-6.68068 0.72906,-4.49267 6.7914,-12.84115 10.95169,-15.08161 3.77079,-2.0307 8.26727,-1.79901 8.26727,0.426 0,0.95823 -1.16254,1.61234 -3.21873,1.81103 -4.07847,0.3941 -10.77597,7.69295 -12.46416,13.58327 -0.72167,2.518 -3.19733,6.26204 -6.40191,9.68186 -6.2854,6.70759 -7.40216,10.17925 -7.40962,23.03429 -0.005,8.68522 0.24433,9.98492 2.59027,13.5 4.2027,6.29722 10.61138,12.50001 14.90415,14.42534 5.49718,2.46551 14.21406,3.38756 19.23748,2.0349 5.7169,-1.5394 8.18103,-5.08564 19.50511,-28.07069 10.72746,-21.77406 12.09696,-24.01735 13.69958,-22.44051 0.76592,0.7536 -1.45727,6.09488 -7.7002,18.5 -4.82736,9.59228 -9.35322,18.86657 -10.05747,20.60954 -1.94429,4.81199 -7.90162,12.13333 -11.30478,13.89317 -4.00657,2.07188 -19.92004,1.70841 -28.98218,-0.66197 -15.59689,-4.07966 -41.82463,-3.20473 -62.31625,2.07881 -20.85547,5.37736 -49.40082,17.55498 -56.4443,24.0795 l -3.36302,3.11522 1.07755,5.66312 c 0.59265,3.11472 1.55177,13.31312 2.13138,22.66312 0.5796,9.35 1.30949,20.26823 1.62198,24.26273 l 0.56815,7.26273 6.97562,-13.76273 c 3.83659,-7.5695 7.39766,-14.19023 7.91349,-14.71273 1.43477,-1.45334 1.1323,-3.74573 -1.06214,-8.05 -2.66401,-5.2253 -2.52816,-7.27562 0.83326,-12.57602 5.31819,-8.38591 19.73325,-13.74814 29.70915,-11.05144 4.84682,1.3102 10.08404,6.14831 12.58666,11.62746 2.16264,4.73483 2.28048,8.60546 0.42075,13.82018 -1.26281,3.54094 -1.2412,3.7105 0.29572,2.3196 4.13152,-3.73897 10.8178,-4.1122 8.54376,-0.47691 -0.46004,0.73542 -0.84833,2.00477 -0.86287,2.82077 -0.0145,0.81601 -0.92643,1.63043 -2.02643,1.80983 -2.51041,0.40942 -14.74117,4.53083 -19.83738,6.68462 -2.58561,1.09274 -4.22577,1.29943 -5.02802,0.63362 -0.65485,-0.54348 -4.25095,-1.18251 -7.99133,-1.42006 -4.87109,-0.30937 -7.61671,-1.03523 -9.67672,-2.55826 l -2.87603,-2.12634 -4.79526,9.24608 c -2.63739,5.08535 -6.70776,13.4415 -9.04526,18.56922 l -4.25,9.32315 0,20.92725 c 0,22.77996 -0.1896,22.11856 5.6849,19.83106 1.54831,-0.6029 9.3401,-2.81248 17.3151,-4.91018 7.975,-2.0977 19.675,-5.19408 26,-6.88083 6.325,-1.68675 18.7,-4.19756 27.5,-5.57957 14.55153,-2.28527 18.82184,-2.51367 47.17054,-2.52299 l 31.17055,-0.0102 0.53,-2.75 c 0.56791,-2.94674 1.79784,-45.0661 2.03677,-69.75 0.10852,-11.21107 0.61116,-16.64187 1.9899,-21.5 1.01458,-3.575 1.90264,-7.18713 1.97347,-8.02695 0.2026,-2.40242 4.88494,-6.88103 7.51854,-7.19141 3.31849,-0.39109 3.83552,1.99211 0.69151,3.18746 -3.20656,1.21913 -3.21668,1.74325 -0.0813,4.20956 1.375,1.08158 2.5,2.46734 2.5,3.07947 0,0.61213 0.98404,2.16043 2.18676,3.44066 1.67339,1.78124 1.91126,2.60319 1.01324,3.50121 -0.89802,0.89802 -1.76353,0.61922 -3.68676,-1.18756 -1.38226,-1.29859 -2.51322,-2.90253 -2.51322,-3.56431 0,-0.66178 -0.7093,-1.7919 -1.57622,-2.51138 -2.09671,-1.74013 -2.92715,-0.35919 -4.84892,8.06325 -1.37079,6.00771 -2.82758,45.29401 -3.01758,81.37724 l -0.0573,10.87723 17.5,6.16811 c 19.25505,6.7867 20.26766,7.24507 27.5,12.44815 17.96683,12.92566 30.74902,25.29929 29.02173,28.09411 -1.10703,1.79121 -2.05312,1.17648 -6.38498,-4.14873 -4.34779,-5.34479 -25.79125,-22.58 -32.08468,-25.7881 -3.25662,-1.66008 -34.96702,-13.02801 -36.34112,-13.02801 -0.32776,0 -0.73431,1.9125 -0.90343,4.25 -0.21521,2.97445 -0.7577,4.25 -1.8075,4.25 -1.16255,0 -1.42831,-1.03739 -1.18132,-4.61126 0.3093,-4.47542 0.2246,-4.63008 -2.875,-5.25 -1.75652,-0.35131 -14.49993,-0.6369 -28.31868,-0.63466 -21.59931,0.004 -27.5807,0.35949 -42.625,2.53685 -9.625,1.39302 -23.35,4.06986 -30.5,5.94852 -32.19135,8.45827 -39.99013,10.56285 -45.03658,12.1536 l -5.39055,1.69922 -0.28643,8.57887 c -0.2281,6.83168 -0.59193,8.57886 -1.78644,8.57886 -1.23553,0 -1.43855,-1.38384 -1.15148,-7.84866 0.34779,-7.83196 0.34353,-7.84718 -2,-7.15324 -4.51727,1.3376 -28.8078,14.75525 -32.34083,17.86449 -2.98704,2.62874 -3.80077,4.27232 -5.019,10.13741 -1.9039,9.16621 -1.92628,35.70466 -0.0455,54 0.79155,7.7 1.75258,22.6625 2.13561,33.25 0.38303,10.5875 0.97201,19.23566 1.30883,19.21812 0.69899,-0.0364 21.92522,-16.03348 33.04793,-24.9065 4.08954,-3.26239 9.48954,-6.67531 12,-7.58428 2.51046,-0.90896 12.21447,-5.42616 21.56447,-10.03821 l 17,-8.38554 16.44456,-2.5268 c 13.59211,-2.0885 20.01007,-2.52624 37,-2.5236 23.65073,0.004 34.53723,1.47738 45.92708,6.21711 14.67714,6.1077 26.6571,21.96102 35.72809,47.2797 2.6211,7.31595 2.86538,9.15434 2.85678,21.5 l -0.009,13.5 -4.3338,9.5 c -2.3836,5.225 -4.64015,10.85 -5.01456,12.5 -0.73781,3.2515 -3.36166,4.0889 -3.90886,1.24751 -0.18562,-0.96386 2.00739,-7.21657 4.87336,-13.8949 5.17421,-12.05701 5.2111,-12.21699 5.24633,-22.74751 0.0312,-9.31968 -0.34483,-11.72056 -3.10221,-19.808 -6.64068,-19.47724 -16.37606,-34.7261 -26.7175,-41.84852 -6.52723,-4.49547 -17.23761,-7.90807 -29.7311,-9.47308 -12.60895,-1.57947 -43.17965,-0.78264 -55.25877,1.44032 -4.95,0.91096 -11.475,2.08958 -14.5,2.61915 -3.4312,0.60068 -11.89447,4.13143 -22.5,9.38667 -9.35,4.6331 -18.62389,8.9225 -20.60866,9.53199 -1.98476,0.6095 -7.38476,4.22546 -12,8.03547 -4.61523,3.81002 -14.41276,11.28245 -21.77227,16.60541 l -13.38093,9.6781 0.70716,7.1137 c 1.95967,19.71312 2.57044,26.9516 4.10193,48.61369 0.91379,12.925 1.95199,23.78151 2.3071,24.12559 0.35512,0.34407 5.14567,2.09532 10.64567,3.89168 5.5,1.79635 13.50869,5.01801 17.7971,7.15925 9.05378,4.52064 21.44987,8.79428 34.1903,11.78735 5.71903,1.34356 12.01682,3.74937 17.31771,6.61551 4.58167,2.47726 12.35901,5.85382 17.28298,7.50352 10.07944,3.3769 21.94213,5.2328 22.37101,3.4998 1.36543,-5.5172 2.26394,-7.0827 4.06498,-7.0827 1.62073,0 2.0325,0.7907 2.29069,4.3989 l 0.31478,4.3989 12.18522,-0.581 c 11.29227,-0.5385 13.10125,-0.9194 24.68523,-5.198 16.43251,-6.06942 38.55894,-20.14413 54.99219,-34.98076 3.6783,-3.32092 10.69732,-9.28404 15.59781,-13.25137 11.93357,-9.66113 18.63474,-17.4305 20.88793,-24.21754 0.99162,-2.98698 2.62329,-6.82124 3.62593,-8.52058 1.00263,-1.69934 2.46577,-4.91159 3.25141,-7.13834 0.78564,-2.22674 3.4651,-8.29248 5.95435,-13.47942 4.70737,-9.80889 7.7675,-18.21059 10.3553,-28.43079 0.83557,-3.3 2.36185,-8.925 3.39173,-12.5 1.02988,-3.575 2.59746,-11.9 3.4835,-18.5 0.88605,-6.6 2.13949,-15.15 2.78542,-19 0.64594,-3.85 1.13815,-12.48757 1.0938,-19.1946 l -0.0806,-12.19459 -5.91937,-12.28831 c -3.25565,-6.75858 -7.4521,-14.00328 -9.32543,-16.09935 -2.60515,-2.91489 -3.1303,-4.08679 -2.23333,-4.98376 2.04818,-2.04818 7.49107,4.87844 14.24876,18.13297 l 6.30793,12.37236 0.40863,12.27429 c 0.30097,9.04052 -0.16121,16.31926 -1.75429,27.62764 -3.57593,25.38359 -4.23863,29.20908 -5.65807,32.6615 -0.74806,1.81949 -1.66339,5.64449 -2.03406,8.5 -0.37066,2.85552 -1.95769,8.41681 -3.52672,12.35844 -1.56904,3.94162 -2.85279,7.76621 -2.85279,8.49909 0,0.73288 -2.73491,7.18292 -6.07758,14.33342 -10.56312,22.59616 -11.1361,23.8872 -13.04102,29.38439 -1.378,3.97659 -3.62161,7.17863 -8.58515,12.25257 -3.6958,3.778 -7.01607,7.43043 -7.37838,8.11651 -1.29344,2.44926 -4.88407,24.50948 -6.46948,39.74743 -0.88698,8.525 -2.00139,31.7 -2.47649,51.5 -0.58885,24.54113 -1.51609,41.72953 -2.91308,54.00003 -1.12711,9.9 -2.50984,27.225 -3.07274,38.5 -0.5629,11.275 -1.44544,22.525 -1.96121,25 -1.78172,8.5498 -1.16801,24.9208 1.46562,39.0956 1.97855,10.649 2.49245,16.6521 2.5,29.2041 0.0105,17.4105 -0.49963,19.4266 -6.10963,24.1471 -2.64065,2.222 -4.02251,2.6409 -8.01258,2.4291 -2.65188,-0.1407 -5.13211,0.055 -5.51161,0.4341 -0.77213,0.7721 -2.23732,0.782 -4.10667,0.028 z m 15.60652,-5.8704 c 1.65549,-1.393 3.54406,-4.151 4.19682,-6.1289 1.76648,-5.3525 0.62847,-30.4915 -1.95216,-43.1239 -1.15565,-5.657 -2.10118,-12.5195 -2.10118,-15.25 0,-5.4549 -0.7474,-6.1291 -3.00945,-2.7145 -1.20382,1.8172 -1.58989,7.9247 -2.00695,31.75 -0.42955,24.5383 -0.79531,30.1209 -2.17465,33.1918 -1.20819,2.6898 -1.33944,3.8218 -0.4836,4.171 2.57024,1.0487 4.65605,0.5237 7.53117,-1.8955 z m -10.34951,-4.2185 c 1.29745,-3.6367 1.81603,-9.5496 2.2144,-25.2488 0.2861,-11.275 0.27116,-20.2678 -0.0332,-19.9841 -1.20314,1.1217 -4.68479,26.2086 -5.32824,38.3925 -0.73312,13.8819 0.0374,15.5567 3.14704,6.8404 z m -223.96477,-89.1254 c 2.35981,-5.4771 4.55459,-12.358 4.87731,-15.2909 1.75531,-15.9528 1.75475,-19.888 -0.004,-28.9897 l -1.7988,-9.3082 -2.38269,5.2509 c -3.38245,7.4542 -7.18095,31.8445 -7.21033,46.2978 -0.0213,10.4754 0.44777,13.7787 1.76895,12.4575 0.25255,-0.2525 2.38993,-4.9404 4.74974,-10.4174 z m 9.11708,-207.37343 c -0.70357,-14.37053 -4.72017,-60.9819 -5.31484,-61.6771 -0.50585,-0.59136 -6.26197,4.98451 -7.66719,7.4271 -0.63283,1.1 -1.38161,5.15 -1.66395,9 -0.39068,5.3274 -0.87175,7 -2.01334,7 -1.09016,0 -1.58847,-1.36614 -1.82381,-5 -0.50362,-7.77657 1.3263,-12.155 7.97294,-19.07678 l 5.95705,-6.20365 -1.03845,-20.85979 c -0.57114,-11.47288 -1.54358,-26.70978 -2.16097,-33.85978 -0.61739,-7.15 -0.96148,-22.7306 -0.76465,-34.62357 0.2648,-15.99915 0.0591,-21.50866 -0.79096,-21.18182 -3.12432,1.20132 -1.96333,-5.07001 1.29483,-6.9943 2.62121,-1.5481 1.3066,-2.70031 -3.08088,-2.70031 -2.4392,0 -5.55703,0.42663 -6.92853,0.94808 -3.59508,1.36684 -19.40176,15.69717 -21.24412,19.2599 -3.49382,6.75631 -8.49603,22.48316 -9.8953,31.11061 -2.2192,13.68295 -1.89044,19.15266 2.59789,43.22154 7.37937,39.57229 8.85526,48.55517 10.49096,63.8526 l 1.61538,15.10727 5.36245,7.16942 c 6.95842,9.30318 12.71814,14.08921 21.67388,18.00991 3.99426,1.74864 7.4441,3.21114 7.66631,3.25 0.22221,0.0389 0.1121,-5.89183 -0.2447,-13.17933 z m 35.02199,-227.89003 0.1813,-17.35997 -3.2944,7.01515 c -4.90215,10.43874 -15.08561,28.09761 -20.50869,35.56359 l -4.77861,6.57874 14.10954,-7.21876 14.10955,-7.21877 0.18131,-17.35998 z m 32.23536,-63.22452 c -0.22917,-0.2005 -1.54167,-0.90032 -2.91667,-1.55516 -2.35727,-1.12265 -2.38918,-1.10183 -0.55887,0.36454 1.593,1.27626 4.84786,2.39128 3.47554,1.19062 z m 20.32162,-1.60825 c 5.22479,-4.10982 7.31485,-13.15357 4.35099,-18.82686 -0.7759,-1.48519 -2.80871,-4.02951 -4.51735,-5.65405 -4.3306,-4.11744 -13.33775,-4.7781 -20.88397,-1.5318 -9.54804,4.10746 -14.58932,12.3192 -10.76972,17.54281 1.69889,2.32337 1.24081,2.78403 6.87344,-6.91225 2.50964,-4.32022 5.49647,-8.50879 6.6374,-9.30793 2.18862,-1.53297 4.44014,-0.94477 3.79476,0.99136 -0.20995,0.62986 1.35823,1.9242 3.48485,2.87632 4.61799,2.06753 7.04824,6.91008 6.59419,13.13965 -0.41527,5.69755 -3.19206,5.81856 -3.56942,0.15555 -0.44892,-6.73684 -1.14865,-8.40478 -4.1846,-9.97473 -3.35344,-1.73414 -5.70746,-1.1763 -6.57534,1.55816 -0.76523,2.41103 0.18166,3.98612 1.98119,3.29558 0.76486,-0.29351 2.37769,0.45339 3.58407,1.65977 1.71793,1.71793 2.08594,2.99469 1.69764,5.88966 -0.42751,3.18737 -0.13372,3.91602 2.13391,5.29248 3.6127,2.19293 6.40729,2.13514 9.36796,-0.19372 z m -22.11551,-7.84868 -0.62278,-4.32147 -1.7663,3.00335 c -1.72716,2.93681 -1.71741,3.0376 0.43967,4.54848 1.21328,0.84981 2.28836,1.44297 2.38908,1.31812 0.10071,-0.12485 -0.0971,-2.17166 -0.43967,-4.54848 z m 6.46562,-0.92346 c -1.07549,-1.07549 -1.64645,0.43075 -0.89148,2.35181 0.7082,1.80207 0.76169,1.80519 1.11193,0.0649 0.20237,-1.00555 0.10317,-2.09305 -0.22045,-2.41667 z m 348.4116,599.94497 c 0,-0.99 0.39892,-2.2275 0.8865,-2.75 0.8315,-0.8911 5.64314,-9.0524 22.37402,-37.95 11.55688,-19.9611 29.82037,-57.7524 28.5325,-59.0403 -0.18575,-0.1858 -3.18773,3.2088 -6.67108,7.5433 -3.48334,4.3346 -10.53702,11.5541 -15.67483,16.0432 -5.13781,4.4892 -9.99734,9.1277 -10.79894,10.308 -1.14056,1.6792 -1.72795,1.8852 -2.70147,0.9471 -1.53164,-1.4758 0.74094,-5.343 5.42897,-9.2384 12.03927,-10.0038 20.62501,-19.2153 30.11783,-32.3129 12.47941,-17.2183 8.91687,0.1099 -6.63008,32.2488 -7.4487,15.398 -7.72706,16.1988 -4.1723,12.0022 2.09489,-2.4731 7.8094,-8.7649 12.69893,-13.9818 4.88953,-5.2169 10.02444,-11.1995 11.41091,-13.2946 2.79107,-4.2176 5.87062,-4.6944 5.44477,-0.843 -0.13985,1.2648 -4.26613,7.9964 -9.16951,14.959 -4.90338,6.9627 -9.22525,13.8969 -9.60414,15.4094 -1.22478,4.8892 2.83554,3.2932 12.04079,-4.7329 4.72024,-4.1155 12.27559,-10.3668 16.78967,-13.8916 4.69664,-3.6674 9.15822,-8.1006 10.4302,-10.3638 l 2.22281,-3.9549 -2.58257,-2.4034 c -2.34408,-2.1815 -2.53581,-2.9303 -2.0765,-8.1102 0.29633,-3.3419 1.49914,-7.486 2.90247,-10 2.0982,-3.759 2.7983,-4.2745 5.6263,-4.1428 1.7765,0.083 3.8925,0.7004 4.7023,1.3725 2.1182,1.7579 1.8185,9.6176 -0.5673,14.876 -2.1495,4.7376 -2.1302,4.8366 1.272,6.5232 5.4994,2.7263 3.1037,10.3321 -8.7161,27.6717 -4.62735,6.7883 -8.24187,12.5138 -8.03226,12.7234 0.61642,0.6164 9.70696,-4.6084 14.99006,-8.6156 4.3063,-3.2662 5.1329,-4.5249 7.0281,-10.7016 2.5061,-8.1675 4.4246,-12.071 8.0505,-16.3801 2.8847,-3.4282 7.0976,-4.1951 8.1389,-1.4816 1.1977,3.1212 -3.0218,12.6373 -8.4302,19.0124 -5.4346,6.4061 -6.1119,8.0986 -4.0612,10.1493 3.469,3.4691 11.8816,-0.7567 20.6985,-10.3972 7.9974,-8.7444 13.2577,-14.5966 16.4138,-18.2605 2.7427,-3.1841 5.6234,-3.8393 6.4158,-1.4592 0.2167,0.6507 -1.7092,3.1257 -4.2798,5.5 -4.7281,4.3673 -9.4207,12.5428 -9.4386,16.4445 -0.026,5.6755 6.8343,4.8243 14.6129,-1.813 8.5379,-7.2851 17.403,-16.1644 21.0309,-21.0646 3.4815,-4.7023 5.7773,-5.9179 6.6105,-3.5 0.4287,1.244 -3.1297,15.699 -5.1855,21.0651 -1.6659,4.3482 -1.3738,7.6865 0.6714,7.6751 3.4584,-0.019 11.874,-4.8659 18.4469,-10.6238 8.7613,-7.6748 16.8031,-17.5053 16.8031,-20.5403 0,-1.3096 0.7006,-3.3812 1.5568,-4.6036 1.6705,-2.3851 5.3687,-3.0321 5.5584,-0.9725 0.2415,2.6212 -0.3498,5.1785 -1.6595,7.1773 -1.1792,1.7998 -1.0792,2.6676 0.7579,6.5731 1.5792,3.3572 2.1381,6.567 2.2015,12.6424 l 0.085,8.1428 3.5,-1.8012 c 1.925,-0.9907 4.6744,-3.0799 6.1098,-4.6428 3.6467,-3.9705 10.4073,-14.2502 12.211,-18.5671 1.7755,-4.2492 4.3054,-5.8683 7.3638,-4.7127 5.6974,2.1526 5.4662,9.0747 -0.7458,22.3289 -2.2918,4.8898 -4.3998,10.6273 -4.6845,12.75 -0.45,3.3549 -0.2586,3.8593 1.464,3.8593 5.789,0 25.7213,-20.7749 33.4852,-34.9006 2.2985,-4.182 5.2079,-4.2493 4.2965,-0.099 -0.5646,2.5703 -0.366,3 1.3866,3 1.125,0 3.6079,-0.745 5.5174,-1.6556 3.1803,-1.5166 3.6756,-1.5223 5.8954,-0.068 2.3737,1.5553 3.7006,5.3459 3.7006,10.5716 0,2.3917 0.5385,2.0638 6.7751,-4.125 10.4555,-10.3754 12.7693,-8.4584 7.6667,6.3516 -1.4071,4.0839 -2.8696,10.1252 -3.25,13.4252 -0.5026,4.3592 -1.102,6 -2.1918,6 -2.6598,0 -2.2836,-7.2973 0.8965,-17.3871 l 2.9586,-9.3871 -4.5225,4.3871 c -2.4874,2.4129 -6.2966,6.9746 -8.4648,10.1371 -2.1683,3.1625 -4.349,5.75 -4.846,5.75 -1.8001,0 -1.9787,-1.8589 -0.5152,-5.3616 1.633,-3.9083 1.9919,-14.3026 0.5713,-16.5466 -0.758,-1.1974 -1.4144,-1.16 -4.3858,0.25 -1.9219,0.912 -3.9889,1.6582 -4.5933,1.6582 -0.6704,0 -1.101,2.2418 -1.1044,5.75 -0.01,7.4143 -1.4379,12.4352 -4.6217,16.2189 -5.1033,6.0649 -12.1391,2.7813 -11.0729,-5.1676 l 0.5692,-4.2436 -7.1845,7.5136 c -7.8274,8.1859 -15.0935,12.5448 -19.1954,11.5153 -4.9801,-1.2499 -4.2057,-7.815 2.6744,-22.6751 2.9332,-6.3352 3.8925,-9.5944 3.6565,-12.4227 -0.4301,-5.1526 -2.4744,-5.5601 -4.4287,-0.8829 -1.9935,4.7711 -8.7041,14.8646 -12.7792,19.2212 -1.7117,1.83 -5.8121,4.8546 -9.1121,6.7214 -4.5414,2.5691 -6.4667,4.3781 -7.9199,7.4413 -3.1076,6.5509 -8.316,12.0102 -11.458,12.0102 -5.9735,0 -6.933,-5.556 -1.7962,-10.4006 1.8293,-1.7253 5.4001,-4.2372 7.9352,-5.582 3.8988,-2.0683 4.7733,-3.0969 5.674,-6.6741 1.5234,-6.0499 1.3154,-12.6767 -0.5437,-17.3231 -0.8847,-2.2111 -1.8972,-3.9946 -2.25,-3.9634 -0.3528,0.031 -2.8715,2.7994 -5.5971,6.1514 -9.37,11.5234 -23.0809,20.711 -31.5347,21.1311 -5.2397,0.2604 -5.8658,-1.9115 -3.3398,-11.5857 1.1853,-4.5395 2.5018,-9.1536 2.9256,-10.2536 0.4239,-1.1 -4.2423,2.7879 -10.3691,8.6399 -11.4824,10.9668 -17.519,14.8599 -23.0421,14.8599 -3.9319,0 -7.1842,-3.0433 -7.1842,-6.7225 0,-2.7006 -0.012,-2.7053 -1.4944,-0.589 -2.252,3.2152 -13.0115,10.9933 -17.0515,12.3266 -4.2644,1.4074 -7.7087,0.7014 -10.336,-2.1187 l -1.9373,-2.0794 -7.571,5.1089 c -4.164,2.8098 -8.79967,5.576 -10.30139,6.1469 -3.73923,1.4217 -7.30846,0.3897 -7.30846,-2.113 0,-1.1011 3.88088,-7.6508 8.62417,-14.5549 8.30008,-12.0811 13.05188,-21.5021 11.83678,-23.4681 -0.3184,-0.5152 -1.5657,-0.9368 -2.7717,-0.9368 -1.585,0 -2.868,1.273 -4.6297,4.5938 -1.7373,3.2748 -5.75645,7.3029 -13.99827,14.0295 -6.3587,5.1896 -14.16486,11.6678 -17.34701,14.3961 -6.43503,5.5171 -9.68386,6.7711 -13.28801,5.129 -3.16472,-1.442 -3.13174,-4.4912 0.11626,-10.7495 l 2.54252,-4.8989 -3.55534,4 c -8.48114,9.5418 -23.86709,30.8623 -29.58767,41 -12.44636,22.0566 -18.94203,30.5269 -18.94203,24.7 z m 210.03655,-55.2461 c 1.7625,-2.2254 3.0122,-4.2385 2.7772,-4.4735 -0.9935,-0.9935 -7.8137,4.7287 -7.8137,6.5557 0,2.995 1.5096,2.3709 5.0365,-2.0822 z m 70.1878,-15.0526 c 1.0154,-1.36 2.3412,-5.4606 2.9464,-9.1126 1.0838,-6.5406 0.7517,-9.7887 -1.0007,-9.7887 -1.3292,0 -7.17,14.5087 -7.17,17.8105 0,4.933 2.038,5.3585 5.2243,1.0908 z m -161.72,-13.5518 c 0.9391,-2.4591 1.5017,-4.6768 1.2501,-4.9284 -0.6836,-0.6836 -5.4274,6.5087 -7.3073,11.0789 l -1.6453,4 2.9975,-2.8398 c 1.6486,-1.5619 3.7659,-4.8517 4.705,-7.3107 z m -19.3463,-25.3809 c 0.3001,-3.9211 0.082,-4.5057 -1.7784,-4.7712 -3.9129,-0.5583 -7.4246,12.6337 -4.3495,16.339 1.2038,1.4504 1.5924,1.1525 3.5684,-2.7357 1.2196,-2.3999 2.3714,-6.3743 2.5595,-8.8321 z m -181.26978,73.142 c -2.27933,-1.8457 -2.30503,-2.0543 -1.11081,-9.0184 0.67237,-3.921 2.88324,-12.1832 4.91306,-18.3606 2.02981,-6.1774 3.77863,-12.4981 3.88625,-14.046 0.10762,-1.548 1.06275,-3.798 2.1225,-5 1.05975,-1.2021 3.89398,-6.9106 6.29829,-12.6856 9.34403,-22.4438 17.22511,-39.4965 20.61178,-44.5988 5.73941,-8.6468 13.18856,-11.7641 14.93824,-6.2513 1.26347,3.9809 -0.69187,10.6816 -6.40523,21.95 -9.49967,18.7362 -16.75822,29.7745 -24.26687,36.9035 -5.90095,5.6025 -7.33194,7.6861 -10.33109,15.0424 -3.4777,8.5302 -8.14736,24.8028 -8.73392,30.4356 -0.38767,3.7229 1.67573,4.3308 6.66455,1.9634 5.78235,-2.7439 21.86379,-18.7331 27.88327,-27.7233 8.91556,-13.3156 13.44848,-17.2734 15.03835,-13.1303 1.03711,2.7027 -2.54404,8.5786 -10.00062,16.4088 -6.84286,7.1858 -13.97155,18.7734 -13.12033,21.3271 0.57879,1.7364 13.35398,-10.9697 14.72652,-14.6469 4.28271,-11.4738 6.98423,-15.6802 10.07037,-15.6802 2.92991,0 2.38096,2.4651 -2.57258,11.5525 -4.58038,8.4028 -5.24375,11.3611 -3.54787,15.8216 1.72294,4.5317 4.58446,5.1503 10.24322,2.2144 4.71255,-2.445 6.80465,-2.6207 6.80465,-0.5716 0,1.7396 -8.68748,5.9831 -12.24896,5.9831 -2.76245,0 -4.16069,-0.6981 -6.16215,-3.0767 -1.42389,-1.6922 -2.58889,-4.1672 -2.58889,-5.5 0,-2.5748 -1.45192,-3.294 -2.28214,-1.1304 -1.01334,2.6407 -11.55735,9.8677 -13.91018,9.5342 -2.99677,-0.4248 -3.54635,-4.4953 -1.21655,-9.0107 1.50795,-2.9226 0.93579,-2.5918 -4.81818,2.7854 -6.2784,5.8674 -13.67626,10.3982 -16.97789,10.3982 -0.86542,0 -2.62348,-0.8502 -3.90679,-1.8894 z m 30.87101,-69.6106 c 8.74692,-14.0525 17.24072,-31.7409 17.24072,-35.9041 0,-1.9778 -0.35867,-3.5959 -0.79705,-3.5959 -1.92548,0 -8.30371,8.1052 -11.62915,14.7779 -3.79221,7.6093 -17.5738,38.9951 -17.5738,40.0221 0,1.9367 8.00583,-7.6633 12.75928,-15.3 z m 239.68687,-17.5871 c -1.0305,-1.6675 1.2872,-3.5795 2.6667,-2.2 1.1539,1.1539 0.4317,3.2871 -1.1128,3.2871 -0.4851,0 -1.1844,-0.4892 -1.5539,-1.0871 z m 62.0835,-5.8649 c -1.1315,-1.8309 0.3853,-2.9127 5.0688,-3.615 4.6487,-0.6972 7.8122,0.6275 5.8515,2.4501 -1.5346,1.4267 -10.188,2.3497 -10.9203,1.1649 z m 39.917,-11.1344 c -0.7971,-1.2896 4.682,-7.1951 9.3766,-10.1064 2.6075,-1.617 3.5766,-1.7976 4.5,-0.8386 0.9085,0.9435 0.7209,1.5331 -0.8232,2.5862 -1.1,0.7502 -4.007,3.1823 -6.46,5.4046 -4.7582,4.3107 -5.5389,4.6605 -6.5934,2.9542 z m -160.2357,-67.04253 c -1.9497,-0.5623 -3.7468,-1.953 -4.413,-3.4152 -0.9955,-2.185 -0.2599,-4.151 6.4403,-17.2113 4.1603,-8.1095 9.8172,-19.9196 12.5709,-26.2446 2.7538,-6.325 6.6664,-15.1 8.6948,-19.5 5.7966,-12.57436 18.3136,-41.89347 21.1362,-49.50825 4.0791,-11.00484 6.8211,-11.61136 6.1697,-1.36469 -0.2426,3.81446 -0.6709,4.84595 -1.972,4.74869 -1.1071,-0.0828 -2.2463,1.42011 -3.4112,4.5 -2.0003,5.28884 -15.8329,37.0157 -26.4316,60.62425 -3.9506,8.8 -10.1073,21.7538 -13.6814,28.7862 -7.2995,14.362 -7.2944,15.7267 0.059,15.6973 8.9136,-0.035 15.8315,-7.1854 17.5655,-18.1547 0.9722,-6.1501 -0.2083,-9.6076 -3.5684,-10.4509 -3.4383,-0.863 -4.7194,-2.8427 -2.8456,-4.3978 1.2054,-1.0004 4.5881,-1.1037 15.2623,-0.4661 7.5426,0.4505 16.0762,0.7567 18.9637,0.6804 5.9451,-0.1571 6.5354,0.8255 2.8543,4.7509 -4.404,4.6963 -13.7113,19.2624 -13.3664,20.9188 0.5031,2.4172 5.301,1.725 9.3268,-1.3456 3.2571,-2.4843 11.4354,-14.8759 11.4354,-17.3267 0,-1.3301 2.6069,-1.6367 3.3733,-0.3968 0.2702,0.4373 -0.6475,4.083 -2.0395,8.1016 -2.7947,8.0684 -2.2863,10.3276 1.889,8.3954 2.8829,-1.3341 19.7772,-16.1396 19.7772,-17.332 0,-1.4135 3.7004,-3.0122 5.4331,-2.3473 0.8885,0.341 1.8547,2.3354 2.2111,4.564 l 0.633,3.9585 3.6114,-3.5116 c 4.6427,-4.5145 17.0032,-12.6236 19.2419,-12.6236 2.1057,0 5.8695,4.5752 5.8695,7.1349 0,1.3079 0.7251,1.8651 2.4273,1.8651 1.335,0 5.4824,1.5924 9.2165,3.5387 l 6.7891,3.5388 1.7708,-2.2888 c 5.0759,-6.5605 12.8821,-24.07492 27.7284,-62.21352 5.4932,-14.11134 11.208,-27.89943 12.6998,-30.64021 2.8889,-5.30793 6.2214,-7.13153 8.9278,-4.88546 2.106,1.74787 1.6318,11.45049 -0.5597,11.45049 -1.0164,0 -1.5528,-1.12838 -1.6639,-3.5 -0.2602,-5.55874 -0.3036,-5.61883 -2.3147,-3.20688 -1.0515,1.26121 -6.2789,13.41121 -11.6163,27 -17.6846,45.02369 -23.3805,57.91468 -29.585,66.95688 -3.5823,5.2206 -5.7843,5.416 -13.2914,1.1793 -3.354,-1.8928 -6.493,-2.9476 -8.184,-2.75 -2.4086,0.2816 -2.9891,1.0917 -4.7593,6.6418 -1.8363,5.7576 -1.8808,6.5599 -0.4991,9 1.3876,2.4504 2.0398,2.6783 7.6477,2.6719 l 6.1307,-0.01 7.7372,-7.493 c 4.2554,-4.1211 10.4734,-10.2616 13.8176,-13.6455 3.3443,-3.3838 7.0929,-6.4516 8.3305,-6.8173 1.8216,-0.5384 2.25,-1.388 2.25,-4.4627 0,-4.99718 3.1494,-9.0675 7.0159,-9.0675 4.4747,0 5.9841,3.09693 5.9841,12.279 l 0,7.8341 2.9745,-1.7571 c 1.636,-0.9664 4.3639,-3.6918 6.0621,-6.0565 3.1429,-4.3764 4.3507,-5.1 5.4754,-3.2802 1.0121,1.638 -6.2887,10.7272 -10.5325,13.1124 -2.7968,1.5718 -4.0692,3.0555 -4.5259,5.2774 -0.8563,4.1666 -8.0572,16.3084 -10.4228,17.5744 -3.3633,1.8 -6.8733,1.1866 -8.6401,-1.5099 -2.194,-3.3484 -1.3593,-9.3073 2.6106,-18.6363 1.6696,-3.9235 2.8723,-7.297 2.6726,-7.4967 -0.1997,-0.1997 -6.6145,5.7172 -14.2551,13.1487 -14.8975,14.4896 -17.5544,16.0897 -25.2874,15.228 -3.5862,-0.3995 -5.1766,-1.1897 -7.0473,-3.5014 l -2.4157,-2.9855 -4.3322,5.8848 c -2.3827,3.2366 -4.7565,5.8848 -5.2752,5.8848 -2.5595,0 -1.7731,-2.6071 2.4941,-8.2688 4.5436,-6.0285 5.7594,-8.2923 8.4491,-15.7312 1.8058,-4.9942 2.3957,-11 1.1981,-12.1976 -1.4889,-1.489 -10.0074,3.4247 -17.1627,9.8998 -3.2638,2.9536 -8.0174,8.5039 -10.5637,12.334 -2.5462,3.8301 -5.0184,6.9638 -5.4937,6.9638 -2.1807,0 -1.7624,-2.3857 1.4946,-8.525 2.1035,-3.9651 3.5231,-8.0578 3.5231,-10.1568 l 0,-3.5158 -7.5013,7.0055 c -13.6417,12.7398 -18.6332,14.9608 -22.5442,10.0309 -1.5275,-1.9255 -1.5675,-1.9238 -3.4342,0.1388 -2.4569,2.7149 -7.3013,5.5961 -10.7914,6.4183 -2.1591,0.5086 -3.3239,0.1 -5.2743,-1.8504 -3.3708,-3.3708 -2.6479,-5.9079 4.7143,-16.5455 l 5.8828,-8.5 -9.2758,-1.1644 c -5.1017,-0.6405 -10.7499,-1.203 -12.5515,-1.25 l -3.2757,-0.086 1.6477,3.1863 c 3.55,6.865 -0.763,21.8186 -7.8318,27.1535 -3.1712,2.3933 -9.7226,4.736 -12.7646,4.5644 -0.825,-0.046 -2.98,-0.5114 -4.789,-1.0331 z m 165.5242,-10.2222 c 3.7533,-4.2748 7.633,-12.2472 6.8954,-14.1694 -0.3122,-0.8137 -1.3919,-1.4795 -2.3991,-1.4795 -1.0073,0 -2.3901,-0.5587 -3.073,-1.2416 -1.5311,-1.5311 -2.3125,-0.4654 -5.1538,7.0291 -2.6909,7.0977 -2.6638,13.2125 0.058,13.2125 0.4014,0 2.0539,-1.508 3.6721,-3.3511 z m 8.2649,-25.9578 c 0,-8.30661 -1.6505,-12.05601 -4.3286,-9.83337 -0.8497,0.70523 -1.8503,3.72567 -2.2234,6.71197 -0.7691,6.1556 1.1059,10.4303 4.5751,10.4303 1.7889,0 1.9769,-0.6951 1.9769,-7.3089 z m -225.50005,35.5902 c -3.49798,-0.8412 -6.5,-4.4128 -6.5,-7.7331 0,-3.6887 1.55823,-6.1558 8.668,-13.724 7.7705,-8.2714 6.98667,-12.8242 -2.20791,-12.8242 -2.01927,0 -6.37364,-0.7002 -9.67637,-1.556 -3.30273,-0.8559 -6.23235,-1.3287 -6.51026,-1.0508 -0.27792,0.2779 -0.80908,1.9906 -1.18038,3.8061 -0.3922,1.9176 -1.28643,3.3007 -2.13408,3.3007 -2.13228,0 -2.40034,-5.1775 -0.42421,-8.1934 1.55805,-2.3779 2.05376,-2.5155 6.82266,-1.8937 17.1151,2.2314 20.85378,3.1297 22.74473,5.465 3.76147,4.6451 2.4811,7.808 -7.49875,18.5247 -5.88725,6.3219 -6.55615,8.4075 -3.49216,10.8886 5.36871,4.3473 18.27828,-0.6367 29.11618,-11.2408 6.4669,-6.3276 9.7726,-8.4576 9.7726,-6.2972 0,0.4143 -1.5942,2.9954 -3.5426,5.7358 -4.5243,6.3636 -2.5374,7.5364 2.621,1.547 3.8942,-4.5215 5.4131,-8.4091 6.4679,-16.5541 0.707,-5.4602 -0.9609,-8.7075 -5.082,-9.8944 -1.7125,-0.4931 -2.5446,0.4458 -5.2407,5.9131 -1.7627,3.5747 -3.6326,6.4994 -4.1553,6.4994 -2.1924,0 -1.946,-2.2537 0.9068,-8.2916 1.6637,-3.5211 3.0249,-6.85981 3.0249,-7.41924 0,-0.55944 1.817,-2.27635 4.0377,-3.81536 3.1687,-2.1959 4.2988,-2.53642 5.25,-1.58201 0.9503,0.95334 0.7029,1.60104 -1.1442,2.99679 l -2.3564,1.7806 3.1446,1.30256 c 1.7296,0.71641 3.5775,2.11126 4.1065,3.09966 1.4524,2.7139 1.1537,12.9191 -0.5455,18.6412 -2.8436,9.5752 -14.9892,19.3691 -17.1234,13.8076 -0.456,-1.1883 -1.4654,-0.8622 -5.1245,1.6554 -7.2861,5.0129 -17.79521,8.2961 -22.74485,7.1057 z m -94.09463,-6.7854 c -2.06229,-3.1474 -0.91676,-8.3928 4.24951,-19.4584 1.93547,-4.1456 5.09232,-12.0138 7.01522,-17.4848 3.79469,-10.79665 6.38693,-16.3052 12.16947,-25.86028 2.06114,-3.40583 5.57693,-10.01742 7.81286,-14.69242 2.23594,-4.675 7.71951,-14.50322 12.18573,-21.84049 4.46621,-7.33727 9.11869,-16.07841 10.33883,-19.42477 3.11634,-8.54685 11.72237,-17.58841 21.19122,-22.26365 12.49694,-6.17035 18.07102,-5.7312 22.96012,1.80891 4.12382,6.35988 5.06671,11.00298 5.12154,25.22 0.0451,11.68982 -0.23062,13.81739 -2.7355,21.11041 -3.206,9.3343 -5.66132,13.41748 -15.56806,25.88959 -3.93184,4.95 -8.3295,10.50897 -9.77259,12.35327 -3.63141,4.64104 -8.53586,6.50048 -15.48387,5.87046 -7.95829,-0.72163 -14.09016,-3.69374 -16.85697,-8.17053 l -2.28727,-3.70088 -1.73092,3.86612 c -0.952,2.12637 -3.20682,7.8971 -5.0107,12.82384 -4.33753,11.84662 -12.23984,27.62992 -17.25215,34.45772 -8.96749,12.2156 -13.02141,14.5706 -16.34647,9.4959 z m 12.54061,-10.4565 c 5.81154,-7.8797 13.12979,-22.2527 17.5794,-34.52574 1.79736,-4.95751 4.4537,-11.68943 5.90299,-14.95981 1.44929,-3.27038 2.37384,-6.62689 2.05457,-7.45891 -0.33104,-0.86267 0.27098,-2.175 1.40092,-3.05384 2.331,-1.81299 14.97095,-30.57529 18.71752,-42.59186 2.5939,-8.31955 2.8536,-13.74415 0.38056,-7.94924 -4.76998,11.17722 -7.69676,16.82103 -13.59899,26.2235 -3.68209,5.86571 -8.49862,14.51502 -10.7034,19.22071 -2.20478,4.70568 -5.79325,11.47198 -7.97438,15.03621 -4.6461,7.59232 -9.69621,18.40742 -12.17786,26.07958 -0.96779,2.992 -3.95734,10.4563 -6.64346,16.5874 -4.59658,10.4917 -5.7691,15.134 -4.215,16.6881 0.96904,0.9691 3.79395,-1.8616 9.27713,-9.2961 z m 59.26206,-46.19256 c 18.98523,-23.46365 22.23324,-28.33092 25.14941,-37.68739 3.18735,-10.22654 3.91637,-18.04601 2.57895,-27.66174 -2.54436,-18.29323 -8.1045,-22.89185 -20.62819,-17.06091 -7.45608,3.47149 -11.42308,6.62593 -10.80031,8.58809 0.2862,0.90175 -0.34143,2.41947 -1.39474,3.3727 -1.05331,0.95323 -2.20639,3.39123 -2.56241,5.41778 -1.21515,6.91692 -5.81349,19.67075 -13.73732,38.10146 -7.20733,16.76413 -7.81238,18.67148 -6.74242,21.2546 1.71203,4.13321 7.31796,8.63481 11.65761,9.36114 2.07426,0.34717 4.20977,0.74049 4.74557,0.87405 3.31683,0.82679 9.2368,-1.47372 11.73385,-4.55978 z m -391.59307,-9.33967 c -1.03676,-0.78382 -3.96176,-1.71954 -6.5,-2.07939 -4.31308,-0.61147 -8.03897,-2.33637 -22.30306,-10.32522 -10.21046,-5.71855 -23.27504,-19.03943 -20.95171,-21.36276 0.84102,-0.84102 2.98964,0.79631 8.38528,6.38991 7.04359,7.302 20.3189,16.28592 30.10405,20.37259 3.43281,1.43367 3.97408,1.44357 5,0.0914 0.6396,-0.84297 4.10191,-1.97871 7.79705,-2.55768 14.89039,-2.33306 48.6917,-16.66749 61.26627,-25.98174 11.18471,-8.28476 23.94654,-23.86045 30.97468,-37.80432 1.45539,-2.8875 3.06202,-5.25 3.5703,-5.25 2.12846,0 1.95763,2.23497 -0.5513,7.21251 -7.619,15.11554 -19.88261,30.24598 -30.71821,37.8991 -15.31894,10.81968 -48.78726,25.39793 -63.00078,27.44209 l -4.81246,0.69212 3.13582,1.90701 c 1.7247,1.04885 2.96219,2.42791 2.74996,3.06459 -0.58777,1.7633 -2.06065,1.86624 -4.14589,0.28975 z M 240.32844,727.53002 c -1.14921,-1.85946 0.48442,-2.58856 13.03608,-5.81813 15.01978,-3.86462 23.53182,-6.76803 34.99263,-11.93582 4.95,-2.232 11.25,-4.96546 14,-6.07436 l 5,-2.01618 -3.60078,-0.0545 c -4.58303,-0.0694 -9.37295,-1.72087 -14.21465,-4.90091 -10.59455,-6.95857 -7.44544,-16.78142 8.31543,-25.93787 6.52923,-3.79323 14.34662,-10.97776 18.97006,-17.43432 4.53519,-6.33331 4.7581,-8.01053 2.90704,-21.87246 -1.36708,-10.23752 -3.01903,-12.80138 -10.98328,-17.04628 -3.31171,-1.76512 -6.89261,-4.31701 -7.95755,-5.67087 -2.61877,-3.32923 -2.56291,-11.97826 0.12679,-19.63093 2.74945,-7.82269 1.94709,-16.57652 -2.10504,-22.96606 -2.35962,-3.72074 -3.815,-4.79989 -9.04518,-6.70691 -3.57617,-1.30394 -7.86986,-3.82973 -10.07296,-5.92549 l -3.83988,-3.65279 0,-10.20449 c 0,-7.19115 0.45053,-11.07573 1.52568,-13.15484 0.83912,-1.62269 1.12241,-2.95034 0.62953,-2.95034 -0.49289,0 -6.01694,0.87591 -12.27568,1.94648 -15.4555,2.64367 -25.37953,3.05562 -25.37953,1.05352 0,-1.07089 1.28732,-1.57766 4.5,-1.77148 2.475,-0.14931 11.475,-1.35516 20,-2.67966 8.525,-1.3245 17.75,-2.49111 20.5,-2.59246 2.75,-0.10136 6.8,-0.24552 9,-0.32035 2.94936,-0.10031 4,0.25794 4,1.36395 0,1.1095 -1.56199,1.63394 -6,2.01448 -10.88591,0.93344 -14.08711,5.58936 -13.30915,19.35727 0.35945,6.36139 0.65077,7.13266 3.63524,9.62421 1.78447,1.48973 5.1411,3.26895 7.4592,3.95381 6.09328,1.8002 10.14592,5.26782 13.11133,11.21861 2.14002,4.29446 2.60338,6.62208 2.60338,13.07762 0,5.14504 -0.53573,8.88931 -1.55348,10.85742 -2.1841,4.22358 -2.82088,11.8633 -1.2375,14.84674 0.71519,1.34759 3.77324,3.74013 6.79567,5.31675 11.23178,5.85898 12.89609,9.0363 13.70541,26.16478 l 0.57517,12.173 -4.20628,6.16222 c -4.51462,6.6139 -12.54603,14.38952 -17.51633,16.95843 -5.90139,3.05015 -13.67414,9.43766 -14.66921,12.05492 -1.5228,4.00526 -0.36003,6.63807 4.3394,9.82551 3.93516,2.66905 4.92846,2.88373 12.76715,2.75933 5.9009,-0.0937 12.01642,-1.05977 20,-3.15955 7.67047,-2.01743 11.89211,-2.70102 12.67751,-2.05281 0.83187,0.68656 2.41732,-0.58755 5.40112,-4.34045 10.63424,-13.37536 16.96256,-26.18448 25.84477,-52.31229 3.36553,-9.9 7.51871,-20.87535 9.22929,-24.38966 5.92567,-12.17404 16.90558,-20.42751 18.59271,-13.97592 0.53691,2.05314 0.96624,2.11508 11.2742,1.6265 8.39108,-0.39772 12.75475,-1.18712 20.11275,-3.63844 10.22458,-3.40632 32.23372,-14.91138 40.62683,-21.23728 4.51807,-3.40528 5.17102,-4.31513 4.63355,-6.45659 -1.04228,-4.15277 -0.95305,-5.69207 0.35674,-6.15414 0.68721,-0.24243 1.43154,0.15914 1.65407,0.89237 1.54789,5.10039 1.24116,5.08638 7.47997,0.34173 8.79878,-6.69153 14.73263,-13.83361 19.25364,-23.17399 2.21879,-4.58402 4.41906,-8.33458 4.88949,-8.33458 2.1603,0 1.89969,2.56027 -0.86117,8.46009 -5.01489,10.71658 -10.50763,17.86292 -17.99699,23.41501 -10.29576,7.63256 -10.14771,7.11897 -3.84136,13.32536 6.35494,6.25421 13.87864,10.61619 21.06296,12.21158 3.3272,0.73886 5.10992,1.64989 5.10992,2.61135 0,2.51269 -7.31619,1.25289 -15.31132,-2.63651 -4.60034,-2.23793 -9.52426,-5.72211 -13.27948,-9.39658 l -5.96815,-5.83985 -7.72053,5.28247 c -11.0874,7.58611 -24.77612,14.87848 -35.98956,19.17266 -9.60469,3.67811 -9.95519,3.73228 -27.01142,4.17453 l -17.28045,0.44807 -2.98442,4.3377 c -4.03768,5.86858 -6.05532,10.7335 -13.61976,32.83991 -8.87253,25.92916 -17.4111,42.12745 -28.61197,54.27896 -5.69651,6.17999 -19.51253,14.21068 -26.52572,15.41833 -3.13347,0.53957 -8.35506,1.43327 -11.60352,1.98599 -3.24847,0.55272 -6.53056,0.7654 -7.29354,0.47262 -0.76298,-0.29279 -6.01175,1.44291 -11.66393,3.8571 -10.65626,4.55157 -18.14821,6.97834 -32.63623,10.57145 -4.675,1.15942 -9.24963,2.32923 -10.16584,2.59958 -0.91622,0.27034 -1.97951,-0.016 -2.36287,-0.63627 z m 74.34109,-22.35044 c 7.91566,-1.50958 11.54205,-3.30365 4.23516,-2.09525 -4.26694,0.70567 -13.08694,3.18901 -12.04754,3.39209 0.275,0.0537 3.79057,-0.52985 7.81238,-1.29684 z m 18.53685,-8.63211 c 2.75608,-1.83671 2.8376,-2.00741 0.65077,-1.36262 -1.375,0.40542 -5.65,1.4986 -9.5,2.4293 l -7,1.69217 6.34923,-0.32955 c 4.3582,-0.22621 7.33726,-0.988 9.5,-2.4293 z m 834.65082,-25.02039 c -15.125,-0.98387 -48.2,-2.50602 -73.5,-3.38254 -61.269,-2.12268 -87.2943,-3.33459 -109.4901,-5.09859 -23.64242,-1.87896 -27.32351,-1.82154 -34.00995,0.53052 -4.61546,1.62356 -8.31446,1.93983 -23,1.96657 -17.23448,0.0314 -17.59104,-0.0117 -23.5,-2.83602 -3.3,-1.57733 -8.03679,-4.89718 -10.52621,-7.37744 -4.33477,-4.31885 -13.73036,-17.07357 -18.93806,-25.70884 -1.35535,-2.2474 -7.08728,-8.63547 -12.73762,-14.1957 l -10.27335,-10.10952 -5.01395,0.66513 c -4.60923,0.61143 -10.29541,3.11685 -14.01081,6.17338 -1.4692,1.20865 -7.31231,1.60927 -44.12767,3.02549 -17.58458,0.67645 -24.57021,-0.50529 -39.34434,-6.65578 -14.99088,-6.24071 -35.75829,-24.33649 -41.29227,-35.98019 -5.84598,-12.30015 -7.79232,-25.30584 -4.84335,-32.36372 2.3111,-5.53125 12.56468,-15.24543 17.49258,-16.57238 5.23144,-1.40868 8.61505,-1.02809 8.61505,0.96902 0,1.03434 -1.397,1.66088 -4.50006,2.01823 -5.45926,0.6287 -7.5656,2.0315 -13.87286,9.23915 -6.23728,7.12769 -6.97532,11.09688 -4.13582,22.24262 3.01231,11.82405 6.29003,17.69027 14.35573,25.69287 21.00323,20.83891 43.82483,30.24266 68.97018,28.4195 4.50056,-0.32631 15.15783,-0.87121 23.68283,-1.21089 10.26333,-0.40895 16.00677,-1.04672 17,-1.88773 4.53229,-3.83774 11.67329,-6.51375 17.38212,-6.51375 l 5.89803,0 9.97093,9.75 c 6.85625,6.70434 12.28343,13.25113 17.37387,20.95807 9.18547,13.90681 17.18494,22.65198 23.79858,26.01707 4.60149,2.34128 6.43316,2.62309 19.57647,3.01194 7.975,0.23593 16.3,0.0107 18.5,-0.50052 l 4,-0.9295 -5.95704,-0.79462 c -3.85322,-0.51399 -6.99516,-0.40277 -8.89654,0.31492 -5.07445,1.91539 -6.70158,-1.05978 -1.72417,-3.15262 2.12515,-0.89356 5.99274,-1.0174 14.17901,-0.45401 15.38846,1.05906 17.22407,-0.17924 18.48316,-12.46867 0.63714,-6.21886 0.54743,-6.61957 -1.83104,-8.178 -1.37555,-0.90129 -7.17029,-2.76904 -12.87719,-4.15054 -5.70691,-1.38151 -12.72351,-3.20406 -15.59245,-4.05013 -7.71234,-2.27442 -15.77468,-8.6735 -18.70309,-14.84467 -1.82761,-3.8514 -2.10138,-14.05612 -0.48864,-18.21362 1.65016,-4.25396 3.86981,-19.95417 3.89005,-27.51541 0.0132,-4.93173 -0.37822,-6.92201 -1.48291,-7.54023 -4.26909,-2.3891 -7.40457,-16.44298 -4.24915,-19.04557 0.6875,-0.56705 6.2,-3.52947 12.25,-6.58316 8.72098,-4.40184 13.17543,-7.49666 21.5,-14.93754 5.775,-5.16196 12.80013,-11.83675 15.6114,-14.83288 4.53209,-4.83009 5.24045,-6.18852 6.25,-11.98581 3.03645,-17.43657 -0.59959,-23.6805 -13.8614,-23.80328 -7.9177,-0.0733 -16.27194,2.63895 -30.56104,9.92179 -16.53583,8.42796 -21.17327,12.01569 -25.50883,19.7348 -1.78312,3.17471 -4.76624,8.28748 -6.62917,11.36171 -1.86292,3.07424 -4.2231,8.35056 -5.24485,11.72515 -1.11253,3.67445 -3.31497,7.8381 -5.49062,10.37985 -1.9981,2.33433 -4.22739,6.28302 -4.95397,8.77486 -1.61544,5.54015 -4.28511,6.28208 -3.76622,1.04667 0.42143,-4.25203 2.24326,-7.90838 6.16737,-12.3777 1.6364,-1.86376 3.86184,-6.25733 4.94543,-9.7635 1.08358,-3.50617 3.33798,-8.53063 5.00977,-11.16548 1.67179,-2.63485 4.12379,-6.93014 5.44889,-9.5451 4.51953,-8.91887 10.83456,-14.73174 21.94791,-20.20265 9.31356,-4.58491 18.49689,-9.48984 19.3331,-10.32606 0.81906,-0.81905 -9.7725,1.33407 -11.73863,2.38631 -1.45718,0.77986 -2.50536,0.83191 -3.17937,0.1579 -3.06284,-3.06284 5.71474,-5.71789 23.72023,-7.17489 23.27681,-1.88356 73.95495,-6.87077 91.49995,-9.00446 28.2635,-3.43718 32.2808,-3.83866 80,-7.99492 25.575,-2.22753 49.4213,-4.47124 52.9918,-4.986 6.2735,-0.90447 8.9137,-0.29364 7.6399,1.76753 -0.8368,1.35388 -12.6017,2.6582 -65.1317,7.22086 -25.3,2.1975 -57.025,5.32036 -70.5,6.93968 -13.475,1.61932 -34.175,3.86791 -45.99995,4.99687 -11.825,1.12896 -23.64073,2.32098 -26.25717,2.64894 l -4.75718,0.59627 3.24261,2.18519 c 4.74973,3.20085 5.74041,5.98806 5.757,16.19702 0.0229,14.08654 -1.09037,16.31209 -14.83703,29.661 -14.80974,14.38125 -20.42028,18.59526 -33.01734,24.79897 -5.57199,2.74405 -10.12015,5.54696 -10.10703,6.22868 0.0748,3.88866 2.16589,9.32811 4.53758,11.80362 l 2.72171,2.84085 -0.50989,13.79751 c -0.3777,10.22071 -1.08789,15.72537 -2.73952,21.23423 -1.55739,5.19449 -2.03671,8.64328 -1.58973,11.4385 0.63846,3.99271 4.31678,11.62478 5.60263,11.62478 0.37309,0 2.27036,1.26517 4.21614,2.81148 3.63757,2.89078 8.42041,4.50227 24.51592,8.26017 5.10329,1.1915 10.72829,3.14127 12.5,4.33284 3.07856,2.07048 3.23442,2.49139 3.51749,9.49886 0.22875,5.66298 -0.14236,8.21876 -1.63001,11.22558 l -1.92621,3.8932 2.13002,0.41526 c 7.6277,1.48708 58.96396,4.15594 116.62996,6.06334 25.575,0.84593 53.925,1.96962 63,2.49709 9.075,0.52747 25.275,1.474 36,2.1034 10.725,0.62941 19.8883,1.4999 20.3629,1.93444 1.4708,1.3467 -0.3469,2.97082 -3.1719,2.83407 -1.48,-0.0716 -15.0659,-0.93525 -30.1909,-1.91912 z M 696.38229,637.61715 c -1.29721,-2.09894 2.37226,-5.33818 10.23711,-9.03686 5.537,-2.60394 10.24532,-5.7771 14.27445,-9.62024 4.42221,-4.21807 6.30714,-5.43974 7.12742,-4.61946 2.47579,2.47579 -8.9409,12.49298 -20.21376,17.73588 -3.5477,1.65 -7.03838,3.7875 -7.75706,4.75 -1.45647,1.95057 -2.77558,2.2349 -3.66816,0.79068 z M 459.97693,620.44406 c -6.16877,-1.95313 -17.11978,-8.31795 -17.11978,-9.95015 0,-2.12919 2.35608,-1.55804 8.6828,2.10487 9.76617,5.65419 18.37785,7.3073 34.8172,6.68356 8.3656,-0.31741 14.71599,-1.08771 17.81353,-2.16078 5.4525,-1.88889 9.18647,-1.73009 9.18647,0.3907 0,4.76667 -40.55068,6.99383 -53.38022,2.9318 z m 342.88022,-49.68313 c -2.475,-1.013 -9.675,-4.21777 -16,-7.12172 -6.325,-2.90395 -14.26449,-6.53493 -17.64332,-8.06886 -9.09592,-4.12939 -19.95555,-11.89424 -27.81831,-19.89065 -5.40867,-5.5006 -6.69436,-7.34724 -5.76348,-8.27812 0.93088,-0.93088 2.93,0.47755 8.96164,6.3137 10.42433,10.08648 18.27282,15.19117 33.76347,21.9599 7.15,3.12423 16.28698,7.26902 20.30439,9.21063 9.69288,4.68457 18.64635,5.60693 30.91178,3.18444 18.26602,-3.60763 35.65684,-11.66803 42.80509,-19.83956 3.32563,-3.80169 4.73535,-4.79761 5.58638,-3.94658 1.40071,1.40071 -1.30221,5.49999 -6.8222,10.3466 -4.93247,4.33077 -21.74546,12.26582 -31.78544,15.00144 -11.37949,3.1006 -30.25609,3.68437 -36.5,1.12878 z m -420.5,-9.18446 c -1.25127,-2.02459 0.62791,-2.7602 7.23438,-2.83192 11.37968,-0.12353 45.99762,-10.07629 61.72911,-17.7473 12.94594,-6.31271 27.53651,-23.80014 27.53651,-33.00369 0,-1.48186 0.58039,-2.41709 1.5,-2.41709 1.23292,0 1.50782,1.82506 1.54389,10.25 0.0263,6.14159 0.60564,11.82678 1.44538,14.18388 1.38878,3.89821 1.23502,5.56612 -0.5131,5.56612 -1.61884,0 -3.40243,-4.38241 -3.94531,-9.6939 l -0.53086,-5.19391 -6.35684,8.00463 c -7.62629,9.60314 -13.28513,13.54926 -27.76249,19.35985 -10.12948,4.06554 -32.94155,10.83605 -45.17989,13.40917 -6.58774,1.38507 -15.87607,1.44856 -16.70078,0.11416 z m -25.732,-13.4785 c -9.27024,-8.92006 -14.47955,-11.95773 -29.268,-17.06685 -11.22753,-3.8789 -23.64069,-3.9141 -34.93219,-0.0991 -5.38065,1.81795 -8.2596,2.35264 -8.95,1.66223 -1.49859,-1.49859 -0.0174,-2.46521 7.88219,-5.14405 5.8635,-1.98836 8.94828,-2.36868 19,-2.34248 11.66901,0.0304 12.30034,0.14722 22.88869,4.23475 5.98879,2.31191 12.96379,5.54081 15.5,7.17532 6.14915,3.96292 19.54036,17.55542 18.67496,18.95566 -0.37493,0.60664 -0.99263,1.08581 -1.37267,1.06482 -0.38004,-0.021 -4.62038,-3.81914 -9.42298,-8.44033 z m 418.44426,-1.7715 c -0.72089,-0.87263 -0.58768,-2.45759 0.44124,-5.25 0.81062,-2.2 3.96044,-11.875 6.99958,-21.5 5.22419,-16.54507 5.55569,-18.21852 6.07498,-30.66745 0.3021,-7.2421 0.17917,-13.9921 -0.27318,-15 -0.45234,-1.0079 -0.85224,-6.10755 -0.88866,-11.33255 -0.0598,-8.57827 -0.38291,-10.16873 -3.33031,-16.39239 -1.79525,-3.79081 -4.88703,-9.56403 -6.87062,-12.82937 -2.66316,-4.38403 -3.31341,-6.23012 -2.48591,-7.05762 0.7169,-0.7169 1.4669,-0.77434 2.08179,-0.15945 2.05968,2.05968 10.20353,17.24343 12.26335,22.86432 2.1231,5.79358 2.18981,5.86037 2.99668,3 0.45388,-1.60902 1.4677,-6.07549 2.25293,-9.92549 0.78523,-3.85 2.55742,-11.95 3.93821,-18 1.38078,-6.05 3.428,-17.075 4.54936,-24.5 1.92609,-12.7534 7.25756,-33.37608 9.1647,-35.45 0.54962,-0.59769 1.25766,-0.56594 1.90922,0.0856 0.71416,0.71416 0.27063,3.49227 -1.42889,8.95 -3.64918,11.71875 -4.45795,15.16258 -5.62349,23.94562 -2.01587,15.19073 -6.85412,38.18965 -12.10942,57.56284 -2.64853,9.76357 -2.87402,11.95861 -2.87634,28 -0.003,19.26233 -0.59135,22.40905 -8.9387,47.79048 -3.72573,11.32867 -3.93147,12.48804 -2.41311,13.5983 0.91293,0.66755 1.33957,1.732 0.94809,2.36544 -0.94815,1.53413 -5.08559,1.4704 -6.3815,-0.0983 z m -349.43564,-13.5755 c -4.07684,-4.51257 -6.90127,-11.49219 -10.37881,-25.64767 -4.36208,-17.75607 -4.21972,-31.41364 0.51543,-49.44946 1.61541,-6.15299 1.63331,-6.79421 0.18669,-6.69125 -1.29852,0.0924 -1.6054,-1.01647 -1.62899,-5.88612 -0.016,-3.3 -0.53519,-7.8 -1.15378,-10 -0.6186,-2.2 -2.13238,-10.75 -3.36397,-19 -1.46239,-9.79612 -2.72263,-15.2845 -3.63259,-15.82005 -0.85125,-0.501 -1.32387,-2.25177 -1.21477,-4.5 0.0982,-2.02397 -0.16226,-6.26745 -0.57885,-9.42995 -0.63551,-4.8245 -0.51117,-5.75 0.77251,-5.75 1.085,0 2.05954,-2.25388 3.35097,-7.75 2.40446,-10.23298 7.61506,-20.33135 20.57303,-39.87142 16.13709,-24.33405 29.04038,-35.82321 67.27651,-59.90338 29.17604,-18.37436 31.91641,-19.56237 71.71016,-31.08795 26.00367,-7.53152 26.4432,-7.61993 40.37833,-8.12192 12.20034,-0.4395 16.355,-0.13797 31,2.24985 16.95398,2.76428 19.69178,3.60455 17.82547,5.47086 -0.64806,0.64806 -6.11523,0.11595 -15.95,-1.5524 -19.11406,-3.24247 -31.00375,-3.98414 -40.46396,-2.52414 -8.18208,1.26275 -53.68562,13.8614 -63.76733,17.65538 -10.23538,3.85181 -21.35115,9.83651 -38.65705,20.81287 -24.19458,15.34555 -34.88562,23.30919 -46.7098,34.79362 -8.59292,8.34602 -12.49684,13.1807 -20.33799,25.18686 -12.6626,19.38865 -16.98949,28.24776 -20.09941,41.15272 l -2.54549,10.56276 3.00715,18.21314 c 1.65393,10.01723 3.30636,20.35065 3.67207,22.96315 0.36572,2.6125 0.95134,4.74653 1.30139,4.7423 0.35005,-0.004 1.60671,-1.70748 2.79257,-3.78498 3.67408,-6.4366 14.49619,-18.74443 22.44623,-25.52778 l 7.59339,-6.47903 0.85034,-8.35026 c 1.21167,-11.89845 0.64149,-21.99199 -1.61236,-28.54293 -1.91552,-5.56755 -4.37893,-9.30732 -6.13079,-9.30732 -0.49042,0 -0.81915,8.52154 -0.73513,19.05679 0.0836,10.48123 -0.10307,19.31182 -0.41478,19.62354 -0.31172,0.31171 -1.14866,0.34413 -1.85988,0.072 -1.02178,-0.39089 -1.18821,-4.74854 -0.79313,-20.7667 0.43354,-17.57736 0.72396,-20.413 2.1849,-21.33267 2.40807,-1.51589 6.09017,0.70889 8.60241,5.19772 3.94409,7.04722 5.49095,15.70159 4.89728,27.39927 -0.30006,5.9125 -0.30975,10.75 -0.0215,10.75 0.28821,0 4.41943,-3.51066 9.18049,-7.80146 4.76105,-4.29081 12.93146,-11.41436 18.15646,-15.83013 5.225,-4.41576 12.5727,-11.21509 16.32821,-15.10961 3.75552,-3.89453 8.14302,-7.62556 9.75,-8.2912 1.60699,-0.66563 2.92179,-1.32569 2.92179,-1.4668 0,-0.1411 -0.675,-1.87205 -1.5,-3.84656 -2.08911,-4.99993 -1.9915,-23.3606 0.17664,-33.22774 1.37785,-6.27056 2.11162,-7.82853 4.11747,-8.74246 2.08142,-0.94836 2.70534,-0.78546 4.23717,1.10626 2.48786,3.07238 7.466,24.11242 6.042,25.53642 -1.65676,1.65676 -2.54823,-0.0614 -4.51035,-8.69259 -2.61736,-11.51338 -3.56416,-14.63408 -4.43995,-14.63408 -1.25114,0 -4.1392,16.88179 -4.1058,24 0.0325,6.93079 1.24719,13.66441 2.73293,15.15015 0.54083,0.54083 4.2345,-0.9357 9.1698,-3.66561 4.54529,-2.51417 10.58524,-5.02578 13.42211,-5.58134 3.13909,-0.61475 23.14525,-0.91181 51.11343,-0.75896 l 45.95549,0.25116 3.04451,2.73544 c 2.42517,2.17896 2.79292,2.99045 1.80775,3.98905 -0.98926,1.00276 -1.74374,0.77733 -3.77028,-1.12651 l -2.53354,-2.38013 -42.97282,-0.43479 c -29.37874,-0.29724 -43.37633,-0.0999 -44.24836,0.62382 -0.70155,0.58223 -4.27217,1.58044 -7.93472,2.21825 -3.99222,0.69521 -7.96736,2.1248 -9.92563,3.56956 -1.79654,1.32545 -3.91112,2.40991 -4.69906,2.40991 -3.8134,0 -16.40549,8.43099 -22.38984,14.99104 -3.45895,3.79169 -10.78899,10.55732 -16.28899,15.03473 -14.81307,12.05895 -47.80996,43.37842 -54.72791,51.94578 -7.49721,9.28474 -11.46883,17.86177 -8.98249,19.39842 0.43428,0.26839 2.57178,-3.79738 4.75,-9.03507 4.15706,-9.99594 4.99514,-11.20016 6.64587,-9.54943 0.68162,0.68162 -0.36639,4.22229 -3.2153,10.86287 -12.77072,29.76753 -14.97677,47.17014 -9.0221,71.17162 5.43305,21.89904 8.55044,26.68004 17.39636,26.68004 3.91606,0 5.15557,0.36063 5.15557,1.5 0,1.13712 -1.47432,1.57105 -6.09418,1.79367 -5.9625,0.28733 -6.17057,0.20913 -9.6292,-3.61917 z m 311.27088,-24.08139 c -4.86854,-9.54313 -20.4814,-26.23317 -28.24526,-30.194 -2.09123,-1.06687 -3.80224,-2.35405 -3.80224,-2.86042 0,-3.76108 7.92665,-0.0949 15.83033,7.32174 10.35536,9.71724 22.19931,26.16455 20.64847,28.67387 -1.12973,1.82795 -2.44293,0.95634 -4.4313,-2.94119 z M 491.52382,495.9098 c -1.5298,-1.52979 -0.46863,-4.33816 2.41512,-6.39157 3.88098,-2.7635 28.23972,-13.85493 40.57187,-18.47386 21.91367,-8.20763 44.71888,-11.92947 68.34634,-11.15422 21.12895,0.69326 37.71575,4.37057 34.44897,7.63735 -0.60138,0.60138 -3.62973,0.24777 -8.23685,-0.96179 -29.5927,-7.76931 -70.53593,-2.76238 -105.79855,12.93807 -7.59114,3.3799 -8.37718,3.95023 -5.8424,4.23901 5.03574,0.57372 3.64609,3.24152 -2.07117,3.97614 -2.75,0.35336 -8.98231,2.49086 -13.84957,4.75 -9.96308,4.62438 -9.0983,4.32634 -9.98376,3.44087 z m 46.77948,-13.42046 c -1.03052,-1.66742 1.28721,-3.57951 2.66672,-2.2 1.15392,1.15392 0.43172,3.28713 -1.11287,3.28713 -0.48508,0 -1.18431,-0.48921 -1.55385,-1.08713 z m 176.05385,-12.91287 c -1.27481,-2.06269 0.69808,-2.80766 7.3256,-2.76617 9.25259,0.0579 16.23528,-2.4321 24.82637,-8.85309 8.60255,-6.42955 12.14866,-10.76542 15.85065,-19.38074 12.63669,-29.40831 17.42462,-37.98755 26.55592,-47.58414 4.63874,-4.8751 6.11303,-7.25975 7.41893,-12 2.54953,-9.25444 3.34983,-10.80408 4.91069,-9.50868 1.11167,0.92261 1.04087,2.1834 -0.41808,7.44481 -2.34501,8.45684 -3.89383,11.18371 -9.89409,17.41969 -8.39505,8.72484 -12.78284,16.6735 -25.17594,45.60716 -3.9742,9.2784 -8.32371,14.52193 -17.99024,21.68802 -4.93925,3.66162 -9.08959,5.80614 -13.72356,7.0911 -7.14578,1.98147 -18.67721,2.4747 -19.68625,0.84204 z m -79.4922,-11.48802 c -2.32491,-3.56842 -6.13678,-11.10592 -8.47082,-16.75 -2.33403,-5.64409 -5.4379,-12.61586 -6.89748,-15.49282 -3.60644,-7.10863 -5.52683,-15.7531 -6.28335,-28.28396 -0.8927,-14.78635 0.97948,-20.86211 11.2559,-36.52866 3.53089,-5.3829 8.70678,-8.93073 14.90887,-10.21933 l 3.79393,-0.78827 1.83844,-8.97447 c 1.01113,-4.93596 2.79415,-12.12447 3.96225,-15.97447 1.29727,-4.2757 2.25293,-10.57929 2.45554,-16.19686 0.92185,-25.55842 16.89674,-97.03848 39.32555,-175.96324 5.49548,-19.33805 11.63384,-41.388051 13.64079,-49.000001 3.771,-14.30255 4.72516,-16.47732 6.46563,-14.73685 1.07678,1.07678 -2.60048,15.24895 -19.30387,74.396951 -9.90107,35.06049 -13.38346,48.65422 -24.08055,94 -5.15369,21.84687 -10.61863,49.79814 -10.61863,54.3106 0,0.37917 0.95248,0.6894 2.11663,0.6894 1.71936,0 1.99564,0.42231 1.47202,2.25 -0.35454,1.2375 -2.17954,8.56092 -4.05556,16.27426 -1.87602,7.71334 -3.89923,15.30855 -4.49602,16.87823 -1.8291,4.8109 -5.1861,21.54735 -4.53371,22.60295 0.33807,0.54701 1.10814,0.99456 1.71127,0.99456 0.60312,0 2.48906,1.03734 4.19098,2.30519 1.70191,1.26786 5.11939,3.48443 7.59439,4.92571 6.6445,3.86932 17.74225,15.42685 16.24797,16.92113 -0.89764,0.89764 -2.93135,-0.49682 -8.65788,-5.93646 -4.11656,-3.91032 -8.97087,-7.8752 -10.78737,-8.81084 -1.8165,-0.93564 -4.6952,-2.75946 -6.39711,-4.05294 -2.76562,-2.10192 -5.40561,-3.05181 -5.40561,-1.94499 0,0.22374 -1.6411,8.43624 -3.64688,18.25 -3.24512,15.8775 -3.65824,19.60585 -3.75,33.8432 -0.0881,13.66855 0.14896,16.35611 1.62684,18.44389 0.95148,1.34414 7.42508,8.46053 14.3858,15.8142 9.9248,10.4851 12.38907,13.6262 11.41962,14.55611 -0.96677,0.92734 -4.14873,-1.84652 -14.59889,-12.72654 -7.34947,-7.65179 -14.10325,-15.47297 -15.00839,-17.38041 -1.39718,-2.94435 -1.57419,-6.12886 -1.17215,-21.08766 0.39626,-14.74401 0.99906,-20.1464 3.69353,-33.10219 1.771,-8.51543 3.43342,-15.82793 3.69427,-16.25 0.80967,-1.31007 -4.59914,-0.84259 -7.44341,0.64332 -3.70018,1.93307 -7.24039,5.98247 -11.44335,13.08928 -5.66859,9.58506 -7.07125,14.72938 -6.90322,25.31793 0.20026,12.61891 2.24932,21.61318 7.53197,33.06127 2.4417,5.29144 5.74018,12.7708 7.32995,16.6208 1.58978,3.85 4.56487,9.61306 6.61132,12.8068 3.39177,5.29329 3.9319,7.6932 1.73143,7.6932 -0.45294,0 -2.72572,-2.91961 -5.05064,-6.48802 z m 110.53861,-12.43689 c -0.3144,-0.5087 1.01951,-3.63978 2.96424,-6.95796 3.88186,-6.62337 14.86484,-31.05324 15.85423,-35.26515 1.01129,-4.30513 -1.12345,-13.06509 -3.84776,-15.78941 l -2.44039,-2.44038 -4.97634,2.33079 c -4.11174,1.92583 -6.0737,2.24271 -11.29225,1.82382 -8.12118,-0.65189 -19.7842,-6.42136 -28.80814,-14.25083 -3.575,-3.10178 -7.54297,-6.06449 -8.81771,-6.58378 -5.99094,-2.44055 -16.69681,3.01837 -17.37064,8.85727 -0.38183,3.30869 -3.17786,3.64307 -3.6333,0.43451 -0.8484,-5.97692 8.23926,-13.23397 16.57227,-13.23397 5.7786,0 7.85411,1.0202 15.24938,7.49573 13.99913,12.25805 28.27105,16.6252 37.77176,11.558 3.73158,-1.99024 4.64724,-2.12281 7.24115,-1.04838 4.63415,1.91953 7.22931,7.08853 7.76725,15.47067 0.46241,7.20544 0.4414,7.27808 -6.66634,23.05133 -7.02346,15.58619 -12.51887,25.47265 -14.15905,25.47265 -0.4602,0 -1.09397,-0.41621 -1.40836,-0.92491 z m 24.9133,-38.31948 c -0.9238,-2.4074 1.08671,-6.08165 10.40112,-19.0082 30.79175,-42.73286 46.59503,-71.91685 75.13243,-138.74741 10.92081,-25.575 21.71895,-50.55 23.99587,-55.5 5.54324,-12.05096 36.94041,-72.71696 54.34186,-105.000001 7.70809,-14.3 15.73316,-29.7125 17.83348,-34.25 2.10033,-4.5375 4.24599,-8.25 4.76813,-8.25 3.73053,0 0.68451,6.90552 -19.62888,44.5 -7.72671,14.300001 -16.18135,30.275001 -18.7881,35.500001 -2.60676,5.225 -10.73137,20.975 -18.05471,35 -15.15596,29.02537 -19.57756,38.68359 -43.49158,95 -17.64625,41.55609 -23.19973,53.02093 -39.9624,82.5 -10.18438,17.9104 -16.69869,28.19091 -27.24723,43 -13.29581,18.66597 -15.5462,22.05146 -15.89809,23.91713 -0.44758,2.37291 -2.66948,3.24712 -3.4019,1.33848 z M 478.84619,357.32647 c -1.72824,-2.83452 -1.98204,-5.05803 -1.9853,-17.39301 -0.003,-11.88025 0.24532,-14.23858 1.55294,-14.74037 0.94422,-0.36233 2.4925,0.41242 3.93523,1.96916 3.01508,3.25331 7.9113,17.41101 6.50699,18.81532 -1.42876,1.42876 -2.33437,0.0741 -4.94766,-7.4011 -1.2498,-3.575 -2.67262,-6.9275 -3.16181,-7.45 -0.52309,-0.55872 -0.88943,3.37001 -0.88943,9.53856 0,8.4567 0.38117,11.23619 1.96761,14.3479 3.0715,6.02457 0.50129,8.02092 -2.97857,2.31354 z m 114.55869,-35.67278 c -1.01723,-1.64591 0.4876,-15.8723 2.59972,-24.57722 5.79527,-23.88469 11.19139,-31.085 17.92824,-23.92252 2.26553,2.40867 2.44595,3.42711 2.75477,15.54989 0.44575,17.49803 -2.61288,33.49021 -5.79638,30.30671 -0.62123,-0.62123 -0.40349,-3.2798 0.61015,-7.45 0.96499,-3.97001 1.6303,-11.53559 1.71592,-19.51253 0.11868,-11.05633 -0.13518,-13.45055 -1.67705,-15.81693 -1.5579,-2.39095 -2.04437,-2.60073 -3.41252,-1.47154 -3.90488,3.22285 -10.11146,24.79354 -11.1459,38.7371 -0.58036,7.82275 -1.90982,10.85452 -3.57695,8.15704 z m -29.55869,-4.32722 c -2.65179,-4.34925 -2.64691,-17.15641 0.011,-28.75 1.07176,-4.675 1.96021,-9.75162 1.97433,-11.28138 0.0269,-2.91189 2.44776,-4.69653 4.11256,-3.03173 0.52385,0.52385 1.85968,5.63249 2.96851,11.35254 2.40541,12.40866 2.39296,27.46057 -0.0227,27.46057 -1.15736,0 -1.49301,-1.68996 -1.58889,-8 -0.14515,-9.55176 -1.38095,-19.5 -2.42236,-19.5 -1.35201,0 -3.52142,12.34881 -3.52142,20.04481 0,5.56839 0.46931,8.26086 1.79156,10.27825 1.7399,2.65462 1.58196,4.67694 -0.36528,4.67694 -0.52562,0 -1.84738,-1.4625 -2.93724,-3.25 z M 735.3033,-43.510663 c -1.03052,-1.667419 1.28721,-3.57951 2.66672,-2.2 1.15392,1.153924 0.43172,3.287132 -1.11287,3.287132 -0.48508,0 -1.18431,-0.48921 -1.55385,-1.087132 z"
       id="path3052"
       inkscape:connector-curvature="0" />
  </g>
</svg>
