<?xml version="1.0" standalone="no"?>
<!DOCTYPE svg PUBLIC "-//W3C//DTD SVG 1.1//EN" "http://www.w3.org/Graphics/SVG/1.1/DTD/svg11.dtd" >
<svg xmlns="http://www.w3.org/2000/svg">
<metadata></metadata>
<defs>
<font id="quadraat_sans_proitalic" horiz-adv-x="933" >
<font-face units-per-em="2048" ascent="1559" descent="-489" />
<missing-glyph horiz-adv-x="458" />
<glyph horiz-adv-x="0" />
<glyph horiz-adv-x="0" />
<glyph horiz-adv-x="682" />
<glyph unicode="&#xd;" horiz-adv-x="458" />
<glyph unicode=" "  horiz-adv-x="458" />
<glyph unicode="&#x09;" horiz-adv-x="458" />
<glyph unicode="&#xa0;" horiz-adv-x="458" />
<glyph unicode="!" horiz-adv-x="540" d="M139 106q0 48 37 81.5t86 33.5q50 0 86.5 -33.5t36.5 -89.5q0 -48 -37 -81t-86 -33q-50 0 -86.5 33t-36.5 89zM205 377l16 942h172l-65 -942h-123z" />
<glyph unicode="&#x22;" horiz-adv-x="802" d="M197 844v475h172l-74 -475h-98zM508 844v475h172l-74 -475h-98z" />
<glyph unicode="#" horiz-adv-x="1343" d="M57 459l33 82h285l117 295h-312l25 82h319l189 466l82 -32l-174 -434h297l188 466l82 -32l-174 -434h264l-25 -82h-272l-119 -295h301l-33 -82h-301l-198 -500l-82 33l186 467h-299l-198 -500l-82 33l186 467h-285zM469 541h299l117 295h-297z" />
<glyph unicode="$" horiz-adv-x="892" d="M49 49l17 180q118 -95 262 -112l73 497l-106 66q-99 60 -152 133t-53 186q0 155 112 249t310 95l25 164h77l-24 -168q97 -10 237 -61l-41 -156q-113 64 -219 78l-63 -436l69 -43q127 -77 182.5 -160t55.5 -209q0 -175 -115.5 -274.5t-310.5 -102.5l-29 -188h-77l28 193 q-146 11 -258 69zM270 1024q0 -73 29.5 -112.5t101.5 -84.5l29 -18l59 395q-104 -3 -161.5 -52t-57.5 -128zM406 115q114 7 169.5 67t55.5 154q0 78 -38 131.5t-118 103.5z" />
<glyph unicode="%" horiz-adv-x="1744" d="M111 934q0 192 86.5 300.5t240.5 108.5q139 0 213 -85t74 -250q0 -192 -87 -301t-241 -109q-139 0 -212.5 85.5t-73.5 250.5zM266 934q0 -110 37 -169.5t103 -59.5q76 0 119.5 79t43.5 224q0 110 -36.5 169.5t-102.5 59.5q-76 0 -120 -79.5t-44 -223.5zM524 0l615 1352 l90 -33l-615 -1352zM1032 319q0 192 87 301t241 109q139 0 213 -85.5t74 -250.5q0 -192 -87 -300.5t-241 -108.5q-139 0 -213 85t-74 250zM1188 319q0 -110 36.5 -169.5t102.5 -59.5q76 0 120 79.5t44 223.5q0 110 -36.5 170t-102.5 60q-76 0 -120 -79.5t-44 -224.5z" />
<glyph unicode="&#x26;" horiz-adv-x="1417" d="M106 303q0 102 57.5 181.5t164.5 154.5l20 14q-127 194 -127 363q0 146 97 236.5t255 90.5q139 0 221.5 -63.5t82.5 -173.5q0 -37 -11 -73.5t-25 -64.5t-42.5 -62t-47.5 -54t-57.5 -52t-55 -44.5t-56.5 -42.5l-47 -35q154 -199 413.5 -389.5t468.5 -280.5l-262 -33 q-131 56 -307 181q-156 -181 -373 -181q-169 0 -269 83.5t-100 244.5zM279 336q0 -124 65.5 -185t171.5 -61q144 0 256 121q-232 182 -373 369l-6 -7q-33 -32 -53 -55.5t-40.5 -73.5t-20.5 -108zM385 1024q0 -123 98 -274l58 45q31 25 54 47.5t53.5 60.5t47.5 86t17 101 q0 65 -36.5 102t-111.5 37q-87 0 -133.5 -52t-46.5 -153zM909 459l49 172q58 79 149 113t245 34l-33 -139q-54 0 -96 -3.5t-88 -15t-83.5 -31t-74.5 -52t-68 -78.5z" />
<glyph unicode="'" horiz-adv-x="491" d="M197 844v475h172l-74 -475h-98z" />
<glyph unicode="(" horiz-adv-x="573" d="M123 352q0 315 92.5 574.5t251.5 457.5l180 74q-360 -499 -360 -1089q0 -266 68.5 -456.5t226.5 -354.5h-164q-153 140 -224 334t-71 460z" />
<glyph unicode=")" horiz-adv-x="573" d="M-74 -467q361 500 361 1090q0 266 -68.5 456.5t-226.5 354.5h164q152 -140 223.5 -334.5t71.5 -460.5q0 -314 -93 -574t-252 -458z" />
<glyph unicode="*" horiz-adv-x="983" d="M98 1229l58 82l213 -148l-58 -82zM188 713l271 352v369h114v-369l271 -352l-82 -74l-246 319l-246 -319zM664 1163l213 148l57 -82l-213 -148z" />
<glyph unicode="+" horiz-adv-x="1032" d="M90 598l8 115h351l18 360h131l-18 -360h346l-8 -115h-343l-18 -377h-131l18 377h-354z" />
<glyph unicode="," horiz-adv-x="401" d="M0 -336q56 62 93.5 136.5t37.5 142.5q0 115 -74 139q0 58 29.5 98.5t77.5 40.5q131 0 131 -164q0 -197 -172 -393h-123z" />
<glyph unicode="-" horiz-adv-x="638" d="M90 573l451 58l16 -164l-451 -57z" />
<glyph unicode="." horiz-adv-x="401" d="M57 106q0 49 33.5 82t81.5 33q49 0 82 -33t33 -90q0 -49 -33.5 -81.5t-81.5 -32.5q-49 0 -82 32.5t-33 89.5z" />
<glyph unicode="/" horiz-adv-x="516" d="M41 -213l278 1573l123 -25l-278 -1573z" />
<glyph unicode="0" horiz-adv-x="958" d="M82 418q0 238 117.5 389t292.5 151q169 0 272.5 -118.5t103.5 -323.5q0 -238 -117.5 -389.5t-291.5 -151.5q-169 0 -273 119t-104 324zM238 426q0 -153 58 -240.5t163 -87.5q113 0 183.5 110t70.5 300q0 153 -58 240.5t-163 87.5q-113 0 -183.5 -110t-70.5 -300z" />
<glyph unicode="1" horiz-adv-x="598" d="M33 729l16 98l385 131l-16 -172l-41 -786h-164l41 762z" />
<glyph unicode="2" horiz-adv-x="843" d="M-8 49q74 58 109 86t93.5 75t85 70.5t69.5 61.5t61.5 59t46 52t38.5 52.5t24.5 48.5t17.5 51t4 50q0 80 -45.5 118t-143.5 38q-127 0 -246 -66l41 164q122 49 246 49q152 0 240 -69t88 -201q0 -62 -21.5 -119.5t-55 -104.5t-92.5 -102.5t-116 -101t-142 -110.5 q-10 -7 -15 -11h516l-33 -155q-74 16 -230 16h-524z" />
<glyph unicode="3" horiz-adv-x="802" d="M-74 -426l41 123q70 -33 205 -33q171 0 274 80.5t103 230.5q0 116 -74 169t-229 53h-140l41 131h164q99 64 168.5 150t69.5 177q0 80 -57.5 118t-180.5 38q-54 0 -116.5 -11.5t-104.5 -29.5l41 156q94 32 229 32q165 0 263 -65t98 -205q0 -206 -268 -381 q117 -18 192.5 -102.5t75.5 -212.5q0 -93 -31 -170t-83.5 -129.5t-123.5 -89t-149.5 -53.5t-161.5 -17q-138 0 -246 41z" />
<glyph unicode="4" horiz-adv-x="974" d="M-8 90l614 844h164l-43 -795h223l-32 -139h-199l-23 -442h-164l23 442h-522zM164 139h399l33 596z" />
<glyph unicode="5" horiz-adv-x="802" d="M-33 -426l41 123q75 -33 197 -33q80 0 144.5 16.5t116 51.5t79.5 95t28 140q0 59 -18.5 105.5t-57 81t-78 58t-100.5 50.5l-221 98l33 574h655l-32 -156h-500l-16 -303l163 -74q55 -25 94.5 -46t90.5 -59t82.5 -79t54 -101.5t22.5 -131.5q0 -110 -42.5 -197.5 t-115.5 -142t-166.5 -83t-199.5 -28.5q-146 0 -254 41z" />
<glyph unicode="6" horiz-adv-x="966" d="M90 532q0 151 34.5 288.5t104 253.5t168 202t234.5 134t295 48h41l57 -139h-115q-129 0 -237.5 -44t-184.5 -119t-129.5 -175.5t-78.5 -214t-25 -234.5q0 -203 57.5 -318.5t171.5 -115.5q75 0 128 55t77.5 142t24.5 197q0 157 -64.5 225.5t-181.5 68.5h-57l49 107 q32 16 90 16q146 0 237 -110t91 -307q0 -69 -14 -139t-46 -138.5t-78 -121.5t-116.5 -85.5t-155.5 -32.5q-190 0 -283.5 147.5t-93.5 409.5z" />
<glyph unicode="7" horiz-adv-x="884" d="M41 -418l655 1196h-655l33 156h803l16 -25l-688 -1376z" />
<glyph unicode="8" horiz-adv-x="892" d="M49 303q0 121 69.5 216t209.5 194l34 24l-83 90q-91 99 -123.5 168.5t-32.5 151.5q0 79 32.5 140.5t88 97.5t122.5 54.5t142 18.5q68 0 130 -15.5t115 -47t84 -87t31 -128.5q0 -41 -9.5 -79.5t-29.5 -73t-39 -62t-50.5 -57.5t-51 -47.5t-53.5 -45t-45 -37.5l-29 -24 l62 -66q55 -58 83 -91.5t61 -81t46.5 -92.5t13.5 -95q0 -159 -113.5 -256t-295.5 -97q-165 0 -267 90.5t-102 237.5zM205 328q0 -110 62 -174t167 -64q103 0 166.5 58t63.5 171q0 35 -12.5 70t-40 72t-47 59.5t-56.5 61.5l-76 80l-47 -39q-100 -83 -140 -147.5t-40 -147.5z M287 1155q0 -107 114 -229l88 -97l27 23q39 33 61.5 53t52 53t45 60.5t27 65.5t11.5 79q0 83 -53.5 131.5t-159.5 48.5q-213 0 -213 -188z" />
<glyph unicode="9" horiz-adv-x="925" d="M8 -303h115q120 0 216 37.5t160.5 102.5t107.5 156t62 194.5t19 222.5q0 202 -57.5 314t-171.5 112q-107 0 -168.5 -106t-61.5 -271q0 -159 66 -235.5t180 -76.5h66l-58 -98q-32 -16 -90 -16q-145 0 -236 114t-91 312q0 68 14.5 136.5t47 134.5t79 116t116 81t152.5 31 q191 0 284 -143.5t93 -404.5q0 -186 -47 -341t-138 -269.5t-234.5 -178t-326.5 -63.5h-40z" />
<glyph unicode=":" horiz-adv-x="401" d="M57 106q0 49 33.5 82t81.5 33q49 0 82 -33t33 -90q0 -49 -33.5 -81.5t-81.5 -32.5q-49 0 -82 32.5t-33 89.5zM90 705q0 49 33.5 81.5t81.5 32.5q49 0 81.5 -33t32.5 -90q0 -49 -33 -81.5t-81 -32.5q-49 0 -82 33t-33 90z" />
<glyph unicode=";" horiz-adv-x="401" d="M0 -336q56 62 93.5 136.5t37.5 142.5q0 115 -74 139q0 58 29.5 98.5t77.5 40.5q131 0 131 -164q0 -197 -172 -393h-123zM90 705q0 49 33.5 81.5t81.5 32.5q49 0 81.5 -33t32.5 -90q0 -49 -33 -81.5t-81 -32.5q-49 0 -82 33t-33 90z" />
<glyph unicode="&#x3c;" horiz-adv-x="1032" d="M98 655l713 410l74 -98l-566 -312l525 -327l-90 -90z" />
<glyph unicode="=" horiz-adv-x="1032" d="M90 385l8 115h828l-8 -115h-828zM115 795l8 114h827l-8 -114h-827z" />
<glyph unicode="&#x3e;" horiz-adv-x="1032" d="M156 336l565 311l-524 328l90 90l655 -418l-713 -409z" />
<glyph unicode="?" horiz-adv-x="712" d="M90 106q0 48 37 81.5t86 33.5q50 0 86.5 -33.5t36.5 -89.5q0 -48 -37 -81t-86 -33q-50 0 -86.5 33t-36.5 89zM123 1212l139 131q185 -36 301.5 -141t116.5 -268q0 -146 -79 -258.5t-232 -224.5l-123 -91l-90 107q81 52 133.5 93t105.5 97t79 121t26 140q0 224 -377 294z " />
<glyph unicode="@" horiz-adv-x="1785" d="M74 451q0 195 70 363t189 283t279 180.5t338 65.5q224 0 397 -84.5t273 -249t100 -386.5q0 -100 -19 -194t-58.5 -176.5t-96 -144.5t-136 -97.5t-173.5 -35.5q-121 0 -221 50l8 127q-83 -94 -150 -135.5t-137 -41.5q-90 0 -143 96.5t-53 247.5q0 140 37.5 254.5 t109.5 199t185 131t257 46.5h123q-31 -91 -41 -245l-45 -611q41 -20 95 -20q56 0 110.5 33t100 94t73 160.5t27.5 220.5q0 306 -161 480.5t-462 174.5q-147 0 -278.5 -56.5t-229.5 -156t-155.5 -246.5t-57.5 -319q0 -152 33.5 -277t94.5 -217t152 -162t199 -115t242 -73 l-24 -82q-146 17 -271.5 61t-233.5 119.5t-184 178.5t-119.5 245.5t-43.5 313.5zM696 344q0 -92 24.5 -160.5t65.5 -68.5q37 0 111.5 56t136.5 118l39 530h-41q-150 0 -243 -128.5t-93 -346.5z" />
<glyph unicode="A" horiz-adv-x="1048" d="M-25 0l467 1212l25 91l197 40l335 -1343h-188l-92 369h-438l-134 -369h-172zM330 508h356l-143 582z" />
<glyph unicode="B" horiz-adv-x="1097" d="M156 0l57 1122q1 22 1 42q0 83 -13 155h389q175 0 263.5 -74.5t88.5 -212.5q0 -97 -58.5 -180.5t-146.5 -138.5v-8q34 -9 65.5 -21.5t69 -38t64 -58t45 -83t18.5 -111.5q0 -101 -44.5 -178.5t-120 -123t-166.5 -68.5t-193 -23h-319zM342 131h150q139 0 229 62t90 184 q0 115 -66.5 168t-203.5 53h-176zM371 729h227q70 48 117 120.5t47 158.5q0 180 -221 180h-146z" />
<glyph unicode="C" horiz-adv-x="1048" d="M98 557q0 224 78.5 402.5t225 281t335.5 102.5q145 0 279 -49l-33 -164q-119 74 -262 74q-86 0 -164.5 -43t-138.5 -121.5t-95.5 -199.5t-35.5 -267q0 -223 95.5 -340.5t264.5 -117.5q95 0 162.5 37t140.5 110l-8 -180q-124 -107 -319 -107q-248 0 -386.5 151t-138.5 431 z" />
<glyph unicode="D" horiz-adv-x="1245" d="M156 0l57 1122q1 22 1 42q0 83 -13 155h397q273 0 415 -154.5t142 -410.5q0 -151 -41 -285t-119 -239.5t-203.5 -167.5t-283.5 -62h-352zM342 139h166q98 0 177 35.5t131 94t86.5 138t49.5 163.5t15 175q0 435 -402 435h-172z" />
<glyph unicode="E" horiz-adv-x="1007" d="M156 0l57 1122q1 22 1 42q0 83 -13 155h700l-16 -139h-492l-20 -443h446l-16 -139h-438l-23 -459h543l-17 -139h-712z" />
<glyph unicode="F" horiz-adv-x="917" d="M156 0l57 1122q1 22 1 42q0 83 -13 155h684l-17 -139h-475l-22 -459h432l-17 -139h-421l-29 -582h-180z" />
<glyph unicode="G" horiz-adv-x="1200" d="M98 557q0 225 81.5 403t235.5 280.5t355 102.5q161 0 295 -49l-33 -164q-119 74 -278 74q-93 0 -177 -43t-148.5 -121.5t-103 -199.5t-38.5 -267q0 -224 97 -341t271 -117q108 0 187 45l22 389h-233l41 139h368l-32 -516l8 -98q-63 -35 -171.5 -67t-213.5 -32 q-249 0 -391 151.5t-142 430.5z" />
<glyph unicode="H" horiz-adv-x="1286" d="M156 0l57 1122q1 22 1 42q0 83 -13 155h200l-28 -574h557l20 377q1 21 1 42q0 83 -13 155h201l-66 -1319h-180l31 598h-559l-29 -598h-180z" />
<glyph unicode="I" horiz-adv-x="548" d="M156 0l57 1122q1 22 1 42q0 83 -13 155h200l-65 -1319h-180z" />
<glyph unicode="J" horiz-adv-x="548" d="M-238 -295q85 -33 172 -33q73 0 117 27t71 99.5t34 201.5l57 1122q1 22 1 42q0 84 -13 155h200l-65 -1344q-6 -109 -27.5 -186.5t-66.5 -137t-121.5 -89t-186.5 -29.5q-81 0 -131 16z" />
<glyph unicode="K" horiz-adv-x="1130" d="M156 0l57 1122q1 22 1 42q0 83 -13 155h200l-65 -1319h-180zM385 655l557 664h197l-533 -623l459 -696h-213l-401 614z" />
<glyph unicode="L" horiz-adv-x="884" d="M156 0l57 1122q1 22 1 42q0 83 -13 155h200l-59 -1180h502l-17 -139h-671z" />
<glyph unicode="M" horiz-adv-x="1622" d="M123 0l156 1161l-58 158h205l369 -1024l417 1024h181l41 -1319h-181l-32 1008l-406 -975l-94 -58l-338 906l-113 -881h-147z" />
<glyph unicode="N" horiz-adv-x="1277" d="M123 1319h213l600 -975l47 975h147l-73 -1319h-115l-594 956l-45 -956h-147l61 1167z" />
<glyph unicode="O" horiz-adv-x="1277" d="M98 590q0 220 71 390.5t204 266.5t307 96q239 0 373.5 -163.5t134.5 -450.5q0 -220 -71 -391t-204 -267t-307 -96q-238 0 -373 164t-135 451zM287 598q0 -222 83 -352.5t244 -130.5q185 0 285 166t100 440q0 222 -83 352.5t-244 130.5q-185 0 -285 -166t-100 -440z" />
<glyph unicode="P" horiz-adv-x="1048" d="M156 0l57 1122q1 22 1 42q0 83 -13 155h348q216 0 337.5 -98t121.5 -295q0 -216 -124 -341.5t-319 -125.5q-56 0 -106 16l24 107h58q57 0 107 18t91 55.5t64.5 102.5t23.5 151q0 136 -76 203.5t-235 67.5h-123l-57 -1180h-180z" />
<glyph unicode="Q" horiz-adv-x="1277" d="M98 590q0 220 71 390.5t204 266.5t307 96q239 0 373.5 -163.5t134.5 -450.5q0 -294 -125 -494.5t-340 -246.5l244 -332l-205 -25l-215 349q-212 19 -330.5 180t-118.5 430zM287 598q0 -222 83 -352.5t244 -130.5q185 0 285 166t100 440q0 222 -83 352.5t-244 130.5 q-185 0 -285 -166t-100 -440z" />
<glyph unicode="R" horiz-adv-x="1097" d="M156 0l57 1122q1 22 1 42q0 83 -13 155h381q196 0 294.5 -76t98.5 -244q0 -126 -76 -231t-199 -178l349 -590h-205l-303 532h-179l-26 -532h-180zM369 672h213q110 58 161.5 145t51.5 182q0 99 -59 140t-171 41h-172z" />
<glyph unicode="S" horiz-adv-x="925" d="M74 49l16 180q148 -114 311 -114q128 0 191 61t63 160q0 82 -41.5 137.5t-130.5 108.5l-164 98q-47 29 -81 57t-63.5 66.5t-44.5 87.5t-15 108q0 156 113 250t313 94q143 0 311 -65l-41 -156q-141 82 -287 82q-108 0 -168.5 -49.5t-60.5 -130.5q0 -73 31 -114t100 -83 l172 -106q127 -77 182.5 -160t55.5 -209q0 -177 -118 -277t-317 -100q-179 0 -327 74z" />
<glyph unicode="T" horiz-adv-x="966" d="M25 1180l16 139h958l-16 -139h-389l-62 -1180h-180l58 1180h-385z" />
<glyph unicode="U" horiz-adv-x="1302" d="M172 385l41 737q1 24 1 49q0 73 -13 148h200l-49 -909q-1 -14 -1 -27q0 -121 66 -191q73 -77 214 -77q87 0 149.5 28.5t99 82t55 120.5t23.5 154l41 819h156l-49 -868q-12 -224 -150.5 -350t-357.5 -126q-94 0 -173 25.5t-138 74.5t-90 129q-26 67 -26 149q0 15 1 32z " />
<glyph unicode="V" horiz-adv-x="1040" d="M49 1319h189l268 -1075l403 1075h164l-475 -1204l-33 -99l-172 -41z" />
<glyph unicode="W" horiz-adv-x="1679" d="M74 1319h188l207 -1086l326 908l-41 178h180l244 -1071l362 1071h164l-434 -1204l-33 -99l-172 -41l-215 922l-293 -782l-33 -99l-180 -41z" />
<glyph unicode="X" horiz-adv-x="1024" d="M-25 0l455 647l-340 672h197l256 -510l342 510h172l-449 -641l342 -678h-188l-264 516l-351 -516h-172z" />
<glyph unicode="Y" horiz-adv-x="942" d="M33 1319h196l263 -619l344 619h163l-434 -737l-14 -54l-27 -528h-180l27 522l-11 51z" />
<glyph unicode="Z" horiz-adv-x="999" d="M16 57l189 287l516 836h-623l25 139h827l33 -57l-188 -287l-516 -836h630l-16 -139h-844z" />
<glyph unicode="[" horiz-adv-x="573" d="M131 -418l82 1827l442 49l-8 -147h-295l-82 -1630h303l-8 -148z" />
<glyph unicode="\" horiz-adv-x="516" d="M147 1335l123 25l74 -1573l-123 -25z" />
<glyph unicode="]" horiz-adv-x="573" d="M-74 -467l8 148h295l82 1630h-303l8 147l435 -49l-82 -1827z" />
<glyph unicode="^" horiz-adv-x="1032" d="M57 541l475 794l402 -778l-107 -74l-307 607l-356 -607z" />
<glyph unicode="_" horiz-adv-x="991" d="M-33 -74h991v-123h-991v123z" />
<glyph unicode="`" horiz-adv-x="901" d="M295 1343l123 82l213 -327l-82 -49z" />
<glyph unicode="a" d="M82 319q0 140 37.5 254.5t111 199t190 131t267.5 46.5h127q-26 -81 -29 -155l-32 -639q-1 -20 -1 -37q0 -75 17 -119l-188 -25l8 187q-86 -101 -156 -144t-147 -43q-100 0 -152.5 94.5t-52.5 249.5zM254 344q0 -95 21 -162t61 -67q39 0 120 59.5t142 120.5l27 524h-35 q-150 0 -243 -128.5t-93 -346.5z" />
<glyph unicode="b" d="M139 0l66 1237q1 21 1 42q0 80 -18 155h189l-35 -664q91 105 159.5 146.5t145.5 41.5q100 0 152.5 -94.5t52.5 -249.5q0 -137 -36 -250.5t-107 -199t-183 -133t-256 -47.5q-49 0 -131 16zM309 115h35q150 0 243 128.5t93 346.5q0 95 -21 162t-61 67q-39 0 -120 -59.5 t-142 -120.5z" />
<glyph unicode="c" horiz-adv-x="729" d="M82 360q0 91 14.5 175.5t47 162.5t80.5 135t121 91t163 34q106 0 172 -40l-33 -156q-78 65 -155 65q-58 0 -102 -30.5t-69 -76t-41 -108t-21 -116.5t-5 -111q0 -279 139 -279q56 0 110 32t120 91l32 -114q-31 -27 -53.5 -44t-62.5 -43t-83.5 -39.5t-86.5 -13.5 q-150 0 -218.5 97.5t-68.5 287.5z" />
<glyph unicode="d" d="M82 319q0 178 59 313t184 219.5t306 96.5l16 289q1 22 1 44q0 80 -17 153h188l-65 -1287q-1 -14 -1 -28q0 -68 17 -119l-188 -25l8 187q-87 -100 -157 -143.5t-146 -43.5q-100 0 -152.5 94.5t-52.5 249.5zM254 344q0 -95 21 -162t61 -67q39 0 120 59.5t142 120.5l27 516 h-35q-151 0 -243.5 -124.5t-92.5 -342.5z" />
<glyph unicode="e" horiz-adv-x="761" d="M82 360q0 80 13 160t44.5 160t77 141t117 99t158.5 38q102 0 161.5 -45.5t59.5 -134.5q0 -114 -73.5 -189t-221.5 -138l-164 -70q0 -63 5 -107.5t18 -85t40 -61.5t68 -21q62 0 120.5 27.5t133.5 79.5l33 -115q-80 -56 -156 -89.5t-164 -33.5q-144 0 -207 94.5t-63 290.5z M258 489l61 27q124 54 177 105.5t53 123.5q0 91 -82 91q-75 0 -133.5 -96.5t-75.5 -250.5z" />
<glyph unicode="f" horiz-adv-x="524" d="M0 803l16 131h150l6 98q13 221 113 323.5t288 102.5q119 0 205 -24l-41 -140q-85 33 -180 33q-207 0 -221 -270l-6 -123h235l-16 -131h-225l-62 -1245h-164l62 1245h-160z" />
<glyph unicode="g" d="M-74 -254q0 67 53.5 110.5t126.5 61.5l33 -49l-65 -115q32 -45 96.5 -75.5t140.5 -30.5q120 0 192 82.5t79 244.5l8 187q-86 -101 -156 -144t-147 -43q-100 0 -152.5 94.5t-52.5 249.5q0 140 37.5 254.5t111 199t190 131t267.5 46.5h127q-26 -81 -29 -155l-41 -795 q-5 -105 -32 -187.5t-79.5 -146.5t-138 -98.5t-200.5 -34.5q-167 0 -268 66t-101 147zM254 344q0 -95 21 -162t61 -67q39 0 120 59.5t142 120.5l27 524h-35q-150 0 -243 -128.5t-93 -346.5z" />
<glyph unicode="h" horiz-adv-x="974" d="M139 0l66 1237q1 21 1 42q0 80 -18 155h189l-37 -711q40 57 84 103.5t112 85t136 38.5q76 0 118 -43q38 -39 37 -114v-15l-32 -622q-1 -20 -1 -37q0 -75 17 -119h-188l32 631q4 66 4 90q0 42 -10 58t-35 16q-103 0 -280 -205l-31 -590h-164z" />
<glyph unicode="i" horiz-adv-x="491" d="M139 0l41 778q1 20 1 37q0 75 -17 119h188l-41 -778q-1 -19 -1 -36q0 -75 18 -120h-189zM197 1311q0 48 26 85.5t72 37.5q40 0 61 -30.5t21 -76.5q0 -48 -26 -85.5t-72 -37.5q-40 0 -61 30.5t-21 76.5z" />
<glyph unicode="j" horiz-adv-x="491" d="M-287 -295q80 -41 205 -41q109 0 161 68t60 211l41 835q1 20 1 37q0 75 -17 119h188l-49 -991q-5 -90 -28 -161.5t-68 -129t-120.5 -88.5t-176.5 -31q-90 0 -156 16zM205 1311q0 48 26 85.5t72 37.5q40 0 61 -30.5t21 -76.5q0 -48 -26 -85.5t-72 -37.5q-40 0 -61 30.5 t-21 76.5z" />
<glyph unicode="k" horiz-adv-x="860" d="M139 0l66 1237q1 21 1 42q0 80 -18 155h189l-66 -1287q-1 -13 -1 -26q0 -67 18 -121h-189zM344 524l41 17l295 393h180l-336 -410l295 -524l-180 -16z" />
<glyph unicode="l" horiz-adv-x="491" d="M139 0l66 1237q1 21 1 42q0 80 -18 155h189l-66 -1287q-1 -13 -1 -26q0 -67 18 -121h-189z" />
<glyph unicode="m" horiz-adv-x="1441" d="M139 0l41 778q1 20 1 37q0 75 -17 119h188l-18 -219q31 45 60.5 79.5t72 73.5t93 60.5t104.5 21.5q78 0 120 -46q36 -40 36 -106q0 -10 -1 -20l-4 -55q158 227 324 227q75 0 117 -43q38 -39 38 -114v-15l-32 -622q-1 -20 -1 -37q0 -75 17 -119h-188l32 631q4 66 4 90 q0 42 -10 58t-35 16q-101 0 -272 -203l-31 -592h-164l33 631q4 66 4 90q0 42 -10 58t-35 16q-101 0 -272 -203l-31 -592h-164z" />
<glyph unicode="n" horiz-adv-x="974" d="M139 0l41 778q1 20 1 37q0 75 -17 119h188l-18 -219q163 235 338 235q76 0 118 -43q38 -39 37 -114v-15l-32 -622q-1 -20 -1 -37q0 -75 17 -119h-188l32 631q4 66 4 90q0 42 -10 58t-35 16q-57 0 -134 -61.5t-146 -143.5l-31 -590h-164z" />
<glyph unicode="o" horiz-adv-x="892" d="M82 393q0 164 44.5 290t136 200.5t220.5 74.5q153 0 240.5 -105.5t87.5 -311.5q0 -164 -44.5 -290.5t-136 -201t-220.5 -74.5q-152 0 -240 105.5t-88 312.5zM254 401q0 -303 172 -303q100 0 156.5 115.5t56.5 318.5q0 304 -172 304q-100 0 -156.5 -116t-56.5 -319z" />
<glyph unicode="p" d="M115 -442l65 1179q1 23 1 44q0 81 -17 153h188l-8 -162q89 104 157 145t146 41q100 0 152.5 -94.5t52.5 -249.5q0 -134 -34.5 -245.5t-101.5 -196t-173 -134t-242 -54.5l-14 -279q-1 -14 -1 -28q0 -67 17 -119h-188zM307 115h37q150 0 243 128.5t93 346.5q0 95 -21 162 t-61 67q-39 0 -120 -59.5t-142 -120.5z" />
<glyph unicode="q" d="M82 319q0 140 37.5 254.5t111 199t190 131t267.5 46.5h127q-24 -70 -27 -147l-51 -1090q-1 -18 -1 -35q0 -74 18 -120l-189 -25l29 633q-87 -102 -158.5 -146.5t-148.5 -44.5q-100 0 -152.5 94.5t-52.5 249.5zM254 344q0 -95 21 -162t61 -67q38 0 119 59t145 121l25 524 h-35q-150 0 -243 -128.5t-93 -346.5z" />
<glyph unicode="r" horiz-adv-x="614" d="M139 0l41 778q1 20 1 37q0 75 -17 119h188l-10 -184l8 -5q112 205 199 205q25 0 57 -16l-24 -180l-244 -82l-27 -516q-1 -19 -1 -36q0 -75 18 -120h-189z" />
<glyph unicode="s" horiz-adv-x="655" d="M41 25l33 147q53 -35 114 -54.5t107 -19.5q67 0 103 36t36 104q0 75 -98 155l-115 90q-58 45 -90.5 97.5t-32.5 128.5q0 117 86.5 183t225.5 66q128 0 213 -24l-33 -148q-86 50 -180 50q-70 0 -109 -31t-39 -76q0 -41 23 -74t75 -73l115 -90q123 -96 123 -246 q0 -124 -82.5 -197.5t-228.5 -73.5q-134 0 -246 50z" />
<glyph unicode="t" horiz-adv-x="614" d="M16 803l17 131h155v180l189 66l-23 -246h244l-16 -131h-238l-25 -508q-2 -37 -1 -66q0 -35 2 -59q5 -42 15.5 -53t33.5 -11q74 0 172 82l32 -114q-150 -99 -262 -99q-164 0 -164 185v20l33 623h-164z" />
<glyph unicode="u" horiz-adv-x="974" d="M147 156l33 622q1 20 1 37q0 75 -17 119h188l-33 -631q-4 -66 -4 -90q0 -42 10 -58t35 -16q57 0 134 61t147 142l31 576l164 40l-41 -802q-1 -20 -1 -37q0 -75 17 -119l-188 -25l16 244q-28 -42 -60 -79t-75 -74.5t-95.5 -59.5t-105.5 -22q-77 0 -119 43q-38 39 -37 114 v15z" />
<glyph unicode="v" horiz-adv-x="876" d="M131 213l33 573q1 13 1 26q0 67 -18 122h189l-41 -713q-1 -10 -1 -19q0 -46 18 -64q20 -22 57 -23q79 0 142 83t95.5 216.5t32.5 290.5q0 128 -33 229h172q17 -79 17 -180q0 -201 -54 -376t-162.5 -289t-250.5 -114q-198 0 -198 211q0 13 1 27z" />
<glyph unicode="w" horiz-adv-x="1310" d="M131 213l33 573q1 13 1 26q0 67 -18 122h189l-41 -713q-1 -14 -1 -27q0 -42 10 -58q14 -22 48 -21q18 0 38.5 9.5t45 33t41 40t45.5 54t38.5 50.5t37.5 52l25 432q1 13 1 26q0 67 -18 122h189l-41 -713v-16q0 -47 16 -67q18 -24 57 -23q71 0 128.5 86.5t87.5 220.5 t30 283q0 128 -33 229h172q17 -79 17 -180q0 -143 -30.5 -281t-85.5 -249.5t-140.5 -180t-186.5 -68.5q-88 0 -143 54t-55 159q-126 -213 -277 -213q-95 1 -141 57q-39 49 -40 149q0 15 1 32z" />
<glyph unicode="x" horiz-adv-x="794" d="M16 49l299 402l-241 467l172 16l174 -338l235 346l123 -65l-295 -404l246 -473l-172 -16l-178 344l-240 -344z" />
<glyph unicode="y" horiz-adv-x="974" d="M106 -295q93 -41 238 -41q135 0 203 84t76 227l12 236q-40 -57 -84 -103.5t-112 -85t-136 -38.5q-77 0 -119 43q-37 39 -37 114v15l33 622q1 20 1 37q0 75 -17 119h188l-33 -631q-4 -66 -4 -90q0 -42 10 -58t35 -16q57 0 134.5 61.5t146.5 143.5l31 574l164 32l-50 -975 q-3 -70 -19 -131.5t-51 -119.5t-86.5 -99.5t-131 -66.5t-179.5 -25q-81 0 -163 16z" />
<glyph unicode="z" horiz-adv-x="720" d="M16 66l467 729h-401l24 139h558l41 -66l-467 -729h426l-41 -139h-566z" />
<glyph unicode="{" horiz-adv-x="696" d="M25 467v82q156 12 212.5 63.5t59.5 173.5l10 361q2 77 23.5 131.5t68.5 96.5t129 62.5t201 20.5h25l-9 -98q-63 0 -102 -3t-73.5 -12.5t-53 -25.5t-33.5 -45.5t-21.5 -67.5t-10.5 -96l-25 -348q-7 -95 -37.5 -154t-101.5 -82l-58 -18l58 -19q66 -21 92.5 -79t21.5 -156 l-16 -352q-3 -63 -0.5 -104t14 -73t28.5 -49t51 -28t74 -14t103 -3v-98h-24q-228 0 -316 76.5t-77 234.5l26 394q8 125 -39 171t-200 58z" />
<glyph unicode="|" horiz-adv-x="696" d="M213 -492l106 2048h140l-107 -2048h-139z" />
<glyph unicode="}" horiz-adv-x="696" d="M-82 -467l8 98q62 0 100.5 2.5t73.5 12.5t54 25.5t34.5 44.5t22 68t10.5 97l25 373q7 95 37.5 153.5t101.5 81.5l57 19l-57 18q-66 21 -93 79.5t-22 156.5l17 328q3 63 0.5 105t-15.5 73t-30.5 48.5t-52 27.5t-73 13t-100.5 3v98h25q228 0 316 -76.5t77 -234.5l-24 -369 q-4 -64 3 -102t33 -66t73.5 -41.5t127.5 -19.5v-82q-106 -8 -163.5 -34.5t-80.5 -73t-26 -130.5l-17 -385q-4 -105 -41.5 -171t-129.5 -103t-246 -37h-25z" />
<glyph unicode="~" horiz-adv-x="1032" d="M90 565l197 230h73l213 -74q72 -25 132 -25q35 0 65 22t74 77l33 41l81 -58l-196 -229h-74l-213 74q-69 24 -131 24q-35 0 -65.5 -21.5t-73.5 -76.5l-33 -41z" />
<glyph unicode="&#xa1;" horiz-adv-x="540" d="M123 -377l65 942h123l-16 -942h-172zM131 844q0 48 37 81t86 33q50 0 86.5 -33t36.5 -89q0 -48 -37 -81.5t-86 -33.5q-50 0 -86.5 33.5t-36.5 89.5z" />
<glyph unicode="&#xa2;" horiz-adv-x="983" d="M74 557q0 210 65 379.5t190.5 276t293.5 126.5l12 168h78l-13 -164q144 -3 275 -49l-33 -164q-116 72 -250 74l-74 -1089q84 5 145.5 42t129.5 105l-8 -180q-104 -92 -275 -105l-12 -190h-78l12 188q-229 10 -343.5 158t-114.5 424zM262 573q0 -422 279 -456l73 1079 q-155 -30 -253.5 -195t-98.5 -428z" />
<glyph unicode="&#xa3;" horiz-adv-x="966" d="M0 0v98q235 64 254 394l8 147h-180l57 131h131l9 139q26 434 417 434q165 0 295 -81l-73 -123l-213 106q-42 0 -75.5 -8t-65.5 -30t-54.5 -59t-38 -97.5t-20.5 -141.5l-9 -139h312l-58 -131h-262l-8 -147q-6 -129 -66 -223.5t-172 -129.5h691l-17 -139h-862z" />
<glyph unicode="&#xa4;" horiz-adv-x="966" d="M90 385l133 111q-35 68 -35 151q0 100 54 182l-119 113l74 82l114 -115q90 74 205 74q119 0 199 -74l129 115l65 -82l-135 -113q37 -69 37 -149q0 -98 -55 -184l121 -111l-74 -82l-115 115q-87 -74 -205 -74t-198 74l-129 -115zM303 647q0 -91 54 -152t135 -61 q90 0 147 72t57 174q0 91 -53.5 152t-134.5 61q-90 0 -147.5 -72t-57.5 -174z" />
<glyph unicode="&#xa5;" horiz-adv-x="999" d="M49 287l8 73h330l8 162l-4 19h-334l9 73h301l-310 705h197l262 -619l344 619h164l-416 -705h316l-9 -73h-337l-3 -11l-8 -170h348l-8 -73h-344l-14 -287h-180l14 287h-334z" />
<glyph unicode="&#xa6;" horiz-adv-x="696" d="M229 -164l31 574h139l-30 -574h-140zM283 860l28 574h140l-29 -574h-139z" />
<glyph unicode="&#xa7;" horiz-adv-x="917" d="M49 -319l57 139l312 -131q75 6 127.5 59.5t52.5 120.5q0 63 -42.5 110t-137.5 103l-139 82q-66 39 -109.5 77.5t-65.5 79.5t-30 78t-8 84q0 74 49.5 147t105.5 115l82 -65q-36 -23 -63 -75t-27 -97q0 -73 41 -124.5t139 -104.5l107 -58q132 -71 193 -146.5t61 -172.5 q0 -139 -104.5 -233.5t-264.5 -94.5q-171 0 -336 107zM156 1016q0 139 104 233t264 94q172 0 336 -106l-57 -139l-311 131q-75 -6 -128 -59.5t-53 -120.5q0 -63 42.5 -110t138.5 -103l139 -82q126 -74 169.5 -148t43.5 -172q0 -74 -49.5 -147t-106.5 -115l-82 66 q36 23 63 75t27 97q0 73 -41 124.5t-139 104.5l-106 57q-132 71 -193 147t-61 173z" />
<glyph unicode="&#xa8;" horiz-adv-x="901" d="M254 1221q0 45 24 75.5t66 30.5q41 0 61.5 -29.5t20.5 -76.5q0 -45 -24 -76t-66 -31q-41 0 -61.5 30t-20.5 77zM565 1221q0 45 24 75.5t66 30.5q41 0 61.5 -29.5t20.5 -76.5q0 -45 -24 -76t-66 -31q-41 0 -61.5 30t-20.5 77z" />
<glyph unicode="&#xa9;" horiz-adv-x="1425" d="M49 655q0 188 90.5 346.5t245 250t336.5 91.5q137 0 260.5 -52t214 -141.5t144 -216.5t53.5 -269q0 -141 -53.5 -269t-144 -220t-214.5 -146t-260 -54q-137 0 -260.5 52.5t-214 142t-144 216.5t-53.5 269zM139 655q0 -166 78 -303.5t211.5 -216t292.5 -78.5 q119 0 226.5 47t185.5 127.5t124 193.5t46 239q0 166 -78 303.5t-211.5 216t-292.5 78.5q-119 0 -226.5 -47t-185.5 -127.5t-124 -193.5t-46 -239zM401 664q0 148 98.5 237.5t254.5 89.5q136 0 213 -49v-115q-37 31 -100 52.5t-122 21.5q-95 0 -158 -62t-63 -167 q0 -101 65.5 -169.5t172.5 -68.5q116 0 205 66v-107q-30 -19 -91.5 -34t-121.5 -15q-163 0 -258 89.5t-95 230.5z" />
<glyph unicode="&#xaa;" horiz-adv-x="770" d="M90 852q0 219 126.5 347t356.5 128h132q-22 -65 -25 -131l-25 -475q-4 -61 17 -115l-164 -16l6 143q-72 -78 -129.5 -110.5t-122.5 -32.5q-83 0 -127.5 73t-44.5 189zM246 868q0 -69 17.5 -112t47.5 -43q33 0 92 38.5t115 94.5l17 366h-27q-117 0 -189.5 -91t-72.5 -253z " />
<glyph unicode="&#xab;" horiz-adv-x="786" d="M49 475l221 377h148l-205 -377l74 -303h-140zM385 475l221 377h148l-205 -377l74 -303h-140z" />
<glyph unicode="&#xac;" horiz-adv-x="1032" d="M90 647l8 115h838l-27 -459h-131l19 344h-707z" />
<glyph unicode="&#xad;" horiz-adv-x="638" d="M90 573l451 58l16 -164l-451 -57z" />
<glyph unicode="&#xae;" horiz-adv-x="1425" d="M49 655q0 188 90.5 346.5t245 250t336.5 91.5q137 0 260.5 -52t214 -141.5t144 -216.5t53.5 -269q0 -141 -53.5 -269t-144 -220t-214.5 -146t-260 -54q-137 0 -260.5 52.5t-214 142t-144 216.5t-53.5 269zM139 655q0 -166 78 -303.5t211.5 -216t292.5 -78.5 q119 0 226.5 47t185.5 127.5t124 193.5t46 239q0 166 -78 303.5t-211.5 216t-292.5 78.5q-119 0 -226.5 -47t-185.5 -127.5t-124 -193.5t-46 -239zM500 369v606q114 24 213 24q107 0 176 -48t69 -132q0 -57 -36 -102.5t-95 -73.5l238 -274h-147l-197 241q-16 -4 -49 -4 q-40 0 -58 4v-241h-114zM614 684l131 -12q91 52 91 139q0 61 -46 88t-151 27h-25v-242z" />
<glyph unicode="&#xaf;" horiz-adv-x="901" d="M262 1147v115h467v-115h-467z" />
<glyph unicode="&#xb0;" horiz-adv-x="573" d="M66 1081q0 105 74 179.5t179 74.5t179.5 -74.5t74.5 -179.5t-74.5 -179.5t-179.5 -74.5t-179 74.5t-74 179.5zM156 1081q0 -71 46.5 -121.5t116.5 -50.5q71 0 117.5 50.5t46.5 121.5q0 70 -50.5 121t-121.5 51q-70 0 -112.5 -50t-42.5 -122z" />
<glyph unicode="&#xb1;" horiz-adv-x="1032" d="M66 0l8 115h827l-8 -115h-827zM94 655l8 115h351l14 303h131l-14 -303h346l-8 -115h-342l-15 -319h-131l15 319h-355z" />
<glyph unicode="&#xb2;" horiz-adv-x="786" d="M131 1016l246 196q85 69 124.5 121.5t39.5 108.5q0 51 -35.5 78.5t-104.5 27.5q-107 0 -213 -49l25 131q83 41 221 41q110 0 182 -50.5t72 -154.5q0 -50 -16.5 -94t-48 -80.5t-63.5 -63.5t-77 -57l-172 -114h402l-25 -131q-82 16 -156 16h-385z" />
<glyph unicode="&#xb3;" horiz-adv-x="786" d="M131 958l33 107q29 -13 82.5 -23t97.5 -10q86 0 145.5 29t59.5 94q0 39 -39 64.5t-117 25.5h-155l24 107h139q58 22 94.5 54.5t36.5 68.5q0 41 -36.5 61t-94.5 20q-105 0 -196 -40l33 122q79 33 188 33q114 0 180 -44t66 -128q0 -53 -45 -94.5t-107 -65.5 q73 -13 120.5 -58.5t47.5 -117.5q0 -82 -53 -137t-129.5 -77.5t-169.5 -22.5q-104 0 -205 32z" />
<glyph unicode="&#xb4;" horiz-adv-x="901" d="M369 1098l204 327l123 -82l-245 -294z" />
<glyph unicode="&#xb5;" horiz-adv-x="987" d="M102 -442q12 30 19.5 77t5.5 78l57 1205l164 40l-31 -720q8 -54 44.5 -80.5t84.5 -26.5q109 0 187 123l35 664l163 40l-40 -802q-5 -102 16 -156l-189 -25l17 172q-31 -75 -88.5 -119t-124.5 -44q-74 0 -113 57l-18 -483h-189z" />
<glyph unicode="&#xb6;" horiz-adv-x="1179" d="M74 958q0 152 110 264.5t267 112.5q107 0 196 -24l-41 -828h-24q-226 0 -367 130t-141 345zM213 -385l57 147l262 -57q50 11 89 52.5t60.5 98.5t33 112t14.5 106l66 1245h401l-41 -131h-197l-65 -1114q-15 -254 -121.5 -377t-320.5 -123q-116 0 -238 41z" />
<glyph unicode="&#xb7;" horiz-adv-x="565" d="M147 545q0 58 38.5 96.5t97.5 38.5t97 -38t38 -97t-38 -97t-97 -38t-97.5 38.5t-38.5 96.5z" />
<glyph unicode="&#xb8;" horiz-adv-x="901" d="M205 -410l45 91q74 -41 151 -41q46 0 72.5 19.5t26.5 53.5q0 40 -37 63t-152 52l66 172h74l-25 -102q107 -27 152 -69t45 -108q0 -87 -57 -137.5t-165 -50.5q-116 0 -196 57z" />
<glyph unicode="&#xb9;" horiz-adv-x="786" d="M172 1483l16 90l369 98l-16 -98l-33 -631h-148l33 574z" />
<glyph unicode="&#xba;" horiz-adv-x="745" d="M90 893q0 87 19 163t58 140t107.5 101.5t159.5 37.5q136 0 207.5 -75.5t71.5 -227.5q0 -87 -19 -163t-58 -140t-107.5 -101.5t-159.5 -37.5q-136 0 -207.5 75.5t-71.5 227.5zM246 901q0 -101 31 -153t108 -52q61 0 101.5 51t55.5 121.5t15 155.5q0 101 -31 153t-108 52 q-61 0 -101.5 -51t-55.5 -121.5t-15 -155.5z" />
<glyph unicode="&#xbb;" horiz-adv-x="786" d="M33 172l205 377l-74 303h139l98 -303l-221 -377h-147zM369 172l204 377l-73 303h139l98 -303l-221 -377h-147z" />
<glyph unicode="&#xbc;" horiz-adv-x="1591" d="M152 1155l16 90l369 98l-17 -98l-33 -631h-147l33 574zM432 0l615 1352l90 -33l-615 -1352zM854 238l385 475h147l-24 -426h131l-25 -107h-112l-10 -180h-140l11 180h-347zM1001 287h222l16 305z" />
<glyph unicode="&#xbd;" horiz-adv-x="1652" d="M152 1155l16 90l369 98l-17 -98l-33 -631h-147l33 574zM408 0l614 1352l90 -33l-614 -1352zM940 74l246 196q85 69 124.5 121.5t39.5 108.5q0 51 -35.5 78.5t-104.5 27.5q-107 0 -213 -49l25 131q83 41 221 41q110 0 182 -50.5t72 -154.5q0 -50 -16.5 -94t-48 -80.5 t-63.5 -63.5t-77 -57l-172 -114h402l-25 -131q-82 16 -156 16h-385z" />
<glyph unicode="&#xbe;" horiz-adv-x="1683" d="M111 631l32 106q29 -12 83 -22t98 -10q40 0 74.5 6t64.5 19.5t47.5 38t17.5 58.5q0 40 -39 65.5t-116 25.5h-156l25 106h139q58 22 94.5 54.5t36.5 68.5q0 41 -36.5 61.5t-94.5 20.5q-104 0 -197 -41l33 123q76 32 189 32t179 -44t66 -128q0 -53 -44.5 -94t-106.5 -65 q73 -13 120.5 -58.5t47.5 -117.5q0 -82 -53.5 -137.5t-130 -78t-169.5 -22.5q-99 0 -204 33zM524 0l615 1352l90 -33l-615 -1352zM946 238l385 475h148l-25 -426h131l-24 -107h-113l-10 -180h-140l11 180h-346zM1094 287h221l16 305z" />
<glyph unicode="&#xbf;" horiz-adv-x="712" d="M33 8q0 147 79 259.5t232 224.5l123 90l90 -107q-64 -41 -107.5 -73t-92 -76.5t-77.5 -86.5t-48 -97.5t-19 -116.5q0 -225 377 -295l-139 -131q-185 36 -301.5 141t-116.5 268zM377 844q0 48 37 81t86 33q50 0 86.5 -33t36.5 -89q0 -48 -37 -81.5t-86 -33.5 q-50 0 -86.5 33.5t-36.5 89.5z" />
<glyph unicode="&#xc0;" horiz-adv-x="1048" d="M-25 0l467 1212l25 91l197 40l335 -1343h-188l-92 369h-438l-134 -369h-172zM330 508h356l-143 582zM354 1628l97 119l321 -252l-57 -76z" />
<glyph unicode="&#xc1;" horiz-adv-x="1048" d="M-25 0l467 1212l25 91l197 40l335 -1343h-188l-92 369h-438l-134 -369h-172zM330 508h356l-143 582zM383 1495l338 254l96 -121l-377 -209z" />
<glyph unicode="&#xc2;" horiz-adv-x="1048" d="M-25 0l467 1212l25 91l197 40l335 -1343h-188l-92 369h-438l-134 -369h-172zM283 1524l313 221l293 -221l-62 -82l-239 139l-252 -139zM330 508h356l-143 582z" />
<glyph unicode="&#xc3;" horiz-adv-x="1048" d="M-25 0l467 1212l25 91l197 40l335 -1343h-188l-92 369h-438l-134 -369h-172zM254 1491l131 180h57l295 -82l99 99l57 -41l-131 -181h-57l-295 82l-99 -98zM330 508h356l-143 582z" />
<glyph unicode="&#xc4;" horiz-adv-x="1048" d="M-25 0l467 1212l25 91l197 40l335 -1343h-188l-92 369h-438l-134 -369h-172zM303 1565q0 45 24 75.5t66 30.5q41 0 61.5 -29.5t20.5 -76.5q0 -45 -24 -76t-66 -31q-41 0 -61.5 30t-20.5 77zM330 508h356l-143 582zM688 1565q0 45 24 75.5t66 30.5q41 0 61.5 -29.5 t20.5 -76.5q0 -45 -24 -76t-66 -31q-41 0 -61.5 30t-20.5 77z" />
<glyph unicode="&#xc5;" horiz-adv-x="1048" d="M-25 0l467 1212l25 91l197 40l335 -1343h-188l-92 369h-438l-134 -369h-172zM330 508h356l-143 582zM385 1602q0 79 57 131.5t148 52.5q84 0 136 -46.5t52 -117.5q0 -77 -59 -128.5t-148 -51.5q-84 0 -135 45t-51 115zM475 1606q0 -39 27.5 -60.5t72.5 -21.5t79 24.5 t34 65.5q0 42 -27 66t-75 24q-50 0 -80.5 -26.5t-30.5 -71.5z" />
<glyph unicode="&#xc6;" horiz-adv-x="1523" d="M-66 0l738 1319h745l-16 -139h-492l-20 -443h446l-16 -139h-438l-23 -459h543l-17 -139h-712l18 369h-383l-201 -369h-172zM385 508h311l31 627z" />
<glyph unicode="&#xc7;" horiz-adv-x="1048" d="M98 557q0 224 78.5 402.5t225 281t335.5 102.5q145 0 279 -49l-33 -164q-119 74 -262 74q-86 0 -164.5 -43t-138.5 -121.5t-95.5 -199.5t-35.5 -267q0 -223 95.5 -340.5t264.5 -117.5q95 0 162.5 37t140.5 110l-8 -180q-112 -95 -285 -105l-18 -79q107 -27 152 -69 t45 -108q0 -87 -57 -137.5t-165 -50.5q-116 0 -196 57l45 91q74 -41 151 -41q46 0 72.5 19.5t26.5 53.5q0 40 -37 63t-152 52l56 149q-228 12 -355 162.5t-127 417.5z" />
<glyph unicode="&#xc8;" horiz-adv-x="1007" d="M156 0l57 1122q4 108 -12 197h700l-16 -139h-492l-20 -443h446l-16 -139h-438l-23 -459h543l-17 -139h-712zM338 1628l96 119l322 -252l-58 -76z" />
<glyph unicode="&#xc9;" horiz-adv-x="1007" d="M156 0l57 1122q4 108 -12 197h700l-16 -139h-492l-20 -443h446l-16 -139h-438l-23 -459h543l-17 -139h-712zM367 1495l338 254l96 -121l-377 -209z" />
<glyph unicode="&#xca;" horiz-adv-x="1007" d="M156 0l57 1122q4 108 -12 197h700l-16 -139h-492l-20 -443h446l-16 -139h-438l-23 -459h543l-17 -139h-712zM266 1524l314 221l292 -221l-61 -82l-240 139l-252 -139z" />
<glyph unicode="&#xcb;" horiz-adv-x="1007" d="M156 0l57 1122q4 108 -12 197h700l-16 -139h-492l-20 -443h446l-16 -139h-438l-23 -459h543l-17 -139h-712zM287 1565q0 45 24 75.5t66 30.5q41 0 61.5 -29.5t20.5 -76.5q0 -45 -24 -76t-66 -31q-41 0 -61.5 30t-20.5 77zM672 1565q0 45 24 75.5t66 30.5q41 0 61.5 -29.5 t20.5 -76.5q0 -45 -24 -76t-66 -31q-41 0 -61.5 30t-20.5 77z" />
<glyph unicode="&#xcc;" horiz-adv-x="548" d="M100 1628l97 119l321 -252l-57 -76zM156 0l57 1122q4 108 -12 197h200l-65 -1319h-180z" />
<glyph unicode="&#xcd;" horiz-adv-x="548" d="M129 1495l338 254l96 -121l-377 -209zM156 0l57 1122q4 108 -12 197h200l-65 -1319h-180z" />
<glyph unicode="&#xce;" horiz-adv-x="548" d="M29 1524l313 221l293 -221l-62 -82l-239 139l-252 -139zM156 0l57 1122q4 108 -12 197h200l-65 -1319h-180z" />
<glyph unicode="&#xcf;" horiz-adv-x="548" d="M49 1565q0 45 24 75.5t66 30.5q41 0 61.5 -29.5t20.5 -76.5q0 -45 -24 -76t-66 -31q-41 0 -61.5 30t-20.5 77zM156 0l57 1122q4 108 -12 197h200l-65 -1319h-180zM434 1565q0 45 24 75.5t66 30.5q41 0 61.5 -29.5t20.5 -76.5q0 -45 -24 -76t-66 -31q-41 0 -61.5 30 t-20.5 77z" />
<glyph unicode="&#xd0;" horiz-adv-x="1245" d="M33 614l16 131h144l20 377q4 107 -12 197h397q273 0 415 -154.5t142 -410.5q0 -151 -41 -285t-119 -239.5t-203.5 -167.5t-283.5 -62h-352l30 614h-153zM342 139h166q98 0 177 35.5t131 94t86.5 138t49.5 163.5t15 175q0 435 -402 435h-172l-20 -435h258l-17 -131h-247z " />
<glyph unicode="&#xd1;" horiz-adv-x="1277" d="M123 1319h213l600 -975l47 975h147l-73 -1319h-115l-594 956l-45 -956h-147l61 1167zM352 1491l131 180h58l295 -82l98 99l57 -41l-131 -181h-57l-295 82l-98 -98z" />
<glyph unicode="&#xd2;" horiz-adv-x="1277" d="M98 590q0 220 71 390.5t204 266.5t307 96q239 0 373.5 -163.5t134.5 -450.5q0 -220 -71 -391t-204 -267t-307 -96q-238 0 -373 164t-135 451zM287 598q0 -222 83 -352.5t244 -130.5q185 0 285 166t100 440q0 222 -83 352.5t-244 130.5q-185 0 -285 -166t-100 -440z M461 1628l96 119l322 -252l-58 -76z" />
<glyph unicode="&#xd3;" horiz-adv-x="1277" d="M98 590q0 220 71 390.5t204 266.5t307 96q239 0 373.5 -163.5t134.5 -450.5q0 -220 -71 -391t-204 -267t-307 -96q-238 0 -373 164t-135 451zM287 598q0 -222 83 -352.5t244 -130.5q185 0 285 166t100 440q0 222 -83 352.5t-244 130.5q-185 0 -285 -166t-100 -440z M489 1495l338 254l97 -121l-377 -209z" />
<glyph unicode="&#xd4;" horiz-adv-x="1277" d="M98 590q0 220 71 390.5t204 266.5t307 96q239 0 373.5 -163.5t134.5 -450.5q0 -220 -71 -391t-204 -267t-307 -96q-238 0 -373 164t-135 451zM287 598q0 -222 83 -352.5t244 -130.5q185 0 285 166t100 440q0 222 -83 352.5t-244 130.5q-185 0 -285 -166t-100 -440z M389 1524l313 221l293 -221l-61 -82l-240 139l-252 -139z" />
<glyph unicode="&#xd5;" horiz-adv-x="1277" d="M98 590q0 220 71 390.5t204 266.5t307 96q239 0 373.5 -163.5t134.5 -450.5q0 -220 -71 -391t-204 -267t-307 -96q-238 0 -373 164t-135 451zM287 598q0 -222 83 -352.5t244 -130.5q185 0 285 166t100 440q0 222 -83 352.5t-244 130.5q-185 0 -285 -166t-100 -440z M360 1491l132 180h57l295 -82l98 99l57 -41l-131 -181h-57l-295 82l-98 -98z" />
<glyph unicode="&#xd6;" horiz-adv-x="1277" d="M98 590q0 220 71 390.5t204 266.5t307 96q239 0 373.5 -163.5t134.5 -450.5q0 -220 -71 -391t-204 -267t-307 -96q-238 0 -373 164t-135 451zM287 598q0 -222 83 -352.5t244 -130.5q185 0 285 166t100 440q0 222 -83 352.5t-244 130.5q-185 0 -285 -166t-100 -440z M410 1565q0 45 24 75.5t66 30.5q41 0 61.5 -29.5t20.5 -76.5q0 -45 -24 -76t-66 -31q-41 0 -61.5 30t-20.5 77zM795 1565q0 45 24 75.5t66 30.5q41 0 61.5 -29.5t20.5 -76.5q0 -45 -24 -76t-66 -31q-41 0 -61.5 30t-20.5 77z" />
<glyph unicode="&#xd7;" horiz-adv-x="1032" d="M115 344l317 303l-285 303l91 90l284 -307l322 307l74 -90l-316 -303l283 -303l-82 -90l-289 307l-317 -307z" />
<glyph unicode="&#xd8;" horiz-adv-x="1277" d="M66 0l139 174q-107 159 -107 416q0 220 71 390.5t204 266.5t307 96q217 0 350 -139l133 164l58 -49l-142 -176q109 -159 109 -414q0 -220 -71 -391t-204 -267t-307 -96q-218 0 -352 140l-131 -164zM287 598q0 -165 41 -270l592 737q-84 139 -248 139q-185 0 -285 -166 t-100 -440zM365 252q88 -137 249 -137q185 0 285 166t100 440q0 157 -43 270z" />
<glyph unicode="&#xd9;" horiz-adv-x="1302" d="M172 385l41 737q6 97 -12 197h200l-49 -909q-8 -141 65 -218t214 -77q87 0 149.5 28.5t99 82t55 120.5t23.5 154l41 819h156l-49 -868q-12 -224 -150.5 -350t-357.5 -126q-94 0 -173 25.5t-138 74.5t-90 128.5t-25 181.5zM485 1628l97 119l321 -252l-57 -76z" />
<glyph unicode="&#xda;" horiz-adv-x="1302" d="M172 385l41 737q6 97 -12 197h200l-49 -909q-8 -141 65 -218t214 -77q87 0 149.5 28.5t99 82t55 120.5t23.5 154l41 819h156l-49 -868q-12 -224 -150.5 -350t-357.5 -126q-94 0 -173 25.5t-138 74.5t-90 128.5t-25 181.5zM514 1495l338 254l96 -121l-377 -209z" />
<glyph unicode="&#xdb;" horiz-adv-x="1302" d="M172 385l41 737q6 97 -12 197h200l-49 -909q-8 -141 65 -218t214 -77q87 0 149.5 28.5t99 82t55 120.5t23.5 154l41 819h156l-49 -868q-12 -224 -150.5 -350t-357.5 -126q-94 0 -173 25.5t-138 74.5t-90 128.5t-25 181.5zM414 1524l313 221l293 -221l-62 -82l-239 139 l-252 -139z" />
<glyph unicode="&#xdc;" horiz-adv-x="1302" d="M172 385l41 737q6 97 -12 197h200l-49 -909q-8 -141 65 -218t214 -77q87 0 149.5 28.5t99 82t55 120.5t23.5 154l41 819h156l-49 -868q-12 -224 -150.5 -350t-357.5 -126q-94 0 -173 25.5t-138 74.5t-90 128.5t-25 181.5zM434 1565q0 45 24 75.5t66 30.5q41 0 61.5 -29.5 t20.5 -76.5q0 -45 -24 -76t-66 -31q-41 0 -61.5 30t-20.5 77zM819 1565q0 45 24 75.5t66 30.5q41 0 61.5 -29.5t20.5 -76.5q0 -45 -24 -76t-66 -31q-41 0 -61.5 30t-20.5 77z" />
<glyph unicode="&#xdd;" horiz-adv-x="942" d="M33 1319h196l263 -619l344 619h163l-434 -737l-14 -54l-27 -528h-180l27 522l-11 51zM342 1495l338 254l96 -121l-377 -209z" />
<glyph unicode="&#xde;" horiz-adv-x="1032" d="M156 0l57 1122q4 108 -12 197h200l-10 -213h141q218 0 338.5 -89.5t120.5 -279.5q0 -204 -123 -319t-319 -115q-57 0 -107 16l25 107h57q57 0 107.5 17.5t91 52.5t64.5 93t24 132q0 124 -76 185t-235 61h-117l-47 -967h-180z" />
<glyph unicode="&#xdf;" horiz-adv-x="1048" d="M115 -442l73 1474q12 226 121.5 326t313.5 100q68 0 128 -15t111.5 -46.5t82 -87t30.5 -129.5q0 -59 -22 -108t-54.5 -79t-71 -60.5t-71 -54t-54.5 -58.5t-22 -75q0 -74 82 -147l74 -66q71 -64 105 -125.5t34 -152.5q0 -123 -84 -201t-219 -78q-109 0 -221 50l32 139 q110 -66 189 -66q66 0 102.5 38.5t36.5 101.5q0 90 -98 180l-99 90q-98 90 -98 205q0 48 16.5 88t43.5 68t59 53.5t64.5 49.5t59.5 50t43.5 62t16.5 79q0 79 -51 125.5t-162 46.5q-242 0 -254 -278l-73 -1499h-164z" />
<glyph unicode="&#xe0;" d="M82 319q0 140 37.5 254.5t111 199t190 131t267.5 46.5h127q-26 -81 -29 -155l-32 -639q-5 -102 16 -156l-188 -25l8 187q-86 -101 -156 -144t-147 -43q-100 0 -152.5 94.5t-52.5 249.5zM254 344q0 -95 21 -162t61 -67q39 0 120 59.5t142 120.5l27 524h-35 q-150 0 -243 -128.5t-93 -346.5zM344 1343l123 82l213 -327l-82 -49z" />
<glyph unicode="&#xe1;" d="M82 319q0 140 37.5 254.5t111 199t190 131t267.5 46.5h127q-26 -81 -29 -155l-32 -639q-5 -102 16 -156l-188 -25l8 187q-86 -101 -156 -144t-147 -43q-100 0 -152.5 94.5t-52.5 249.5zM254 344q0 -95 21 -162t61 -67q39 0 120 59.5t142 120.5l27 524h-35 q-150 0 -243 -128.5t-93 -346.5zM418 1098l205 327l122 -82l-245 -294z" />
<glyph unicode="&#xe2;" d="M82 319q0 140 37.5 254.5t111 199t190 131t267.5 46.5h127q-26 -81 -29 -155l-32 -639q-5 -102 16 -156l-188 -25l8 187q-86 -101 -156 -144t-147 -43q-100 0 -152.5 94.5t-52.5 249.5zM254 344q0 -95 21 -162t61 -67q39 0 120 59.5t142 120.5l27 524h-35 q-150 0 -243 -128.5t-93 -346.5zM254 1106l303 303l246 -295l-66 -57l-196 188l-230 -196z" />
<glyph unicode="&#xe3;" d="M82 319q0 140 37.5 254.5t111 199t190 131t267.5 46.5h127q-26 -81 -29 -155l-32 -639q-5 -102 16 -156l-188 -25l8 187q-86 -101 -156 -144t-147 -43q-100 0 -152.5 94.5t-52.5 249.5zM254 344q0 -95 21 -162t61 -67q39 0 120 59.5t142 120.5l27 524h-35 q-150 0 -243 -128.5t-93 -346.5zM254 1122l147 230h58l213 -131l114 147l58 -41l-148 -229h-57l-213 131l-115 -148z" />
<glyph unicode="&#xe4;" d="M82 319q0 140 37.5 254.5t111 199t190 131t267.5 46.5h127q-26 -81 -29 -155l-32 -639q-5 -102 16 -156l-188 -25l8 187q-86 -101 -156 -144t-147 -43q-100 0 -152.5 94.5t-52.5 249.5zM254 344q0 -95 21 -162t61 -67q39 0 120 59.5t142 120.5l27 524h-35 q-150 0 -243 -128.5t-93 -346.5zM303 1221q0 45 24 75.5t66 30.5q41 0 61.5 -29.5t20.5 -76.5q0 -45 -24 -76t-66 -31q-41 0 -61.5 30t-20.5 77zM614 1221q0 45 24 75.5t67 30.5q41 0 61 -29.5t20 -76.5q0 -45 -24 -76t-66 -31q-41 0 -61.5 30t-20.5 77z" />
<glyph unicode="&#xe5;" d="M82 319q0 140 37.5 254.5t111 199t190 131t267.5 46.5h127q-26 -81 -29 -155l-32 -639q-5 -102 16 -156l-188 -25l8 187q-86 -101 -156 -144t-147 -43q-100 0 -152.5 94.5t-52.5 249.5zM254 344q0 -95 21 -162t61 -67q39 0 120 59.5t142 120.5l27 524h-35 q-150 0 -243 -128.5t-93 -346.5zM340 1257q0 86 57 143.5t148 57.5q84 0 136 -51t52 -129q0 -84 -59 -140.5t-148 -56.5q-83 0 -134.5 50t-51.5 126zM430 1262q0 -45 27.5 -72t72.5 -27t79 30t34 77q0 49 -27.5 77.5t-74.5 28.5q-50 0 -80.5 -31t-30.5 -83z" />
<glyph unicode="&#xe6;" horiz-adv-x="1130" d="M25 188q0 94 54.5 155.5t199.5 115.5l188 69l8 136q10 163 -123 163q-103 0 -213 -73l-49 114q51 39 135.5 64.5t143.5 25.5q103 0 162 -24.5t87 -91.5q97 116 242 116q102 0 161.5 -45.5t59.5 -134.5q0 -114 -73.5 -189t-221.5 -138l-163 -70q0 -63 5 -107.5t18 -85 t40 -61.5t68 -21q62 0 120.5 27.5t133.5 79.5l32 -115q-80 -56 -155.5 -89.5t-163.5 -33.5q-156 0 -221 115q-121 -115 -254 -115q-103 0 -162 64t-59 149zM188 213q0 -57 33.5 -86t81.5 -29q84 0 170 58q-22 76 -22 204q0 40 2 58l-101 -41q-83 -34 -123.5 -72.5 t-40.5 -91.5zM627 489l61 27q124 54 177 105.5t53 123.5q0 91 -82 91q-75 0 -133.5 -96.5t-75.5 -250.5z" />
<glyph unicode="&#xe7;" horiz-adv-x="729" d="M82 360q0 91 14.5 175.5t47 162.5t80.5 135t121 91t163 34q106 0 172 -40l-33 -156q-78 65 -155 65q-58 0 -102 -30.5t-69 -76t-41 -108t-21 -116.5t-5 -111q0 -279 139 -279q56 0 110 32t120 91l32 -114q-140 -124 -252 -138l-18 -79q107 -27 152 -69t45 -108 q0 -87 -57 -137.5t-165 -50.5q-116 0 -196 57l45 91q74 -41 151 -41q46 0 72.5 19.5t26.5 53.5q0 40 -37 63t-152 52l58 149q-129 13 -187.5 109.5t-58.5 273.5z" />
<glyph unicode="&#xe8;" horiz-adv-x="761" d="M82 360q0 80 13 160t44.5 160t77 141t117 99t158.5 38q102 0 161.5 -45.5t59.5 -134.5q0 -114 -73.5 -189t-221.5 -138l-164 -70q0 -63 5 -107.5t18 -85t40 -61.5t68 -21q62 0 120.5 27.5t133.5 79.5l33 -115q-80 -56 -156 -89.5t-164 -33.5q-144 0 -207 94.5t-63 290.5z M258 489l61 27q124 54 177 105.5t53 123.5q0 91 -82 91q-75 0 -133.5 -96.5t-75.5 -250.5zM287 1343l123 82l213 -327l-82 -49z" />
<glyph unicode="&#xe9;" horiz-adv-x="761" d="M82 360q0 80 13 160t44.5 160t77 141t117 99t158.5 38q102 0 161.5 -45.5t59.5 -134.5q0 -114 -73.5 -189t-221.5 -138l-164 -70q0 -63 5 -107.5t18 -85t40 -61.5t68 -21q62 0 120.5 27.5t133.5 79.5l33 -115q-80 -56 -156 -89.5t-164 -33.5q-144 0 -207 94.5t-63 290.5z M258 489l61 27q124 54 177 105.5t53 123.5q0 91 -82 91q-75 0 -133.5 -96.5t-75.5 -250.5zM360 1098l205 327l123 -82l-246 -294z" />
<glyph unicode="&#xea;" horiz-adv-x="761" d="M82 360q0 80 13 160t44.5 160t77 141t117 99t158.5 38q102 0 161.5 -45.5t59.5 -134.5q0 -114 -73.5 -189t-221.5 -138l-164 -70q0 -63 5 -107.5t18 -85t40 -61.5t68 -21q62 0 120.5 27.5t133.5 79.5l33 -115q-80 -56 -156 -89.5t-164 -33.5q-144 0 -207 94.5t-63 290.5z M197 1106l303 303l245 -295l-65 -57l-197 188l-229 -196zM258 489l61 27q124 54 177 105.5t53 123.5q0 91 -82 91q-75 0 -133.5 -96.5t-75.5 -250.5z" />
<glyph unicode="&#xeb;" horiz-adv-x="761" d="M82 360q0 80 13 160t44.5 160t77 141t117 99t158.5 38q102 0 161.5 -45.5t59.5 -134.5q0 -114 -73.5 -189t-221.5 -138l-164 -70q0 -63 5 -107.5t18 -85t40 -61.5t68 -21q62 0 120.5 27.5t133.5 79.5l33 -115q-80 -56 -156 -89.5t-164 -33.5q-144 0 -207 94.5t-63 290.5z M246 1221q0 45 24 75.5t66 30.5q41 0 61.5 -29.5t20.5 -76.5q0 -45 -24 -76t-66 -31q-41 0 -61.5 30t-20.5 77zM258 489l61 27q124 54 177 105.5t53 123.5q0 91 -82 91q-75 0 -133.5 -96.5t-75.5 -250.5zM557 1221q0 45 24 75.5t66 30.5q41 0 61.5 -29.5t20.5 -76.5 q0 -45 -24 -76t-66 -31q-41 0 -61.5 30t-20.5 77z" />
<glyph unicode="&#xec;" horiz-adv-x="491" d="M98 1343l123 82l213 -327l-82 -49zM139 0l41 778q5 102 -16 156h188l-41 -778q-5 -100 17 -156h-189z" />
<glyph unicode="&#xed;" horiz-adv-x="491" d="M139 0l41 778q5 102 -16 156h188l-41 -778q-5 -100 17 -156h-189zM147 1098l205 327l123 -82l-246 -294z" />
<glyph unicode="&#xee;" horiz-adv-x="491" d="M8 1106l303 303l246 -295l-65 -57l-197 188l-229 -196zM139 0l41 778q5 102 -16 156h188l-41 -778q-5 -100 17 -156h-189z" />
<glyph unicode="&#xef;" horiz-adv-x="491" d="M57 1221q0 45 24 75.5t66 30.5q41 0 61.5 -29.5t20.5 -76.5q0 -45 -24 -76t-66 -31q-41 0 -61.5 30t-20.5 77zM139 0l41 778q5 102 -16 156h188l-41 -778q-5 -100 17 -156h-189zM369 1221q0 45 24 75.5t66 30.5q41 0 61.5 -29.5t20.5 -76.5q0 -45 -24 -76t-66 -31 q-41 0 -61.5 30t-20.5 77z" />
<glyph unicode="&#xf0;" horiz-adv-x="909" d="M82 344q0 157 47 282t141.5 200t221.5 75q83 0 145 -37q-28 180 -113 299l-155 -114l-66 81l150 111q-85 72 -232 119l82 98q150 -32 264 -131l178 131l66 -82l-168 -125q184 -227 184 -630q0 -134 -24 -246t-75 -204t-140.5 -144t-210.5 -52q-58 0 -108.5 20t-93.5 61.5 t-68 115t-25 172.5zM254 369q0 -144 40.5 -211.5t123.5 -67.5q63 0 110 43t74 116.5t40 161t13 187.5q0 51 -4 133q-40 31 -75 43t-84 12q-104 0 -171 -116.5t-67 -300.5z" />
<glyph unicode="&#xf1;" horiz-adv-x="974" d="M139 0l41 778q5 102 -16 156h188l-18 -219q163 235 338 235q76 0 117.5 -43t37.5 -129l-32 -622q-5 -102 16 -156h-188l32 631q4 66 4 90q0 42 -10 58t-35 16q-57 0 -134 -61.5t-146 -143.5l-31 -590h-164zM254 1122l147 230h58l213 -131l114 147l58 -41l-148 -229h-57 l-213 131l-115 -148z" />
<glyph unicode="&#xf2;" horiz-adv-x="892" d="M82 393q0 164 44.5 290t136 200.5t220.5 74.5q153 0 240.5 -105.5t87.5 -311.5q0 -164 -44.5 -290.5t-136 -201t-220.5 -74.5q-152 0 -240 105.5t-88 312.5zM254 401q0 -303 172 -303q100 0 156.5 115.5t56.5 318.5q0 304 -172 304q-100 0 -156.5 -116t-56.5 -319z M303 1343l123 82l213 -327l-82 -49z" />
<glyph unicode="&#xf3;" horiz-adv-x="892" d="M82 393q0 164 44.5 290t136 200.5t220.5 74.5q153 0 240.5 -105.5t87.5 -311.5q0 -164 -44.5 -290.5t-136 -201t-220.5 -74.5q-152 0 -240 105.5t-88 312.5zM254 401q0 -303 172 -303q100 0 156.5 115.5t56.5 318.5q0 304 -172 304q-100 0 -156.5 -116t-56.5 -319z M377 1098l205 327l123 -82l-246 -294z" />
<glyph unicode="&#xf4;" horiz-adv-x="892" d="M82 393q0 164 44.5 290t136 200.5t220.5 74.5q153 0 240.5 -105.5t87.5 -311.5q0 -164 -44.5 -290.5t-136 -201t-220.5 -74.5q-152 0 -240 105.5t-88 312.5zM213 1106l303 303l246 -295l-66 -57l-196 188l-230 -196zM254 401q0 -303 172 -303q100 0 156.5 115.5 t56.5 318.5q0 304 -172 304q-100 0 -156.5 -116t-56.5 -319z" />
<glyph unicode="&#xf5;" horiz-adv-x="892" d="M82 393q0 164 44.5 290t136 200.5t220.5 74.5q153 0 240.5 -105.5t87.5 -311.5q0 -164 -44.5 -290.5t-136 -201t-220.5 -74.5q-152 0 -240 105.5t-88 312.5zM213 1122l147 230h58l213 -131l114 147l58 -41l-148 -229h-57l-213 131l-115 -148zM254 401q0 -303 172 -303 q100 0 156.5 115.5t56.5 318.5q0 304 -172 304q-100 0 -156.5 -116t-56.5 -319z" />
<glyph unicode="&#xf6;" horiz-adv-x="892" d="M82 393q0 164 44.5 290t136 200.5t220.5 74.5q153 0 240.5 -105.5t87.5 -311.5q0 -164 -44.5 -290.5t-136 -201t-220.5 -74.5q-152 0 -240 105.5t-88 312.5zM254 401q0 -303 172 -303q100 0 156.5 115.5t56.5 318.5q0 304 -172 304q-100 0 -156.5 -116t-56.5 -319z M262 1221q0 45 24 75.5t66 30.5q41 0 61.5 -29.5t20.5 -76.5q0 -45 -24 -76t-66 -31q-41 0 -61.5 30t-20.5 77zM573 1221q0 45 24 75.5t67 30.5q41 0 61 -29.5t20 -76.5q0 -45 -24 -76t-66 -31q-41 0 -61.5 30t-20.5 77z" />
<glyph unicode="&#xf7;" horiz-adv-x="1032" d="M90 598l8 115h828l-8 -115h-828zM385 303q0 56 34.5 93.5t88.5 37.5q51 0 83 -34t32 -81q0 -56 -34.5 -93.5t-88.5 -37.5q-51 0 -83 34t-32 81zM418 975q0 56 34.5 93.5t88.5 37.5q51 0 82.5 -34t31.5 -81q0 -56 -34.5 -93.5t-88.5 -37.5q-51 0 -82.5 34t-31.5 81z" />
<glyph unicode="&#xf8;" horiz-adv-x="892" d="M66 0l79 113q-63 104 -63 280q0 164 44.5 290t136 200.5t220.5 74.5q136 0 217 -81l70 98l57 -41l-82 -113q66 -109 66 -280q0 -164 -44.5 -290.5t-136 -201t-220.5 -74.5q-134 0 -217 80l-70 -96zM254 401q0 -78 8 -127l342 471q-45 91 -137 91q-100 0 -156.5 -116 t-56.5 -319zM289 188q41 -90 137 -90q100 0 156.5 115.5t56.5 318.5q0 65 -10 127z" />
<glyph unicode="&#xf9;" horiz-adv-x="974" d="M147 156l33 622q5 102 -16 156h188l-33 -631q-4 -66 -4 -90q0 -42 10 -58t35 -16q57 0 134 61t147 142l31 576l164 40l-41 -802q-5 -102 16 -156l-188 -25l16 244q-28 -42 -60 -79t-75 -74.5t-95.5 -59.5t-105.5 -22q-77 0 -118.5 43t-37.5 129zM336 1343l123 82 l213 -327l-82 -49z" />
<glyph unicode="&#xfa;" horiz-adv-x="974" d="M147 156l33 622q5 102 -16 156h188l-33 -631q-4 -66 -4 -90q0 -42 10 -58t35 -16q57 0 134 61t147 142l31 576l164 40l-41 -802q-5 -102 16 -156l-188 -25l16 244q-28 -42 -60 -79t-75 -74.5t-95.5 -59.5t-105.5 -22q-77 0 -118.5 43t-37.5 129zM410 1098l204 327 l123 -82l-245 -294z" />
<glyph unicode="&#xfb;" horiz-adv-x="974" d="M147 156l33 622q5 102 -16 156h188l-33 -631q-4 -66 -4 -90q0 -42 10 -58t35 -16q57 0 134 61t147 142l31 576l164 40l-41 -802q-5 -102 16 -156l-188 -25l16 244q-28 -42 -60 -79t-75 -74.5t-95.5 -59.5t-105.5 -22q-77 0 -118.5 43t-37.5 129zM246 1106l303 303 l246 -295l-66 -57l-197 188l-229 -196z" />
<glyph unicode="&#xfc;" horiz-adv-x="974" d="M147 156l33 622q5 102 -16 156h188l-33 -631q-4 -66 -4 -90q0 -42 10 -58t35 -16q57 0 134 61t147 142l31 576l164 40l-41 -802q-5 -102 16 -156l-188 -25l16 244q-28 -42 -60 -79t-75 -74.5t-95.5 -59.5t-105.5 -22q-77 0 -118.5 43t-37.5 129zM295 1221q0 45 24 75.5 t66 30.5q41 0 61.5 -29.5t20.5 -76.5q0 -45 -24 -76t-66 -31q-41 0 -61.5 30t-20.5 77zM606 1221q0 45 24 75.5t66 30.5q41 0 61.5 -29.5t20.5 -76.5q0 -45 -24 -76t-66 -31q-41 0 -61.5 30t-20.5 77z" />
<glyph unicode="&#xfd;" horiz-adv-x="974" d="M106 -295q93 -41 238 -41q135 0 203 84t76 227l12 236q-40 -57 -84 -103.5t-112 -85t-136 -38.5q-77 0 -118.5 43t-37.5 129l33 622q5 102 -16 156h188l-33 -631q-4 -66 -4 -90q0 -42 10 -58t35 -16q57 0 134.5 61.5t146.5 143.5l31 574l164 32l-50 -975 q-3 -70 -19 -131.5t-51 -119.5t-86.5 -99.5t-131 -66.5t-179.5 -25q-81 0 -163 16zM426 1098l205 327l123 -82l-246 -294z" />
<glyph unicode="&#xfe;" d="M115 -442l90 1679q6 103 -17 197h189l-35 -664q91 105 159.5 146.5t145.5 41.5q100 0 152.5 -94.5t52.5 -249.5q0 -134 -34.5 -245.5t-101.5 -196t-173 -134t-242 -54.5l-14 -279q-4 -85 16 -147h-188zM307 115h37q150 0 243 128.5t93 346.5q0 95 -21 162t-61 67 q-39 0 -120 -59.5t-142 -120.5z" />
<glyph unicode="&#xff;" horiz-adv-x="974" d="M106 -295q93 -41 238 -41q135 0 203 84t76 227l12 236q-40 -57 -84 -103.5t-112 -85t-136 -38.5q-77 0 -118.5 43t-37.5 129l33 622q5 102 -16 156h188l-33 -631q-4 -66 -4 -90q0 -42 10 -58t35 -16q57 0 134.5 61.5t146.5 143.5l31 574l164 32l-50 -975 q-3 -70 -19 -131.5t-51 -119.5t-86.5 -99.5t-131 -66.5t-179.5 -25q-81 0 -163 16zM311 1221q0 45 24 75.5t66 30.5q41 0 61.5 -29.5t20.5 -76.5q0 -45 -24 -76t-66 -31q-41 0 -61.5 30t-20.5 77zM623 1221q0 45 24 75.5t66 30.5q41 0 61.5 -29.5t20.5 -76.5q0 -45 -24 -76 t-66 -31q-41 0 -61.5 30t-20.5 77z" />
<glyph unicode="&#x152;" horiz-adv-x="1712" d="M98 565q0 117 23 229t71.5 211.5t116 174.5t163.5 119t208 44q147 0 242 -88l4 64h680l-17 -139h-491l-21 -443h447l-17 -139h-438l-22 -459h542l-16 -139h-713l4 98q-55 -58 -139 -90.5t-168 -32.5q-205 0 -332 152.5t-127 437.5zM287 565q0 -220 82 -335t237 -115 q68 0 146 42.5t120 106.5l41 815q-34 56 -97 90.5t-144 34.5q-171 0 -278 -167t-107 -472z" />
<glyph unicode="&#x153;" horiz-adv-x="1318" d="M82 393q0 84 13 162.5t44 152.5t77 129t117 88t159 33q193 0 268 -155q115 155 289 155q102 0 161.5 -45.5t59.5 -134.5q0 -114 -73.5 -189t-221.5 -138l-164 -70q0 -63 5 -107.5t18 -85t40 -61.5t68 -21q62 0 120.5 27.5t133.5 79.5l33 -115q-80 -56 -156 -89.5 t-164 -33.5q-159 0 -219 136q-104 -136 -280 -136q-328 0 -328 418zM254 410q0 -72 7.5 -125.5t26 -97.5t53 -66.5t85.5 -22.5q61 0 106.5 41.5t69 108.5t34.5 136t11 140q0 72 -7.5 125.5t-26 97.5t-53 66.5t-85.5 22.5q-61 0 -106.5 -41.5t-69 -108.5t-34.5 -136t-11 -140 zM815 489l62 27q124 53 176.5 105t52.5 124q0 91 -82 91q-75 0 -133.5 -96.5t-75.5 -250.5z" />
<glyph unicode="&#x178;" horiz-adv-x="942" d="M33 1319h196l263 -619l344 619h163l-434 -737l-14 -54l-27 -528h-180l27 522l-11 51zM262 1565q0 45 24 75.5t66 30.5q41 0 61.5 -29.5t20.5 -76.5q0 -45 -24 -76t-66 -31q-41 0 -61.5 30t-20.5 77zM647 1565q0 45 24 75.5t66 30.5q41 0 61.5 -29.5t20.5 -76.5 q0 -45 -24 -76t-66 -31q-41 0 -61.5 30t-20.5 77z" />
<glyph unicode="&#x2c6;" horiz-adv-x="901" d="M205 1106l303 303l246 -295l-66 -57l-196 188l-230 -196z" />
<glyph unicode="&#x2dc;" horiz-adv-x="901" d="M205 1122l147 230h58l213 -131l114 147l58 -41l-148 -229h-57l-213 131l-115 -148z" />
<glyph unicode="&#x2000;" horiz-adv-x="893" />
<glyph unicode="&#x2001;" horiz-adv-x="1786" />
<glyph unicode="&#x2002;" horiz-adv-x="893" />
<glyph unicode="&#x2003;" horiz-adv-x="1786" />
<glyph unicode="&#x2004;" horiz-adv-x="595" />
<glyph unicode="&#x2005;" horiz-adv-x="446" />
<glyph unicode="&#x2006;" horiz-adv-x="297" />
<glyph unicode="&#x2007;" horiz-adv-x="297" />
<glyph unicode="&#x2008;" horiz-adv-x="223" />
<glyph unicode="&#x2009;" horiz-adv-x="357" />
<glyph unicode="&#x200a;" horiz-adv-x="99" />
<glyph unicode="&#x2010;" horiz-adv-x="638" d="M90 573l451 58l16 -164l-451 -57z" />
<glyph unicode="&#x2011;" horiz-adv-x="638" d="M90 573l451 58l16 -164l-451 -57z" />
<glyph unicode="&#x2012;" horiz-adv-x="638" d="M90 573l451 58l16 -164l-451 -57z" />
<glyph unicode="&#x2013;" horiz-adv-x="1015" d="M25 475v123h966v-123h-966z" />
<glyph unicode="&#x2014;" horiz-adv-x="2031" d="M25 475v123h1982v-123h-1982z" />
<glyph unicode="&#x2018;" horiz-adv-x="401" d="M90 999q0 100 70 201.5t159 142.5l99 -24q-76 -47 -120 -103.5t-44 -142.5q0 -44 25 -77.5t65 -45.5q-10 -56 -44.5 -89.5t-78.5 -33.5q-65 0 -98 47.5t-33 124.5z" />
<glyph unicode="&#x2019;" horiz-adv-x="401" d="M49 844q76 47 120 103.5t44 142.5q0 44 -25 77t-65 45q10 56 44.5 89.5t78.5 33.5q65 0 98 -47.5t33 -124.5q0 -100 -66 -197.5t-155 -138.5z" />
<glyph unicode="&#x201a;" horiz-adv-x="401" d="M-33 -270q76 47 120 103t44 142q0 44 -25 77.5t-65 45.5q10 56 44.5 89.5t78.5 33.5q65 0 98 -47.5t33 -124.5q0 -100 -66 -197.5t-155 -138.5z" />
<glyph unicode="&#x201c;" horiz-adv-x="770" d="M90 999q0 100 66 197.5t155 138.5l107 -16q-76 -47 -120 -103.5t-44 -142.5q0 -44 25 -77.5t65 -45.5q-10 -56 -44.5 -89.5t-78.5 -33.5q-65 0 -98 47.5t-33 124.5zM459 999q0 100 66 197.5t155 138.5l106 -16q-48 -30 -80 -58.5t-57.5 -78t-25.5 -109.5q0 -44 25 -77.5 t65 -45.5q-10 -56 -44.5 -89.5t-78.5 -33.5q-65 0 -98 47.5t-33 124.5z" />
<glyph unicode="&#x201d;" horiz-adv-x="770" d="M49 844q76 47 120 103.5t44 142.5q0 44 -25 77t-65 45q10 56 44.5 89.5t78.5 33.5q65 0 98 -47.5t33 -124.5q0 -100 -66 -197.5t-155 -138.5zM418 844q76 47 120 103.5t44 142.5q0 44 -25 77t-65 45q10 56 44 89.5t78 33.5q65 0 98 -47.5t33 -124.5q0 -100 -66 -197.5 t-155 -138.5z" />
<glyph unicode="&#x201e;" horiz-adv-x="770" d="M-33 -270q76 47 120 103t44 142q0 44 -25 77.5t-65 45.5q10 56 44.5 89.5t78.5 33.5q65 0 98 -47.5t33 -124.5q0 -100 -66 -197.5t-155 -138.5zM336 -270q76 47 120 103t44 142q0 44 -25 77.5t-65 45.5q10 56 44 89.5t78 33.5q65 0 98.5 -47.5t33.5 -124.5 q0 -100 -66.5 -197.5t-155.5 -138.5z" />
<glyph unicode="&#x2022;" horiz-adv-x="851" d="M197 549q0 97 67.5 163t161.5 66t161.5 -66t67.5 -163t-67.5 -163.5t-161.5 -66.5t-161.5 66.5t-67.5 163.5z" />
<glyph unicode="&#x2026;" horiz-adv-x="1204" d="M57 106q0 48 37 81.5t86 33.5q50 0 86.5 -33.5t36.5 -89.5q0 -48 -37 -81t-86 -33q-50 0 -86.5 33t-36.5 89zM459 106q0 48 37 81.5t86 33.5q50 0 86.5 -33.5t36.5 -89.5q0 -48 -37 -81t-86 -33q-50 0 -86.5 33t-36.5 89zM860 106q0 48 37 81.5t86 33.5q50 0 86.5 -33.5 t36.5 -89.5q0 -48 -37 -81t-86 -33q-50 0 -86.5 33t-36.5 89z" />
<glyph unicode="&#x202f;" horiz-adv-x="357" />
<glyph unicode="&#x2039;" horiz-adv-x="450" d="M49 475l221 377h148l-205 -377l74 -303h-140z" />
<glyph unicode="&#x203a;" horiz-adv-x="450" d="M33 172l205 377l-74 303h139l98 -303l-221 -377h-147z" />
<glyph unicode="&#x205f;" horiz-adv-x="446" />
<glyph unicode="&#x20ac;" horiz-adv-x="1007" d="M8 524l17 74h106q0 45 12 131h-102l16 74h99q55 247 212 393.5t386 146.5q144 0 278 -49l-33 -164q-119 74 -262 74q-139 0 -246 -105.5t-149 -295.5h428l-16 -74h-424q-11 -75 -11 -131h418l-16 -74h-402q18 -409 328 -409q95 0 162.5 37t140.5 110l-8 -180 q-124 -107 -319 -107q-238 0 -362 140t-130 409h-123z" />
<glyph unicode="&#x2122;" horiz-adv-x="1761" d="M74 1212v107h647l-49 -107h-213v-565h-140v565h-245zM803 1319h172l278 -328l279 328h82v-672h-139v451l-246 -279l-238 279v-451h-114v586z" />
<glyph unicode="&#x25fc;" horiz-adv-x="942" d="M0 0v942h942v-942h-942z" />
<glyph unicode="&#xfb01;" horiz-adv-x="958" d="M0 803l16 131h152l4 82q6 114 41 200t92.5 138t131 78t161.5 26q103 0 221 -33l-57 -139q-105 41 -180 41q-102 0 -170.5 -75t-75.5 -212l-6 -106h395l94 24l-41 -802q-5 -100 17 -156h-189l43 803h-325l-62 -1245h-164l62 1245h-160z" />
<glyph unicode="&#xfb02;" horiz-adv-x="974" d="M0 803l16 131h150l6 98q13 220 115 323t278 103q97 0 176 -24l119 24l-65 -1311q-4 -85 16 -147h-188l67 1307q-65 20 -141 20q-100 0 -153 -65.5t-60 -204.5l-6 -123h235l-16 -131h-225l-62 -1245h-164l62 1245h-160z" />
<glyph unicode="&#xfb03;" horiz-adv-x="1449" d="M0 803l16 131h150l2 24q10 114 37.5 199t65.5 135.5t92 81t107 41t120 10.5q146 0 235 -47q109 80 265 80q103 0 221 -33l-58 -139q-105 41 -180 41q-102 0 -170.5 -75t-75.5 -212l-6 -106h396l94 24l-41 -802q-5 -102 16 -156h-188l43 803h-326l-61 -1245h-164l61 1245 h-327l-62 -1245h-164l62 1245h-160zM330 934h329l5 82q7 149 63 248q-78 30 -145 30q-83 0 -133.5 -29t-79.5 -101t-37 -197z" />
<glyph unicode="&#xfb04;" horiz-adv-x="1466" d="M0 803l16 131h150l2 24q10 114 37.5 199t65.5 135.5t92 81t107 41t120 10.5q139 0 223 -41q96 74 244 74q97 0 176 -24l119 24l-66 -1311q-4 -83 17 -147h-189l68 1307q-65 20 -142 20q-100 0 -153 -65.5t-60 -204.5l-6 -123h236l-17 -131h-225l-61 -1245h-164l61 1245 h-327l-62 -1245h-164l62 1245h-160zM330 934h327l7 98q8 142 55 234q-79 28 -137 28q-83 0 -133.5 -29t-79.5 -101t-37 -197z" />
</font>
</defs>
</svg>
