<?xml version="1.0" standalone="no"?>
<!DOCTYPE svg PUBLIC "-//W3C//DTD SVG 1.1//EN" "http://www.w3.org/Graphics/SVG/1.1/DTD/svg11.dtd" >
<svg>
<metadata>
Created by FontForge 20090914 at Tue Feb  3 20:06:29 2015
 By www-data
Copr.1992 Fred Smeijers, Quadraat
</metadata>
<defs>
<font id="Quadraat" horiz-adv-x="503" >
  <font-face 
    font-family="Quadraat"
    font-weight="400"
    font-stretch="normal"
    units-per-em="1000"
    panose-1="2 0 5 3 6 0 0 9 0 4"
    ascent="800"
    descent="-200"
    x-height="455"
    cap-height="641.001"
    bbox="-164 -262 1210 838"
    underline-thickness="63"
    underline-position="-3"
    unicode-range="U+0020-U+FB02"
  />
<missing-glyph horiz-adv-x="500" 
 />
    <glyph glyph-name=".notdef" horiz-adv-x="500" 
 />
    <glyph glyph-name="space" unicode=" " horiz-adv-x="207" 
 />
    <glyph glyph-name="exclam" unicode="!" horiz-adv-x="263" 
d="M153 186l-48 -15l-29 469h118zM184 55c0 -17.333 -5.5 -31.835 -16.5 -43.502s-24.5 -17.5 -40.5 -17.5s-29.667 5.83301 -41 17.5s-17 25.834 -17 42.501c0 16 5.66699 29.667 17 41s25.333 17 42 17c15.333 0 28.5 -5.66699 39.5 -17s16.5 -24.666 16.5 -39.999z" />
    <glyph glyph-name="quotedbl" unicode="&#x22;" horiz-adv-x="407" 
d="M259 400l-14 -14l-21 14l21 214l52 38l51 -38zM93 400l-14 -14l-20 14l20 214l52 38l52 -38z" />
    <glyph glyph-name="numbersign" unicode="#" horiz-adv-x="659" 
d="M610 403h-131l-51 -137h155l-14 -45h-155l-83 -242l-45 14l76 228h-141l-83 -242l-45 18l79 224h-138l14 45h138l45 137h-146l12 45h151l83 228l41 -17l-75 -211h144l80 228l45 -17l-73 -211h131zM283 403l-49 -137h142l52 137h-145z" />
    <glyph glyph-name="dollar" unicode="$" 
d="M445 161c0 -46.667 -13.499 -84.167 -40.499 -112.5s-68.833 -49.166 -125.5 -62.499v-89h-41v89c-18.667 2 -34.334 3.83301 -47.001 5.5s-24.667 4 -36 7s-23.333 6.83301 -36 11.5l-47 18l-13 165l20 10c5.33301 -12 10.166 -23.5 14.499 -34.5
s8.83301 -21.167 13.5 -30.5c12.667 -28 27.5 -49.833 44.5 -65.5s37.833 -27.167 62.5 -34.5l24 -7v235c-9.33301 7.33301 -17.333 14 -24 20s-12.334 10.667 -17.001 14l-36.5 30l-26.5 22c-18.667 17.333 -32.5 36 -41.5 56s-13.5 43.333 -13.5 70
c0 25.333 4.16699 48.666 12.5 69.999s20.5 39.666 36.5 54.999c6.66699 7.33301 13.5 13.5 20.5 18.5s14.667 9.5 23 13.5s17.833 7.5 28.5 10.5s23.334 6.16699 38.001 9.5v83h41v-83c14 -1.33301 25.667 -2.83301 35 -4.5s18.5 -3.66699 27.5 -6s18.833 -5.33301 29.5 -9
s23.667 -8.5 39 -14.5l21 -145l-21 -10c-8 15.333 -15.833 29.333 -23.5 42s-15.167 24.334 -22.5 35.001c-5.33301 8 -10.666 15.167 -15.999 21.5s-11.333 12.333 -18 18s-14 11.167 -22 16.5s-17.667 11.333 -29 18v-255l36 -26l26 -19c24.667 -17.333 46 -34.333 64 -51
c26.667 -26.667 40 -61.667 40 -105zM238.001 403l0.00195312 214.001c-24 -5.33301 -42.333 -12 -55 -20c-9.33301 -6.66699 -17.5 -17.334 -24.5 -32.001s-10.5 -29 -10.5 -43c0 -6.66699 0.666992 -13.167 2 -19.5s3 -12.833 5 -19.5
c3.33301 -9.33301 7.16602 -17.666 11.499 -24.999s9.66602 -14.833 15.999 -22.5s14 -15.334 23 -23.001l32.5 -26.5v17zM362.003 132.001c0 10.667 -1.33301 20.5 -4 29.5s-7.16699 17.833 -13.5 26.5s-14.833 17.5 -25.5 26.5s-24 19.167 -40 30.5v-217
c55.333 15.333 83 50 83 104z" />
    <glyph glyph-name="ampersand" unicode="&#x26;" horiz-adv-x="662" 
d="M628 -28c-8.66699 -2.66699 -15.3379 -4.49902 -20.0049 -5.49902s-11.667 -1.5 -21 -1.5c-16.667 0 -32.167 1.5 -46.5 4.5s-28.666 8.33301 -42.999 16s-29.333 17.667 -45 30s-33.167 27.833 -52.5 46.5l-18 -18c-4.66699 -4.66699 -8.83398 -8.5 -12.501 -11.5
s-7.16699 -5.66699 -10.5 -8l-11 -7.5c-14.667 -9.33301 -33 -16.833 -55 -22.5s-43.333 -8.5 -64 -8.5c-27.333 0 -53 4.33301 -77 13s-44.667 20.5 -62 35.5s-31 32.667 -41 53s-15 42.5 -15 66.5c0 22 4.16699 43.333 12.5 64s19.166 37.667 32.499 51l14.5 12.5
c4.33301 3.66699 9 7.16699 14 10.5s11.167 6.83301 18.5 10.5l29 14.5c-15.333 18 -28.333 34.667 -39 50s-19.167 29.833 -25.5 43.5s-11 27.167 -14 40.5s-4.5 27.333 -4.5 42c0 13.333 1.33301 26.5 4 39.5s6 24.167 10 33.5c13.333 26 34.833 47.333 64.5 64
s61.834 25 96.501 25c23.333 0 44.833 -3.33301 64.5 -10s36.5 -16 50.5 -28s25 -26.333 33 -43s12 -35 12 -55c0 -39.333 -13.833 -73.666 -41.5 -102.999s-70.167 -55.333 -127.5 -78l49 -55.5c13.333 -15 26.333 -28.833 39 -41.5l40 -39.5
c14 -13.667 31.667 -29.834 53 -48.501c19.333 30.667 29 64 29 100c0 15.333 -2.33301 28.333 -7 39s-13.667 23.667 -27 39v21h214v-21c-7.33301 -2 -13.666 -4 -18.999 -6s-10.166 -4 -14.499 -6s-8.66602 -4.16699 -12.999 -6.5s-9.5 -5.5 -15.5 -9.5
c-21.333 -12.667 -38 -26 -50 -40s-23 -32.667 -33 -56l-28 -66l-7 -13l59 -53c16.667 -14.667 31.834 -27.334 45.501 -38.001s26.334 -19.667 38.001 -27s24.167 -14 37.5 -20v-18zM327.996 517.001c0 30.667 -8.16699 53.834 -24.5 69.501s-40.166 23.5 -71.499 23.5
c-25.333 0 -46.166 -7.66699 -62.499 -23s-24.5 -35.333 -24.5 -60c0 -26 6 -52 18 -78s31.333 -55 58 -87l13 10c21.333 14.667 37.666 27.334 48.999 38.001c13.333 13.333 24.166 29.666 32.499 48.999s12.5 38.666 12.5 57.999zM371.996 90.001
c-23.333 20 -42.668 37.332 -58.001 51.999l-43.5 43c-13.667 14 -27.667 29.333 -42 46l-52.5 62c-21.333 -16 -36.5 -32.5 -45.5 -49.5s-13.5 -37.5 -13.5 -61.5c0 -20.667 3.5 -39.667 10.5 -57s16.833 -32.166 29.5 -44.499s27.667 -22 45 -29s36.333 -10.5 57 -10.5
c21.333 0 41.833 4.33301 61.5 13s36.834 20.667 51.501 36z" />
    <glyph glyph-name="quotesingle" unicode="'" horiz-adv-x="241" 
d="M93 400l-21 -14l-13 14l20 214l52 38l52 -38z" />
    <glyph glyph-name="parenleft" unicode="(" horiz-adv-x="331" 
d="M286 -131c-14 4.66699 -26.001 9 -36.001 13s-19 8.16699 -27 12.5s-15.667 9.5 -23 15.5s-15.333 13 -24 21c-32 30 -56.167 69.167 -72.5 117.5s-24.5 103.5 -24.5 165.5v83c0 97.333 16.833 174.666 50.5 231.999s85.834 97 156.501 119l21 -17
c-28 -18 -51.333 -37 -70 -57s-33.5 -43.167 -44.5 -69.5s-18.833 -56.833 -23.5 -91.5s-7 -75.667 -7 -123v-69c0 -32 1 -60.5 3 -85.5s5.16699 -47.5 9.5 -67.5s10 -37.667 17 -53s15.5 -29.666 25.5 -42.999c6 -7.33301 11 -13.666 15 -18.999s9 -10.833 15 -16.5
s13.667 -12.334 23 -20.001l37 -30.5z" />
    <glyph glyph-name="parenright" unicode=")" horiz-adv-x="331" 
d="M252 214c0 -124.667 -32.002 -219 -96.002 -283c-8 -8 -15.667 -14.833 -23 -20.5s-15.166 -10.834 -23.499 -15.501s-17.666 -9 -27.999 -13s-22.5 -8.33301 -36.5 -13l-21 17c5.33301 4 9.66602 7.5 12.999 10.5s6 5.16699 8 6.5c28 24 51 47 69 69
c10 12.667 18.5 26.667 25.5 42s12.667 33 17 53s7.5 42.667 9.5 68s3 54 3 86v69c0 47.333 -2.33301 88.333 -7 123s-12.5 65.167 -23.5 91.5s-25.833 49.5 -44.5 69.5s-42 39 -70 57l21 17c70.667 -22 122.834 -61.667 156.501 -119s50.5 -134.666 50.5 -231.999v-83v0z
" />
    <glyph glyph-name="asterisk" unicode="*" horiz-adv-x="480" 
d="M464 551l-86 -45l-86 -44l97 -167l-17 -9l-136 140l-21 -23l-22 -23.5l-25 -26.5l-69 -73l-14 12l101 175l-170 84l7 17l186 -39l26 180l19 -2l21 -181l185 44l4 -19v0z" />
    <glyph glyph-name="plus" unicode="+" horiz-adv-x="560" 
d="M398 228h-87v-228l-69 -14l7 152v90h-100l-124 -7l14 69h210v179l69 24l-7 -85v-118h76l142 3v-74z" />
    <glyph glyph-name="comma" unicode="," horiz-adv-x="280" 
d="M200 1c0 -12 -1.66699 -23.8301 -5 -35.4971s-8.83301 -24.334 -16.5 -38.001s-18.167 -28.834 -31.5 -45.501s-30 -36 -50 -58l-28 31c10.667 6.66699 20 13.667 28 21c12 11.333 21.833 24.5 29.5 39.5s11.5 29.167 11.5 42.5c0 9.33301 -2 17.5 -6 24.5
s-9.33301 12.167 -16 15.5l-19 9c-8.66699 4 -15.5 10.167 -20.5 18.5s-7.5 17.166 -7.5 26.499c0 16 5.5 29.667 16.5 41s24.5 17 40.5 17c10 0 19.5 -2.83301 28.5 -8.5s16.833 -13.5 23.5 -23.5s12 -21.667 16 -35s6 -27.333 6 -42z" />
    <glyph glyph-name="hyphen" unicode="-" horiz-adv-x="330" 
d="M48 200l-7 79l241 28l7 -79z" />
    <glyph glyph-name="period" unicode="." horiz-adv-x="280" 
d="M200 52c0 -18 -6.5 -33.501 -19.5 -46.501s-29.167 -19.5 -48.5 -19.5c-17.333 0 -32.166 6.33301 -44.499 19s-18.5 28 -18.5 46c0 18.667 6.5 34.334 19.5 47.001s29.167 19 48.5 19c17.333 0 32.166 -6.33301 44.499 -19s18.5 -28 18.5 -46z" />
    <glyph glyph-name="slash" unicode="/" horiz-adv-x="290" 
d="M103 -117l-62 14l138 765l62 -17z" />
    <glyph glyph-name="zero" unicode="0" 
d="M463 228c0 -36.667 -4.83301 -69.667 -14.5 -99s-23.667 -54.333 -42 -75s-40.5 -36.5 -66.5 -47.5s-55.333 -16.5 -88 -16.5s-62 5.5 -88 16.5s-48.167 26.833 -66.5 47.5s-32.333 45.667 -42 75s-14.5 62.333 -14.5 99s4.83301 69.667 14.5 99s23.667 54.333 42 75
s40.5 36.5 66.5 47.5s55.333 16.5 88 16.5s62 -5.5 88 -16.5s48.167 -26.833 66.5 -47.5s32.333 -45.667 42 -75s14.5 -62.333 14.5 -99zM384 228c0 54.667 -11.832 97.5 -35.499 128.5s-56.5 46.5 -98.5 46.5c-40 0 -71.833 -15.667 -95.5 -47s-35.5 -74 -35.5 -128
c0 -54.667 11.833 -97.667 35.5 -129s56.167 -47 97.5 -47s73.666 15.667 96.999 47s35 74.333 35 129z" />
    <glyph glyph-name="one" unicode="1" horiz-adv-x="393" 
d="M41 0l0.000976562 20.9971c24 4 43.5 9 58.5 15s27 14 36 24s15.167 22.333 18.5 37s5 33 5 55v151c0 23.333 -1.33301 42.5 -4 57.5s-7.83398 27.333 -15.501 37s-18.167 17.167 -31.5 22.5s-31 10 -53 14v21h290v-21
c-23.333 -3.33301 -42.166 -7.66602 -56.499 -12.999s-25.5 -12.666 -33.5 -21.999s-13.5 -21.666 -16.5 -36.999s-4.5 -35 -4.5 -59v-151c0 -22 1.66699 -40.333 5 -55s9.5 -27 18.5 -37s21.167 -18 36.5 -24s34.666 -11 57.999 -15v-21h-311z" />
    <glyph glyph-name="two" unicode="2" 
d="M452 -7c-10.667 1.33301 -19.667 2.33008 -27 2.99707l-22.5 2c-7.66699 0.666992 -15.834 1.16699 -24.501 1.5s-19.667 0.5 -33 0.5h-292l-15 34l29.5 18.5l20.5 12.5c25.333 16.667 49.5 33.834 72.5 51.501s48.167 39.167 75.5 64.5c21.333 20 35 34.667 41 44
c7.33301 11.333 13.333 25.5 18 42.5s7 32.167 7 45.5c0 23.333 -7.5 42.5 -22.5 57.5s-34.167 22.5 -57.5 22.5c-9.33301 0 -18.166 -0.666992 -26.499 -2s-17 -3.66602 -26 -6.99902s-19.167 -8 -30.5 -14s-24.333 -13.333 -39 -22l-10 4l13 76
c16.667 7.33301 31.334 13.5 44.001 18.5s24.5 9 35.5 12s21.833 5 32.5 6s22.667 1.5 36 1.5c44 0 78 -12 102 -36s36 -57.333 36 -100c0 -27.333 -5.5 -53.5 -16.5 -78.5s-26.833 -47.167 -47.5 -66.5c-7.33301 -6.66699 -14.833 -13 -22.5 -19s-16.167 -12.333 -25.5 -19
l-24.5 -17c-7.66699 -5.33301 -15.834 -10.666 -24.501 -15.999l-29 -17l-37 -21v-7h290v-76v0z" />
    <glyph glyph-name="three" unicode="3" 
d="M418 -14c0 -30.667 -6.17188 -58.5029 -18.5049 -83.5029s-30 -46.333 -53 -64s-50.5 -31.334 -82.5 -41.001s-67.333 -14.5 -106 -14.5c-12 0 -22.667 0.166992 -32 0.5s-18.666 1.33301 -27.999 3s-19.333 3.83398 -30 6.50098s-23 6 -37 10l15 31
c11.333 -2 21.166 -3.66699 29.499 -5s15.833 -2.16602 22.5 -2.49902s13 -0.666016 19 -0.999023s12.667 -0.5 20 -0.5c58.667 0 105.334 13.833 140.001 41.5s52 65.167 52 112.5c0 18.667 -4.33301 34.5 -13 47.5s-19.834 23.667 -33.501 32s-29.167 14.5 -46.5 18.5
s-35 6 -53 6c-8.66699 0 -18.5 -1 -29.5 -3s-24.167 -4.66699 -39.5 -8l-11 7l15 59c12.667 1.33301 23.834 2.83301 33.501 4.5s18.5 3.5 26.5 5.5s15.5 4.33301 22.5 7s14.167 6 21.5 10c30 15.333 53.833 35.166 71.5 59.499s26.5 52.833 26.5 85.5
c0 24.667 -8.66699 44.334 -26 59.001s-40.666 22 -69.999 22c-10 0 -19.167 -0.5 -27.5 -1.5s-16.666 -3 -24.999 -6s-17 -7 -26 -12s-19.5 -11.5 -31.5 -19.5l-14 7l18 72c15.333 6.66699 28.833 12 40.5 16s22.667 7.16699 33 9.5s20.5 4 30.5 5s21.333 1.5 34 1.5
c50.667 0 89.834 -11.167 117.501 -33.5s41.5 -53.5 41.5 -93.5c0 -33.333 -8.16699 -62.666 -24.5 -87.999s-39.5 -47.333 -69.5 -66l-62 -38v-6c28.667 -4 53.167 -10.5 73.5 -19.5s36.833 -20 49.5 -33s21.834 -28 27.501 -45s8.5 -35.167 8.5 -54.5z" />
    <glyph glyph-name="four" unicode="4" 
d="M483 -7c-7.33301 1.33301 -13.5 2.33301 -18.5 3l-15 2c-5 0.666992 -10.5 1.16699 -16.5 1.5s-13.667 0.5 -23 0.5h-44v-215h-76v215h-262l-14 55l303 407l52 -10l-3 -83v-300h117v-76zM290 352l-214 -283h214v283z" />
    <glyph glyph-name="five" unicode="5" 
d="M419 2c0 -36 -9.16504 -70.3301 -27.498 -102.997s-43.5 -59 -75.5 -79c-11.333 -7.33301 -22.5 -13.5 -33.5 -18.5s-22.833 -9 -35.5 -12s-26.334 -5.16699 -41.001 -6.5s-31.334 -2 -50.001 -2c-11.333 0 -21.333 0.166992 -30 0.5s-16.667 0.666016 -24 0.999023
s-15 1 -23 2s-17.333 2.5 -28 4.5v35c16 -1.33301 29.667 -2.33301 41 -3s20.666 -1 27.999 -1c64 0 114.167 15.667 150.5 47s54.5 74.666 54.5 129.999c0 28 -4.83301 52 -14.5 72s-24.667 37.167 -45 51.5s-46.5 26.166 -78.5 35.499s-70.333 17 -115 23l15 276h326
l-15 -83h-261l-7 -131l24 -5c27.333 -6 51 -11.5 71 -16.5s37.667 -10.333 53 -16s29 -12.167 41 -19.5s23.333 -16 34 -26c20.667 -19.333 36.834 -41 48.501 -65s17.5 -54.333 17.5 -91z" />
    <glyph glyph-name="six" unicode="6" 
d="M455 241c0 -37.333 -4.99902 -71.334 -14.999 -102.001s-24 -57 -42 -79s-39.667 -39.167 -65 -51.5s-53 -18.5 -83 -18.5c-58.667 0 -104.667 23.5 -138 70.5s-50 112.167 -50 195.5c0 73.333 10.167 141.333 30.5 204s49.5 115 87.5 157c26 30 59 51.833 99 65.5
s88.333 20.5 145 20.5h11v-34c-18.667 -2.66699 -34.5 -5.16699 -47.5 -7.5s-24.333 -4.66602 -34 -6.99902s-18.334 -5.16602 -26.001 -8.49902s-15.5 -7.33301 -23.5 -12c-18 -9.33301 -35.333 -23 -52 -41c-9.33301 -9.33301 -17.5 -18.333 -24.5 -27
s-13.5 -18 -19.5 -28s-11.667 -21.333 -17 -34l-18 -45c18 3.33301 34.333 5.83301 49 7.5s28 2.5 40 2.5c27.333 0 52.833 -5.83301 76.5 -17.5s44.167 -27.667 61.5 -48s30.833 -44.333 40.5 -72s14.5 -57.834 14.5 -90.501zM370.001 209.999
c0 31.333 -5.50098 61.501 -16.501 90.501s-25.833 52.5 -44.5 70.5c-8 8 -15.667 14.667 -23 20s-15.666 10 -24.999 14s-20 7.5 -32 10.5s-26.333 5.83301 -43 8.5l-26 -21c-2.66699 -18.667 -4.83398 -34.667 -6.50098 -48s-3 -25.5 -4 -36.5s-1.66699 -21.5 -2 -31.5
s-0.5 -20.333 -0.5 -31c0 -33.333 2.83301 -63.833 8.5 -91.5s13.5 -51.334 23.5 -71.001s22 -35 36 -46s29.667 -16.5 47 -16.5c14.667 0 30.334 7.66699 47.001 23c19.333 18 34.333 40.5 45 67.5s16 56.5 16 88.5z" />
    <glyph glyph-name="seven" unicode="7" 
d="M113 -227l-59 31l329 575h-345v76h410l18 -21z" />
    <glyph glyph-name="eight" unicode="8" 
d="M457 171c0 -26 -5.49902 -50.1709 -16.499 -72.5039s-26 -41.5 -45 -57.5s-41.833 -28.5 -68.5 -37.5s-55.334 -13.5 -86.001 -13.5c-28 0 -53.833 4.33301 -77.5 13s-44.167 20.5 -61.5 35.5s-30.833 32.833 -40.5 53.5s-14.5 43 -14.5 67
c0 53.333 26.333 99.333 79 138l52 37l27 21l-55 48c-31.333 26.667 -53 50.5 -65 71.5s-18 44.167 -18 69.5c0 22.667 5.16699 44.334 15.5 65.001s24.166 38.834 41.499 54.501s37.5 28 60.5 37s47.5 13.5 73.5 13.5s50.333 -4 73 -12s42.334 -19 59.001 -33
s29.667 -30.667 39 -50s14 -40.333 14 -63c0 -31.333 -8.66699 -59.5 -26 -84.5s-46.666 -51.167 -87.999 -78.5l-31 -21l24 -17c19.333 -13.333 37.666 -27.5 54.999 -42.5s31.333 -28.5 42 -40.5c12 -13.333 21.333 -28.666 28 -45.999s10 -35.666 10 -54.999z
M364.001 560.996c0 34 -10.001 61 -30.001 81s-46.667 30 -80 30c-34 0 -61 -9.5 -81 -28.5s-30 -44.833 -30 -77.5c0 -12 1 -22.667 3 -32s5.83301 -18.5 11.5 -27.5s13.334 -18.667 23.001 -29s22.5 -22.5 38.5 -36.5l55 -48l28 28c19.333 19.333 34.5 41.5 45.5 66.5
s16.5 49.5 16.5 73.5zM374 160.996c0 12.667 -1.83203 24.667 -5.49902 36s-9.83398 22.666 -18.501 33.999l-10.5 13.5c-3 3.66699 -6.66699 7.5 -11 11.5s-9.83301 8.83301 -16.5 14.5s-16 13.167 -28 22.5l-51 41l-17 -17c-26 -24.667 -43.333 -43 -52 -55
c-10 -12.667 -18.333 -28.167 -25 -46.5s-10 -35.166 -10 -50.499c0 -38 11.5 -68.667 34.5 -92s52.833 -35 89.5 -35c37.333 0 66.833 11 88.5 33s32.5 52 32.5 90z" />
    <glyph glyph-name="nine" unicode="9" 
d="M442 215c0 -77.333 -8.16504 -144.332 -24.498 -200.999s-44.5 -106.334 -84.5 -149.001c-26.667 -28.667 -61.5 -50.167 -104.5 -64.5s-92.833 -21.5 -149.5 -21.5h-11v34c26.667 4 49.834 8.33301 69.501 13s36.834 10 51.501 16s27.5 12.667 38.5 20s21.5 16 31.5 26
c7.33301 7.33301 14.166 14.5 20.499 21.5s12.333 14.833 18 23.5s11.167 18.667 16.5 30s10.666 24.666 15.999 39.999c-18 -3.33301 -34.5 -5.83301 -49.5 -7.5s-28.5 -2.5 -40.5 -2.5c-24.667 0 -49.834 5.66699 -75.501 17s-46.834 26.333 -63.501 45
c-35.333 38.667 -53 91 -53 157c0 38.667 5 74 15 106s24.333 59.333 43 82s41 40.334 67 53.001s54.667 19 86 19c122 0 183 -85.667 183 -257zM356.002 207.001c0 67.333 -10.502 121.001 -31.502 161.001s-49.167 60 -84.5 60c-14 0 -27.5 -4.83301 -40.5 -14.5
s-24.333 -22.5 -34 -38.5s-17.5 -34.667 -23.5 -56s-9 -43.333 -9 -66c0 -31.333 5.5 -62 16.5 -92s25.167 -53.667 42.5 -71c8 -8 15.833 -14.667 23.5 -20s16.334 -10 26.001 -14s20.5 -7.33301 32.5 -10s26.333 -5.33398 43 -8.00098l26 21
c2.66699 18.667 4.83398 34.667 6.50098 48s3 25.5 4 36.5s1.66699 21.5 2 31.5s0.5 20.667 0.5 32z" />
    <glyph glyph-name="colon" unicode=":" horiz-adv-x="280" 
d="M214 321c0 -18 -6.66699 -33.501 -20 -46.501s-29.333 -19.5 -48 -19.5c-17.333 0 -32.166 6.33301 -44.499 19s-18.5 28 -18.5 46c0 18.667 6.5 34.334 19.5 47.001s29.167 19 48.5 19c17.333 0 32.166 -6.33301 44.499 -19s18.5 -28 18.5 -46zM214 51.999
c0 -18 -6.66699 -33.501 -20 -46.501s-29.333 -19.5 -48 -19.5c-17.333 0 -32.166 6.33301 -44.499 19s-18.5 28 -18.5 46c0 18.667 6.5 34.334 19.5 47.001s29.167 19 48.5 19c17.333 0 32.166 -6.33301 44.499 -19s18.5 -28 18.5 -46z" />
    <glyph glyph-name="semicolon" unicode=";" horiz-adv-x="280" 
d="M214 321c0 -18 -6.66699 -33.501 -20 -46.501s-29.333 -19.5 -48 -19.5c-17.333 0 -32.166 6.33301 -44.499 19s-18.5 28 -18.5 46c0 18.667 6.5 34.334 19.5 47.001s29.167 19 48.5 19c17.333 0 32.166 -6.33301 44.499 -19s18.5 -28 18.5 -46zM214 3.99902
c0 -12 -1.66797 -23.833 -5.00098 -35.5s-9 -24.334 -17 -38.001s-18.667 -28.667 -32 -45s-30 -35.5 -50 -57.5l-27 31c6 4 11.167 7.66699 15.5 11l11.5 9c12.667 11.333 22.834 24.5 30.501 39.5s11.5 29.5 11.5 43.5c0 18.667 -7 31.334 -21 38.001l-21 10
c-18 9.33301 -27 24.333 -27 45c0 16.667 5.5 30.667 16.5 42s24.167 17 39.5 17c10 0 19.667 -3 29 -9s17.333 -14 24 -24s12 -21.667 16 -35s6 -27.333 6 -42z" />
    <glyph glyph-name="less" unicode="&#x3c;" horiz-adv-x="560" 
d="M446 -16l-103 69l-295 168l403 272l35 -69l-107 -65l-204 -131l313 -173z" />
    <glyph glyph-name="equal" unicode="=" horiz-adv-x="560" 
d="M406 309h-249l-124 -7l11 69h351l142 3v-74zM406 109h-249l-124 -7l14 72l319 -3l171 3v-72z" />
    <glyph glyph-name="greater" unicode="&#x3e;" horiz-adv-x="560" 
d="M231 53l-103 -69l-42 71l313 173l-204 131l-107 65l35 69l403 -271z" />
    <glyph glyph-name="question" unicode="?" horiz-adv-x="372" 
d="M338 526c0 -26.667 -4.00488 -49.168 -12.0049 -67.501s-22.333 -37.833 -43 -58.5l-90 -90c-14 -14 -21 -28.333 -21 -43c0 -20.667 20.667 -36 62 -46l-37 -14.5c-9.33301 -3.66699 -17.5 -6.5 -24.5 -8.5s-13.167 -3.33301 -18.5 -4s-11.666 -1 -18.999 -1
c-16 0 -28.667 4.33301 -38 13s-14 20.667 -14 36c0 9.33301 1.83301 17.5 5.5 24.5s10.834 15.833 21.501 26.5l104 100c18.667 18 31.334 34 38.001 48s10 31 10 51c0 23.333 -6.16699 42.833 -18.5 58.5s-29.166 25.167 -50.499 28.5l-96 14c-42 6 -63 24.333 -63 55
c0 16 5.83301 31 17.5 45s31.167 29 58.5 45c-9.33301 -18.667 -14 -34.334 -14 -47.001c0 -6.66699 2.33301 -13 7 -19c2 -2 4.66699 -3.66699 8 -5s8 -2.66602 14 -3.99902s13.833 -2.5 23.5 -3.5s22.167 -2.5 37.5 -4.5c16.667 -2 30.834 -4 42.501 -6s22 -4.5 31 -7.5
s17 -6.83301 24 -11.5s13.5 -10 19.5 -16c12.667 -12.667 21.667 -25.667 27 -39s8 -29.666 8 -48.999zM191.995 51.999c0 -17.333 -5.66699 -31.835 -17 -43.502s-25 -17.5 -41 -17.5s-29.5 5.83301 -40.5 17.5s-16.5 25.834 -16.5 42.501c0 16 5.66699 29.667 17 41
s25.333 17 42 17c15.333 0 28.5 -5.66699 39.5 -17s16.5 -24.666 16.5 -39.999z" />
    <glyph glyph-name="at" unicode="@" horiz-adv-x="799" 
d="M785 271c0 -40 -6.66016 -78.166 -19.9932 -114.499s-31.333 -68 -54 -95s-49 -48.5 -79 -64.5s-61.667 -24 -95 -24c-17.333 0 -32.833 1.66699 -46.5 5s-31.834 10.666 -54.501 21.999l4 83c-19.333 -17.333 -36.333 -32 -51 -44s-27.834 -21.667 -39.501 -29
s-22.334 -12.5 -32.001 -15.5s-18.834 -4.5 -27.501 -4.5c-10 0 -19.167 4.16699 -27.5 12.5s-15.5 20 -21.5 35s-10.667 32.833 -14 53.5s-5 43 -5 67c0 48 9.5 94.333 28.5 139s44.833 81 77.5 109c11.333 9.33301 23.666 17.333 36.999 24s28.5 12.334 45.5 17.001
s36.333 8 58 10s46.5 3.33301 74.5 4l-21 -130l-13 -290c9.33301 -4 16.666 -6.66699 21.999 -8s13.666 -2 24.999 -2c50 0 88.333 19.167 115 57.5s40 92.833 40 163.5c0 80.667 -14.667 144.667 -44 192c-24 40 -58.333 71.5 -103 94.5s-93.334 34.5 -146.001 34.5
c-45.333 0 -88.833 -8.33301 -130.5 -25s-76.5 -40 -104.5 -70c-58.667 -62 -88 -149.667 -88 -263c0 -56 7.5 -105.833 22.5 -149.5s37.5 -80.5 67.5 -110.5c26 -24.667 60 -48.334 102 -71.001l28.5 -14.5c8.33301 -4.33301 17 -8.33301 26 -12
s18.667 -7.33398 29 -11.001l36.5 -12.5l-7 -20l-59.5 10.5c-16.333 3 -31.166 6.5 -44.499 10.5s-26.5 8.83301 -39.5 14.5s-27.833 12.5 -44.5 20.5c-62.667 30.667 -111.5 76.834 -146.5 138.501s-52.5 132.834 -52.5 213.501c0 30 2.66699 59.167 8 87.5
s13 53.833 23 76.5c10 23.333 23 46 39 68s34.667 42.667 56 62c38.667 35.333 80.667 61.333 126 78s95.333 25 150 25s104.667 -8.5 150 -25.5s84.333 -40.833 117 -71.5s58 -67.334 76 -110.001s27 -89.667 27 -141zM374.007 399.001
c-16.667 -24.667 -30.3369 -46.499 -41.0039 -65.499s-19.167 -37.5 -25.5 -55.5s-10.666 -36 -12.999 -54s-3.5 -38.333 -3.5 -61c0 -12 0.333008 -22.333 1 -31s1.83398 -16.834 3.50098 -24.501s3.83398 -15.667 6.50098 -24s6.33398 -17.833 11.001 -28.5l128 52l16 292
h-83z" />
    <glyph glyph-name="A" unicode="A" horiz-adv-x="607" 
d="M407 0l0.00292969 21.0039c18 5.33301 30.5 12 37.5 20s10.5 19 10.5 33c0 12.667 -2.33301 24.667 -7 36l-41 111h-228l-20 -83c-7.33301 -29.333 -11 -49.333 -11 -60c0 -16.667 6 -29.334 18 -38.001s32 -15 60 -19v-21h-226v21
c15.333 5.33301 27.5 10.166 36.5 14.499s16.833 10.166 23.5 17.499s12.667 17 18 29s11.666 28.333 18.999 49l186 510h62l200 -558c5.33301 -15.333 12.166 -27.333 20.499 -36s22.166 -17.334 41.499 -26.001v-21h-200zM290.003 555.004l-97 -293h200z" />
    <glyph glyph-name="B" unicode="B" horiz-adv-x="579" 
d="M531 158c0 -24.667 -4.99805 -47.334 -14.998 -68.001s-24.167 -38.334 -42.5 -53.001s-40.333 -26.167 -66 -34.5s-53.834 -12.5 -84.501 -12.5c-17.333 0 -37.5 0.833008 -60.5 2.5s-48.5 4.16699 -76.5 7.5h-165v21c20 2.66699 36.167 6.33398 48.5 11.001
s22 11 29 19s11.833 18.333 14.5 31s4 29 4 49v366c0 20.667 -0.833008 37.667 -2.5 51s-5 24.5 -10 33.5s-12 16.667 -21 23s-20.833 12.833 -35.5 19.5v21l131 -11c21.333 3.33301 38.833 5.83301 52.5 7.5s25.5 3 35.5 4s19 1.66699 27 2s17 0.5 27 0.5
c44.667 0 80.5 -12.667 107.5 -38s40.5 -59 40.5 -101c0 -23.333 -4.66699 -46 -14 -68c-4 -8.66699 -8.16699 -17 -12.5 -25s-9.83301 -16.5 -16.5 -25.5s-14.834 -19 -24.501 -30l-35.5 -39.5c12.667 -4 23.167 -7.5 31.5 -10.5l21.5 -8c6 -2.33301 11.167 -4.5 15.5 -6.5
l13.5 -6c26 -13.333 46.333 -31.666 61 -54.999s22 -49 22 -77zM393.002 459c0 40.667 -13.6689 74.001 -41.002 100.001c-8 7.33301 -16.5 13.666 -25.5 18.999s-19.5 9.83301 -31.5 13.5s-25.667 6.66699 -41 9s-33.333 4.5 -54 6.5v-248l14 -14l117 -14
c14.667 15.333 26.334 29 35.001 41c8.66699 12.667 15.334 26.5 20.001 41.5s7 30.167 7 45.5zM428 163.001c0 35.333 -11.667 63.6689 -35 85.002c-10 8.66699 -20.5 16.167 -31.5 22.5s-24 11.666 -39 15.999s-32.5 7.83301 -52.5 10.5s-43.333 4.66699 -70 6v-172
c0 -32.667 9.16699 -58 27.5 -76s44.5 -27 78.5 -27c16.667 0 32.5 3.5 47.5 10.5s28 16.667 39 29s19.667 26.666 26 42.999s9.5 33.833 9.5 52.5z" />
    <glyph glyph-name="C" unicode="C" horiz-adv-x="614" 
d="M524 14c-19.333 -6 -36.335 -10.833 -51.002 -14.5s-28.334 -6.5 -41.001 -8.5s-25.334 -3.33301 -38.001 -4s-27 -1 -43 -1c-48 0 -87.833 5.33301 -119.5 16s-60.5 28.334 -86.5 53.001c-35.333 34 -62.666 74 -81.999 120s-29 95 -29 147
c0 48.667 7.83301 93.5 23.5 134.5s37.667 76.167 66 105.5s62 52.166 101 68.499s82.167 24.5 129.5 24.5c16.667 0 31.834 -0.666992 45.501 -2s27.334 -3.83301 41.001 -7.5s28.334 -8.5 44.001 -14.5s33.5 -14 53.5 -24v-152l-21 -7c-20 55.333 -43 96.666 -69 123.999
c-11.333 12.667 -27.166 22.834 -47.499 30.501s-40.833 11.5 -61.5 11.5c-29.333 0 -56.333 -6.83301 -81 -20.5s-45.834 -32.834 -63.501 -57.501s-31.5 -54.167 -41.5 -88.5s-15 -71.833 -15 -112.5c0 -43.333 5.16699 -83.5 15.5 -120.5s24.833 -69.167 43.5 -96.5
s40.5 -48.666 65.5 -63.999s52.167 -23 81.5 -23c38.667 0 73.5 13 104.5 39s63.167 69.333 96.5 130l21 -7z" />
    <glyph glyph-name="D" unicode="D" horiz-adv-x="683" 
d="M648 317c0 -48 -7.66504 -92.001 -22.998 -132.001s-37 -74.167 -65 -102.5s-61.5 -50.333 -100.5 -66s-82.5 -23.5 -130.5 -23.5c-18.667 0 -39.834 0.5 -63.501 1.5s-50.167 2.83301 -79.5 5.5h-165v21c20 2.66699 36.167 6.33398 48.5 11.001s22 11 29 19
s11.833 18.333 14.5 31s4 29 4 49v366c0 22.667 -0.833008 40.834 -2.5 54.501s-5.16699 24.5 -10.5 32.5s-13 14.167 -23 18.5s-23.333 8.16602 -40 11.499v20l83 7c28 2.66699 54.167 4.5 78.5 5.5s47.166 1.5 68.499 1.5c56 0 107.167 -8 153.5 -24s86 -38.5 119 -67.5
s58.667 -63.833 77 -104.5s27.5 -85.667 27.5 -135zM552.002 329.999c0 37.333 -4.83301 69.3311 -14.5 95.998s-25.5 52.334 -47.5 77.001c-24 26.667 -51.667 48.667 -83 66c-15.333 8 -29.833 14.833 -43.5 20.5s-28.334 10.167 -44.001 13.5s-33 5.83301 -52 7.5
s-41.5 2.83398 -67.5 3.50098v-469c0 -37.333 8.33301 -64.5 25 -81.5s43.334 -25.5 80.001 -25.5s70.167 7 100.5 21s56.333 33.833 78 59.5s38.5 56.5 50.5 92.5s18 75.667 18 119z" />
    <glyph glyph-name="E" unicode="E" horiz-adv-x="545" 
d="M462 0l-440.996 0.00195312v21c20 2.66699 36.167 6.33398 48.5 11.001s22 11 29 19s11.833 18.333 14.5 31s4 29 4 49v366c0 20.667 -0.833008 37.834 -2.5 51.501s-5 25 -10 34s-12 16.333 -21 22s-20.833 11.167 -35.5 16.5v20h400l14 -151l-21 -7
c-10 20.667 -20 38.167 -30 52.5s-20.333 26.166 -31 35.499s-22.334 16.166 -35.001 20.499s-26.667 7.16602 -42 8.49902l-103 7v-262l97 3c18 0.666992 32.833 2.16699 44.5 4.5s21.5 6.5 29.5 12.5s14.667 14 20 24s10.666 23 15.999 39h21v-207h-21
c-4 18 -8.33301 32.333 -13 43s-10.834 19.167 -18.501 25.5s-17.667 10.666 -30 12.999s-28.5 3.83301 -48.5 4.5l-97 3v-174c0 -18.667 1.5 -34 4.5 -46s8.16699 -21.667 15.5 -29s17.5 -12.5 30.5 -15.5s29.167 -4.5 48.5 -4.5c20.667 0 39 2.16699 55 6.5
s30.833 11.666 44.5 21.999s26.667 23.833 39 40.5s25.166 37.334 38.499 62.001l21 -6z" />
    <glyph glyph-name="F" unicode="F" 
d="M441 483c-10 20.667 -20.001 38.168 -30.001 52.501s-20.333 26.166 -31 35.499s-22.334 16.166 -35.001 20.499s-26.667 7.16602 -42 8.49902l-103 7v-276l103 3c18.667 0.666992 33.834 2.16699 45.501 4.5s21.334 6.16602 29.001 11.499s13.667 12.833 18 22.5
s8.16602 22.167 11.499 37.5h21v-200h-21c-3.33301 16.667 -7 30.334 -11 41.001s-9.66699 19 -17 25s-17.166 10.167 -29.499 12.5s-27.833 3.83301 -46.5 4.5l-103 4v-166c0 -34 9.16699 -59.167 27.5 -75.5s50.5 -27.833 96.5 -34.5v-21h-303v21
c20 2.66699 36.167 6.33398 48.5 11.001s22 11 29 19s11.833 18.333 14.5 31s4 29 4 49v366c0 20.667 -0.833008 37.834 -2.5 51.501s-5 25 -10 34s-12 16.333 -21 22s-20.833 11.167 -35.5 16.5v20h400l14 -144z" />
    <glyph glyph-name="G" unicode="G" horiz-adv-x="717" 
d="M676 297c-15.333 -5.33301 -28.0039 -10.665 -38.0039 -15.998s-17.833 -11.833 -23.5 -19.5s-9.5 -17 -11.5 -28s-3 -24.5 -3 -40.5v-69l14 -96h-31c-3.33301 0 -6.33301 -0.166992 -9 -0.5s-7.16699 -1.33301 -13.5 -3s-15 -4.16699 -26 -7.5l-44.5 -14
c-38 -11.333 -82 -17 -132 -17c-25.333 0 -48.333 1.33301 -69 4s-39.834 7 -57.501 13s-34 13.833 -49 23.5s-29.833 21.5 -44.5 35.5c-34 32 -59.833 69.667 -77.5 113s-26.5 90 -26.5 140c0 47.333 7.83301 92.166 23.5 134.499s37.834 78.833 66.501 109.5
c31.333 33.333 66.666 57.666 105.999 72.999s86 23 140 23c16.667 0 32.334 -0.666992 47.001 -2s29.834 -3.5 45.501 -6.5s32.834 -7.16699 51.501 -12.5s40.334 -12 65.001 -20l7 -152l-20 -14c-16 31.333 -31.5 57.5 -46.5 78.5s-30.833 38 -47.5 51
s-34.667 22.333 -54 28s-41.333 8.5 -66 8.5c-32 0 -61.167 -7 -87.5 -21s-48.833 -33.667 -67.5 -59s-33.167 -55.833 -43.5 -91.5s-15.5 -75.167 -15.5 -118.5c0 -42.667 5.83301 -81.834 17.5 -117.501s28 -66.167 49 -91.5s46.167 -45.166 75.5 -59.499
s61.666 -21.5 96.999 -21.5c93.333 0 140 37 140 111v41c0 18 -1.33301 32.833 -4 44.5s-7.66699 21.5 -15 29.5s-17.166 14.5 -29.499 19.5s-28.166 9.5 -47.499 13.5v24h255v-20v0z" />
    <glyph glyph-name="H" unicode="H" horiz-adv-x="731" 
d="M441 0l-0.00195312 21c18.667 4 33.834 8.33301 45.501 13s20.834 11 27.501 19s11.167 18.167 13.5 30.5s3.5 28.166 3.5 47.499v179h-310l-21 -13v-166c0 -18.667 1.16699 -34.167 3.5 -46.5s6.5 -22.5 12.5 -30.5s14.333 -14.5 25 -19.5s24.667 -9.5 42 -13.5v-21
h-255v21c18.667 4 33.667 8.33301 45 13s20.333 11 27 19s11.167 18.167 13.5 30.5s3.5 28.166 3.5 47.499v366c0 20.667 -0.833008 37.834 -2.5 51.501s-5 25 -10 34s-12 16.333 -21 22s-20.833 11.167 -35.5 16.5v20h235v-20c-17.333 -4.66699 -31.333 -9.5 -42 -14.5
s-19 -11.5 -25 -19.5s-10.167 -18.167 -12.5 -30.5s-3.5 -27.833 -3.5 -46.5v-158h310l21 14v131c0 20.667 -0.833008 37.834 -2.5 51.501s-5 25 -10 34s-12 16.333 -21 22s-20.833 11.167 -35.5 16.5v20h235v-20c-17.333 -4.66699 -31.5 -9.5 -42.5 -14.5
s-19.5 -11.5 -25.5 -19.5s-10 -18.167 -12 -30.5s-3 -27.833 -3 -46.5v-379c0 -18.667 1 -34.167 3 -46.5s6 -22.5 12 -30.5s14.5 -14.5 25.5 -19.5s25.167 -9.5 42.5 -13.5v-21h-256z" />
    <glyph glyph-name="I" unicode="I" horiz-adv-x="317" 
d="M21 0v21c20 2.66699 36.167 6.33398 48.5 11.001s22 11 29 19s11.833 18.333 14.5 31s4 29 4 49v379c0 19.333 -1.16699 35.333 -3.5 48s-6.83301 23 -13.5 31s-15.667 14.333 -27 19s-26.333 9 -45 13v20h269v-20c-20 -3.33301 -36.333 -7.33301 -49 -12
s-22.5 -11 -29.5 -19s-11.833 -18.333 -14.5 -31s-4 -29 -4 -49v-379c0 -20 1.33301 -36.333 4 -49s7.5 -23 14.5 -31s16.833 -14.333 29.5 -19s29 -8.33398 49 -11.001v-21h-276z" />
    <glyph glyph-name="J" unicode="J" horiz-adv-x="290" 
d="M283 621c-18.667 -4 -33.833 -8.33105 -45.5 -12.998s-20.834 -11 -27.501 -19s-11.167 -18.333 -13.5 -31s-3.5 -28.667 -3.5 -48v-317c0 -40 -2.16699 -74 -6.5 -102s-11.166 -51.333 -20.499 -70c-6 -11.333 -13.333 -22.5 -22 -33.5s-19.5 -22.5 -32.5 -34.5
s-28.667 -24.833 -47 -38.5s-39.833 -28.834 -64.5 -45.501l-14 17c24.667 27.333 45 52 61 74s28.667 43.5 38 64.5s15.833 42.333 19.5 64s5.5 46.167 5.5 73.5l-7 348c0 20 -1.33301 36.5 -4 49.5s-7.5 23.5 -14.5 31.5s-16.667 14.167 -29 18.5
s-28.5 8.16602 -48.5 11.499v20h276v-20v0z" />
    <glyph glyph-name="K" unicode="K" horiz-adv-x="638" 
d="M28 0v21.0029c18.667 4 33.667 8.33301 45 13s20.333 11 27 19s11.167 18.167 13.5 30.5s3.5 28.166 3.5 47.499v379c0 18 -1 33 -3 45s-5.66699 22 -11 30s-13 14.667 -23 20s-23 10.666 -39 15.999v20h242v-20c-17.333 -4.66699 -31.333 -9.5 -42 -14.5
s-19 -11.5 -25 -19.5s-10.167 -18.167 -12.5 -30.5s-3.5 -27.833 -3.5 -46.5v-379c0 -20 1.33301 -36.333 4 -49s7.5 -23 14.5 -31s16.833 -14.333 29.5 -19s29 -8.33398 49 -11.001v-21h-269zM641 -27.9971l-26 -3.49902c-7.33301 -1 -13.333 -1.5 -18 -1.5
c-23.333 0 -45.333 3.66699 -66 11s-41.834 19.5 -63.501 36.5s-44.334 39.5 -68.001 67.5s-50.167 62.667 -79.5 104l-43.5 60.5l-62.5 84.5l124 145l48 62c18.667 24 28 41.333 28 52c0 7.33301 -4.16699 13.833 -12.5 19.5s-20.166 9.5 -35.499 11.5v20h241v-20
c-24.667 -8.66699 -45.5 -16.834 -62.5 -24.501s-33 -17 -48 -28s-30.5 -24.5 -46.5 -40.5s-35 -36.667 -57 -62l-96 -111l158 -196l44 -53c13.333 -16 25.666 -30 36.999 -42c8.66699 -10 16.834 -18.5 24.501 -25.5s15.334 -13.167 23.001 -18.5s16 -10 25 -14
s19.833 -8.33301 32.5 -13v-21z" />
    <glyph glyph-name="L" unicode="L" 
d="M462 0l-441 -0.00195312v21c20 2.66699 36.167 6.33398 48.5 11.001s22 11 29 19s11.833 18.333 14.5 31s4 29 4 49v366c0 20.667 -0.833008 37.834 -2.5 51.501s-5 25 -10 34s-12 16.333 -21 22s-20.833 11.167 -35.5 16.5v20h249v-20
c-20 -3.33301 -36.333 -7.33301 -49 -12s-22.5 -11 -29.5 -19s-11.833 -18.333 -14.5 -31s-4 -29 -4 -49v-379c0 -34 7.33301 -57.5 22 -70.5s41.334 -19.5 80.001 -19.5c20 0 37.667 2.16699 53 6.5s29.833 11.666 43.5 21.999s26.667 23.833 39 40.5
s25.166 37.334 38.499 62.001l21 -6z" />
    <glyph glyph-name="M" unicode="M" horiz-adv-x="821" 
d="M586 0l0.000976562 20.999c12 2 21.667 4.16699 29 6.5s13 6 17 11s6.66699 11.5 8 19.5s2 18 2 30c0 5.33301 -0.333008 9.33301 -1 12l-34 424l-214 -541l-200 527l-27 -289c-2.66699 -24.667 -4.5 -46 -5.5 -64s-1.5 -32.667 -1.5 -44c0 -28 5.66699 -48.333 17 -61
s33 -23 65 -31v-21h-234v21c16 5.33301 29.167 11 39.5 17s18.833 12.833 25.5 20.5s12 16.667 16 27s7 23.166 9 38.499l55 386c0.666992 5.33301 1.16699 10.5 1.5 15.5s0.5 9.83301 0.5 14.5c0 21.333 -5.16699 37.833 -15.5 49.5s-28.833 22.167 -55.5 31.5v20h151
l180 -479l186 479h152v-20c-24.667 -3.33301 -42.334 -9.16602 -53.001 -17.499s-16 -20.166 -16 -35.499c0 -4 1 -16.333 3 -37l38 -438c1.33301 -12.667 3 -23.167 5 -31.5s5 -15 9 -20s9.16699 -9 15.5 -12s14.833 -5.83301 25.5 -8.5v-21h-193z" />
    <glyph glyph-name="N" unicode="N" horiz-adv-x="717" 
d="M703 621c-20 -3.33301 -36.001 -7.16602 -48.001 -11.499s-21.5 -10.5 -28.5 -18.5s-11.833 -18.333 -14.5 -31s-4.33398 -29.334 -5.00098 -50.001l-14 -496l-38 -36l-383 529l7 -376c0.666992 -20.667 2.33398 -37.5 5.00098 -50.5s7.83398 -23.5 15.501 -31.5
s18.167 -14 31.5 -18s30.666 -7.33301 51.999 -10v-21h-269v21c20 2.66699 36.167 6.16699 48.5 10.5s21.833 10.333 28.5 18s11.334 18 14.001 31s4.33398 29.833 5.00098 50.5l14 324c0 28 -1.16699 51.167 -3.5 69.5s-7 33.333 -14 45s-16.667 21.334 -29 29.001
s-28.833 15.167 -49.5 22.5v20h149l368 -510l-7 379c-0.666992 20 -2.33398 36.5 -5.00098 49.5s-7.5 23.5 -14.5 31.5s-16.667 14.167 -29 18.5s-28.5 8.16602 -48.5 11.499v20h262v-20v0z" />
    <glyph glyph-name="O" unicode="O" horiz-adv-x="697" 
d="M662 319c0 -49.333 -7.66211 -94.334 -22.9951 -135.001s-37 -75.667 -65 -105s-61.333 -52.166 -100 -68.499s-81.334 -24.5 -128.001 -24.5c-45.333 0 -87 8.33301 -125 25s-70.833 39.667 -98.5 69s-49.334 64.5 -65.001 105.5s-23.5 85.5 -23.5 133.5
c0 50 7.66699 95.5 23 136.5s36.666 76.333 63.999 106s60.166 52.667 98.499 69s80.5 24.5 126.5 24.5c45.333 0 85.166 -6.33301 119.499 -19s65.5 -32.667 93.5 -60c33.333 -33.333 58.833 -72 76.5 -116s26.5 -91 26.5 -141zM559.005 304.999
c0 44 -5.66406 84.998 -16.9971 122.998s-27.166 70.667 -47.499 98s-44.5 48.833 -72.5 64.5s-58.333 23.5 -91 23.5c-28.667 0 -54.834 -6.83301 -78.501 -20.5s-44 -32.667 -61 -57s-30.167 -53.666 -39.5 -87.999s-14 -72.166 -14 -113.499
c0 -43.333 5.66699 -83.833 17 -121.5s27.166 -70.167 47.499 -97.5s44.166 -48.833 71.499 -64.5s57 -23.5 89 -23.5c29.333 0 56.166 6.66699 80.499 20s45 32 62 56s30.167 53 39.5 87s14 72 14 114z" />
    <glyph glyph-name="P" unicode="P" horiz-adv-x="510" 
d="M497 438c0 -56.667 -18.665 -103.668 -55.998 -141.001c-11.333 -12 -22.666 -22.167 -33.999 -30.5s-24 -15.333 -38 -21s-30 -10.5 -48 -14.5s-40 -7.33301 -66 -10l-14 27c16.667 2 31.167 4.33301 43.5 7s23.166 6 32.499 10s17.833 8.83301 25.5 14.5
s15.5 12.5 23.5 20.5c27.333 28.667 41 72.667 41 132c0 67.333 -23 116.333 -69 147c-8 5.33301 -16 9.83301 -24 13.5s-17.333 6.83398 -28 9.50098s-22.834 5 -36.501 7s-30.167 3.66699 -49.5 5v-483c0 -34.667 9.16699 -59.834 27.5 -75.501s50.5 -26.167 96.5 -31.5
v-24h-303v21c20 2.66699 36.333 6.33398 49 11.001s22.5 11.167 29.5 19.5s11.667 19 14 32s3.5 29.833 3.5 50.5v376c0 18.667 -0.833008 34 -2.5 46s-5.33398 21.833 -11.001 29.5s-13.5 13.5 -23.5 17.5s-23 7.66699 -39 11v20l76 7c25.333 2.66699 48 4.5 68 5.5
s37.333 1.5 52 1.5c40 0 76 -4.83301 108 -14.5s59.333 -23.5 82 -41.5s40 -40 52 -66s18 -55.333 18 -88z" />
    <glyph glyph-name="Q" unicode="Q" horiz-adv-x="697" 
d="M745 -166c-12.667 -5.33301 -23.833 -9.83203 -33.5 -13.499s-18.834 -6.5 -27.501 -8.5s-17.167 -3.33301 -25.5 -4s-17.5 -1 -27.5 -1c-50.667 0 -97.667 11.333 -141 34c-12 6.66699 -23.5 13.667 -34.5 21s-23.333 16.166 -37 26.499s-29.167 23.166 -46.5 38.499
l-62 56c-22.667 5.33301 -42.167 10.5 -58.5 15.5s-31 10.667 -44 17s-24.833 13.5 -35.5 21.5s-22 17.667 -34 29c-34 32 -59.833 69.5 -77.5 112.5s-26.5 89.833 -26.5 140.5c0 50 7.66699 95.667 23 137s36.666 76.833 63.999 106.5s60.333 52.5 99 68.5
s81.667 24 129 24c46 0 86.333 -6.83301 121 -20.5s66.667 -35.5 96 -65.5c30.667 -32 54.334 -69.667 71.001 -113s25 -89 25 -137c0 -50.667 -8.83301 -98.167 -26.5 -142.5s-43.167 -82.5 -76.5 -114.5c-11.333 -10.667 -22 -19.667 -32 -27s-20.667 -13.5 -32 -18.5
s-24 -9.33301 -38 -13s-30.667 -7.16699 -50 -10.5l145 -96c16.667 -11.333 31 -20.666 43 -27.999s22.5 -13 31.5 -17s17.333 -6.83301 25 -8.5s15.834 -2.5 24.501 -2.5c13.333 0 34 4.66699 62 14zM559.001 308.001c0 44 -5.83203 84.665 -17.499 121.998
s-27.667 69.666 -48 96.999s-44.333 48.666 -72 63.999s-57.834 23 -90.501 23c-28.667 0 -54.834 -6.83301 -78.501 -20.5s-44 -32.667 -61 -57s-30.167 -53.666 -39.5 -87.999s-14 -72.166 -14 -113.499c0 -44 5.66699 -84.667 17 -122s27.166 -69.833 47.499 -97.5
s44.333 -49.167 72 -64.5s57.834 -23 90.501 -23c10 0 20.833 1.33301 32.5 4s23.334 6.33398 35.001 11.001s22.5 10.167 32.5 16.5s18.333 12.833 25 19.5c10 10.667 19.333 24.334 28 41.001s16 35 22 55s10.667 41.333 14 64s5 45.667 5 69z" />
    <glyph glyph-name="R" unicode="R" horiz-adv-x="620" 
d="M690 -48c-15.333 -4.66699 -27.168 -7.66406 -35.501 -8.99707s-18.166 -2 -29.499 -2c-30 0 -60 6.33301 -90 19s-56.667 30.667 -80 54c-14 14 -27 28 -39 42s-24.333 30.667 -37 50s-26.667 42.166 -42 68.499l-54 97.5c-19.333 -2 -33.333 -3 -42 -3
c-9.33301 0 -23 1 -41 3v-141c0 -20 1.33301 -36.333 4 -49s7.5 -23 14.5 -31s16.833 -14.333 29.5 -19s29 -8.33398 49 -11.001v-21h-276v21c20 2.66699 36.167 6.33398 48.5 11.001s22 11 29 19s11.833 18.333 14.5 31s4 29 4 49v366c0 19.333 -1.16699 35.5 -3.5 48.5
s-6.5 24.167 -12.5 33.5s-14.5 17.5 -25.5 24.5s-24.833 13.833 -41.5 20.5v21l152 -11c17.333 2.66699 31.666 5 42.999 7s21.333 3.5 30 4.5s16.667 1.66699 24 2s15.333 0.5 24 0.5c24 0 46 -3.66699 66 -11s37 -17.5 51 -30.5s25 -28.667 33 -47s12 -38.833 12 -61.5
c0 -32.667 -7 -63 -21 -91c-4 -9.33301 -8.5 -17.833 -13.5 -25.5s-10.833 -15.667 -17.5 -24s-14.667 -17.333 -24 -27s-20.666 -20.834 -33.999 -33.501l75.5 -111.5l54.5 -77c15.333 -21 28.5 -38 39.5 -51s21.167 -24.167 30.5 -33.5
c4.66699 -4.66699 9.83398 -9.16699 15.501 -13.5l18.5 -13.5c6.66699 -4.66699 13.167 -8.5 19.5 -11.5s13.166 -5.5 20.499 -7.5s15.5 -3.83301 24.5 -5.5s19.833 -2.83398 32.5 -3.50098v-17zM392.998 447.003c0 43.333 -13.667 79.333 -41 108
c-11.333 12.667 -25.333 23 -42 31c-14.667 7.33301 -29.5 12.5 -44.5 15.5s-36.833 4.83301 -65.5 5.5v-286c8 -3.33301 15 -5.83301 21 -7.5s11.833 -3 17.5 -4s11.667 -1.66699 18 -2s13.5 -0.5 21.5 -0.5h15c4 0 8 0.333008 12 1s8 1.5 12 2.5l14 3.5
c22 21.333 37.833 42.333 47.5 63s14.5 44 14.5 70z" />
    <glyph glyph-name="S" unicode="S" horiz-adv-x="497" 
d="M441 157c0 -24.667 -5.00098 -47.501 -15.001 -68.501s-23.667 -39 -41 -54s-38.333 -26.833 -63 -35.5s-51.334 -13 -80.001 -13c-13.333 0 -26 0.666992 -38 2s-24.667 3.5 -38 6.5s-27.666 7.33301 -42.999 13l-54 20.5l-14 165l21 10c6 -16.667 11.667 -31 17 -43
s10.666 -22.667 15.999 -32s10.833 -17.833 16.5 -25.5s12.167 -15.5 19.5 -23.5c16 -17.333 33.667 -30.833 53 -40.5s37.666 -14.5 54.999 -14.5c14.667 0 28.334 2.83301 41.001 8.5s23.834 13.334 33.501 23.001s17.334 21 23.001 34s8.5 27.167 8.5 42.5
c0 20.667 -5.5 38.667 -16.5 54s-30.833 32.666 -59.5 51.999l-56 38l-40 28.5c-11.333 8.33301 -21.333 16.333 -30 24l-26 23.5c-20 19.333 -34.167 38.5 -42.5 57.5s-12.5 42.5 -12.5 70.5c0 26 4.5 49.667 13.5 71s21.667 39.833 38 55.5s36 27.667 59 36
s48.5 12.5 76.5 12.5c10.667 0 21 -0.5 31 -1.5s20.5 -2.83301 31.5 -5.5s23 -6.16699 36 -10.5s28.167 -9.83301 45.5 -16.5l21 -145l-21 -10c-8 14.667 -15.833 28.334 -23.5 41.001l-22.5 36c-33.333 49.333 -73.333 74 -120 74c-28 0 -51 -9 -69 -27s-27 -41 -27 -69
c0 -14 3 -29 9 -45s14.333 -30 25 -42c6.66699 -7.33301 13.667 -14.166 21 -20.499s16.833 -13.833 28.5 -22.5s26.167 -18.834 43.5 -30.501l66 -43.5c28 -17.333 48.667 -33.333 62 -48c13.333 -13.333 23.5 -29.833 30.5 -49.5s10.5 -40.5 10.5 -62.5z" />
    <glyph glyph-name="T" unicode="T" horiz-adv-x="565" 
d="M545 497c-12 18.667 -23.5 34.5029 -34.5 47.5029s-22.5 23.333 -34.5 31s-24.667 13.167 -38 16.5s-28.333 5 -45 5h-69v-466c0 -34 9.16699 -59.167 27.5 -75.5s50.5 -27.833 96.5 -34.5v-21h-324v21c44 7.33301 74.5 19.166 91.5 35.499s25.5 41.166 25.5 74.499v466
h-69c-15.333 0 -29.166 -1.66699 -41.499 -5s-24.5 -9 -36.5 -17s-24 -18.333 -36 -31s-25 -28.334 -39 -47.001l-19 11l33 147c22 -6 41.167 -10.833 57.5 -14.5s33.166 -6.33398 50.499 -8.00098s36.833 -2.83398 58.5 -3.50098s49.5 -1 83.5 -1
c33.333 0 60.833 0.333008 82.5 1s41 1.83398 58 3.50098s33.667 4.33398 50 8.00098s35.5 8.5 57.5 14.5l35 -145z" />
    <glyph glyph-name="U" unicode="U" horiz-adv-x="676" 
d="M662 621c-16 -5.33301 -28.834 -10.502 -38.501 -15.502s-17.167 -11.5 -22.5 -19.5s-9 -18 -11 -30s-3.33301 -27.333 -4 -46l-7 -241c-1.33301 -36.667 -2.83301 -66.5 -4.5 -89.5s-4.5 -42 -8.5 -57s-10 -28 -18 -39s-18.333 -22.833 -31 -35.5
c-20.667 -20 -46.167 -35.333 -76.5 -46s-64.5 -16 -102.5 -16c-60.667 0 -111.334 14 -152.001 42c-22 14 -40.333 32.667 -55 56c-6.66699 10 -12.167 20.167 -16.5 30.5s-7.83301 21.833 -10.5 34.5s-4.5 26.834 -5.5 42.501s-1.5 34.167 -1.5 55.5v250
c0 20.667 -0.833008 37.834 -2.5 51.501s-5 25 -10 34s-12 16.333 -21 22s-20.833 11.167 -35.5 16.5v20h248v-20c-20 -3.33301 -36.333 -7.33301 -49 -12s-22.5 -11 -29.5 -19s-11.833 -18.333 -14.5 -31s-4 -29 -4 -49v-252c0 -39.333 4.16699 -71 12.5 -95
s22.5 -46 42.5 -66c34.667 -34.667 77 -52 127 -52c24 0 46.5 4.33301 67.5 13s39.167 21.667 54.5 39c8 8.66699 14.667 17.667 20 27s9.5 20 12.5 32s5.16699 25.833 6.5 41.5s2 34.167 2 55.5v23l-7 234c-0.666992 20 -2.16699 36.333 -4.5 49s-6.66602 23 -12.999 31
s-15.166 14.167 -26.499 18.5s-26.333 8.5 -45 12.5v20h234v-20v0z" />
    <glyph glyph-name="V" unicode="V" horiz-adv-x="569" 
d="M572 624c-11.333 -6 -20.834 -11.665 -28.501 -16.998s-14.167 -11.166 -19.5 -17.499s-10.166 -13.5 -14.499 -21.5s-8.5 -18 -12.5 -30l-173 -462c-3.33301 -8.66699 -6.5 -16.5 -9.5 -23.5s-6.5 -14 -10.5 -21s-8.83301 -14.333 -14.5 -22l-20.5 -26.5l-200 572
c-5.33301 15.333 -12.833 27.666 -22.5 36.999s-25.167 19 -46.5 29v20h214v-20c-22 -3.33301 -36.833 -7.83301 -44.5 -13.5s-11.5 -15.167 -11.5 -28.5c0 -6.66699 1.5 -16.667 4.5 -30s6.16699 -25 9.5 -35l131 -373l111 338c9.33301 29.333 14 54 14 74
c0 17.333 -5.16699 30.666 -15.5 39.999s-30.5 18.666 -60.5 27.999v20h220v-17v0z" />
    <glyph glyph-name="W" unicode="W" horiz-adv-x="887" 
d="M883 621c-16 -7.33301 -29.168 -14.001 -39.501 -20.001s-19 -13 -26 -21s-13 -17.333 -18 -28s-10.167 -24.334 -15.5 -41.001l-150 -449l-8.5 -23.5c-2.33301 -6.33301 -4.83301 -12.166 -7.5 -17.499s-6 -10.666 -10 -15.999s-9 -11.666 -15 -18.999l-152 493
l-158 -427c-2.66699 -7.33301 -5.16699 -13.666 -7.5 -18.999s-4.83301 -10.333 -7.5 -15l-8.5 -14.5c-3 -5 -6.83301 -10.833 -11.5 -17.5l-179 573c-5.33301 18 -12.5 31 -21.5 39s-24.833 15.667 -47.5 23v20h200v-20c-15.333 -2.66699 -26 -6.66699 -32 -12
s-9 -13 -9 -23c0 -12.667 2.33301 -26.334 7 -41.001l110 -379l117 320c9.33301 26 14 48.667 14 68c0 17.333 -5.16699 31 -15.5 41s-28.166 18.667 -53.499 26v20h214v-20c-20 -4.66699 -34.167 -10.834 -42.5 -18.501s-12.5 -18.167 -12.5 -31.5c0 -10.667 2 -23 6 -37
l125 -372l82 300c14 50 21 83 21 99c0 24 -20.667 44 -62 60v20h214v-20v0z" />
    <glyph glyph-name="X" unicode="X" horiz-adv-x="566" 
d="M338 0l0.000976562 21.002c36.667 6 55 18.333 55 37c0 8.66699 -4.66699 21.667 -14 39l-103 186l-76 -117c-12 -18.667 -22 -36.834 -30 -54.501s-12 -30.5 -12 -38.5c0 -28 23.333 -45.333 70 -52v-21h-228v21c28 10.667 46.333 19.667 55 27
c5.33301 4.66699 11.833 12 19.5 22s17.167 23.333 28.5 40l145 214l-117 207c-8 14 -14.833 25.333 -20.5 34s-11.834 16 -18.501 22s-14.334 11.5 -23.001 16.5s-20.334 10.833 -35.001 17.5v20h214v-20c-17.333 -3.33301 -29.666 -7.83301 -36.999 -13.5
s-11 -13.834 -11 -24.501c0 -8.66699 2.33301 -16.667 7 -24l96 -169l69 107c13.333 20.667 22.5 36.5 27.5 47.5s7.5 21.167 7.5 30.5c0 11.333 -4.33301 20.5 -13 27.5s-22.667 13.167 -42 18.5v20h207v-20c-15.333 -8.66699 -27.666 -16 -36.999 -22
s-17.833 -12.5 -25.5 -19.5s-15.667 -15.833 -24 -26.5s-18.833 -25 -31.5 -43l-117 -162l159 -265c4.66699 -8.66699 9.5 -16 14.5 -22s10.5 -11.167 16.5 -15.5s13.167 -8.5 21.5 -12.5s18.5 -8 30.5 -12v-21h-228z" />
    <glyph glyph-name="Y" unicode="Y" horiz-adv-x="510" 
d="M517 621l-33.999 -18.9971c-9.33301 -5.33301 -16.333 -10.666 -21 -15.999c-8.66699 -10 -22.334 -33 -41.001 -69l-97 -186c-12 -23.333 -20.667 -46.5 -26 -69.5s-8 -48.167 -8 -75.5v-55c0 -34 9.16699 -59.167 27.5 -75.5s50.5 -27.833 96.5 -34.5v-21h-324v21
c43.333 7.33301 73.666 19.166 90.999 35.499s26 41.166 26 74.499v55c0 23.333 -2.16699 45.166 -6.5 65.499s-10.166 38.833 -17.499 55.5l-107 224l-19.5 38.5c-5 9.66699 -10 17.5 -15 23.5s-10.667 10.833 -17 14.5s-14.5 8.16699 -24.5 13.5v20h193v-20
c-18 -3.33301 -30.5 -8 -37.5 -14s-10.5 -14.667 -10.5 -26c0 -10.667 2.33301 -20.334 7 -29.001l117 -249l76 166c22.667 49.333 34 82 34 98c0 26.667 -23 44.667 -69 54v20h207v-20v0z" />
    <glyph glyph-name="Z" unicode="Z" horiz-adv-x="538" 
d="M476 0l-455.002 -0.00390625l-7 14l372 572l-14 14l-138 -7c-25.333 -1.33301 -46.666 -4.16602 -63.999 -8.49902s-32.5 -11.166 -45.5 -20.499s-24.333 -21.666 -34 -36.999s-19.167 -34.666 -28.5 -57.999l-21 7l28 165h428l7 -17l-373 -576l7 -7l138 7
c24.667 1.33301 46.834 4.33301 66.501 9s38.334 12 56.001 22s34.667 23.167 51 39.5s34.166 36.5 53.499 60.5l21 -7z" />
    <glyph glyph-name="bracketleft" unicode="[" horiz-adv-x="360" 
d="M339 -124l-221 21v734l221 17l7 -34l-152 -28v-641l152 -35z" />
    <glyph glyph-name="backslash" unicode="\" horiz-adv-x="290" 
d="M179 -117l-138 762l62 17l138 -765z" />
    <glyph glyph-name="bracketright" unicode="]" horiz-adv-x="360" 
d="M21 -124l-7 34l152 35v641l-152 28l7 34l221 -17v-734z" />
    <glyph glyph-name="asciicircum" unicode="^" horiz-adv-x="450" 
d="M360 538l-127 95l-149 -91l-10 10l160 175l140 -179z" />
    <glyph glyph-name="underscore" unicode="_" horiz-adv-x="483" 
d="M0 -97v63h483v-63h-483z" />
    <glyph glyph-name="grave" unicode="`" horiz-adv-x="450" 
d="M284 503l-165 187l7 41h48l124 -214z" />
    <glyph glyph-name="a" unicode="a" horiz-adv-x="448" 
d="M384 -4c-7.33301 -1.33301 -14.665 -2.33203 -21.998 -2.99902s-14 -1 -20 -1c-20.667 0 -35.334 3.5 -44.001 10.5s-16 20.5 -22 40.5c-15.333 -10.667 -28.666 -19.5 -39.999 -26.5s-22.333 -12.5 -33 -16.5s-21.334 -6.66699 -32.001 -8s-22.667 -2 -36 -2
c-33.333 0 -59.5 8.33301 -78.5 25s-28.5 40 -28.5 70c0 25.333 7.66699 45.833 23 61.5s42 30.5 80 44.5l152 56v84c0 32.667 -5 54.834 -15 66.501s-28.667 17.5 -56 17.5c-12.667 0 -23.5 -1.33301 -32.5 -4s-17.167 -7.16699 -24.5 -13.5s-14 -14.833 -20 -25.5
s-12 -24.334 -18 -41.001c-1.33301 -4 -3.16602 -8.83301 -5.49902 -14.5s-5.16602 -12.167 -8.49902 -19.5c-36.667 4.66699 -55 18 -55 40c0 8.66699 3.16699 18 9.5 28s15.166 19.833 26.499 29.5s24.333 19 39 28s30.667 16.833 48 23.5
c15.333 5.33301 32.666 10 51.999 14s35.666 6 48.999 6c32 0 55 -7.33301 69 -22s21 -38 21 -70v-19l-10 -234v-8c0 -12 1 -22.333 3 -31s6 -16.334 12 -23.001s14.333 -12.667 25 -18s24.667 -11 42 -17v-22zM181.001 171.001
c-45.333 -18.667 -67.999 -43.333 -67.999 -74c0 -14.667 5.66699 -27.667 17 -39s24.666 -17 39.999 -17c18.667 0 44 6 76 18c3.33301 1.33301 7.5 2.83301 12.5 4.5s10.833 3.5 17.5 5.5l7 144z" />
    <glyph glyph-name="b" unicode="b" horiz-adv-x="524" 
d="M483 248c0 -39.333 -5.67188 -75.001 -17.0049 -107.001s-27.166 -59.5 -47.499 -82.5s-44.666 -40.833 -72.999 -53.5s-59.5 -19 -93.5 -19c-10 0 -19.333 0.666992 -28 2s-16.667 3 -24 5c-30 9.33301 -48 14 -54 14c-4 0 -13.667 -3.33301 -29 -10l-20 -11l-21 21
l14 179v330c0 26 -0.666992 47.333 -2 64s-3.66602 30.167 -6.99902 40.5s-8.33301 18.5 -15 24.5s-15 11.333 -25 16v29l125 20l13 -13l-13 -290l11.5 10c3 2.66699 5.83301 5 8.5 7c18.667 14 38.834 25 60.501 33s42.834 12 63.501 12c25.333 0 48.5 -5.5 69.5 -16.5
s39.167 -26.167 54.5 -45.5s27.333 -42.666 36 -69.999s13 -57 13 -89zM399.995 218.999c0 26.667 -3.83594 51.1689 -11.5029 73.502s-18.167 41.666 -31.5 57.999s-29.166 29.166 -47.499 38.499s-38.166 14 -59.499 14c-15.333 0 -28.666 -1.5 -39.999 -4.5
s-26 -9.5 -44 -19.5v-241c0 -32 8 -57.833 24 -77.5s37.333 -29.5 64 -29.5c20.667 0 40 4.66699 58 14s33.5 22.5 46.5 39.5s23.167 36.833 30.5 59.5s11 47.667 11 75z" />
    <glyph glyph-name="c" unicode="c" horiz-adv-x="428" 
d="M407 86c-19.333 -30.667 -45.332 -54.3281 -77.999 -70.9951s-69 -25 -109 -25c-26.667 0 -51 5.33301 -73 16s-40.833 25.667 -56.5 45s-27.834 42.666 -36.501 69.999s-13 57.666 -13 90.999c0 37.333 5.16699 71.666 15.5 102.999s24.666 58.166 42.999 80.499
s40.333 39.666 66 51.999s54.167 18.5 85.5 18.5c20.667 0 40.334 -3 59.001 -9s35.167 -13.833 49.5 -23.5s25.833 -20.834 34.5 -33.501s13 -26 13 -40c0 -13.333 -4.33301 -25 -13 -35s-18.667 -15 -30 -15c-9.33301 0 -17.5 2.5 -24.5 7.5s-12.167 11.833 -15.5 20.5
l-14 41c-8 25.333 -29.333 38 -64 38c-38.667 0 -68.667 -15.167 -90 -45.5s-32 -73.166 -32 -128.499c0 -58.667 12.5 -104 37.5 -136s59.833 -48 104.5 -48c8.66699 0 17 0.5 25 1.5s16.333 3 25 6s18 7 28 12s21.667 11.167 35 18.5l28 -11v0z" />
    <glyph glyph-name="d" unicode="d" horiz-adv-x="524" 
d="M372 -14l-13.001 14.001v48c-26 -22 -50 -37.833 -72 -47.5s-45.667 -14.5 -71 -14.5c-26 0 -49.667 5.5 -71 16.5s-39.666 26.167 -54.999 45.5s-27.333 42.666 -36 69.999s-13 57.333 -13 90c0 37.333 5.66699 71.833 17 103.5s26.833 59.167 46.5 82.5
s43 41.666 70 54.999s56.5 20 88.5 20c8 0 15.333 -0.333008 22 -1s13.667 -1.66699 21 -3s15.166 -3.5 23.499 -6.5l29.5 -10.5v75c0 25.333 -1.16699 46.5 -3.5 63.5s-6.5 31 -12.5 42s-14.167 19.5 -24.5 25.5s-23.5 11 -39.5 15v24l155 17l14 -13l-14 -242v-324
c0 -15.333 0.833008 -28.166 2.5 -38.499s4.83398 -18.833 9.50098 -25.5s11 -12.167 19 -16.5s18.667 -8.5 32 -12.5v-24zM358.999 317.001c0 32 -8.16602 57.833 -24.499 77.5s-38.166 29.5 -65.499 29.5c-20 0 -38.833 -4.66699 -56.5 -14s-33 -22 -46 -38
s-23.333 -35 -31 -57s-11.5 -45.333 -11.5 -70c0 -28.667 3.66699 -54.834 11 -78.501s17.666 -44 30.999 -61s29.166 -30.167 47.499 -39.5s38.833 -14 61.5 -14c8 0 15 0.333008 21 1s12.167 1.83398 18.5 3.50098s13 4 20 7s15.167 7.16699 24.5 12.5v241z" />
    <glyph glyph-name="e" unicode="e" horiz-adv-x="438" 
d="M410 86c-3.33301 -12.667 -10.999 -24.8281 -22.999 -36.4951s-27 -22 -45 -31s-37.833 -16.167 -59.5 -21.5s-43.5 -8 -65.5 -8c-26 0 -49.833 5.5 -71.5 16.5s-40.167 26.167 -55.5 45.5s-27.333 42.666 -36 69.999s-13 57.666 -13 90.999
c0 39.333 5.16699 74.666 15.5 105.999s25.166 58 44.499 80s42.833 38.833 70.5 50.5s58.5 17.5 92.5 17.5c46 0 81.333 -10.833 106 -32.5s37 -52.5 37 -92.5c0 -10 -0.5 -21.333 -1.5 -34s-2.83301 -26.334 -5.5 -41.001h-283v-26c0 -56.667 13 -100.834 39 -132.501
s62.333 -47.5 109 -47.5c9.33301 0 18 0.5 26 1.5s16.667 2.5 26 4.5s19.833 5 31.5 9s25.5 9 41.5 15zM331.001 345.006c0 21.333 -8.16699 39.332 -24.5 53.999s-36.5 22 -60.5 22c-28 0 -52.5 -9.66699 -73.5 -29s-37.167 -47.666 -48.5 -84.999h193l14 17v21z" />
    <glyph glyph-name="f" unicode="f" horiz-adv-x="318" 
d="M462 672c0 -13.333 -4.33398 -24.1709 -13.001 -32.5039s-22.334 -15.5 -41.001 -21.5c-22.667 21.333 -42.167 36.333 -58.5 45s-34.166 13 -53.499 13s-36.166 -5 -50.499 -15s-27.166 -25.667 -38.499 -47c-4 -8 -7.33301 -15.833 -10 -23.5s-5 -16.167 -7 -25.5
s-3.66699 -20.166 -5 -32.499s-2.33301 -27.166 -3 -44.499l-3 -43l124 7c18.667 0 28 -8.66699 28 -26c0 -13.333 -2.5 -22.166 -7.5 -26.499s-16.167 -6.5 -33.5 -6.5h-111l7 -262c1.33301 -32 3.66602 -52.667 6.99902 -62c8.66699 -23.333 38.667 -38.333 90 -45v-24
h-249v24c14 2 25.333 5.33301 34 10s15.667 11 21 19s9 18.333 11 31s3 28.334 3 47.001v236l-62 47v14l67 42c1.33301 25.333 3.5 47.166 6.5 65.499s7 34.833 12 49.5s11.5 27.834 19.5 39.501s18 23.5 30 35.5c37.333 38.667 89.333 58 156 58c41.333 0 73.333 -4 96 -12
s34 -19.333 34 -34z" />
    <glyph glyph-name="g" unicode="g" horiz-adv-x="514" 
d="M441 393c6 -15.333 10 -27.666 12 -36.999s3 -20.666 3 -33.999c0 -51.333 -18.167 -91.833 -54.5 -121.5s-85.833 -44.5 -148.5 -44.5c-10 0 -19.167 0.333008 -27.5 1s-20.166 2.33398 -35.499 5.00098c-11.333 -10.667 -18.833 -19.334 -22.5 -26.001
s-5.5 -15.334 -5.5 -26.001c0 -8.66699 1.16699 -15.834 3.5 -21.501s6.5 -10.334 12.5 -14.001s14.167 -6.5 24.5 -8.5s23.833 -3.33301 40.5 -4l64 -3c36 -2 63.667 -4.66699 83 -8s35.333 -7.66602 48 -12.999c13.333 -6 24.166 -15.667 32.499 -29
s12.5 -27.666 12.5 -42.999c0 -27.333 -6.5 -52.333 -19.5 -75s-31.167 -42.334 -54.5 -59.001s-51 -29.667 -83 -39s-67 -14 -105 -14c-28 0 -53.5 2.83301 -76.5 8.5s-43 13.834 -60 24.501s-30.167 23 -39.5 37s-14 29.667 -14 47c0 45.333 33.333 85.666 100 120.999
c-36.667 17.333 -55 37.666 -55 60.999c0 12.667 6.33301 25.667 19 39s36 31.666 70 54.999c-34.667 16.667 -61 36.834 -79 60.501s-27 50.5 -27 80.5c0 21.333 4.83301 41.333 14.5 60s23.167 34.834 40.5 48.501s37.5 24.5 60.5 32.5s48.167 12 75.5 12
c8.66699 0 20.5 -1 35.5 -3s33.5 -4.66699 55.5 -8c15.333 -2 29.166 -3.66699 41.499 -5s23.5 -2 33.5 -2c11.333 0 25.333 1 42 3s36.334 4.66699 59.001 8v-56zM372 310c0 33.333 -10.167 59.667 -30.5 79s-47.833 29 -82.5 29c-33.333 0 -60.666 -10 -81.999 -30
s-32 -45.333 -32 -76c0 -34.667 10.167 -62.5 30.5 -83.5s47.166 -31.5 80.499 -31.5c34 0 61.833 10.667 83.5 32s32.5 48.333 32.5 81zM403 -60.999c0 18.667 -7.33203 32.001 -21.999 40.001s-39.334 12.667 -74.001 14c-12 0.666992 -24 1.16699 -36 1.5
s-24.333 1.16602 -37 2.49902c-9.33301 0.666992 -17.5 1.16699 -24.5 1.5s-13.5 1 -19.5 2s-12.333 2 -19 3l-23 3.5c-12 -19.333 -20.167 -34.833 -24.5 -46.5s-6.5 -24.167 -6.5 -37.5c0 -28 12.5 -50.667 37.5 -68s57.833 -26 98.5 -26c44 0 80 10.167 108 30.5
s42 46.833 42 79.5z" />
    <glyph glyph-name="h" unicode="h" horiz-adv-x="545" 
d="M303 0l-0.00292969 24c14 2 25.167 5 33.5 9s15 9.83301 20 17.5s8.66699 17.834 11 30.501s3.83301 29.334 4.5 50.001l7 166v7c0 31.333 -7 55.666 -21 72.999s-33.667 26 -59 26c-8 0 -15.5 -0.333008 -22.5 -1s-14.833 -2.16699 -23.5 -4.5
s-18.834 -5.66602 -30.501 -9.99902l-43.5 -16.5v-240c0 -35.333 2.33301 -59.333 7 -72c6.66699 -16.667 27.334 -28.334 62.001 -35.001v-24h-214v24c12.667 3.33301 22.834 7.16602 30.501 11.499s13.834 10.333 18.501 18s8 17.667 10 30s3.33301 28.166 4 47.499l6 193
v192c0 26.667 -0.5 48.334 -1.5 65.001s-3.16699 30.167 -6.5 40.5s-8.16602 18.333 -14.499 24s-14.833 10.834 -25.5 15.501v29l124 20l14 -13l-14 -298c22 13.333 41.333 24.5 58 33.5s31.834 16.167 45.501 21.5s26.167 9.16602 37.5 11.499s22.666 3.5 33.999 3.5
c12.667 0 25.834 -2.5 39.501 -7.5s25.167 -11.833 34.5 -20.5s16.166 -20.5 20.499 -35.5s6.5 -35.167 6.5 -60.5v-214c0 -20 0.666992 -36.167 2 -48.5s4 -22 8 -29s10.167 -12.667 18.5 -17s19.5 -8.5 33.5 -12.5v-24h-214z" />
    <glyph glyph-name="i" unicode="i" horiz-adv-x="269" 
d="M200 641c0 -16 -5.33301 -29.667 -16 -41s-23.667 -17 -39 -17s-28.333 5.66699 -39 17s-16 25 -16 41c0 16.667 5.33301 30.667 16 42s23.667 17 39 17s28.333 -5.66699 39 -17s16 -25.333 16 -42zM28 0l-0.000976562 23.999c14 2 25.167 5 33.5 9s15 9.83301 20 17.5
s8.5 17.834 10.5 30.501s3.66699 29.334 5 50.001l6 166c0.666992 2.66699 1 5.33398 1 8.00098v8c0 17.333 -0.666992 31.833 -2 43.5s-3.83301 21.667 -7.5 30s-8.66699 15.166 -15 20.499s-14.5 10 -24.5 14v20l119 28l13 -14l-8 -130v-194
c0 -35.333 2.33301 -59.333 7 -72c6.66699 -16.667 27.334 -28.334 62.001 -35.001v-24h-220z" />
    <glyph glyph-name="j" unicode="j" horiz-adv-x="234" 
d="M166 641c0 -16 -5.5 -29.667 -16.5 -41s-24.167 -17 -39.5 -17s-28.333 5.66699 -39 17s-16 25 -16 41c0 16.667 5.33301 30.667 16 42s23.667 17 39 17s28.5 -5.66699 39.5 -17s16.5 -25.333 16.5 -42zM152 166v-124.998v-15c0 -47.333 -2.66699 -86.166 -8 -116.499
s-15 -54.5 -29 -72.5s-33 -30.833 -57 -38.5s-54.667 -11.834 -92 -12.501v26c21.333 2.66699 38.666 7 51.999 13s23.833 15.667 31.5 29s13.167 31.666 16.5 54.999s6 54 8 92l2 45v278c0 14.667 -0.666992 27 -2 37s-4 18.5 -8 25.5s-9.66699 13.167 -17 18.5
s-16.666 10.666 -27.999 15.999v20l131 28l14 -14z" />
    <glyph glyph-name="k" unicode="k" horiz-adv-x="507" 
d="M31 0v24c12 3.33301 22 7.33301 30 12s14.333 11 19 19s8 18.167 10 30.5s3 27.5 3 45.5v193v200c0 28 -0.5 50.333 -1.5 67s-3.16699 30 -6.5 40s-8.16602 17.667 -14.499 23s-14.833 10.333 -25.5 15v21l124 20l14 -13l-14 -298v-268c0 -20 0.5 -36.167 1.5 -48.5
s3.66699 -22 8 -29s10.666 -12.667 18.999 -17s19.5 -8.5 33.5 -12.5v-24h-200zM521 434c-13.333 -4 -24.832 -7.66895 -34.499 -11.002s-18.5 -6.66602 -26.5 -9.99902s-16 -7.16602 -24 -11.499s-16.667 -9.5 -26 -15.5c-13.333 -8 -25.333 -15.833 -36 -23.5
s-21.334 -16.167 -32.001 -25.5s-22 -20 -34 -32l-42 -43l227 -269l-7 -14h-14c-48 0 -95.167 21.5 -141.5 64.5s-95.5 111.167 -147.5 204.5l121 105c10 8 17.5 16.667 22.5 26s7.5 18.333 7.5 27c0 16.667 -13.667 26 -41 28v21h228v-21z" />
    <glyph glyph-name="l" unicode="l" horiz-adv-x="269" 
d="M24 0l-0.00292969 23.9971c14 2 25.167 5 33.5 9s15 9.83301 20 17.5s8.66699 18 11 31s3.83301 29.5 4.5 49.5l7 193v192c0 26 -0.666992 47.333 -2 64s-3.66602 30.167 -6.99902 40.5s-8.16602 18.5 -14.499 24.5s-14.5 11.333 -24.5 16v29l124 20l14 -13l-14 -256
v-310c0 -18 0.5 -33.167 1.5 -45.5s2.83301 -21.166 5.5 -26.499c3.33301 -9.33301 9.83301 -16.666 19.5 -21.999s23.834 -9.66602 42.501 -12.999v-24h-221z" />
    <glyph glyph-name="m" unicode="m" horiz-adv-x="821" 
d="M579 0l-0.00390625 23.999c14 2 25.167 5 33.5 9s15 9.83301 20 17.5s8.66699 17.834 11 30.501s3.83301 29.334 4.5 50.001l7 166v7c0 30.667 -7.16699 55 -21.5 73s-33.5 27 -57.5 27c-8 0 -15.833 -0.666992 -23.5 -2s-16 -3.83301 -25 -7.5s-19.333 -8.66699 -31 -15
s-25.5 -14.5 -41.5 -24.5v-224c0 -35.333 2.33301 -59.333 7 -72c6.66699 -16.667 27.334 -28.334 62.001 -35.001v-24h-221v24c14 2 25.333 5 34 9s15.5 9.83301 20.5 17.5s8.5 17.834 10.5 30.501s3.33301 29.334 4 50.001l7 166v7c0 30.667 -7 55 -21 73
s-33.333 27 -58 27c-7.33301 0 -14.333 -0.5 -21 -1.5s-14.167 -2.83301 -22.5 -5.5s-18.666 -6.5 -30.999 -11.5l-46.5 -19.5v-235c0 -35.333 2.33301 -59.333 7 -72c6.66699 -16.667 27.334 -28.334 62.001 -35.001v-24h-214v24c12.667 3.33301 22.834 7 30.501 11
s13.834 9.83301 18.501 17.5s7.83398 17.667 9.50098 30s3.16699 28.5 4.5 48.5l6 166c0.666992 3.33301 1 6.33301 1 9v9c0 16.667 -0.666992 30.667 -2 42s-4 20.666 -8 27.999s-9.66699 13.666 -17 18.999s-17 11 -29 17v20l124 28l7 -7v-65
c21.333 14 40.333 25.5 57 34.5s32 16.333 46 22s27 9.66699 39 12s24.667 3.5 38 3.5s24.666 -1.33301 33.999 -4s17.666 -7.16699 24.999 -13.5s13.833 -14.833 19.5 -25.5s11.5 -24 17.5 -40c19.333 16 36.833 29.333 52.5 40s30.167 19.167 43.5 25.5
s26.5 10.833 39.5 13.5s26.5 4 40.5 4c16 0 31 -3 45 -9s25.333 -14.667 34 -26c14 -16 21 -45.667 21 -89v-214c0 -20 0.666992 -36.167 2 -48.5s4 -22.166 8 -29.499s10.167 -13 18.5 -17s19.5 -8 33.5 -12v-24h-214z" />
    <glyph glyph-name="n" unicode="n" horiz-adv-x="545" 
d="M303 0l-0.00292969 23.9971c14 2 25.167 5 33.5 9s15 9.83301 20 17.5s8.66699 17.834 11 30.501s3.83301 29.334 4.5 50.001l7 166v6c0 31.333 -7.33301 55.833 -22 73.5s-34.667 26.5 -60 26.5c-8.66699 0 -16.834 -0.5 -24.501 -1.5s-16 -2.83301 -25 -5.5
s-19 -6.5 -30 -11.5s-23.833 -11.167 -38.5 -18.5v-235c0 -35.333 2.33301 -59.333 7 -72c6.66699 -16.667 27.334 -28.334 62.001 -35.001v-24h-214v24c12.667 3.33301 22.834 7 30.501 11s13.834 9.83301 18.501 17.5s7.83398 17.667 9.50098 30s3.16699 28.5 4.5 48.5
l6 166c0.666992 2.66699 1 7.33398 1 14.001c0 16.667 -0.833008 30.834 -2.5 42.501s-4.66699 21.667 -9 30s-10.166 15.333 -17.499 21s-16.333 11.167 -27 16.5v20l121 31l10 -6v-69c22 14 41.167 25.5 57.5 34.5s31.166 16.333 44.499 22s25.833 9.66699 37.5 12
s23.5 3.5 35.5 3.5c13.333 0 27 -2.66699 41 -8s25 -12 33 -20c18 -18 27 -50 27 -96v-214c0 -20 0.666992 -36.167 2 -48.5s4 -22 8 -29s10.167 -12.667 18.5 -17s19.5 -8.5 33.5 -12.5v-24h-214z" />
    <glyph glyph-name="o" unicode="o" horiz-adv-x="517" 
d="M476 254c0 -41.333 -5.5 -78.666 -16.5 -111.999s-27 -61.5 -48 -84.5s-46.5 -40.667 -76.5 -53s-63.667 -18.5 -101 -18.5c-62 0 -109.667 18.833 -143 56.5s-50 91.5 -50 161.5c0 41.333 5.66699 78.666 17 111.999s27.5 61.5 48.5 84.5s46.333 40.667 76 53
s63.167 18.5 100.5 18.5c62 0 109.667 -18.667 143 -56s50 -91.333 50 -162zM386 223c0 30 -3.16797 57.834 -9.50098 83.501s-15.333 47.667 -27 66s-25.5 32.666 -41.5 42.999s-33.333 15.5 -52 15.5c-18 0 -34.667 -4.83301 -50 -14.5s-28.5 -23 -39.5 -40
s-19.667 -37.333 -26 -61s-9.5 -49.5 -9.5 -77.5c0 -30.667 3.16699 -59 9.5 -85s15.333 -48.333 27 -67s25.334 -33.167 41.001 -43.5s33.167 -15.5 52.5 -15.5c18 0 34.667 4.83301 50 14.5s28.5 23.167 39.5 40.5s19.667 38 26 62s9.5 50.333 9.5 79z" />
    <glyph glyph-name="p" unicode="p" horiz-adv-x="531" 
d="M490 245c0 -38 -5.66504 -72.832 -16.998 -104.499s-27.333 -59 -48 -82s-45 -40.833 -73 -53.5s-59 -19 -93 -19c-8 0 -15.333 0.333008 -22 1s-13.167 1.66699 -19.5 3s-13.166 3.5 -20.499 6.5l-25 10.5l4 -110c0.666992 -14.667 2.5 -26.834 5.5 -36.501
s8 -17.834 15 -24.501s16.333 -12 28 -16s26.5 -7.33301 44.5 -10v-24h-248v24c28.667 2.66699 48.5 11.334 59.5 26.001s16.5 40.667 16.5 78v86v297c0 20.667 -0.666992 37.667 -2 51s-4 24.5 -8 33.5s-9.66699 16.5 -17 22.5s-17 11.667 -29 17v20l131 28v-62
c10 9.33301 17 15 21 17c18 14 38.167 25 60.5 33s43.166 12 62.499 12c25.333 0 48.666 -5.5 69.999 -16.5s39.666 -26.5 54.999 -46.5s27.333 -43.667 36 -71s13 -57.333 13 -90zM407.002 224.001c0 26 -3.5 50.001 -10.5 72.001s-16.833 40.833 -29.5 56.5
s-27.5 28 -44.5 37s-35.833 13.5 -56.5 13.5c-7.33301 0 -14.333 -0.333008 -21 -1s-13.5 -1.83398 -20.5 -3.50098s-14.667 -4.16699 -23 -7.5l-29.5 -12v-255c0 -26 8.5 -48 25.5 -66s37.833 -27 62.5 -27c21.333 0 41 4.83301 59 14.5s33.5 23 46.5 40
s23.167 37.333 30.5 61s11 49.5 11 77.5z" />
    <glyph glyph-name="q" unicode="q" horiz-adv-x="524" 
d="M259 -214l-0.00292969 25.999c18.667 3.33301 33.834 7.16602 45.501 11.499s20.834 10.333 27.501 18s11.334 17.5 14.001 29.5s4.66699 27.667 6 47l7 130c-26 -22 -50 -37.833 -72 -47.5s-45.667 -14.5 -71 -14.5s-48.833 5.33301 -70.5 16s-40.167 25.667 -55.5 45
s-27.333 42.333 -36 69s-13 56 -13 88c0 38.667 5.66699 74.334 17 107.001s27.166 60.667 47.499 84s44.5 41.5 72.5 54.5s59 19.5 93 19.5c10 0 19.167 -0.666992 27.5 -2s15.833 -3 22.5 -5c32.667 -11.333 51.334 -17 56.001 -17c5.33301 0 11.5 1.83301 18.5 5.5
s17.167 9.83398 30.5 18.501l22 -15l-14 -185v-352c0 -19.333 0.833008 -35.333 2.5 -48s5 -22.667 10 -30s12 -13 21 -17s20.833 -7.33301 35.5 -10v-26h-244zM358.997 309.999c0 74 -29.999 111 -89.999 111c-21.333 0 -40.833 -4.5 -58.5 -13.5s-33 -21.667 -46 -38
s-23 -35.833 -30 -58.5s-10.5 -47.334 -10.5 -74.001c0 -27.333 3.83301 -52.166 11.5 -74.499s18.167 -41.833 31.5 -58.5s29.5 -29.5 48.5 -38.5s39.5 -13.5 61.5 -13.5c14.667 0 27.667 1.5 39 4.5s25.666 9.5 42.999 19.5v234z" />
    <glyph glyph-name="r" unicode="r" horiz-adv-x="357" 
d="M357 432c0 -22.667 -8.33496 -46.6631 -25.002 -71.9961l-8 -13c-27.333 14 -51.333 21 -72 21c-25.333 0 -49.666 -21 -72.999 -63v-174c0 -20 1.66699 -36.5 5 -49.5s9 -23.5 17 -31.5s19.167 -13.833 33.5 -17.5s32.5 -6.5 54.5 -8.5v-24h-255v24
c12.667 3.33301 22.834 7.16602 30.501 11.499s13.667 10.333 18 18s7.5 17.667 9.5 30s3.66699 28.166 5 47.499l6 166c0.666992 3.33301 1 6.33301 1 9v9c0 16.667 -0.666992 30.667 -2 42s-4 20.666 -8 27.999s-9.66699 13.666 -17 18.999s-17 11 -29 17v20l131 28v-114
c18 23.333 33.333 42.166 46 56.499s24.167 25.333 34.5 33s20.5 12.834 30.5 15.501s21.667 4 35 4c9.33301 0 17 -3 23 -9s9 -13.667 9 -23z" />
    <glyph glyph-name="s" unicode="s" horiz-adv-x="414" 
d="M366 130c0 -20 -3.99707 -38.5029 -11.9971 -55.5029s-19 -31.833 -33 -44.5s-30.5 -22.5 -49.5 -29.5s-39.5 -10.5 -61.5 -10.5c-26.667 0 -57.667 3.33301 -93 10l-55 10l-14 149l21 7c7.33301 -13.333 14.5 -25.666 21.5 -36.999l19.5 -32c16 -26 31.5 -44 46.5 -54
s33.5 -15 55.5 -15c23.333 0 42.166 6.5 56.499 19.5s21.5 30.5 21.5 52.5c0 17.333 -4.5 31 -13.5 41s-25.167 20.333 -48.5 31l-62 28c-38.667 17.333 -66.834 36.5 -84.501 57.5s-26.5 45.5 -26.5 73.5c0 18.667 4 36.334 12 53.001s18.833 31 32.5 43
s29.667 21.5 48 28.5s38.166 10.5 59.499 10.5c9.33301 0 17.833 -0.333008 25.5 -1s16 -1.66699 25 -3s19.333 -3.5 31 -6.5l42.5 -10.5l21 -107l-28 -7c-6 10 -11.833 19 -17.5 27s-11.167 15 -16.5 21c-12.667 15.333 -27.167 27.333 -43.5 36s-32.5 13 -48.5 13
c-20 0 -37.333 -6.5 -52 -19.5s-22 -28.5 -22 -46.5c0 -31.333 20.667 -55.333 62 -72l69 -28c38 -15.333 66 -33.666 84 -54.999s27 -47 27 -77z" />
    <glyph glyph-name="t" unicode="t" horiz-adv-x="300" 
d="M321 45c-12 -11.333 -22.834 -20.665 -32.501 -27.998s-19.5 -13 -29.5 -17s-20.667 -6.66699 -32 -8s-24.666 -2 -39.999 -2c-38.667 0 -66.334 8.5 -83.001 25.5s-25 45.833 -25 86.5l6 273l-47 53l3 27c14 7.33301 24.667 13.666 32 18.999s15 11.666 23 18.999
c4.66699 4.66699 8.83398 9.16699 12.501 13.5s7.16699 8.83301 10.5 13.5s6.83301 10 10.5 16l13.5 22l27 -10l-8 -104l124 8c18.667 0 28 -8.33301 28 -25c0 -11.333 -4.5 -20.333 -13.5 -27s-20.5 -10 -34.5 -10h-104v-245c0 -34 5.5 -59.833 16.5 -77.5
s27.167 -26.5 48.5 -26.5c22.667 0 51.667 8.33301 87 25l7 -21v0z" />
    <glyph glyph-name="u" unicode="u" horiz-adv-x="521" 
d="M372 -21l-27 14.002l7 55c-31.333 -24 -57.333 -40.333 -78 -49s-42.667 -13 -66 -13c-36.667 0 -65.5 12.333 -86.5 37s-31.5 58.334 -31.5 101.001v214c0 27.333 -4 47.166 -12 59.499s-22.667 21.166 -44 26.499v24l135 18l-3 -259l-1 -11
c0 -18.667 0.333008 -34.334 1 -47.001s1.83398 -23.5 3.50098 -32.5s3.83398 -16.667 6.50098 -23s6 -12.166 10 -17.499c7.33301 -9.33301 17.666 -16.833 30.999 -22.5s27.666 -8.5 42.999 -8.5c14.667 0 28.334 2.16699 41.001 6.5s29.667 12.5 51 24.5l7 255
c0 14 -1.16699 25.833 -3.5 35.5s-6.33301 18 -12 25s-13.334 13 -23.001 18s-22.167 9.83301 -37.5 14.5v24l155 18l-10 -342l-1 -6c0 -30 5 -50.833 15 -62.5s28.333 -18.834 55 -21.501v-20z" />
    <glyph glyph-name="v" unicode="v" horiz-adv-x="407" 
d="M414 434l-8.50098 -3.50098c-2.33301 -1 -4.16602 -1.83301 -5.49902 -2.5c-5.33301 -4 -11.333 -10.667 -18 -20s-12 -19 -16 -29l-152 -351c-14 -32.667 -28 -49 -42 -49h-3l-128 400c-8 26.667 -24 45 -48 55v21h179v-21l-20 -6c-11.333 -4 -19.333 -8.66699 -24 -14
s-7 -12.666 -7 -21.999c0 -11.333 3.33301 -27 10 -47l76 -235l83 221c8.66699 23.333 13 43 13 59c0 25.333 -20.667 39 -62 41v24h173v-21v0z" />
    <glyph glyph-name="w" unicode="w" horiz-adv-x="690" 
d="M697 434c-11.333 -3.33301 -19.666 -7.66797 -24.999 -13.001s-11 -14.666 -17 -27.999l-152 -352c-10 -23.333 -18.333 -39.5 -25 -48.5s-14.334 -13.5 -23.001 -13.5h-7l-103 345l-124 -290c-7.33301 -17.333 -14.333 -29.666 -21 -36.999s-13.667 -11 -21 -11h-7
l-131 400c-6.66699 20.667 -22.667 36.667 -48 48v21h186v-21c-20 -3.33301 -34.167 -8 -42.5 -14s-12.5 -14.667 -12.5 -26s2.33301 -23 7 -35l83 -242l110 269c-4 7.33301 -7.66699 13.333 -11 18s-7.5 8.66699 -12.5 12s-11 6.33301 -18 9s-16.167 5.66699 -27.5 9v21
h193v-21c-17.333 -4 -28.5 -8.16699 -33.5 -12.5s-7.5 -11.166 -7.5 -20.499c0 -11.333 2.33301 -23 7 -35l83 -249l75 214c5.33301 13.333 9 25.166 11 35.499s3 19.5 3 27.5c0 12.667 -4 21.667 -12 27s-24.667 9.66602 -50 12.999v21h173v-21v0z" />
    <glyph glyph-name="x" unicode="x" horiz-adv-x="448" 
d="M255 0v17.002c32 4 48 14.667 48 32c0 4 -1.5 9.16699 -4.5 15.5s-8.16699 15.166 -15.5 26.499l-66 106l-45 -69c-18 -28.667 -27 -52.334 -27 -71.001c0 -11.333 3 -20 9 -26s16.667 -10.667 32 -14v-17h-179v17c12.667 4 23.5 8.16699 32.5 12.5s17 9.16602 24 14.499
s13.5 11.666 19.5 18.999s12.667 16.333 20 27l94 138l-100 144l-10 13.5l-11 14.5c-5.33301 6.66699 -9.83301 12 -13.5 16s-7.5 7.33301 -11.5 10s-8.33301 4.83398 -13 6.50098s-10.334 3.5 -17.001 5.5v17h186v-17c-27.333 -2 -41 -10 -41 -24
c0 -4.66699 2 -11.167 6 -19.5s11 -20.166 21 -35.499l45 -69l38 55c10 14.667 17 26.667 21 36s6 18 6 26c0 16 -11.333 26.333 -34 31v17h159v-17l-15 -5.5l-13 -4.5c-18.667 -8.66699 -32.334 -18 -41.001 -28c-1.33301 -1.33301 -7.33301 -9 -18 -23l-47 -62l-39 -53
l131 -193c6 -9.33301 11.333 -17 16 -23s9.33398 -10.833 14.001 -14.5s9.33398 -6.5 14.001 -8.5s10.667 -4 18 -6v-17h-193z" />
    <glyph glyph-name="y" unicode="y" horiz-adv-x="407" 
d="M421 438c-8 -3.33301 -12.668 -5.66309 -14.001 -6.99609c-17.333 -11.333 -33.333 -35.333 -48 -72l-207 -497c-11.333 -26.667 -24 -46 -38 -58s-30.667 -18 -50 -18c-33.333 0 -50 13.667 -50 41c0 21.333 13.667 37.666 41 48.999l35 14c12 5.33301 24.5 16 37.5 32
s28.5 40.333 46.5 73l-133 391c-4.66699 14.667 -10.334 25.667 -17.001 33s-17 13.666 -31 18.999v17h186v-17c-3.33301 -1.33301 -6.66602 -2.5 -9.99902 -3.5s-6.66602 -2.16699 -9.99902 -3.5c-23.333 -8 -35 -20.667 -35 -38c0 -10.667 2.33301 -22 7 -34l84 -255
l82 234c8.66699 25.333 13 44 13 56c0 11.333 -4.33301 20.166 -13 26.499s-25 12.166 -49 17.499v17h173v-17v0z" />
    <glyph glyph-name="z" unicode="z" horiz-adv-x="455" 
d="M379 0h-338l-13 20l275 373l-6 7l-97 -3c-32 -1.33301 -58.5 -9 -79.5 -23s-38.167 -35.333 -51.5 -64l-21 7l35 138l317 -21l14 -13l-276 -373l7 -7l89 7c86 7.33301 143.667 42 173 104l21 -7z" />
    <glyph glyph-name="braceleft" unicode="{" horiz-adv-x="369" 
d="M348 -248c-5.33301 -0.666992 -10.166 -1 -14.499 -1h-14.5c-22.667 0 -41.834 0.5 -57.501 1.5s-29.5 3 -41.5 6s-22.5 6.83301 -31.5 11.5s-17.833 10.667 -26.5 18c-10.667 9.33301 -18 20.833 -22 34.5s-6 33.834 -6 60.501v14l7 239c0 20 -2 36.5 -6 49.5
s-10.667 23.333 -20 31s-22.333 13.167 -39 16.5s-37.334 5.33301 -62.001 6v29c24.667 1.33301 45.334 4 62.001 8s29.667 10 39 18s16 18.5 20 31.5s6 29.167 6 48.5l-7 219v10c0 45.333 10 78 30 98c8 7.33301 16.5 13.333 25.5 18s20 8.5 33 11.5s28.5 5 46.5 6
s39.667 1.5 65 1.5h14v-31c-13.333 0 -24.5 -0.166992 -33.5 -0.5s-16.667 -1 -23 -2s-12 -2.33301 -17 -4s-10.5 -3.83398 -16.5 -6.50098c-9.33301 -4 -17 -9.33301 -23 -16s-10.833 -15.167 -14.5 -25.5s-6.33398 -23.333 -8.00098 -39s-2.5 -34.834 -2.5 -57.501v-184
c0 -16.667 -0.666992 -30.667 -2 -42s-4 -20.666 -8 -27.999s-9.66699 -13.5 -17 -18.5s-16.666 -9.83301 -27.999 -14.5l-34 -14l34 -14c11.333 -4 20.5 -8.66699 27.5 -14s12.5 -11.833 16.5 -19.5s6.83301 -17.167 8.5 -28.5s2.5 -25 2.5 -41v-204
c0 -24 0.5 -43.833 1.5 -59.5s3.33301 -28.5 7 -38.5s8.5 -18.167 14.5 -24.5s14 -12.166 24 -17.499c8.66699 -4.66699 17.5 -7.83398 26.5 -9.50098s22.167 -2.5 39.5 -2.5h25v-30v0z" />
    <glyph glyph-name="bar" unicode="|" horiz-adv-x="369" 
d="M144 -262v1060h76v-1060h-76z" />
    <glyph glyph-name="braceright" unicode="}" horiz-adv-x="369" 
d="M355 239c-25.333 -0.666992 -46.167 -2.66309 -62.5 -5.99609s-29.166 -8.83301 -38.499 -16.5s-16 -18 -20 -31s-6 -29.5 -6 -49.5l6 -239c0.666992 -3.33301 1 -8 1 -14c0 -26 -2 -45.667 -6 -59s-11.333 -25.333 -22 -36c-8 -7.33301 -16.333 -13.333 -25 -18
s-19 -8.5 -31 -11.5s-26.167 -5 -42.5 -6s-35.833 -1.5 -58.5 -1.5h-15c-4.66699 0 -9.33398 0.333008 -14.001 1v30h25c16.667 0 29.334 0.666992 38.001 2s18 4.66602 28 9.99902c10 4.66699 18 10 24 16s10.667 14.167 14 24.5s5.66602 23.5 6.99902 39.5s2 36 2 60v204
c0 16 0.833008 29.667 2.5 41s4.5 20.833 8.5 28.5s9.5 14.167 16.5 19.5s16.167 10 27.5 14l34 14l-34 14c-11.333 4.66699 -20.666 9.5 -27.999 14.5s-13 11.167 -17 18.5s-6.66699 16.666 -8 27.999s-2 25.333 -2 42v184c0 22.667 -0.666992 41.667 -2 57
s-3.83301 28.166 -7.5 38.499s-8.66699 18.666 -15 24.999s-14.166 12.166 -23.499 17.499c-5.33301 2.66699 -10.333 4.83398 -15 6.50098s-10.334 3 -17.001 4s-14.667 1.66699 -24 2s-20.666 0.5 -33.999 0.5v31h14c25.333 0 46.833 -0.5 64.5 -1.5s33 -3 46 -6
s24.167 -6.83301 33.5 -11.5s18 -10.667 26 -18c20 -18 30 -50.667 30 -98c0 -4.66699 -0.333008 -8 -1 -10l-6 -219c0 -19.333 2 -35.5 6 -48.5s10.667 -23.5 20 -31.5s22.166 -14 38.499 -18s37.166 -6.66699 62.499 -8v-29v0z" />
    <glyph glyph-name="asciitilde" unicode="~" horiz-adv-x="882" 
d="M641 0l-0.00292969 23.9941c14 2 25.167 5 33.5 9s15 9.83301 20 17.5s8.66699 17.834 11 30.501s3.83301 29.334 4.5 50.001l7 166v16c0 23.333 -3.5 42.5 -10.5 57.5s-17.167 22.5 -30.5 22.5h-17h-170l5 -262c0 -14.667 0.666992 -27.167 2 -37.5s3 -18.5 5 -24.5
c5.33301 -12.667 15 -22.5 29 -29.5s34.333 -12.167 61 -15.5v-24h-249v24c14 2 25.333 5.33301 34 10s15.667 11 21 19s9 18.333 11 31s3 28.334 3 47.001v262h-232l7 -262c1.33301 -32 3.66602 -52.667 6.99902 -62c8.66699 -23.333 38.667 -38.333 90 -45v-24h-249v24
c14 2 25.333 5.33301 34 10s15.667 11 21 19s9 18.333 11 31s3 28.334 3 47.001v236l-62 47v14l67 42c2.66699 45.333 11.334 82.166 26.001 110.499s32.334 50.333 53.001 66s43 26.334 67 32.001s46.667 8.5 68 8.5c12.667 0 26 -1.16699 40 -3.5
s27.333 -5.66602 40 -9.99902s24.334 -9.5 35.001 -15.5s19.334 -12.333 26.001 -19c8 10 17.667 19.667 29 29s24.166 17.666 38.499 24.999s30.333 13.166 48 17.499s36.834 6.5 57.501 6.5c22 0 42.833 -1.83301 62.5 -5.5s37 -8.66699 52 -15s27 -13.833 36 -22.5
s13.5 -17.667 13.5 -27c0 -22.667 -17.333 -41.667 -52 -57c-5.33301 8.66699 -10.666 16.334 -15.999 23.001l-15 18c-12.667 14 -27.834 25 -45.501 33s-35.834 12 -54.501 12c-42 0 -73.833 -17.5 -95.5 -52.5s-32.5 -86.5 -32.5 -154.5v-24h182c18 0 34 1.16699 48 3.5
s26 5.16602 36 8.49902c12 3.33301 22.333 7.33301 31 12l14 -14l-7 -131v-193c0 -18 0.5 -33.167 1.5 -45.5s2.83301 -21.166 5.5 -26.499c3.33301 -9.33301 9.83301 -16.666 19.5 -21.999s23.834 -9.66602 42.501 -12.999v-24h-221zM412.997 523.994
c0 30.667 -4.00098 54.1689 -12.001 70.502s-17.333 28.166 -28 35.499s-21.5 11.666 -32.5 12.999s-19.167 2 -24.5 2c-6 0 -15.833 -0.833008 -29.5 -2.5s-27.667 -7.33398 -42 -17.001s-27.666 -25.167 -39.999 -46.5s-19.833 -51.666 -22.5 -90.999l-3 -43h231z" />
    <glyph glyph-name="nonbreakingspace" unicode="&#xa0;" horiz-adv-x="500" 
 />
    <glyph glyph-name="exclamdown" unicode="&#xa1;" horiz-adv-x="268" 
d="M199 586c0 -16 -5.83105 -29.667 -17.498 -41s-25.834 -17 -42.501 -17c-15.333 0 -28.333 5.66699 -39 17s-16 25 -16 41c0 16.667 5.66699 30.834 17 42.501s25 17.5 41 17.5c15.333 0 28.666 -5.83301 39.999 -17.5s17 -25.834 17 -42.501zM69.002 1l45 453l48 15
l25 -469z" />
    <glyph glyph-name="cent" unicode="&#xa2;" 
d="M441 14l-34.502 -10.502c-9.66699 -3 -18.667 -5.16699 -27 -6.5s-16.5 -2.33301 -24.5 -3s-17 -1 -27 -1h-11v-166h-48v166h-10c-32 0 -62.167 6.83301 -90.5 20.5s-53.166 32.167 -74.499 55.5s-38.333 50.5 -51 81.5s-19 63.833 -19 98.5c0 68 24.333 125.333 73 172
c12 11.333 23.5 21 34.5 29s23 14.667 36 20s27.667 9.83301 44 13.5s35.5 6.83398 57.5 9.50098v152h48v-152h14c6.66699 0 13.5 -0.5 20.5 -1.5s15 -2.83301 24 -5.5s19.833 -6.16699 32.5 -10.5s27.667 -9.83301 45 -16.5v-114l-17 -5c-18.667 38 -36 66.5 -52 85.5
s-32.667 30.167 -50 33.5l-17 3v-431l14 3c11.333 2.66699 22 6.83398 32 12.501s20 13.334 30 23.001s20.333 21.167 31 34.5s22.334 29.666 35.001 48.999l20 -8zM268.998 465.998l-21.001 -4c-19.333 -3.33301 -37.166 -11.166 -53.499 -23.499
s-30.5 -27.833 -42.5 -46.5s-21.5 -39.667 -28.5 -63s-10.5 -48 -10.5 -74c0 -28.667 4.16699 -56.334 12.5 -83.001s19.166 -50.5 32.499 -71.5s28.833 -37.833 46.5 -50.5s35.834 -19 54.501 -19h10v435z" />
    <glyph glyph-name="sterling" unicode="&#xa3;" 
d="M472 0l-457.996 0.000976562v21c20 2.66699 36.333 6.33398 49 11.001s22.5 11.167 29.5 19.5s11.667 19 14 32s3.5 29.833 3.5 50.5l-7 176h-100v49h100v34c0 28 1 52.5 3 73.5s5.16699 39.5 9.5 55.5s10.166 30.5 17.499 43.5s16.666 25.5 27.999 37.5
c36 38 88.667 57 158 57c24 0 46.167 -1.66699 66.5 -5s38 -8 53 -14s26.667 -13.167 35 -21.5s12.5 -17.166 12.5 -26.499c0 -18 -17.333 -34 -52 -48c-10.667 17.333 -20 30.333 -28 39c-10 12 -22.667 21.333 -38 28s-31.333 10 -48 10c-23.333 0 -43 -3.66699 -59 -11
s-29 -19.333 -39 -36s-17.333 -38.167 -22 -64.5s-7 -58.5 -7 -96.5v-55h166v-49h-166v-162c0 -19.333 1.83301 -35.333 5.5 -48s9.66699 -22.834 18 -30.501s19.666 -13.167 33.999 -16.5s32.166 -5 53.499 -5c20 0 38 2.5 54 7.5s31 13.167 45 24.5
s27.5 26.166 40.5 44.499s26.167 41.166 39.5 68.499l20 -7z" />
    <glyph glyph-name="currency" unicode="&#xa4;" horiz-adv-x="962" 
d="M934 90c-2.66699 -13.333 -9.99609 -25.8369 -21.9961 -37.5039s-26.833 -22.167 -44.5 -31.5s-37.334 -16.666 -59.001 -21.999s-43.834 -8 -66.501 -8c-28.667 0 -55.334 7 -80.001 21c-14 7.33301 -26.167 17 -36.5 29s-22.166 30.667 -35.499 56h-14l-19.5 -20.5
l-15.5 -15l-13.5 -12c-4.33301 -3.66699 -9.5 -7.5 -15.5 -11.5c-22.667 -15.333 -48.167 -26.666 -76.5 -33.999s-61.833 -11 -100.5 -11c-6.66699 0 -15.667 0.166992 -27 0.5s-23.833 0.833008 -37.5 1.5l-42.5 2c-14.667 0.666992 -28.667 1.66699 -42 3h-165v21
c20 2.66699 36.167 6.33398 48.5 11.001s22 11 29 19s11.833 18.333 14.5 31s4 29 4 49v366c0 22.667 -0.833008 40.834 -2.5 54.501s-5.16699 24.5 -10.5 32.5s-13 14.167 -23 18.5s-23.333 8.16602 -40 11.499v20l83 7c28 2.66699 54.167 4.5 78.5 5.5
s47.166 1.5 68.499 1.5c92.667 0 170 -20 232 -60s107 -99.333 135 -178c5.33301 5.33301 10.333 9.83301 15 13.5l13 10.5c14 10.667 31.667 18.834 53 24.501s44.333 8.5 69 8.5c46 0 81.333 -10.667 106 -32s37 -52 37 -92c0 -10 -0.5 -21.167 -1.5 -33.5
s-2.83301 -25.833 -5.5 -40.5h-283v-27c0 -58 13.167 -102.5 39.5 -133.5s63.833 -46.5 112.5 -46.5c8.66699 0 17.167 0.5 25.5 1.5s17.166 2.66699 26.499 5s19.5 5.5 30.5 9.5s23.833 9 38.5 15zM855.004 347.996c0 10 -2.16699 19.667 -6.5 29s-10.333 17.333 -18 24
s-16.667 12 -27 16s-21.5 6 -33.5 6c-55.333 0 -96 -37.667 -122 -113h193l14 18v20zM552.004 329.996c0 37.333 -4.83301 69.3311 -14.5 95.998s-25.5 52.334 -47.5 77.001c-24 26.667 -51.667 48.667 -83 66c-15.333 8 -29.833 14.833 -43.5 20.5
s-28.334 10.167 -44.001 13.5s-33 5.83301 -52 7.5s-41.5 2.83398 -67.5 3.50098v-469c0 -37.333 8.33301 -64.5 25 -81.5s43.334 -25.5 80.001 -25.5s70.167 7 100.5 21s56.333 33.833 78 59.5s38.5 56.5 50.5 92.5s18 75.667 18 119z" />
    <glyph glyph-name="yen" unicode="&#xa5;" 
d="M514 621c-14 -7.33301 -25.667 -13.666 -35 -18.999s-16 -10.666 -20 -15.999c-9.33301 -9.33301 -23.333 -32.333 -42 -69l-96 -186l-14 -28h179v-37h-193l-3.5 -17c-1 -4.66699 -1.83301 -9.66699 -2.5 -15s-1 -11.666 -1 -18.999v-29v-7h200v-38h-200v-10
c0 -34 9.16699 -59.167 27.5 -75.5s50.5 -27.833 96.5 -34.5v-21h-324v21c44 7.33301 74.5 19.166 91.5 35.499s25.5 41.166 25.5 74.499v10h-186v38h186v7v30.5c0 7.66699 -0.166992 14.167 -0.5 19.5s-1 10.166 -2 14.499l-3.5 15.5h-180v37h162l-107 228
c-7.33301 16 -13.5 28.667 -18.5 38s-10 17 -15 23s-10.667 11 -17 15s-14.5 8.66699 -24.5 14v20h193v-20c-18 -3.33301 -30.667 -8 -38 -14s-11 -14.667 -11 -26c0 -8.66699 2.33301 -18.334 7 -29.001l118 -249l75 166c23.333 50.667 35 83.334 35 98.001
c0 26.667 -23 44.667 -69 54v20h207v-20v0z" />
    <glyph glyph-name="section" unicode="&#xa7;" horiz-adv-x="448" 
d="M408 472c-6.66699 13.333 -12.668 24.834 -18.001 34.501s-10.666 18.5 -15.999 26.5s-11 15.333 -17 22s-13 14 -21 22c-34.667 32.667 -71 49 -109 49c-27.333 0 -49.5 -7.66699 -66.5 -23s-25.5 -35.666 -25.5 -60.999c0 -16.667 3 -29.334 9 -38.001
c5.33301 -9.33301 15 -19.666 29 -30.999s32.667 -24.333 56 -39l117 -72c26.667 -16.667 47 -35.5 61 -56.5s21 -43.5 21 -67.5s-6 -47 -18 -69c-6.66699 -12.667 -13.167 -22.5 -19.5 -29.5s-16.5 -15.5 -30.5 -25.5l-14 14c11.333 17.333 18.833 30.666 22.5 39.999
s5.5 20.666 5.5 33.999c0 16 -4.5 30 -13.5 42s-25.167 26 -48.5 42l-131 83c-23.333 14.667 -42.5 27.834 -57.5 39.501s-27.167 23 -36.5 34s-15.833 22 -19.5 33s-5.5 23.167 -5.5 36.5c0 45.333 15.667 81.166 47 107.499s74 39.5 128 39.5c10 0 20 -0.5 30 -1.5
s21.5 -2.66699 34.5 -5s28 -5.33301 45 -9s37.167 -8.5 60.5 -14.5l22 -150zM406.999 -59.999c0 -46 -15.6641 -82.002 -46.9971 -108.002s-74.333 -39 -129 -39c-10 0 -20 0.5 -30 1.5s-21.333 2.5 -34 4.5s-27.334 4.83301 -44.001 8.5s-36.667 8.5 -60 14.5l-23 150l21 7
c6.66699 -13.333 12.667 -24.833 18 -34.5s10.666 -18.5 15.999 -26.5s11.166 -15.333 17.499 -22l21.5 -22c34 -32 70 -48 108 -48c27.333 0 49.5 7.66699 66.5 23s25.5 35.333 25.5 60c0 16.667 -2.66699 29.667 -8 39c-11.333 18.667 -40 41.667 -86 69l-117 72
c-26.667 16.667 -47 35.5 -61 56.5s-21 43.5 -21 67.5c0 23.333 5.66699 46.333 17 69c6.66699 12.667 13.167 22.5 19.5 29.5s16.5 15.833 30.5 26.5l14 -14c-11.333 -17.333 -18.666 -30.666 -21.999 -39.999s-5 -20.666 -5 -33.999c0 -16.667 4.33301 -31 13 -43
s25 -26 49 -42l131 -82c22.667 -14 41.667 -27 57 -39s27.666 -23.5 36.999 -34.5s15.833 -22 19.5 -33s5.5 -23.167 5.5 -36.5z" />
    <glyph glyph-name="dieresis" unicode="&#xa8;" horiz-adv-x="450" 
d="M358 601c0 -18 -4.83203 -33.499 -14.499 -46.499s-21.167 -19.5 -34.5 -19.5c-14.667 0 -26.667 6.66699 -36 20s-13.333 28.666 -12 45.999c1.33301 14.667 6.66602 27 15.999 37s20 15 32 15c13.333 0 24.833 -5.16699 34.5 -15.5s14.5 -22.5 14.5 -36.5z
M196.001 601.001c0 -18 -4.83203 -33.499 -14.499 -46.499s-21.167 -19.5 -34.5 -19.5c-14.667 0 -26.667 6.66699 -36 20s-13.333 28.666 -12 45.999c1.33301 14.667 6.66602 27 15.999 37s20 15 32 15c13.333 0 24.833 -5.16699 34.5 -15.5s14.5 -22.5 14.5 -36.5z" />
    <glyph glyph-name="copyright" unicode="&#xa9;" horiz-adv-x="700" 
d="M675 321c0 -45.333 -8.5 -87.833 -25.5 -127.5s-40.333 -74.167 -70 -103.5s-64.167 -52.5 -103.5 -69.5s-81.333 -25.5 -126 -25.5c-45.333 0 -87.666 8.5 -126.999 25.5s-73.833 40.167 -103.5 69.5s-53 63.833 -70 103.5s-25.5 82.167 -25.5 127.5
c0 44.667 8.5 86.667 25.5 126s40.333 73.666 70 102.999s64.167 52.5 103.5 69.5s81.666 25.5 126.999 25.5c44.667 0 86.667 -8.5 126 -25.5s73.833 -40.167 103.5 -69.5s53 -63.666 70 -102.999s25.5 -81.333 25.5 -126zM632 321c0 38.667 -7.5 75.167 -22.5 109.5
s-35.167 64.333 -60.5 90s-55.166 46 -89.499 61s-70.833 22.5 -109.5 22.5c-39.333 0 -76.166 -7.5 -110.499 -22.5s-64.333 -35.333 -90 -61s-46 -55.667 -61 -90s-22.5 -70.833 -22.5 -109.5c0 -39.333 7.5 -76.166 22.5 -110.499s35.333 -64.333 61 -90
s55.667 -46 90 -61s71.166 -22.5 110.499 -22.5c38.667 0 75.167 7.5 109.5 22.5s64.166 35.333 89.499 61s45.5 55.667 60.5 90s22.5 71.166 22.5 110.499zM448 177c-22 -4 -38.999 -6.66602 -50.999 -7.99902s-24.667 -2 -38 -2c-53.333 0 -95.5 14.5 -126.5 43.5
s-46.5 67.5 -46.5 115.5c0 23.333 4 44.666 12 63.999s19 36 33 50s30.833 24.833 50.5 32.5s41.167 11.5 64.5 11.5c8.66699 0 16.834 -0.333008 24.501 -1s15.667 -2 24 -4s17.5 -4.66699 27.5 -8l35 -12l3 -83l-15 -5c-11.333 31.333 -24.333 53.666 -39 66.999
s-34.334 20 -59.001 20c-28.667 0 -51.5 -11 -68.5 -33s-25.5 -51.667 -25.5 -89c0 -41.333 9 -74.666 27 -99.999s41.667 -38 71 -38c23.333 0 42.166 6.16699 56.499 18.5s27.833 33.5 40.5 63.5l20 -3z" />
    <glyph glyph-name="ordfeminine" unicode="&#xaa;" horiz-adv-x="414" 
d="M383 300c-8.66699 -0.666992 -16.165 -1.33203 -22.498 -1.99902s-11.5 -1 -15.5 -1c-11.333 -1.33301 -21 -2.33301 -29 -3s-14.333 -1 -19 -1c-16.667 0 -28.167 2.5 -34.5 7.5s-12.166 15.167 -17.499 30.5c-13.333 -8 -25.333 -14.667 -36 -20
s-20.5 -9.5 -29.5 -12.5s-17.667 -5.16699 -26 -6.5s-17.166 -2 -26.499 -2c-28 0 -50.333 6.5 -67 19.5s-25.334 30.5 -26.001 52.5c0 19.333 6 34.666 18 45.999s33.667 22.333 65 33l131 45l4 62v6c0 37.333 -18.667 56 -56 56c-14 0 -25.833 -1.16699 -35.5 -3.5
s-17.834 -6.83301 -24.501 -13.5s-12.667 -15.834 -18 -27.501s-10.333 -26.5 -15 -44.5c-34 0.666992 -51 11 -51 31c0 14.667 9.83301 30 29.5 46s44.167 28 73.5 36c14 4.66699 29.667 8.33398 47 11.001s32 4 44 4c26 0 45 -5.66699 57 -17s18 -29 18 -53v-7l-11 -182
c0 -10.667 1 -19.5 3 -26.5s5.66699 -13.333 11 -19s12.666 -10.5 21.999 -14.5s21.666 -8.33301 36.999 -13v-17zM166.002 428.002c-22 -8.66699 -37.333 -17 -46 -25s-13 -18 -13 -30c0 -11.333 5 -21.166 15 -29.499s21 -12.5 33 -12.5c12.667 0 34.667 4.66699 66 14
c2.66699 0.666992 6 1.66699 10 3s8.66699 2.66602 14 3.99902l3 107z" />
    <glyph glyph-name="guillemotleft" unicode="&#xab;" horiz-adv-x="431" 
d="M359 48l-159 200l159 180l20 -7l-82 -173l82 -189zM193 48l-159 200l159 180l21 -7l-83 -173l83 -189z" />
    <glyph glyph-name="logicalnot" unicode="&#xac;" horiz-adv-x="626" 
d="M770 672c0 -13.333 -4.33496 -24.1719 -13.002 -32.5049s-22.334 -15.5 -41.001 -21.5c-22.667 21.333 -42.167 36.333 -58.5 45s-34.166 13 -53.499 13c-14 0 -28 -3.33301 -42 -10s-26.5 -17.667 -37.5 -33s-20 -35.666 -27 -60.999s-10.5 -57 -10.5 -95v-32l124 7
c18.667 0 28 -8.66699 28 -26c0 -13.333 -2.5 -22.166 -7.5 -26.499s-16.167 -6.5 -33.5 -6.5h-111l7 -262c1.33301 -32 3.66602 -52.667 6.99902 -62c8.66699 -23.333 38.667 -38.333 90 -45v-24h-249v24c14 2 25.333 5.33301 34 10s15.667 11 21 19s9 18.333 11 31
s3 28.334 3 47.001v262h-232l7 -262c1.33301 -32 3.66602 -52.667 6.99902 -62c8.66699 -23.333 38.667 -38.333 90 -45v-24h-249v24c14 2 25.333 5.33301 34 10s15.667 11 21 19s9 18.333 11 31s3 28.334 3 47.001v236l-62 47v14l67 42
c2.66699 45.333 11.334 82.166 26.001 110.499s32.334 50.333 53.001 66s43 26.334 67 32.001s46.667 8.5 68 8.5c12.667 0 26 -1.16699 40 -3.5s27.333 -5.66602 40 -9.99902s24.334 -9.5 35.001 -15.5s19.334 -12.333 26.001 -19c8 10 17.5 19.667 28.5 29
s23.833 17.833 38.5 25.5s31 13.667 49 18s38.333 6.5 61 6.5c41.333 0 73.333 -4 96 -12s34 -19.333 34 -34zM412.998 523.994c0 30.667 -4.00098 54.1689 -12.001 70.502s-17.333 28.166 -28 35.499s-21.5 11.666 -32.5 12.999s-19.167 2 -24.5 2
c-6 0 -15.833 -0.833008 -29.5 -2.5s-27.667 -7.33398 -42 -17.001s-27.666 -25.167 -39.999 -46.5s-19.833 -51.666 -22.5 -90.999l-3 -43h231z" />
    <glyph glyph-name="registered" unicode="&#xae;" horiz-adv-x="700" 
d="M674 321c0 -45.333 -8.5 -87.666 -25.5 -126.999s-40.333 -73.666 -70 -102.999s-64.334 -52.5 -104.001 -69.5s-81.834 -25.5 -126.501 -25.5s-86.667 8.5 -126 25.5s-73.833 40.167 -103.5 69.5s-53 63.666 -70 102.999s-25.5 81.666 -25.5 126.999
c0 44.667 8.5 86.834 25.5 126.501s40.333 74 70 103s64.167 52 103.5 69s81.333 25.5 126 25.5s86.834 -8.5 126.501 -25.5s74.334 -40 104.001 -69s53 -63.333 70 -103s25.5 -81.834 25.5 -126.501zM631 321c0 38.667 -7.5 75.167 -22.5 109.5s-35.333 64.333 -61 90
s-55.667 46 -90 61s-70.833 22.5 -109.5 22.5c-39.333 0 -76.166 -7.5 -110.499 -22.5s-64.333 -35.333 -90 -61s-46 -55.667 -61 -90s-22.5 -70.833 -22.5 -109.5c0 -39.333 7.5 -76.166 22.5 -110.499s35.333 -64.333 61 -90s55.667 -46 90 -61
s71.166 -22.5 110.499 -22.5c38.667 0 75.167 7.5 109.5 22.5s64.333 35.333 90 61s46 55.667 61 90s22.5 71.166 22.5 110.499zM541 156c-9.33301 -2 -16.3398 -3.33008 -21.0068 -3.99707s-9.66699 -1 -15 -1c-17.333 0 -33.166 2.83301 -47.499 8.5
s-26.166 13.167 -35.499 22.5c-6 6 -11.167 11.667 -15.5 17s-9.16602 12.166 -14.499 20.499s-11.666 18.833 -18.999 31.5l-29 51c-5.33301 -0.666992 -9.66602 -1.33398 -12.999 -2.00098s-5.66602 -1 -6.99902 -1c-2.66699 0 -5.5 0.333008 -8.5 1
s-6.83301 1.33398 -11.5 2.00098v-52c0 -18 2.16699 -30 6.5 -36s14.166 -11 29.499 -15v-20h-136v20c19.333 1.33301 31.5 5.16602 36.5 11.499s7.5 19.5 7.5 39.5v155c0 15.333 -2.66699 27.333 -8 36s-15.666 17.667 -30.999 27v16l87 -8
c12.667 3.33301 22.834 5.5 30.501 6.5s18.167 1.5 31.5 1.5c30.667 0 54.334 -6.5 71.001 -19.5s25 -31.5 25 -55.5c0 -9.33301 -1 -17.833 -3 -25.5s-5.66699 -15 -11 -22s-12.333 -14 -21 -21s-19.334 -14.5 -32.001 -22.5l35.5 -50.5l24.5 -34
c6.66699 -9 12.334 -16.333 17.001 -22s9 -10.5 13 -14.5c8.66699 -8.66699 17.667 -14.834 27 -18.501s21.666 -6.16699 36.999 -7.5v-15zM399.993 396.003c0 14.667 -5.00098 27.666 -15.001 38.999c-4 4 -8.16699 7.33301 -12.5 10s-9.5 4.83398 -15.5 6.50098
s-13.167 3 -21.5 4s-18.833 1.5 -31.5 1.5v-115c6.66699 -4.66699 12.167 -7.83398 16.5 -9.50098s10.5 -2.5 18.5 -2.5c5.33301 0 10.5 0.666992 15.5 2s12.167 3 21.5 5c8.66699 10.667 14.834 20.334 18.501 29.001s5.5 18.667 5.5 30z" />
    <glyph glyph-name="macron" unicode="&#xaf;" horiz-adv-x="450" 
d="M91 614v62h266v-62h-266z" />
    <glyph glyph-name="degree" unicode="&#xb0;" horiz-adv-x="300" 
d="M275 528c0 -17.333 -3.33301 -33.5 -10 -48.5s-15.5 -28.167 -26.5 -39.5s-24.167 -20.333 -39.5 -27s-31.333 -10 -48 -10c-17.333 0 -33.5 3.33301 -48.5 10s-28 15.667 -39 27s-19.833 24.5 -26.5 39.5s-10 31.167 -10 48.5s3.33301 33.5 10 48.5
s15.5 28.167 26.5 39.5s24 20.166 39 26.499s31.167 9.5 48.5 9.5c16.667 0 32.667 -3.16699 48 -9.5s28.5 -15.166 39.5 -26.499s19.833 -24.5 26.5 -39.5s10 -31.167 10 -48.5zM235 528c0 23.333 -8.16699 43.167 -24.5 59.5s-36.166 24.5 -59.499 24.5
c-24.667 0 -44.834 -8.33301 -60.501 -25s-23.5 -36.334 -23.5 -59.001c0 -12 2.16699 -23 6.5 -33s10.333 -18.667 18 -26s16.667 -13.166 27 -17.499s21.166 -6.5 32.499 -6.5c24.667 0 44.834 7.83301 60.501 23.5s23.5 35.5 23.5 59.5z" />
    <glyph glyph-name="plusminus" unicode="&#xb1;" horiz-adv-x="560" 
d="M398 238h-87v-198l-69 -14l7 152v60h-100l-124 -7l14 69h210v179l69 24l-7 -85v-118h76l142 3v-74zM406 -121h-249l-124 -7l14 72l319 -3l161 3v-72z" />
    <glyph glyph-name="acute" unicode="&#xb4;" horiz-adv-x="450" 
d="M126 503l-14 14l124 214h48l7 -41z" />
    <glyph glyph-name="mu" unicode="&#xb5;" horiz-adv-x="521" 
d="M372 -21l-24.9971 14.001l5 60c-15.333 -16 -31.833 -31.167 -49.5 -45.5s-35.834 -21.5 -54.501 -21.5h-14c-6.66699 0 -14.167 1 -22.5 3s-17.333 5.33301 -27 10s-18.834 11.667 -27.501 21c1.33301 -16.667 2.66602 -35.167 3.99902 -55.5s2.33301 -39.5 3 -57.5
s1.16699 -33.333 1.5 -46l0.5 -19v-1c0 -20 -4 -34.333 -12 -43s-19.667 -13 -35 -13c-30 0 -45 18 -45 54l4 103c1.33301 29.333 2.5 60.333 3.5 93s1.83301 62.334 2.5 89.001v324l79 18l-4 -270c0 -18.667 0.333008 -34.334 1 -47.001s1.83398 -23.5 3.50098 -32.5
s3.83398 -16.667 6.50098 -23s6 -12.166 10 -17.499c7.33301 -9.33301 18.666 -16.833 33.999 -22.5s30.666 -8.5 45.999 -8.5c14.667 0 29.167 3.66699 43.5 11s30.5 20.666 48.5 39.999l5 352l81 18l-11 -348c0 -30 5 -50.833 15 -62.5s28.333 -18.834 55 -21.501v-20z
" />
    <glyph glyph-name="paragraph" unicode="&#xb6;" horiz-adv-x="576" 
d="M278 255c-33.333 0 -64.998 6.16699 -94.998 18.5s-56.667 29 -80 50s-41.833 45 -55.5 72s-20.5 55.5 -20.5 85.5c0 24 4.66699 46.5 14 67.5s22.166 39.167 38.499 54.5s35.5 27.333 57.5 36s45.667 13 71 13c19.333 0 46.666 -3.66699 81.999 -11v-386h-12z
M555.002 621c-22.667 -3.33301 -41.168 -7.16602 -55.501 -11.499s-25.5 -10.833 -33.5 -19.5s-13.5 -19.834 -16.5 -33.501s-4.5 -31.5 -4.5 -53.5l-4 -369c0 -33.333 -1.66699 -63.333 -5 -90s-8.16602 -51 -14.499 -73s-14.666 -42 -24.999 -60
s-22.833 -35.333 -37.5 -52c-19.333 -21.333 -43.333 -37.666 -72 -48.999s-60.334 -17 -95.001 -17c-66 0 -99 19.667 -99 59c0 14 3.16699 26.667 9.5 38s18.166 25 35.499 41c2.66699 -6.66699 5 -12.834 7 -18.501s4.33301 -10.834 7 -15.501
c17.333 -42 43.333 -63 78 -63c20.667 0 39.834 6.83301 57.501 20.5s32.167 32.167 43.5 55.5c5.33301 12 9.83301 24 13.5 36s6.5 26.167 8.5 42.5s3.5 35.333 4.5 57s1.5 47.834 1.5 78.501v517h196v-20z" />
    <glyph glyph-name="periodcentered" unicode="&#xb7;" horiz-adv-x="269" 
d="M200 280c0 -18.667 -6.5 -34.333 -19.5 -47s-29.167 -19 -48.5 -19c-17.333 0 -32.166 6.33301 -44.499 19s-18.5 28 -18.5 46s6.5 33.5 19.5 46.5s29.167 19.5 48.5 19.5c17.333 0 32.166 -6.33301 44.499 -19s18.5 -28 18.5 -46z" />
    <glyph glyph-name="cedilla" unicode="&#xb8;" horiz-adv-x="450" 
d="M345 -163c0 -28 -12.167 -49.832 -36.5 -65.499s-58.5 -23.5 -102.5 -23.5c-17.333 0 -32.5 1.16699 -45.5 3.5s-29.833 7.16602 -50.5 14.499l-3 17c12.667 -1.33301 25 -2.33301 37 -3s21.333 -1 28 -1c34 0 60.5 5 79.5 15s28.5 23.667 28.5 41
c0 11.333 -3.5 20.333 -10.5 27s-20.833 16 -41.5 28l-46 27l-37 -27l-21 24l145 111l29 -21l-70 -52l55 -28c16.667 -8.66699 31.167 -20 43.5 -34s18.5 -31.667 18.5 -53z" />
    <glyph glyph-name="ordmasculine" unicode="&#xba;" horiz-adv-x="417" 
d="M393 488c0 -64 -18 -114.167 -54 -150.5s-86 -54.5 -150 -54.5c-52 0 -92.5 14 -121.5 42s-43.5 67.333 -43.5 118c0 64.667 18 115 54 151s86.333 54 151 54c52.667 0 93.167 -13.667 121.5 -41s42.5 -67 42.5 -119zM317 467c0 22 -2.66602 42.1699 -7.99902 60.5029
s-12.833 34.166 -22.5 47.499s-21.167 23.666 -34.5 30.999s-28 11 -44 11c-32 0 -58 -13.5 -78 -40.5s-30 -62.5 -30 -106.5c0 -46.667 9.66699 -83.834 29 -111.501s46 -41.5 80 -41.5c33.333 0 59.666 13.5 78.999 40.5s29 63.5 29 109.5z" />
    <glyph glyph-name="guillemotright" unicode="&#xbb;" horiz-adv-x="431" 
d="M238 48l-21 11l83 189l-83 173l21 7l159 -180zM72 48l-20 11l82 189l-82 173l20 7l159 -180z" />
    <glyph glyph-name="questiondown" unicode="&#xbf;" horiz-adv-x="371" 
d="M299 588c0 -16 -5.66699 -29.665 -17 -40.998s-25.333 -17 -42 -17c-15.333 0 -28.5 5.66699 -39.5 17s-16.5 24.666 -16.5 39.999c0 17.333 5.66699 31.833 17 43.5s25 17.5 41 17.5s29.5 -5.83301 40.5 -17.5s16.5 -25.834 16.5 -42.501zM335 -9.99805
c0 -16.667 -5.66309 -31.4961 -16.9961 -44.4961s-30.666 -27.167 -57.999 -42.5c3.33301 7.33301 6.16602 15.333 8.49902 24s3.5 15.334 3.5 20.001c0 8.66699 -2 15 -6 19c-2 2 -4.66699 3.66699 -8 5s-8 2.66602 -14 3.99902s-13.833 2.66602 -23.5 3.99902l-37.5 5
c-16.667 2 -30.834 4.16699 -42.501 6.5s-22 5.16602 -31 8.49902s-16.833 7.16602 -23.5 11.499s-13.334 9.83301 -20.001 16.5c-12 12 -20.5 24.667 -25.5 38s-7.5 29.333 -7.5 48c0 25.333 4.16699 48.166 12.5 68.499s22.166 40.166 41.499 59.499l90 90
c7.33301 7.33301 13.166 15 17.499 23s6.5 14.667 6.5 20c0 8.66699 -5.16699 17.167 -15.5 25.5s-24.833 15.5 -43.5 21.5c15.333 6 27.666 10.667 36.999 14s17.333 5.83301 24 7.5s12.5 2.66699 17.5 3s11.167 0.5 18.5 0.5c15.333 0 27.833 -4.5 37.5 -13.5
s14.5 -20.5 14.5 -34.5c0 -6 -0.166992 -10.667 -0.5 -14s-1.5 -6.83301 -3.5 -10.5s-5.16699 -7.66699 -9.5 -12s-10.166 -9.83301 -17.499 -16.5l-104 -97c-31.333 -29.333 -47 -63.666 -47 -102.999c0 -22 6.16699 -40.833 18.5 -56.5s28.833 -25.167 49.5 -28.5l96 -15
c41.333 -6 62 -24.333 62 -55z" />
    <glyph glyph-name="Agrave" unicode="&#xc0;" horiz-adv-x="607" 
d="M352 690l-200 41l-14 41l41 28l180 -97zM407 0l0.00292969 21.0039c18 5.33301 30.5 12 37.5 20s10.5 19 10.5 33c0 12.667 -2.33301 24.667 -7 36l-41 111h-228l-20 -83c-7.33301 -29.333 -11 -49.333 -11 -60c0 -16.667 6 -29.334 18 -38.001s32 -15 60 -19v-21h-226
v21c15.333 5.33301 27.5 10.166 36.5 14.499s16.833 10.166 23.5 17.499s12.667 17 18 29s11.666 28.333 18.999 49l186 510h62l200 -558c5.33301 -15.333 12.166 -27.333 20.499 -36s22.166 -17.334 41.499 -26.001v-21h-200zM290.003 555.004l-97 -293h200z" />
    <glyph glyph-name="Aacute" unicode="&#xc1;" horiz-adv-x="607" 
d="M483 731l-200 -41l-7 13l179 97l42 -28zM407 0l0.00292969 21.0039c18 5.33301 30.5 12 37.5 20s10.5 19 10.5 33c0 12.667 -2.33301 24.667 -7 36l-41 111h-228l-20 -83c-7.33301 -29.333 -11 -49.333 -11 -60c0 -16.667 6 -29.334 18 -38.001s32 -15 60 -19v-21h-226
v21c15.333 5.33301 27.5 10.166 36.5 14.499s16.833 10.166 23.5 17.499s12.667 17 18 29s11.666 28.333 18.999 49l186 510h62l200 -558c5.33301 -15.333 12.166 -27.333 20.499 -36s22.166 -17.334 41.499 -26.001v-21h-200zM290.003 555.004l-97 -293h200z" />
    <glyph glyph-name="Acircumflex" unicode="&#xc2;" horiz-adv-x="607" 
d="M441 676l-124 62l-124 -62l-14 14l124 110h28l124 -110zM407 0l0.00292969 21.0039c18 5.33301 30.5 12 37.5 20s10.5 19 10.5 33c0 12.667 -2.33301 24.667 -7 36l-41 111h-228l-20 -83c-7.33301 -29.333 -11 -49.333 -11 -60c0 -16.667 6 -29.334 18 -38.001
s32 -15 60 -19v-21h-226v21c15.333 5.33301 27.5 10.166 36.5 14.499s16.833 10.166 23.5 17.499s12.667 17 18 29s11.666 28.333 18.999 49l186 510h62l200 -558c5.33301 -15.333 12.166 -27.333 20.499 -36s22.166 -17.334 41.499 -26.001v-21h-200zM290.003 555.004
l-97 -293h200z" />
    <glyph glyph-name="Atilde" unicode="&#xc3;" horiz-adv-x="607" 
d="M441 697h-26.999c-12 0 -54.333 8.33301 -127 25c-6.66699 1.33301 -12.5 2.33301 -17.5 3s-9.5 1 -13.5 1c-14.667 0 -28.334 -3.5 -41.001 -10.5s-29 -20.167 -49 -39.5l-14 14l82 96h28c18 0 54.667 -7 110 -21c9.33301 -2 18 -3.66699 26 -5s15.667 -2 23 -2
c15.333 0 28.5 3 39.5 9s23.167 17 36.5 33l13 -14zM407.001 0l0.00292969 21.0039c18 5.33301 30.5 12 37.5 20s10.5 19 10.5 33c0 12.667 -2.33301 24.667 -7 36l-41 111h-228l-20 -83c-7.33301 -29.333 -11 -49.333 -11 -60c0 -16.667 6 -29.334 18 -38.001
s32 -15 60 -19v-21h-226v21c15.333 5.33301 27.5 10.166 36.5 14.499s16.833 10.166 23.5 17.499s12.667 17 18 29s11.666 28.333 18.999 49l186 510h62l200 -558c5.33301 -15.333 12.166 -27.333 20.499 -36s22.166 -17.334 41.499 -26.001v-21h-200zM290.004 555.004
l-97 -293h200z" />
    <glyph glyph-name="Adieresis" unicode="&#xc4;" horiz-adv-x="607" 
d="M447 751c0 -18 -4.83203 -33.499 -14.499 -46.499s-21.167 -19.5 -34.5 -19.5c-14.667 0 -26.667 6.66699 -36 20s-13.333 28.666 -12 45.999c1.33301 14.667 6.66602 27 15.999 37s20 15 32 15c13.333 0 24.833 -5.16699 34.5 -15.5s14.5 -22.5 14.5 -36.5z
M285.001 751.001c0 -18 -4.83203 -33.499 -14.499 -46.499s-21.167 -19.5 -34.5 -19.5c-14.667 0 -26.667 6.66699 -36 20s-13.333 28.666 -12 45.999c1.33301 14.667 6.66602 27 15.999 37s20 15 32 15c13.333 0 24.833 -5.16699 34.5 -15.5s14.5 -22.5 14.5 -36.5z
M407.002 0.00195312l0.00292969 21.0039c18 5.33301 30.5 12 37.5 20s10.5 19 10.5 33c0 12.667 -2.33301 24.667 -7 36l-41 111h-228l-20 -83c-7.33301 -29.333 -11 -49.333 -11 -60c0 -16.667 6 -29.334 18 -38.001s32 -15 60 -19v-21h-226v21
c15.333 5.33301 27.5 10.166 36.5 14.499s16.833 10.166 23.5 17.499s12.667 17 18 29s11.666 28.333 18.999 49l186 510h62l200 -558c5.33301 -15.333 12.166 -27.333 20.499 -36s22.166 -17.334 41.499 -26.001v-21h-200zM290.005 555.006l-97 -293h200z" />
    <glyph glyph-name="Aring" unicode="&#xc5;" horiz-adv-x="607" 
d="M393 755c0 -23.333 -8 -43 -24 -59s-35.333 -24 -58 -24c-23.333 0 -43 8 -59 24s-24 35.667 -24 59s8 43 24 59s35.667 24 59 24c22.667 0 42 -8 58 -24s24 -35.667 24 -59zM407 0l0.00292969 21.0039c18 5.33301 30.5 12 37.5 20s10.5 19 10.5 33
c0 12.667 -2.33301 24.667 -7 36l-41 111h-228l-20 -83c-7.33301 -29.333 -11 -49.333 -11 -60c0 -16.667 6 -29.334 18 -38.001s32 -15 60 -19v-21h-226v21c15.333 5.33301 27.5 10.166 36.5 14.499s16.833 10.166 23.5 17.499s12.667 17 18 29s11.666 28.333 18.999 49
l186 510h62l200 -558c5.33301 -15.333 12.166 -27.333 20.499 -36s22.166 -17.334 41.499 -26.001v-21h-200zM352.003 755.004c0 11.333 -4 21 -12 29s-17.667 12 -29 12s-21.166 -4 -29.499 -12s-12.5 -17.667 -12.5 -29s4.16699 -21 12.5 -29s18.166 -12 29.499 -12
s21 4 29 12s12 17.667 12 29zM290.003 555.004l-97 -293h200z" />
    <glyph glyph-name="AE" unicode="&#xc6;" horiz-adv-x="902" 
d="M827 0l-441.999 0.00488281v21c17.333 3.33301 30.5 6.5 39.5 9.5s17.5 7.16699 25.5 12.5c21.333 14.667 32 42.334 32 83.001v171h-186l-76 -118c-17.333 -26 -29.833 -47.5 -37.5 -64.5s-11.5 -31.167 -11.5 -42.5c0 -28 20 -45 60 -51v-21h-231v21
c11.333 3.33301 18.333 5.66602 21 6.99902c7.33301 3.33301 15.333 8.16602 24 14.499s17.334 13.5 26.001 21.5s17 16.5 25 25.5s15 18.167 21 27.5l238 362l33 50.5c8.66699 13 14.667 22.833 18 29.5c4.66699 8 7 16 7 24c0 20 -19.667 33.667 -59 41v17h459l14 -151
l-21 -7c-10.667 20.667 -20.834 38.167 -30.501 52.5s-20 26.166 -31 35.499s-22.667 16.166 -35 20.499s-26.166 7.16602 -41.499 8.49902l-103 7v-262l96 3c18 0.666992 32.833 2.16699 44.5 4.5s21.5 6.5 29.5 12.5s14.667 14 20 24s10.666 23 15.999 39h21v-207h-21
c-4 18 -8.16699 32.333 -12.5 43s-10.5 19.167 -18.5 25.5s-18.167 10.666 -30.5 12.999s-28.5 3.83301 -48.5 4.5l-96 3v-176c0 -18 1.5 -33 4.5 -45s8.16699 -21.5 15.5 -28.5s17.333 -12 30 -15s28.667 -4.5 48 -4.5c20.667 0 39 2.16699 55 6.5
s30.833 11.666 44.5 21.999s26.667 23.833 39 40.5s25.166 37.334 38.499 62.001l21 -6zM482.001 600.005l-159 -262h159v262z" />
    <glyph glyph-name="Ccedilla" unicode="&#xc7;" horiz-adv-x="614" 
d="M524 14c-18 -5.33301 -33.332 -9.66602 -45.999 -12.999s-24.667 -6 -36 -8s-23.333 -3.5 -36 -4.5s-28.334 -1.83301 -47.001 -2.5l-49 -34l56 -28c44 -22.667 66 -51.667 66 -87c0 -22 -9 -41.333 -27 -58c-12.667 -11.333 -27.667 -19.333 -45 -24s-40.333 -7 -69 -7
c-8.66699 0 -16.334 0.333008 -23.001 1s-13.5 1.66699 -20.5 3s-14.167 3.16602 -21.5 5.49902l-26 8.5l-7 13h40c47.333 0 81.5 4.16699 102.5 12.5s31.5 22.166 31.5 41.499c0 11.333 -4.5 21.833 -13.5 31.5s-21.167 18.167 -36.5 25.5l-48 20l-35 -20l-20 20l96 76
c-8 0.666992 -14.667 1.33398 -20 2.00098s-10.833 1.66699 -16.5 3l-19 4.5c-7 1.66699 -15.833 4.16699 -26.5 7.5l-50 28.5c-14 8.33301 -25 16.166 -33 23.499c-16.667 14 -31.834 30.833 -45.501 50.5s-25.334 41.334 -35.001 65.001s-17.167 48.334 -22.5 74.001
s-8 51.5 -8 77.5c0 48.667 7.83301 93.5 23.5 134.5s37.667 76.167 66 105.5s62 52.166 101 68.499s82.167 24.5 129.5 24.5c16.667 0 31.834 -0.666992 45.501 -2s27.334 -3.83301 41.001 -7.5s28.334 -8.5 44.001 -14.5s33.5 -14 53.5 -24v-152l-21 -7
c-20 55.333 -43 96.666 -69 123.999c-11.333 12.667 -27.166 22.834 -47.499 30.501s-40.833 11.5 -61.5 11.5c-29.333 0 -56.333 -6.83301 -81 -20.5s-45.834 -32.834 -63.501 -57.501s-31.5 -54.167 -41.5 -88.5s-15 -71.833 -15 -112.5
c0 -43.333 5.16699 -83.5 15.5 -120.5s24.833 -69.167 43.5 -96.5s40.5 -48.666 65.5 -63.999s52.167 -23 81.5 -23c38.667 0 73.5 13 104.5 39s63.167 69.333 96.5 130l21 -7z" />
    <glyph glyph-name="Egrave" unicode="&#xc8;" horiz-adv-x="545" 
d="M310 690l-200 41l-13 41l41 28l179 -97zM462 0l-440.996 0.00195312v21c20 2.66699 36.167 6.33398 48.5 11.001s22 11 29 19s11.833 18.333 14.5 31s4 29 4 49v366c0 20.667 -0.833008 37.834 -2.5 51.501s-5 25 -10 34s-12 16.333 -21 22s-20.833 11.167 -35.5 16.5v20
h400l14 -151l-21 -7c-10 20.667 -20 38.167 -30 52.5s-20.333 26.166 -31 35.499s-22.334 16.166 -35.001 20.499s-26.667 7.16602 -42 8.49902l-103 7v-262l97 3c18 0.666992 32.833 2.16699 44.5 4.5s21.5 6.5 29.5 12.5s14.667 14 20 24s10.666 23 15.999 39h21v-207h-21
c-4 18 -8.33301 32.333 -13 43s-10.834 19.167 -18.501 25.5s-17.667 10.666 -30 12.999s-28.5 3.83301 -48.5 4.5l-97 3v-174c0 -18.667 1.5 -34 4.5 -46s8.16699 -21.667 15.5 -29s17.5 -12.5 30.5 -15.5s29.167 -4.5 48.5 -4.5c20.667 0 39 2.16699 55 6.5
s30.833 11.666 44.5 21.999s26.667 23.833 39 40.5s25.166 37.334 38.499 62.001l21 -6z" />
    <glyph glyph-name="Eacute" unicode="&#xc9;" horiz-adv-x="547" 
d="M379 731l-200 -41l-7 13l180 97l41 -28zM462 0l-440.996 0.00195312v21c20 2.66699 36.167 6.33398 48.5 11.001s22 11 29 19s11.833 18.333 14.5 31s4 29 4 49v366c0 20.667 -0.833008 37.834 -2.5 51.501s-5 25 -10 34s-12 16.333 -21 22s-20.833 11.167 -35.5 16.5v20
h400l14 -151l-21 -7c-10 20.667 -20 38.167 -30 52.5s-20.333 26.166 -31 35.499s-22.334 16.166 -35.001 20.499s-26.667 7.16602 -42 8.49902l-103 7v-262l97 3c18 0.666992 32.833 2.16699 44.5 4.5s21.5 6.5 29.5 12.5s14.667 14 20 24s10.666 23 15.999 39h21v-207h-21
c-4 18 -8.33301 32.333 -13 43s-10.834 19.167 -18.501 25.5s-17.667 10.666 -30 12.999s-28.5 3.83301 -48.5 4.5l-97 3v-174c0 -18.667 1.5 -34 4.5 -46s8.16699 -21.667 15.5 -29s17.5 -12.5 30.5 -15.5s29.167 -4.5 48.5 -4.5c20.667 0 39 2.16699 55 6.5
s30.833 11.666 44.5 21.999s26.667 23.833 39 40.5s25.166 37.334 38.499 62.001l21 -6z" />
    <glyph glyph-name="Ecircumflex" unicode="&#xca;" horiz-adv-x="545" 
d="M393 676l-124 62l-124 -62l-14 14l124 110h28l124 -110zM462 0l-440.996 0.00195312v21c20 2.66699 36.167 6.33398 48.5 11.001s22 11 29 19s11.833 18.333 14.5 31s4 29 4 49v366c0 20.667 -0.833008 37.834 -2.5 51.501s-5 25 -10 34s-12 16.333 -21 22
s-20.833 11.167 -35.5 16.5v20h400l14 -151l-21 -7c-10 20.667 -20 38.167 -30 52.5s-20.333 26.166 -31 35.499s-22.334 16.166 -35.001 20.499s-26.667 7.16602 -42 8.49902l-103 7v-262l97 3c18 0.666992 32.833 2.16699 44.5 4.5s21.5 6.5 29.5 12.5s14.667 14 20 24
s10.666 23 15.999 39h21v-207h-21c-4 18 -8.33301 32.333 -13 43s-10.834 19.167 -18.501 25.5s-17.667 10.666 -30 12.999s-28.5 3.83301 -48.5 4.5l-97 3v-174c0 -18.667 1.5 -34 4.5 -46s8.16699 -21.667 15.5 -29s17.5 -12.5 30.5 -15.5s29.167 -4.5 48.5 -4.5
c20.667 0 39 2.16699 55 6.5s30.833 11.666 44.5 21.999s26.667 23.833 39 40.5s25.166 37.334 38.499 62.001l21 -6z" />
    <glyph glyph-name="Edieresis" unicode="&#xcb;" horiz-adv-x="545" 
d="M397 751c0 -18 -4.83203 -33.499 -14.499 -46.499s-21.167 -19.5 -34.5 -19.5c-14.667 0 -26.667 6.66699 -36 20s-13.333 28.666 -12 45.999c1.33301 14.667 6.66602 27 15.999 37s20 15 32 15c13.333 0 24.833 -5.16699 34.5 -15.5s14.5 -22.5 14.5 -36.5z
M235.001 751.001c0 -18 -4.83203 -33.499 -14.499 -46.499s-21.167 -19.5 -34.5 -19.5c-14.667 0 -26.667 6.66699 -36 20s-13.333 28.666 -12 45.999c1.33301 14.667 6.66602 27 15.999 37s20 15 32 15c13.333 0 24.833 -5.16699 34.5 -15.5s14.5 -22.5 14.5 -36.5z
M462.002 0.00195312l-440.996 0.00195312v21c20 2.66699 36.167 6.33398 48.5 11.001s22 11 29 19s11.833 18.333 14.5 31s4 29 4 49v366c0 20.667 -0.833008 37.834 -2.5 51.501s-5 25 -10 34s-12 16.333 -21 22s-20.833 11.167 -35.5 16.5v20h400l14 -151l-21 -7
c-10 20.667 -20 38.167 -30 52.5s-20.333 26.166 -31 35.499s-22.334 16.166 -35.001 20.499s-26.667 7.16602 -42 8.49902l-103 7v-262l97 3c18 0.666992 32.833 2.16699 44.5 4.5s21.5 6.5 29.5 12.5s14.667 14 20 24s10.666 23 15.999 39h21v-207h-21
c-4 18 -8.33301 32.333 -13 43s-10.834 19.167 -18.501 25.5s-17.667 10.666 -30 12.999s-28.5 3.83301 -48.5 4.5l-97 3v-174c0 -18.667 1.5 -34 4.5 -46s8.16699 -21.667 15.5 -29s17.5 -12.5 30.5 -15.5s29.167 -4.5 48.5 -4.5c20.667 0 39 2.16699 55 6.5
s30.833 11.666 44.5 21.999s26.667 23.833 39 40.5s25.166 37.334 38.499 62.001l21 -6z" />
    <glyph glyph-name="Igrave" unicode="&#xcc;" horiz-adv-x="317" 
d="M193 690l-200 41l-14 41l42 28l179 -97zM21 0v21c20 2.66699 36.167 6.33398 48.5 11.001s22 11 29 19s11.833 18.333 14.5 31s4 29 4 49v379c0 19.333 -1.16699 35.333 -3.5 48s-6.83301 23 -13.5 31s-15.667 14.333 -27 19s-26.333 9 -45 13v20h269v-20
c-20 -3.33301 -36.333 -7.33301 -49 -12s-22.5 -11 -29.5 -19s-11.833 -18.333 -14.5 -31s-4 -29 -4 -49v-379c0 -20 1.33301 -36.333 4 -49s7.5 -23 14.5 -31s16.833 -14.333 29.5 -19s29 -8.33398 49 -11.001v-21h-276z" />
    <glyph glyph-name="Iacute" unicode="&#xcd;" horiz-adv-x="317" 
d="M317 731l-200 -41l-7 13l180 97l41 -28zM21 0v21c20 2.66699 36.167 6.33398 48.5 11.001s22 11 29 19s11.833 18.333 14.5 31s4 29 4 49v379c0 19.333 -1.16699 35.333 -3.5 48s-6.83301 23 -13.5 31s-15.667 14.333 -27 19s-26.333 9 -45 13v20h269v-20
c-20 -3.33301 -36.333 -7.33301 -49 -12s-22.5 -11 -29.5 -19s-11.833 -18.333 -14.5 -31s-4 -29 -4 -49v-379c0 -20 1.33301 -36.333 4 -49s7.5 -23 14.5 -31s16.833 -14.333 29.5 -19s29 -8.33398 49 -11.001v-21h-276z" />
    <glyph glyph-name="Icircumflex" unicode="&#xce;" horiz-adv-x="317" 
d="M290 676l-124 62l-125 -62l-13 14l124 110h27l124 -110zM21 0v21c20 2.66699 36.167 6.33398 48.5 11.001s22 11 29 19s11.833 18.333 14.5 31s4 29 4 49v379c0 19.333 -1.16699 35.333 -3.5 48s-6.83301 23 -13.5 31s-15.667 14.333 -27 19s-26.333 9 -45 13v20h269v-20
c-20 -3.33301 -36.333 -7.33301 -49 -12s-22.5 -11 -29.5 -19s-11.833 -18.333 -14.5 -31s-4 -29 -4 -49v-379c0 -20 1.33301 -36.333 4 -49s7.5 -23 14.5 -31s16.833 -14.333 29.5 -19s29 -8.33398 49 -11.001v-21h-276z" />
    <glyph glyph-name="Idieresis" unicode="&#xcf;" horiz-adv-x="317" 
d="M292 751c0 -18 -4.83203 -33.499 -14.499 -46.499s-21.167 -19.5 -34.5 -19.5c-14.667 0 -26.667 6.66699 -36 20s-13.333 28.666 -12 45.999c1.33301 14.667 6.66602 27 15.999 37s20 15 32 15c13.333 0 24.833 -5.16699 34.5 -15.5s14.5 -22.5 14.5 -36.5z
M130.001 751.001c0 -18 -4.83203 -33.499 -14.499 -46.499s-21.167 -19.5 -34.5 -19.5c-14.667 0 -26.667 6.66699 -36 20s-13.333 28.666 -12 45.999c1.33301 14.667 6.66602 27 15.999 37s20 15 32 15c13.333 0 24.833 -5.16699 34.5 -15.5s14.5 -22.5 14.5 -36.5z
M21.002 0.00195312v21c20 2.66699 36.167 6.33398 48.5 11.001s22 11 29 19s11.833 18.333 14.5 31s4 29 4 49v379c0 19.333 -1.16699 35.333 -3.5 48s-6.83301 23 -13.5 31s-15.667 14.333 -27 19s-26.333 9 -45 13v20h269v-20c-20 -3.33301 -36.333 -7.33301 -49 -12
s-22.5 -11 -29.5 -19s-11.833 -18.333 -14.5 -31s-4 -29 -4 -49v-379c0 -20 1.33301 -36.333 4 -49s7.5 -23 14.5 -31s16.833 -14.333 29.5 -19s29 -8.33398 49 -11.001v-21h-276z" />
    <glyph glyph-name="Ntilde" unicode="&#xd1;" horiz-adv-x="717" 
d="M491 697h-28.001c-5.33301 0 -18.5 2 -39.5 6s-49.833 10.333 -86.5 19c-6.66699 1.33301 -12.5 2.33301 -17.5 3s-9.5 1 -13.5 1c-15.333 0 -29.166 -3.5 -41.499 -10.5s-28.833 -20.167 -49.5 -39.5l-14 14l83 96h28c18 0 54.667 -7 110 -21
c9.33301 -2 18 -3.66699 26 -5s15.667 -2 23 -2c15.333 0 28.333 3 39 9s22.667 17 36 33l14 -14zM702.999 621c-20 -3.33301 -36.001 -7.16602 -48.001 -11.499s-21.5 -10.5 -28.5 -18.5s-11.833 -18.333 -14.5 -31s-4.33398 -29.334 -5.00098 -50.001l-14 -496l-38 -36
l-383 529l7 -376c0.666992 -20.667 2.33398 -37.5 5.00098 -50.5s7.83398 -23.5 15.501 -31.5s18.167 -14 31.5 -18s30.666 -7.33301 51.999 -10v-21h-269v21c20 2.66699 36.167 6.16699 48.5 10.5s21.833 10.333 28.5 18s11.334 18 14.001 31s4.33398 29.833 5.00098 50.5
l14 324c0 28 -1.16699 51.167 -3.5 69.5s-7 33.333 -14 45s-16.667 21.334 -29 29.001s-28.833 15.167 -49.5 22.5v20h149l368 -510l-7 379c-0.666992 20 -2.33398 36.5 -5.00098 49.5s-7.5 23.5 -14.5 31.5s-16.667 14.167 -29 18.5s-28.5 8.16602 -48.5 11.499v20h262v-20
z" />
    <glyph glyph-name="Ograve" unicode="&#xd2;" horiz-adv-x="697" 
d="M455 690l-200 41l-14 41l42 28l179 -97zM662 319c0 -49.333 -7.66211 -94.334 -22.9951 -135.001s-37 -75.667 -65 -105s-61.333 -52.166 -100 -68.499s-81.334 -24.5 -128.001 -24.5c-45.333 0 -87 8.33301 -125 25s-70.833 39.667 -98.5 69s-49.334 64.5 -65.001 105.5
s-23.5 85.5 -23.5 133.5c0 50 7.66699 95.5 23 136.5s36.666 76.333 63.999 106s60.166 52.667 98.499 69s80.5 24.5 126.5 24.5c45.333 0 85.166 -6.33301 119.499 -19s65.5 -32.667 93.5 -60c33.333 -33.333 58.833 -72 76.5 -116s26.5 -91 26.5 -141zM559.005 304.999
c0 44 -5.66406 84.998 -16.9971 122.998s-27.166 70.667 -47.499 98s-44.5 48.833 -72.5 64.5s-58.333 23.5 -91 23.5c-28.667 0 -54.834 -6.83301 -78.501 -20.5s-44 -32.667 -61 -57s-30.167 -53.666 -39.5 -87.999s-14 -72.166 -14 -113.499
c0 -43.333 5.66699 -83.833 17 -121.5s27.166 -70.167 47.499 -97.5s44.166 -48.833 71.499 -64.5s57 -23.5 89 -23.5c29.333 0 56.166 6.66699 80.499 20s45 32 62 56s30.167 53 39.5 87s14 72 14 114z" />
    <glyph glyph-name="Oacute" unicode="&#xd3;" horiz-adv-x="697" 
d="M434 731l-200 -41l-6 13l179 97l41 -28zM662 319c0 -49.333 -7.66211 -94.334 -22.9951 -135.001s-37 -75.667 -65 -105s-61.333 -52.166 -100 -68.499s-81.334 -24.5 -128.001 -24.5c-45.333 0 -87 8.33301 -125 25s-70.833 39.667 -98.5 69s-49.334 64.5 -65.001 105.5
s-23.5 85.5 -23.5 133.5c0 50 7.66699 95.5 23 136.5s36.666 76.333 63.999 106s60.166 52.667 98.499 69s80.5 24.5 126.5 24.5c45.333 0 85.166 -6.33301 119.499 -19s65.5 -32.667 93.5 -60c33.333 -33.333 58.833 -72 76.5 -116s26.5 -91 26.5 -141zM559.005 304.999
c0 44 -5.66406 84.998 -16.9971 122.998s-27.166 70.667 -47.499 98s-44.5 48.833 -72.5 64.5s-58.333 23.5 -91 23.5c-28.667 0 -54.834 -6.83301 -78.501 -20.5s-44 -32.667 -61 -57s-30.167 -53.666 -39.5 -87.999s-14 -72.166 -14 -113.499
c0 -43.333 5.66699 -83.833 17 -121.5s27.166 -70.167 47.499 -97.5s44.166 -48.833 71.499 -64.5s57 -23.5 89 -23.5c29.333 0 56.166 6.66699 80.499 20s45 32 62 56s30.167 53 39.5 87s14 72 14 114z" />
    <glyph glyph-name="Ocircumflex" unicode="&#xd4;" horiz-adv-x="697" 
d="M469 676l-124 62l-124 -62l-14 14l124 110h28l124 -110zM662 319c0 -49.333 -7.66211 -94.334 -22.9951 -135.001s-37 -75.667 -65 -105s-61.333 -52.166 -100 -68.499s-81.334 -24.5 -128.001 -24.5c-45.333 0 -87 8.33301 -125 25s-70.833 39.667 -98.5 69
s-49.334 64.5 -65.001 105.5s-23.5 85.5 -23.5 133.5c0 50 7.66699 95.5 23 136.5s36.666 76.333 63.999 106s60.166 52.667 98.499 69s80.5 24.5 126.5 24.5c45.333 0 85.166 -6.33301 119.499 -19s65.5 -32.667 93.5 -60c33.333 -33.333 58.833 -72 76.5 -116
s26.5 -91 26.5 -141zM559.005 304.999c0 44 -5.66406 84.998 -16.9971 122.998s-27.166 70.667 -47.499 98s-44.5 48.833 -72.5 64.5s-58.333 23.5 -91 23.5c-28.667 0 -54.834 -6.83301 -78.501 -20.5s-44 -32.667 -61 -57s-30.167 -53.666 -39.5 -87.999
s-14 -72.166 -14 -113.499c0 -43.333 5.66699 -83.833 17 -121.5s27.166 -70.167 47.499 -97.5s44.166 -48.833 71.499 -64.5s57 -23.5 89 -23.5c29.333 0 56.166 6.66699 80.499 20s45 32 62 56s30.167 53 39.5 87s14 72 14 114z" />
    <glyph glyph-name="Otilde" unicode="&#xd5;" horiz-adv-x="697" 
d="M462 697h-28.001c-5.33301 0 -18.5 2 -39.5 6s-49.833 10.333 -86.5 19c-6.66699 1.33301 -12.5 2.33301 -17.5 3s-9.5 1 -13.5 1c-15.333 0 -29.166 -3.5 -41.499 -10.5s-28.833 -20.167 -49.5 -39.5l-14 14l83 96h28c18 0 54.667 -7 110 -21
c9.33301 -2 18 -3.66699 26 -5s15.667 -2 23 -2c15.333 0 28.333 3 39 9s22.667 17 36 33l14 -14zM661.999 319c0 -49.333 -7.66211 -94.334 -22.9951 -135.001s-37 -75.667 -65 -105s-61.333 -52.166 -100 -68.499s-81.334 -24.5 -128.001 -24.5
c-45.333 0 -87 8.33301 -125 25s-70.833 39.667 -98.5 69s-49.334 64.5 -65.001 105.5s-23.5 85.5 -23.5 133.5c0 50 7.66699 95.5 23 136.5s36.666 76.333 63.999 106s60.166 52.667 98.499 69s80.5 24.5 126.5 24.5c45.333 0 85.166 -6.33301 119.499 -19
s65.5 -32.667 93.5 -60c33.333 -33.333 58.833 -72 76.5 -116s26.5 -91 26.5 -141zM559.004 304.999c0 44 -5.66406 84.998 -16.9971 122.998s-27.166 70.667 -47.499 98s-44.5 48.833 -72.5 64.5s-58.333 23.5 -91 23.5c-28.667 0 -54.834 -6.83301 -78.501 -20.5
s-44 -32.667 -61 -57s-30.167 -53.666 -39.5 -87.999s-14 -72.166 -14 -113.499c0 -43.333 5.66699 -83.833 17 -121.5s27.166 -70.167 47.499 -97.5s44.166 -48.833 71.499 -64.5s57 -23.5 89 -23.5c29.333 0 56.166 6.66699 80.499 20s45 32 62 56s30.167 53 39.5 87
s14 72 14 114z" />
    <glyph glyph-name="Odieresis" unicode="&#xd6;" horiz-adv-x="697" 
d="M477 751c0 -18 -4.83203 -33.499 -14.499 -46.499s-21.167 -19.5 -34.5 -19.5c-14.667 0 -26.667 6.66699 -36 20s-13.333 28.666 -12 45.999c1.33301 14.667 6.66602 27 15.999 37s20 15 32 15c13.333 0 24.833 -5.16699 34.5 -15.5s14.5 -22.5 14.5 -36.5z
M315.001 751.001c0 -18 -4.83203 -33.499 -14.499 -46.499s-21.167 -19.5 -34.5 -19.5c-14.667 0 -26.667 6.66699 -36 20s-13.333 28.666 -12 45.999c1.33301 14.667 6.66602 27 15.999 37s20 15 32 15c13.333 0 24.833 -5.16699 34.5 -15.5s14.5 -22.5 14.5 -36.5z
M662.002 319.002c0 -49.333 -7.66211 -94.334 -22.9951 -135.001s-37 -75.667 -65 -105s-61.333 -52.166 -100 -68.499s-81.334 -24.5 -128.001 -24.5c-45.333 0 -87 8.33301 -125 25s-70.833 39.667 -98.5 69s-49.334 64.5 -65.001 105.5s-23.5 85.5 -23.5 133.5
c0 50 7.66699 95.5 23 136.5s36.666 76.333 63.999 106s60.166 52.667 98.499 69s80.5 24.5 126.5 24.5c45.333 0 85.166 -6.33301 119.499 -19s65.5 -32.667 93.5 -60c33.333 -33.333 58.833 -72 76.5 -116s26.5 -91 26.5 -141zM559.007 305.001
c0 44 -5.66406 84.998 -16.9971 122.998s-27.166 70.667 -47.499 98s-44.5 48.833 -72.5 64.5s-58.333 23.5 -91 23.5c-28.667 0 -54.834 -6.83301 -78.501 -20.5s-44 -32.667 -61 -57s-30.167 -53.666 -39.5 -87.999s-14 -72.166 -14 -113.499
c0 -43.333 5.66699 -83.833 17 -121.5s27.166 -70.167 47.499 -97.5s44.166 -48.833 71.499 -64.5s57 -23.5 89 -23.5c29.333 0 56.166 6.66699 80.499 20s45 32 62 56s30.167 53 39.5 87s14 72 14 114z" />
    <glyph glyph-name="Oslash" unicode="&#xd8;" horiz-adv-x="697" 
d="M662 319c0 -49.333 -7.66504 -94.333 -22.998 -135s-37 -75.667 -65 -105s-61.333 -52.166 -100 -68.499s-81.334 -24.5 -128.001 -24.5h-15.5c-5 0 -10.167 0.333008 -15.5 1l-6 -31.5c-2 -11 -3.66699 -21.167 -5 -30.5c-2 -11.333 -3.66699 -22 -5 -32l-40 14l14 87
c-35.333 8 -67.666 21.667 -96.999 41s-54.5 43.166 -75.5 71.499s-37.333 60.5 -49 96.5s-17.5 74.667 -17.5 116c0 50 7.66699 95.5 23 136.5s36.666 76.333 63.999 106s60.166 52.667 98.499 69s80.5 24.5 126.5 24.5c6.66699 0 13.167 -0.166992 19.5 -0.5
s12.5 -0.833008 18.5 -1.5l13 77l40 -17l-11 -66c52.667 -11.333 97 -35 133 -71c33.333 -33.333 58.833 -72 76.5 -116s26.5 -91 26.5 -141zM377.002 608c-15.333 4 -30.667 5.99902 -46 5.99902c-28.667 0 -54.834 -6.83301 -78.501 -20.5s-44 -32.667 -61 -57
s-30.167 -53.666 -39.5 -87.999s-14 -72.166 -14 -113.499c0 -34 3.5 -66 10.5 -96s16.833 -57.5 29.5 -82.5s27.834 -46.833 45.501 -65.5s37.167 -33.334 58.5 -44.001zM559.001 304.999c0 34 -3.33301 65.999 -10 95.999s-16.334 57.333 -29.001 82
s-27.667 46.334 -45 65.001s-36.666 33.667 -57.999 45l-47 -281l-48 -280c6.66699 -1.33301 13.334 -2.33301 20.001 -3s13.667 -1 21 -1c29.333 0 56.166 6.66699 80.499 20s45 32 62 56s30.167 53 39.5 87s14 72 14 114z" />
    <glyph glyph-name="Ugrave" unicode="&#xd9;" horiz-adv-x="676" 
d="M366 690l-200 41l-14 41l41 28l179 -97zM662 621c-16 -5.33301 -28.834 -10.502 -38.501 -15.502s-17.167 -11.5 -22.5 -19.5s-9 -18 -11 -30s-3.33301 -27.333 -4 -46l-7 -241c-1.33301 -36.667 -2.83301 -66.5 -4.5 -89.5s-4.5 -42 -8.5 -57s-10 -28 -18 -39
s-18.333 -22.833 -31 -35.5c-20.667 -20 -46.167 -35.333 -76.5 -46s-64.5 -16 -102.5 -16c-60.667 0 -111.334 14 -152.001 42c-22 14 -40.333 32.667 -55 56c-6.66699 10 -12.167 20.167 -16.5 30.5s-7.83301 21.833 -10.5 34.5s-4.5 26.834 -5.5 42.501
s-1.5 34.167 -1.5 55.5v250c0 20.667 -0.833008 37.834 -2.5 51.501s-5 25 -10 34s-12 16.333 -21 22s-20.833 11.167 -35.5 16.5v20h248v-20c-20 -3.33301 -36.333 -7.33301 -49 -12s-22.5 -11 -29.5 -19s-11.833 -18.333 -14.5 -31s-4 -29 -4 -49v-252
c0 -39.333 4.16699 -71 12.5 -95s22.5 -46 42.5 -66c34.667 -34.667 77 -52 127 -52c24 0 46.5 4.33301 67.5 13s39.167 21.667 54.5 39c8 8.66699 14.667 17.667 20 27s9.5 20 12.5 32s5.16699 25.833 6.5 41.5s2 34.167 2 55.5v23l-7 234
c-0.666992 20 -2.16699 36.333 -4.5 49s-6.66602 23 -12.999 31s-15.166 14.167 -26.499 18.5s-26.333 8.5 -45 12.5v20h234v-20z" />
    <glyph glyph-name="Uacute" unicode="&#xda;" horiz-adv-x="676" 
d="M552 731l-200 -41l-7 13l179 97l42 -28zM662 621c-16 -5.33301 -28.834 -10.502 -38.501 -15.502s-17.167 -11.5 -22.5 -19.5s-9 -18 -11 -30s-3.33301 -27.333 -4 -46l-7 -241c-1.33301 -36.667 -2.83301 -66.5 -4.5 -89.5s-4.5 -42 -8.5 -57s-10 -28 -18 -39
s-18.333 -22.833 -31 -35.5c-20.667 -20 -46.167 -35.333 -76.5 -46s-64.5 -16 -102.5 -16c-60.667 0 -111.334 14 -152.001 42c-22 14 -40.333 32.667 -55 56c-6.66699 10 -12.167 20.167 -16.5 30.5s-7.83301 21.833 -10.5 34.5s-4.5 26.834 -5.5 42.501
s-1.5 34.167 -1.5 55.5v250c0 20.667 -0.833008 37.834 -2.5 51.501s-5 25 -10 34s-12 16.333 -21 22s-20.833 11.167 -35.5 16.5v20h248v-20c-20 -3.33301 -36.333 -7.33301 -49 -12s-22.5 -11 -29.5 -19s-11.833 -18.333 -14.5 -31s-4 -29 -4 -49v-252
c0 -39.333 4.16699 -71 12.5 -95s22.5 -46 42.5 -66c34.667 -34.667 77 -52 127 -52c24 0 46.5 4.33301 67.5 13s39.167 21.667 54.5 39c8 8.66699 14.667 17.667 20 27s9.5 20 12.5 32s5.16699 25.833 6.5 41.5s2 34.167 2 55.5v23l-7 234
c-0.666992 20 -2.16699 36.333 -4.5 49s-6.66602 23 -12.999 31s-15.166 14.167 -26.499 18.5s-26.333 8.5 -45 12.5v20h234v-20z" />
    <glyph glyph-name="Ucircumflex" unicode="&#xdb;" horiz-adv-x="676" 
d="M476 676l-124 62l-124 -62l-14 14l124 110h28l124 -110zM662 621c-16 -5.33301 -28.834 -10.502 -38.501 -15.502s-17.167 -11.5 -22.5 -19.5s-9 -18 -11 -30s-3.33301 -27.333 -4 -46l-7 -241c-1.33301 -36.667 -2.83301 -66.5 -4.5 -89.5s-4.5 -42 -8.5 -57
s-10 -28 -18 -39s-18.333 -22.833 -31 -35.5c-20.667 -20 -46.167 -35.333 -76.5 -46s-64.5 -16 -102.5 -16c-60.667 0 -111.334 14 -152.001 42c-22 14 -40.333 32.667 -55 56c-6.66699 10 -12.167 20.167 -16.5 30.5s-7.83301 21.833 -10.5 34.5s-4.5 26.834 -5.5 42.501
s-1.5 34.167 -1.5 55.5v250c0 20.667 -0.833008 37.834 -2.5 51.501s-5 25 -10 34s-12 16.333 -21 22s-20.833 11.167 -35.5 16.5v20h248v-20c-20 -3.33301 -36.333 -7.33301 -49 -12s-22.5 -11 -29.5 -19s-11.833 -18.333 -14.5 -31s-4 -29 -4 -49v-252
c0 -39.333 4.16699 -71 12.5 -95s22.5 -46 42.5 -66c34.667 -34.667 77 -52 127 -52c24 0 46.5 4.33301 67.5 13s39.167 21.667 54.5 39c8 8.66699 14.667 17.667 20 27s9.5 20 12.5 32s5.16699 25.833 6.5 41.5s2 34.167 2 55.5v23l-7 234
c-0.666992 20 -2.16699 36.333 -4.5 49s-6.66602 23 -12.999 31s-15.166 14.167 -26.499 18.5s-26.333 8.5 -45 12.5v20h234v-20z" />
    <glyph glyph-name="Udieresis" unicode="&#xdc;" horiz-adv-x="676" 
d="M483 751c0 -18 -4.83203 -33.499 -14.499 -46.499s-21.167 -19.5 -34.5 -19.5c-14.667 0 -26.667 6.66699 -36 20s-13.333 28.666 -12 45.999c1.33301 14.667 6.66602 27 15.999 37s20 15 32 15c13.333 0 24.833 -5.16699 34.5 -15.5s14.5 -22.5 14.5 -36.5z
M321.001 751.001c0 -18 -4.83203 -33.499 -14.499 -46.499s-21.167 -19.5 -34.5 -19.5c-14.667 0 -26.667 6.66699 -36 20s-13.333 28.666 -12 45.999c1.33301 14.667 6.66602 27 15.999 37s20 15 32 15c13.333 0 24.833 -5.16699 34.5 -15.5s14.5 -22.5 14.5 -36.5z
M662.002 621.002c-16 -5.33301 -28.834 -10.502 -38.501 -15.502s-17.167 -11.5 -22.5 -19.5s-9 -18 -11 -30s-3.33301 -27.333 -4 -46l-7 -241c-1.33301 -36.667 -2.83301 -66.5 -4.5 -89.5s-4.5 -42 -8.5 -57s-10 -28 -18 -39s-18.333 -22.833 -31 -35.5
c-20.667 -20 -46.167 -35.333 -76.5 -46s-64.5 -16 -102.5 -16c-60.667 0 -111.334 14 -152.001 42c-22 14 -40.333 32.667 -55 56c-6.66699 10 -12.167 20.167 -16.5 30.5s-7.83301 21.833 -10.5 34.5s-4.5 26.834 -5.5 42.501s-1.5 34.167 -1.5 55.5v250
c0 20.667 -0.833008 37.834 -2.5 51.501s-5 25 -10 34s-12 16.333 -21 22s-20.833 11.167 -35.5 16.5v20h248v-20c-20 -3.33301 -36.333 -7.33301 -49 -12s-22.5 -11 -29.5 -19s-11.833 -18.333 -14.5 -31s-4 -29 -4 -49v-252c0 -39.333 4.16699 -71 12.5 -95
s22.5 -46 42.5 -66c34.667 -34.667 77 -52 127 -52c24 0 46.5 4.33301 67.5 13s39.167 21.667 54.5 39c8 8.66699 14.667 17.667 20 27s9.5 20 12.5 32s5.16699 25.833 6.5 41.5s2 34.167 2 55.5v23l-7 234c-0.666992 20 -2.16699 36.333 -4.5 49s-6.66602 23 -12.999 31
s-15.166 14.167 -26.499 18.5s-26.333 8.5 -45 12.5v20h234v-20z" />
    <glyph glyph-name="germandbls" unicode="&#xdf;" horiz-adv-x="645" 
d="M597 112c0 -38.667 -12.835 -69.333 -38.502 -92s-60.5 -34 -104.5 -34c-10 0 -19.667 0.333008 -29 1s-19.166 1.83398 -29.499 3.50098s-21.833 3.83398 -34.5 6.50098s-27.334 6 -44.001 10l-7 124l21 7c12.667 -22 24.334 -40.333 35.001 -55
c13.333 -18.667 28.5 -33.167 45.5 -43.5s34.167 -15.5 51.5 -15.5c19.333 0 35 6 47 18s18 27.667 18 47c0 13.333 -3.66699 26.333 -11 39c-2.66699 4 -5.5 7.83301 -8.5 11.5s-6.83301 7.5 -11.5 11.5s-10.334 8.16699 -17.001 12.5l-25 15.5l-69 42
c-24 14.667 -41.5 30.5 -52.5 47.5s-16.5 37.167 -16.5 60.5c0 40 18.333 74 55 102c18.667 14.667 29 23 31 25c10.667 9.33301 19.167 22 25.5 38s9.5 32.667 9.5 50c0 18.667 -3.66699 36 -11 52s-17.333 30 -30 42s-27.667 21.333 -45 28s-35.666 10 -54.999 10
c-83.333 0 -125 -61 -125 -183v-362c0 -18.667 1 -34 3 -46s6 -21.667 12 -29s14.333 -13.333 25 -18s25 -9.33398 43 -14.001v-24h-227v24c13.333 2 24.5 5.33301 33.5 10s16.167 11 21.5 19s9 18.333 11 31s3 28.334 3 47.001v236c-0.666992 9.33301 -1 18.833 -1 28.5
v29.5c0 18 0.166992 33.5 0.5 46.5s1 24.833 2 35.5s2.5 20.5 4.5 29.5s4.33301 18.833 7 29.5c6.66699 22.667 16.667 43.5 30 62.5s29.333 35 48 48s39.5 23.167 62.5 30.5s47.5 11 73.5 11c28.667 0 55.167 -4.16699 79.5 -12.5s45.5 -20 63.5 -35s32 -32.833 42 -53.5
s15 -43.334 15 -68.001c0 -28 -7 -51.833 -21 -71.5s-38 -38.5 -72 -56.5c-19.333 -10.667 -32.166 -20.334 -38.499 -29.001s-9.5 -20.667 -9.5 -36s4.33301 -28.5 13 -39.5s25 -23.5 49 -37.5l65 -38c58 -33.333 87 -76.333 87 -129z" />
    <glyph glyph-name="agrave" unicode="&#xe0;" horiz-adv-x="448" 
d="M262 503l-165 187l7 41h48l124 -214zM384 -4c-7.33301 -1.33301 -14.665 -2.33203 -21.998 -2.99902s-14 -1 -20 -1c-20.667 0 -35.334 3.5 -44.001 10.5s-16 20.5 -22 40.5c-15.333 -10.667 -28.666 -19.5 -39.999 -26.5s-22.333 -12.5 -33 -16.5
s-21.334 -6.66699 -32.001 -8s-22.667 -2 -36 -2c-33.333 0 -59.5 8.33301 -78.5 25s-28.5 40 -28.5 70c0 25.333 7.66699 45.833 23 61.5s42 30.5 80 44.5l152 56v84c0 32.667 -5 54.834 -15 66.501s-28.667 17.5 -56 17.5c-12.667 0 -23.5 -1.33301 -32.5 -4
s-17.167 -7.16699 -24.5 -13.5s-14 -14.833 -20 -25.5s-12 -24.334 -18 -41.001c-1.33301 -4 -3.16602 -8.83301 -5.49902 -14.5s-5.16602 -12.167 -8.49902 -19.5c-36.667 4.66699 -55 18 -55 40c0 8.66699 3.16699 18 9.5 28s15.166 19.833 26.499 29.5s24.333 19 39 28
s30.667 16.833 48 23.5c15.333 5.33301 32.666 10 51.999 14s35.666 6 48.999 6c32 0 55 -7.33301 69 -22s21 -38 21 -70v-19l-10 -234v-8c0 -12 1 -22.333 3 -31s6 -16.334 12 -23.001s14.333 -12.667 25 -18s24.667 -11 42 -17v-22zM181.001 171.001
c-45.333 -18.667 -67.999 -43.333 -67.999 -74c0 -14.667 5.66699 -27.667 17 -39s24.666 -17 39.999 -17c18.667 0 44 6 76 18c3.33301 1.33301 7.5 2.83301 12.5 4.5s10.833 3.5 17.5 5.5l7 144z" />
    <glyph glyph-name="aacute" unicode="&#xe1;" horiz-adv-x="448" 
d="M228 503l-14 14l124 214h48l7 -41zM384 -4c-7.33301 -1.33301 -14.665 -2.33203 -21.998 -2.99902s-14 -1 -20 -1c-20.667 0 -35.334 3.5 -44.001 10.5s-16 20.5 -22 40.5c-15.333 -10.667 -28.666 -19.5 -39.999 -26.5s-22.333 -12.5 -33 -16.5
s-21.334 -6.66699 -32.001 -8s-22.667 -2 -36 -2c-33.333 0 -59.5 8.33301 -78.5 25s-28.5 40 -28.5 70c0 25.333 7.66699 45.833 23 61.5s42 30.5 80 44.5l152 56v84c0 32.667 -5 54.834 -15 66.501s-28.667 17.5 -56 17.5c-12.667 0 -23.5 -1.33301 -32.5 -4
s-17.167 -7.16699 -24.5 -13.5s-14 -14.833 -20 -25.5s-12 -24.334 -18 -41.001c-1.33301 -4 -3.16602 -8.83301 -5.49902 -14.5s-5.16602 -12.167 -8.49902 -19.5c-36.667 4.66699 -55 18 -55 40c0 8.66699 3.16699 18 9.5 28s15.166 19.833 26.499 29.5s24.333 19 39 28
s30.667 16.833 48 23.5c15.333 5.33301 32.666 10 51.999 14s35.666 6 48.999 6c32 0 55 -7.33301 69 -22s21 -38 21 -70v-19l-10 -234v-8c0 -12 1 -22.333 3 -31s6 -16.334 12 -23.001s14.333 -12.667 25 -18s24.667 -11 42 -17v-22zM181.001 171.001
c-45.333 -18.667 -67.999 -43.333 -67.999 -74c0 -14.667 5.66699 -27.667 17 -39s24.666 -17 39.999 -17c18.667 0 44 6 76 18c3.33301 1.33301 7.5 2.83301 12.5 4.5s10.833 3.5 17.5 5.5l7 144z" />
    <glyph glyph-name="acircumflex" unicode="&#xe2;" horiz-adv-x="448" 
d="M348 510l-117 118l-138 -118l-14 14l152 193h17l118 -193zM384 -4c-7.33301 -1.33301 -14.665 -2.33203 -21.998 -2.99902s-14 -1 -20 -1c-20.667 0 -35.334 3.5 -44.001 10.5s-16 20.5 -22 40.5c-15.333 -10.667 -28.666 -19.5 -39.999 -26.5s-22.333 -12.5 -33 -16.5
s-21.334 -6.66699 -32.001 -8s-22.667 -2 -36 -2c-33.333 0 -59.5 8.33301 -78.5 25s-28.5 40 -28.5 70c0 25.333 7.66699 45.833 23 61.5s42 30.5 80 44.5l152 56v84c0 32.667 -5 54.834 -15 66.501s-28.667 17.5 -56 17.5c-12.667 0 -23.5 -1.33301 -32.5 -4
s-17.167 -7.16699 -24.5 -13.5s-14 -14.833 -20 -25.5s-12 -24.334 -18 -41.001c-1.33301 -4 -3.16602 -8.83301 -5.49902 -14.5s-5.16602 -12.167 -8.49902 -19.5c-36.667 4.66699 -55 18 -55 40c0 8.66699 3.16699 18 9.5 28s15.166 19.833 26.499 29.5s24.333 19 39 28
s30.667 16.833 48 23.5c15.333 5.33301 32.666 10 51.999 14s35.666 6 48.999 6c32 0 55 -7.33301 69 -22s21 -38 21 -70v-19l-10 -234v-8c0 -12 1 -22.333 3 -31s6 -16.334 12 -23.001s14.333 -12.667 25 -18s24.667 -11 42 -17v-22zM181.001 171.001
c-45.333 -18.667 -67.999 -43.333 -67.999 -74c0 -14.667 5.66699 -27.667 17 -39s24.666 -17 39.999 -17c18.667 0 44 6 76 18c3.33301 1.33301 7.5 2.83301 12.5 4.5s10.833 3.5 17.5 5.5l7 144z" />
    <glyph glyph-name="atilde" unicode="&#xe3;" horiz-adv-x="448" 
d="M333 539l-28.002 0.000976562c-6.66699 0 -18 3.66699 -34 11s-36.667 17.666 -62 30.999c-17.333 10 -32.666 15 -45.999 15c-11.333 0 -24.5 -4.83301 -39.5 -14.5s-34.833 -26.167 -59.5 -49.5l-21 14l97 117h28c6.66699 0 37.667 -16 93 -48
c16.667 -9.33301 31.667 -14 45 -14c12.667 0 25.834 4.5 39.501 13.5s32.5 25.167 56.5 48.5l21 -13zM383.998 -3.99902c-7.33301 -1.33301 -14.665 -2.33203 -21.998 -2.99902s-14 -1 -20 -1c-20.667 0 -35.334 3.5 -44.001 10.5s-16 20.5 -22 40.5
c-15.333 -10.667 -28.666 -19.5 -39.999 -26.5s-22.333 -12.5 -33 -16.5s-21.334 -6.66699 -32.001 -8s-22.667 -2 -36 -2c-33.333 0 -59.5 8.33301 -78.5 25s-28.5 40 -28.5 70c0 25.333 7.66699 45.833 23 61.5s42 30.5 80 44.5l152 56v84c0 32.667 -5 54.834 -15 66.501
s-28.667 17.5 -56 17.5c-12.667 0 -23.5 -1.33301 -32.5 -4s-17.167 -7.16699 -24.5 -13.5s-14 -14.833 -20 -25.5s-12 -24.334 -18 -41.001c-1.33301 -4 -3.16602 -8.83301 -5.49902 -14.5s-5.16602 -12.167 -8.49902 -19.5c-36.667 4.66699 -55 18 -55 40
c0 8.66699 3.16699 18 9.5 28s15.166 19.833 26.499 29.5s24.333 19 39 28s30.667 16.833 48 23.5c15.333 5.33301 32.666 10 51.999 14s35.666 6 48.999 6c32 0 55 -7.33301 69 -22s21 -38 21 -70v-19l-10 -234v-8c0 -12 1 -22.333 3 -31s6 -16.334 12 -23.001
s14.333 -12.667 25 -18s24.667 -11 42 -17v-22zM180.999 171.002c-45.333 -18.667 -67.999 -43.333 -67.999 -74c0 -14.667 5.66699 -27.667 17 -39s24.666 -17 39.999 -17c18.667 0 44 6 76 18c3.33301 1.33301 7.5 2.83301 12.5 4.5s10.833 3.5 17.5 5.5l7 144z" />
    <glyph glyph-name="adieresis" unicode="&#xe4;" horiz-adv-x="448" 
d="M366 601c0 -18 -4.83203 -33.499 -14.499 -46.499s-21.167 -19.5 -34.5 -19.5c-14.667 0 -26.667 6.66699 -36 20s-13.333 28.666 -12 45.999c1.33301 14.667 6.66602 27 15.999 37s20 15 32 15c13.333 0 24.833 -5.16699 34.5 -15.5s14.5 -22.5 14.5 -36.5z
M204.001 601.001c0 -18 -4.83203 -33.499 -14.499 -46.499s-21.167 -19.5 -34.5 -19.5c-14.667 0 -26.667 6.66699 -36 20s-13.333 28.666 -12 45.999c1.33301 14.667 6.66602 27 15.999 37s20 15 32 15c13.333 0 24.833 -5.16699 34.5 -15.5s14.5 -22.5 14.5 -36.5z
M384.002 -3.99805c-7.33301 -1.33301 -14.665 -2.33203 -21.998 -2.99902s-14 -1 -20 -1c-20.667 0 -35.334 3.5 -44.001 10.5s-16 20.5 -22 40.5c-15.333 -10.667 -28.666 -19.5 -39.999 -26.5s-22.333 -12.5 -33 -16.5s-21.334 -6.66699 -32.001 -8s-22.667 -2 -36 -2
c-33.333 0 -59.5 8.33301 -78.5 25s-28.5 40 -28.5 70c0 25.333 7.66699 45.833 23 61.5s42 30.5 80 44.5l152 56v84c0 32.667 -5 54.834 -15 66.501s-28.667 17.5 -56 17.5c-12.667 0 -23.5 -1.33301 -32.5 -4s-17.167 -7.16699 -24.5 -13.5s-14 -14.833 -20 -25.5
s-12 -24.334 -18 -41.001c-1.33301 -4 -3.16602 -8.83301 -5.49902 -14.5s-5.16602 -12.167 -8.49902 -19.5c-36.667 4.66699 -55 18 -55 40c0 8.66699 3.16699 18 9.5 28s15.166 19.833 26.499 29.5s24.333 19 39 28s30.667 16.833 48 23.5
c15.333 5.33301 32.666 10 51.999 14s35.666 6 48.999 6c32 0 55 -7.33301 69 -22s21 -38 21 -70v-19l-10 -234v-8c0 -12 1 -22.333 3 -31s6 -16.334 12 -23.001s14.333 -12.667 25 -18s24.667 -11 42 -17v-22zM181.003 171.003
c-45.333 -18.667 -67.999 -43.333 -67.999 -74c0 -14.667 5.66699 -27.667 17 -39s24.666 -17 39.999 -17c18.667 0 44 6 76 18c3.33301 1.33301 7.5 2.83301 12.5 4.5s10.833 3.5 17.5 5.5l7 144z" />
    <glyph glyph-name="aring" unicode="&#xe5;" horiz-adv-x="448" 
d="M303 605c0 -23.333 -8 -43 -24 -59s-35.333 -24 -58 -24c-23.333 0 -43 8 -59 24s-24 35.667 -24 59s8 43 24 59s35.667 24 59 24c22.667 0 42 -8 58 -24s24 -35.667 24 -59zM384 -4c-7.33301 -1.33301 -14.665 -2.33203 -21.998 -2.99902s-14 -1 -20 -1
c-20.667 0 -35.334 3.5 -44.001 10.5s-16 20.5 -22 40.5c-15.333 -10.667 -28.666 -19.5 -39.999 -26.5s-22.333 -12.5 -33 -16.5s-21.334 -6.66699 -32.001 -8s-22.667 -2 -36 -2c-33.333 0 -59.5 8.33301 -78.5 25s-28.5 40 -28.5 70c0 25.333 7.66699 45.833 23 61.5
s42 30.5 80 44.5l152 56v84c0 32.667 -5 54.834 -15 66.501s-28.667 17.5 -56 17.5c-12.667 0 -23.5 -1.33301 -32.5 -4s-17.167 -7.16699 -24.5 -13.5s-14 -14.833 -20 -25.5s-12 -24.334 -18 -41.001c-1.33301 -4 -3.16602 -8.83301 -5.49902 -14.5
s-5.16602 -12.167 -8.49902 -19.5c-36.667 4.66699 -55 18 -55 40c0 8.66699 3.16699 18 9.5 28s15.166 19.833 26.499 29.5s24.333 19 39 28s30.667 16.833 48 23.5c15.333 5.33301 32.666 10 51.999 14s35.666 6 48.999 6c32 0 55 -7.33301 69 -22s21 -38 21 -70v-19
l-10 -234v-8c0 -12 1 -22.333 3 -31s6 -16.334 12 -23.001s14.333 -12.667 25 -18s24.667 -11 42 -17v-22zM262.001 605.001c0 11.333 -4 21 -12 29s-17.667 12 -29 12s-21.166 -4 -29.499 -12s-12.5 -17.667 -12.5 -29s4.16699 -21 12.5 -29s18.166 -12 29.499 -12
s21 4 29 12s12 17.667 12 29zM181.001 171.001c-45.333 -18.667 -67.999 -43.333 -67.999 -74c0 -14.667 5.66699 -27.667 17 -39s24.666 -17 39.999 -17c18.667 0 44 6 76 18c3.33301 1.33301 7.5 2.83301 12.5 4.5s10.833 3.5 17.5 5.5l7 144z" />
    <glyph glyph-name="ae" unicode="&#xe6;" horiz-adv-x="665" 
d="M638 343c0 -7.33301 -0.498047 -14.3311 -1.49805 -20.998s-2.83301 -16.334 -5.5 -29.001c-27.333 -6.66699 -49.5 -12.334 -66.5 -17.001l-44 -12c-12.333 -3.33301 -23.166 -6.5 -32.499 -9.5s-19.833 -6.16699 -31.5 -9.5s-25.667 -7 -42 -11l-62.5 -15v-18
c0 -22 0.833008 -39.5 2.5 -52.5s4.16699 -24.167 7.5 -33.5c6.66699 -18.667 20.167 -33.5 40.5 -44.5s43.5 -16.5 69.5 -16.5c12 0 23.5 0.5 34.5 1.5s22.167 3 33.5 6s23.666 6.66699 36.999 11s28.333 10.166 45 17.499l14 -7c-2 -6 -3.5 -10.833 -4.5 -14.5
s-2.16699 -6.16699 -3.5 -7.5c-5.33301 -8 -15.333 -16.333 -30 -25s-31.334 -16.667 -50.001 -24s-38.167 -13.333 -58.5 -18s-39.166 -7 -56.499 -7c-22 0 -43.833 4.5 -65.5 13.5s-41.5 26.167 -59.5 51.5c-20 -12.667 -37.833 -23.167 -53.5 -31.5
s-30.334 -15 -44.001 -20s-26.334 -8.66699 -38.001 -11s-23.5 -3.5 -35.5 -3.5c-32 0 -58.333 9.5 -79 28.5s-31 42.833 -31 71.5c0 56 35.667 94 107 114l152 41v73c0 36 -5.66699 61.667 -17 77s-29.666 23 -54.999 23c-30.667 0 -55.334 -11 -74.001 -33
c-4 -4.66699 -7.33301 -9 -10 -13s-5.33398 -9 -8.00098 -15s-5.5 -13.167 -8.5 -21.5s-6.5 -18.833 -10.5 -31.5c-37.333 4 -56 18.333 -56 43c0 7.33301 2.33301 15.333 7 24s10.667 16.334 18 23.001c26 23.333 56.667 41.833 92 55.5s71 20.5 107 20.5
c26.667 0 45.834 -4.66699 57.501 -14s19.167 -25.666 22.5 -48.999l7 -3c14 16 25.833 27.667 35.5 35s21.167 13.666 34.5 18.999c23.333 8.66699 49.333 13 78 13c40 0 72 -11.167 96 -33.5s36 -52.5 36 -90.5zM545.002 356.002c0 18.667 -5.67285 33.5 -17.0059 44.5
s-26.666 16.5 -45.999 16.5c-23.333 0 -43.666 -4.5 -60.999 -13.5s-31.666 -24.167 -42.999 -45.5c-7.33301 -14 -12.666 -28 -15.999 -42s-5.66602 -34.333 -6.99902 -61l124 35c22.667 6.66699 39.334 15 50.001 25s16 23.667 16 41zM296.996 77.002
c-4 12.667 -7.00195 24.1699 -9.00195 34.5029s-3.5 20.166 -4.5 29.499s-1.5 19.166 -1.5 29.499v36.5l-93 -31c-26 -8.66699 -44.5 -18.834 -55.5 -30.501s-16.5 -26.167 -16.5 -43.5c0 -15.333 5.16699 -28.5 15.5 -39.5s23.5 -16.5 39.5 -16.5c12 0 22.333 0.5 31 1.5
s17.334 2.66699 26.001 5s18.334 5.5 29.001 9.5z" />
    <glyph glyph-name="ccedilla" unicode="&#xe7;" horiz-adv-x="428" 
d="M407 363c0 -14 -4.67383 -26.167 -14.0068 -36.5s-20.666 -15.5 -33.999 -15.5c-8.66699 0 -16.167 2.5 -22.5 7.5s-10.833 11.167 -13.5 18.5l-11 35c-9.33301 29.333 -32.666 44 -69.999 44c-38 0 -68.333 -16.667 -91 -50s-34 -77.333 -34 -132
c0 -58 13 -101.667 39 -131s64 -44 114 -44c10.667 0 20.334 0.333008 29.001 1s17.167 2 25.5 4s17.333 4.5 27 7.5s20.834 6.83301 33.501 11.5l21 -10c-3.33301 -8 -6.66602 -14.5 -9.99902 -19.5s-6.66602 -9.16699 -9.99902 -12.5
c-2.66699 -2.66699 -5.5 -5.16699 -8.5 -7.5s-8 -5 -15 -8l-29 -12l-50.5 -20.5l-55 -41l55 -28c16.667 -8.66699 31.167 -20 43.5 -34s18.5 -31.667 18.5 -53c0 -28 -12.167 -49.833 -36.5 -65.5s-58.5 -23.5 -102.5 -23.5c-17.333 0 -32.5 1.16699 -45.5 3.5
s-29.833 7.16602 -50.5 14.499l-3 17c12.667 -1.33301 25 -2.33301 37 -3s21.333 -1 28 -1c34 0 60.5 5 79.5 15s28.5 23.667 28.5 41c0 11.333 -3.33301 20.5 -10 27.5s-20.667 16.167 -42 27.5l-45 24l-38 -24l-21 24l91 65v8c-54.667 5.33301 -97.334 28.333 -128.001 69
s-46 94.334 -46 161.001c0 79.333 24.333 143.333 73 192c20 20 40.167 34 60.5 42s45.833 12 76.5 12c20 0 39.333 -2.83301 58 -8.5s35.334 -13 50.001 -22s26.334 -19.667 35.001 -32s13 -24.833 13 -37.5z" />
    <glyph glyph-name="egrave" unicode="&#xe8;" horiz-adv-x="438" 
d="M289 503l-165 187l7 41h48l124 -214zM410 86c-3.33301 -12.667 -10.999 -24.8281 -22.999 -36.4951s-27 -22 -45 -31s-37.833 -16.167 -59.5 -21.5s-43.5 -8 -65.5 -8c-26 0 -49.833 5.5 -71.5 16.5s-40.167 26.167 -55.5 45.5s-27.333 42.666 -36 69.999
s-13 57.666 -13 90.999c0 39.333 5.16699 74.666 15.5 105.999s25.166 58 44.499 80s42.833 38.833 70.5 50.5s58.5 17.5 92.5 17.5c46 0 81.333 -10.833 106 -32.5s37 -52.5 37 -92.5c0 -10 -0.5 -21.333 -1.5 -34s-2.83301 -26.334 -5.5 -41.001h-283v-26
c0 -56.667 13 -100.834 39 -132.501s62.333 -47.5 109 -47.5c9.33301 0 18 0.5 26 1.5s16.667 2.5 26 4.5s19.833 5 31.5 9s25.5 9 41.5 15zM331.001 345.006c0 21.333 -8.16699 39.332 -24.5 53.999s-36.5 22 -60.5 22c-28 0 -52.5 -9.66699 -73.5 -29
s-37.167 -47.666 -48.5 -84.999h193l14 17v21z" />
    <glyph glyph-name="eacute" unicode="&#xe9;" horiz-adv-x="438" 
d="M235 503l-14 14l124 214h48l7 -41zM410 86c-3.33301 -12.667 -10.999 -24.8281 -22.999 -36.4951s-27 -22 -45 -31s-37.833 -16.167 -59.5 -21.5s-43.5 -8 -65.5 -8c-26 0 -49.833 5.5 -71.5 16.5s-40.167 26.167 -55.5 45.5s-27.333 42.666 -36 69.999
s-13 57.666 -13 90.999c0 39.333 5.16699 74.666 15.5 105.999s25.166 58 44.499 80s42.833 38.833 70.5 50.5s58.5 17.5 92.5 17.5c46 0 81.333 -10.833 106 -32.5s37 -52.5 37 -92.5c0 -10 -0.5 -21.333 -1.5 -34s-2.83301 -26.334 -5.5 -41.001h-283v-26
c0 -56.667 13 -100.834 39 -132.501s62.333 -47.5 109 -47.5c9.33301 0 18 0.5 26 1.5s16.667 2.5 26 4.5s19.833 5 31.5 9s25.5 9 41.5 15zM331.001 345.006c0 21.333 -8.16699 39.332 -24.5 53.999s-36.5 22 -60.5 22c-28 0 -52.5 -9.66699 -73.5 -29
s-37.167 -47.666 -48.5 -84.999h193l14 17v21z" />
    <glyph glyph-name="ecircumflex" unicode="&#xea;" horiz-adv-x="438" 
d="M379 510l-117 118l-138 -118l-14 14l152 193h17l118 -193zM410 86c-3.33301 -12.667 -10.999 -24.8281 -22.999 -36.4951s-27 -22 -45 -31s-37.833 -16.167 -59.5 -21.5s-43.5 -8 -65.5 -8c-26 0 -49.833 5.5 -71.5 16.5s-40.167 26.167 -55.5 45.5
s-27.333 42.666 -36 69.999s-13 57.666 -13 90.999c0 39.333 5.16699 74.666 15.5 105.999s25.166 58 44.499 80s42.833 38.833 70.5 50.5s58.5 17.5 92.5 17.5c46 0 81.333 -10.833 106 -32.5s37 -52.5 37 -92.5c0 -10 -0.5 -21.333 -1.5 -34
s-2.83301 -26.334 -5.5 -41.001h-283v-26c0 -56.667 13 -100.834 39 -132.501s62.333 -47.5 109 -47.5c9.33301 0 18 0.5 26 1.5s16.667 2.5 26 4.5s19.833 5 31.5 9s25.5 9 41.5 15zM331.001 345.006c0 21.333 -8.16699 39.332 -24.5 53.999s-36.5 22 -60.5 22
c-28 0 -52.5 -9.66699 -73.5 -29s-37.167 -47.666 -48.5 -84.999h193l14 17v21z" />
    <glyph glyph-name="edieresis" unicode="&#xeb;" horiz-adv-x="438" 
d="M390 601c0 -18 -4.83203 -33.499 -14.499 -46.499s-21.167 -19.5 -34.5 -19.5c-14.667 0 -26.667 6.66699 -36 20s-13.333 28.666 -12 45.999c1.33301 14.667 6.66602 27 15.999 37s20 15 32 15c13.333 0 24.833 -5.16699 34.5 -15.5s14.5 -22.5 14.5 -36.5z
M228.001 601.001c0 -18 -4.83203 -33.499 -14.499 -46.499s-21.167 -19.5 -34.5 -19.5c-14.667 0 -26.667 6.66699 -36 20s-13.333 28.666 -12 45.999c1.33301 14.667 6.66602 27 15.999 37s20 15 32 15c13.333 0 24.833 -5.16699 34.5 -15.5s14.5 -22.5 14.5 -36.5z
M410.002 86.002c-3.33301 -12.667 -10.999 -24.8281 -22.999 -36.4951s-27 -22 -45 -31s-37.833 -16.167 -59.5 -21.5s-43.5 -8 -65.5 -8c-26 0 -49.833 5.5 -71.5 16.5s-40.167 26.167 -55.5 45.5s-27.333 42.666 -36 69.999s-13 57.666 -13 90.999
c0 39.333 5.16699 74.666 15.5 105.999s25.166 58 44.499 80s42.833 38.833 70.5 50.5s58.5 17.5 92.5 17.5c46 0 81.333 -10.833 106 -32.5s37 -52.5 37 -92.5c0 -10 -0.5 -21.333 -1.5 -34s-2.83301 -26.334 -5.5 -41.001h-283v-26c0 -56.667 13 -100.834 39 -132.501
s62.333 -47.5 109 -47.5c9.33301 0 18 0.5 26 1.5s16.667 2.5 26 4.5s19.833 5 31.5 9s25.5 9 41.5 15zM331.003 345.008c0 21.333 -8.16699 39.332 -24.5 53.999s-36.5 22 -60.5 22c-28 0 -52.5 -9.66699 -73.5 -29s-37.167 -47.666 -48.5 -84.999h193l14 17v21z" />
    <glyph glyph-name="igrave" unicode="&#xec;" horiz-adv-x="269" 
d="M227 503l-165 187l7 41h48l124 -214zM28 0l-0.000976562 23.999c14 2 25.167 5 33.5 9s15 9.83301 20 17.5s8.5 17.834 10.5 30.501s3.66699 29.334 5 50.001l6 166c0.666992 2.66699 1 5.33398 1 8.00098v8c0 17.333 -0.666992 31.833 -2 43.5s-3.83301 21.667 -7.5 30
s-8.66699 15.166 -15 20.499s-14.5 10 -24.5 14v20l119 28l13 -14l-8 -130v-194c0 -35.333 2.33301 -59.333 7 -72c6.66699 -16.667 27.334 -28.334 62.001 -35.001v-24h-220z" />
    <glyph glyph-name="iacute" unicode="&#xed;" horiz-adv-x="269" 
d="M131 503l-14 14l124 214h48l7 -41zM28 0l-0.000976562 23.999c14 2 25.167 5 33.5 9s15 9.83301 20 17.5s8.5 17.834 10.5 30.501s3.66699 29.334 5 50.001l6 166c0.666992 2.66699 1 5.33398 1 8.00098v8c0 17.333 -0.666992 31.833 -2 43.5s-3.83301 21.667 -7.5 30
s-8.66699 15.166 -15 20.499s-14.5 10 -24.5 14v20l119 28l13 -14l-8 -130v-194c0 -35.333 2.33301 -59.333 7 -72c6.66699 -16.667 27.334 -28.334 62.001 -35.001v-24h-220z" />
    <glyph glyph-name="icircumflex" unicode="&#xee;" horiz-adv-x="269" 
d="M269 510l-117 118l-138 -118l-14 14l152 193h17l117 -193zM28 0l-0.000976562 23.999c14 2 25.167 5 33.5 9s15 9.83301 20 17.5s8.5 17.834 10.5 30.501s3.66699 29.334 5 50.001l6 166c0.666992 2.66699 1 5.33398 1 8.00098v8c0 17.333 -0.666992 31.833 -2 43.5
s-3.83301 21.667 -7.5 30s-8.66699 15.166 -15 20.499s-14.5 10 -24.5 14v20l119 28l13 -14l-8 -130v-194c0 -35.333 2.33301 -59.333 7 -72c6.66699 -16.667 27.334 -28.334 62.001 -35.001v-24h-220z" />
    <glyph glyph-name="idieresis" unicode="&#xef;" horiz-adv-x="269" 
d="M273 601c0 -18 -4.83203 -33.499 -14.499 -46.499s-21.167 -19.5 -34.5 -19.5c-14.667 0 -26.667 6.66699 -36 20s-13.333 28.666 -12 45.999c1.33301 14.667 6.66602 27 15.999 37s20 15 32 15c13.333 0 24.833 -5.16699 34.5 -15.5s14.5 -22.5 14.5 -36.5z
M111.001 601.001c0 -18 -4.83203 -33.499 -14.499 -46.499s-21.167 -19.5 -34.5 -19.5c-14.667 0 -26.667 6.66699 -36 20s-13.333 28.666 -12 45.999c1.33301 14.667 6.66602 27 15.999 37s20 15 32 15c13.333 0 24.833 -5.16699 34.5 -15.5s14.5 -22.5 14.5 -36.5z
M28.002 0.00195312l-0.000976562 23.999c14 2 25.167 5 33.5 9s15 9.83301 20 17.5s8.5 17.834 10.5 30.501s3.66699 29.334 5 50.001l6 166c0.666992 2.66699 1 5.33398 1 8.00098v8c0 17.333 -0.666992 31.833 -2 43.5s-3.83301 21.667 -7.5 30
s-8.66699 15.166 -15 20.499s-14.5 10 -24.5 14v20l119 28l13 -14l-8 -130v-194c0 -35.333 2.33301 -59.333 7 -72c6.66699 -16.667 27.334 -28.334 62.001 -35.001v-24h-220z" />
    <glyph glyph-name="ntilde" unicode="&#xf1;" horiz-adv-x="545" 
d="M393 539l-28.002 0.000976562c-6.66699 0 -18 3.66699 -34 11s-36.667 17.666 -62 30.999c-17.333 10 -32.666 15 -45.999 15c-11.333 0 -24.5 -4.83301 -39.5 -14.5s-34.833 -26.167 -59.5 -49.5l-21 14l97 117h28c6.66699 0 37.667 -16 93 -48
c16.667 -9.33301 31.667 -14 45 -14c12.667 0 25.834 4.5 39.501 13.5s32.5 25.167 56.5 48.5l21 -13zM302.998 0.000976562l-0.00292969 23.9971c14 2 25.167 5 33.5 9s15 9.83301 20 17.5s8.66699 17.834 11 30.501s3.83301 29.334 4.5 50.001l7 166v6
c0 31.333 -7.33301 55.833 -22 73.5s-34.667 26.5 -60 26.5c-8.66699 0 -16.834 -0.5 -24.501 -1.5s-16 -2.83301 -25 -5.5s-19 -6.5 -30 -11.5s-23.833 -11.167 -38.5 -18.5v-235c0 -35.333 2.33301 -59.333 7 -72c6.66699 -16.667 27.334 -28.334 62.001 -35.001v-24h-214
v24c12.667 3.33301 22.834 7 30.501 11s13.834 9.83301 18.501 17.5s7.83398 17.667 9.50098 30s3.16699 28.5 4.5 48.5l6 166c0.666992 2.66699 1 7.33398 1 14.001c0 16.667 -0.833008 30.834 -2.5 42.501s-4.66699 21.667 -9 30s-10.166 15.333 -17.499 21
s-16.333 11.167 -27 16.5v20l121 31l10 -6v-69c22 14 41.167 25.5 57.5 34.5s31.166 16.333 44.499 22s25.833 9.66699 37.5 12s23.5 3.5 35.5 3.5c13.333 0 27 -2.66699 41 -8s25 -12 33 -20c18 -18 27 -50 27 -96v-214c0 -20 0.666992 -36.167 2 -48.5s4 -22 8 -29
s10.167 -12.667 18.5 -17s19.5 -8.5 33.5 -12.5v-24h-214z" />
    <glyph glyph-name="ograve" unicode="&#xf2;" horiz-adv-x="517" 
d="M310 503l-165 187l7 41h48l124 -214zM476 254c0 -41.333 -5.5 -78.666 -16.5 -111.999s-27 -61.5 -48 -84.5s-46.5 -40.667 -76.5 -53s-63.667 -18.5 -101 -18.5c-62 0 -109.667 18.833 -143 56.5s-50 91.5 -50 161.5c0 41.333 5.66699 78.666 17 111.999
s27.5 61.5 48.5 84.5s46.333 40.667 76 53s63.167 18.5 100.5 18.5c62 0 109.667 -18.667 143 -56s50 -91.333 50 -162zM386 223c0 30 -3.16797 57.834 -9.50098 83.501s-15.333 47.667 -27 66s-25.5 32.666 -41.5 42.999s-33.333 15.5 -52 15.5
c-18 0 -34.667 -4.83301 -50 -14.5s-28.5 -23 -39.5 -40s-19.667 -37.333 -26 -61s-9.5 -49.5 -9.5 -77.5c0 -30.667 3.16699 -59 9.5 -85s15.333 -48.333 27 -67s25.334 -33.167 41.001 -43.5s33.167 -15.5 52.5 -15.5c18 0 34.667 4.83301 50 14.5s28.5 23.167 39.5 40.5
s19.667 38 26 62s9.5 50.333 9.5 79z" />
    <glyph glyph-name="oacute" unicode="&#xf3;" horiz-adv-x="517" 
d="M243 503l-14 14l124 214h48l7 -41zM476 254c0 -41.333 -5.5 -78.666 -16.5 -111.999s-27 -61.5 -48 -84.5s-46.5 -40.667 -76.5 -53s-63.667 -18.5 -101 -18.5c-62 0 -109.667 18.833 -143 56.5s-50 91.5 -50 161.5c0 41.333 5.66699 78.666 17 111.999
s27.5 61.5 48.5 84.5s46.333 40.667 76 53s63.167 18.5 100.5 18.5c62 0 109.667 -18.667 143 -56s50 -91.333 50 -162zM386 223c0 30 -3.16797 57.834 -9.50098 83.501s-15.333 47.667 -27 66s-25.5 32.666 -41.5 42.999s-33.333 15.5 -52 15.5
c-18 0 -34.667 -4.83301 -50 -14.5s-28.5 -23 -39.5 -40s-19.667 -37.333 -26 -61s-9.5 -49.5 -9.5 -77.5c0 -30.667 3.16699 -59 9.5 -85s15.333 -48.333 27 -67s25.334 -33.167 41.001 -43.5s33.167 -15.5 52.5 -15.5c18 0 34.667 4.83301 50 14.5s28.5 23.167 39.5 40.5
s19.667 38 26 62s9.5 50.333 9.5 79z" />
    <glyph glyph-name="ocircumflex" unicode="&#xf4;" horiz-adv-x="517" 
d="M393 510l-117 118l-138 -118l-14 14l152 193h17l117 -193zM476 254c0 -41.333 -5.5 -78.666 -16.5 -111.999s-27 -61.5 -48 -84.5s-46.5 -40.667 -76.5 -53s-63.667 -18.5 -101 -18.5c-62 0 -109.667 18.833 -143 56.5s-50 91.5 -50 161.5
c0 41.333 5.66699 78.666 17 111.999s27.5 61.5 48.5 84.5s46.333 40.667 76 53s63.167 18.5 100.5 18.5c62 0 109.667 -18.667 143 -56s50 -91.333 50 -162zM386 223c0 30 -3.16797 57.834 -9.50098 83.501s-15.333 47.667 -27 66s-25.5 32.666 -41.5 42.999
s-33.333 15.5 -52 15.5c-18 0 -34.667 -4.83301 -50 -14.5s-28.5 -23 -39.5 -40s-19.667 -37.333 -26 -61s-9.5 -49.5 -9.5 -77.5c0 -30.667 3.16699 -59 9.5 -85s15.333 -48.333 27 -67s25.334 -33.167 41.001 -43.5s33.167 -15.5 52.5 -15.5c18 0 34.667 4.83301 50 14.5
s28.5 23.167 39.5 40.5s19.667 38 26 62s9.5 50.333 9.5 79z" />
    <glyph glyph-name="otilde" unicode="&#xf5;" horiz-adv-x="517" 
d="M386 549l-27.002 0.000976562c-7.33301 0 -19 3.66699 -35 11s-36.667 17.666 -62 30.999c-17.333 10 -32.333 15 -45 15c-12 0 -25.5 -4.83301 -40.5 -14.5s-34.833 -26.167 -59.5 -49.5l-20 14l96 117h28c6.66699 0 38 -16 94 -48
c16.667 -9.33301 31.334 -14 44.001 -14s25.834 4.5 39.501 13.5s32.5 25.167 56.5 48.5l21 -13zM475.998 254.001c0 -41.333 -5.5 -78.666 -16.5 -111.999s-27 -61.5 -48 -84.5s-46.5 -40.667 -76.5 -53s-63.667 -18.5 -101 -18.5c-62 0 -109.667 18.833 -143 56.5
s-50 91.5 -50 161.5c0 41.333 5.66699 78.666 17 111.999s27.5 61.5 48.5 84.5s46.333 40.667 76 53s63.167 18.5 100.5 18.5c62 0 109.667 -18.667 143 -56s50 -91.333 50 -162zM385.998 223.001c0 30 -3.16797 57.834 -9.50098 83.501s-15.333 47.667 -27 66
s-25.5 32.666 -41.5 42.999s-33.333 15.5 -52 15.5c-18 0 -34.667 -4.83301 -50 -14.5s-28.5 -23 -39.5 -40s-19.667 -37.333 -26 -61s-9.5 -49.5 -9.5 -77.5c0 -30.667 3.16699 -59 9.5 -85s15.333 -48.333 27 -67s25.334 -33.167 41.001 -43.5s33.167 -15.5 52.5 -15.5
c18 0 34.667 4.83301 50 14.5s28.5 23.167 39.5 40.5s19.667 38 26 62s9.5 50.333 9.5 79z" />
    <glyph glyph-name="odieresis" unicode="&#xf6;" horiz-adv-x="517" 
d="M390 601c0 -18 -4.83203 -33.499 -14.499 -46.499s-21.167 -19.5 -34.5 -19.5c-14.667 0 -26.667 6.66699 -36 20s-13.333 28.666 -12 45.999c1.33301 14.667 6.66602 27 15.999 37s20 15 32 15c13.333 0 24.833 -5.16699 34.5 -15.5s14.5 -22.5 14.5 -36.5z
M228.001 601.001c0 -18 -4.83203 -33.499 -14.499 -46.499s-21.167 -19.5 -34.5 -19.5c-14.667 0 -26.667 6.66699 -36 20s-13.333 28.666 -12 45.999c1.33301 14.667 6.66602 27 15.999 37s20 15 32 15c13.333 0 24.833 -5.16699 34.5 -15.5s14.5 -22.5 14.5 -36.5z
M476.002 254.002c0 -41.333 -5.5 -78.666 -16.5 -111.999s-27 -61.5 -48 -84.5s-46.5 -40.667 -76.5 -53s-63.667 -18.5 -101 -18.5c-62 0 -109.667 18.833 -143 56.5s-50 91.5 -50 161.5c0 41.333 5.66699 78.666 17 111.999s27.5 61.5 48.5 84.5s46.333 40.667 76 53
s63.167 18.5 100.5 18.5c62 0 109.667 -18.667 143 -56s50 -91.333 50 -162zM386.002 223.002c0 30 -3.16797 57.834 -9.50098 83.501s-15.333 47.667 -27 66s-25.5 32.666 -41.5 42.999s-33.333 15.5 -52 15.5c-18 0 -34.667 -4.83301 -50 -14.5s-28.5 -23 -39.5 -40
s-19.667 -37.333 -26 -61s-9.5 -49.5 -9.5 -77.5c0 -30.667 3.16699 -59 9.5 -85s15.333 -48.333 27 -67s25.334 -33.167 41.001 -43.5s33.167 -15.5 52.5 -15.5c18 0 34.667 4.83301 50 14.5s28.5 23.167 39.5 40.5s19.667 38 26 62s9.5 50.333 9.5 79z" />
    <glyph glyph-name="divide" unicode="&#xf7;" horiz-adv-x="560" 
d="M354 411c0 -18 -6.66699 -33.501 -20 -46.501s-29.333 -19.5 -48 -19.5c-17.333 0 -32.166 6.33301 -44.499 19s-18.5 28 -18.5 46c0 18.667 6.5 34.334 19.5 47.001s29.167 19 48.5 19c17.333 0 32.166 -6.33301 44.499 -19s18.5 -28 18.5 -46zM406 207.999h-249
l-124 -7l14 72l319 -3l171 3v-72zM354 51.999c0 -18 -6.66699 -33.501 -20 -46.501s-29.333 -19.5 -48 -19.5c-17.333 0 -32.166 6.33301 -44.499 19s-18.5 28 -18.5 46c0 18.667 6.5 34.334 19.5 47.001s29.167 19 48.5 19c17.333 0 32.166 -6.33301 44.499 -19
s18.5 -28 18.5 -46z" />
    <glyph glyph-name="oslash" unicode="&#xf8;" horiz-adv-x="517" 
d="M476 254c0 -41.333 -5.49902 -78.666 -16.499 -111.999s-27 -61.5 -48 -84.5s-46.5 -40.667 -76.5 -53s-63.667 -18.5 -101 -18.5h-6l-17 -93l-40 14c2 16 4.33301 30 7 42l5.5 28.5c1.66699 8.33301 2.5 12.833 2.5 13.5c-46.667 9.33301 -82.834 32 -108.501 68
s-38.5 84.333 -38.5 145c0 40.667 5.5 77.167 16.5 109.5s26.667 60 47 83s44.833 41 73.5 54s61 20.167 97 21.5l16 88l40 -17l-13 -73c51.333 -6.66699 90.833 -28.334 118.5 -65.001s41.5 -87 41.5 -151zM266.001 430c-2.66699 0.666992 -6.00098 1 -10.001 1
c-18 0 -34.833 -4.83301 -50.5 -14.5s-29.167 -23 -40.5 -40s-20.166 -37.333 -26.499 -61s-9.5 -49.5 -9.5 -77.5c0 -42 6.16699 -79.333 18.5 -112s28.833 -57.667 49.5 -75zM386 223c0 46 -7.16699 86.167 -21.5 120.5s-33.833 58.833 -58.5 73.5l-70 -387
c8 -2 16.333 -3 25 -3c18 0 34.667 4.83301 50 14.5s28.5 23.167 39.5 40.5s19.667 38 26 62s9.5 50.333 9.5 79z" />
    <glyph glyph-name="ugrave" unicode="&#xf9;" horiz-adv-x="521" 
d="M317 503l-165 187l7 41h48l124 -214zM372 -21l-27.001 14.0029l7 55c-31.333 -24 -57.333 -40.333 -78 -49s-42.667 -13 -66 -13c-36.667 0 -65.5 12.333 -86.5 37s-31.5 58.334 -31.5 101.001v214c0 27.333 -4 47.166 -12 59.499s-22.667 21.166 -44 26.499v24l135 18
l-3 -259l-1 -11c0 -18.667 0.333008 -34.334 1 -47.001s1.83398 -23.5 3.50098 -32.5s3.83398 -16.667 6.50098 -23s6 -12.166 10 -17.499c7.33301 -9.33301 17.666 -16.833 30.999 -22.5s27.666 -8.5 42.999 -8.5c14.667 0 28.334 2.16699 41.001 6.5s29.667 12.5 51 24.5
l7 255c0 14 -1.16699 25.833 -3.5 35.5s-6.33301 18 -12 25s-13.334 13 -23.001 18s-22.167 9.83301 -37.5 14.5v24l151 18l-6 -342c0 -16 0.833008 -29.333 2.5 -40s4.83398 -19.334 9.50098 -26.001s11 -11.834 19 -15.501s18.333 -6.5 31 -8.5v-20z" />
    <glyph glyph-name="uacute" unicode="&#xfa;" horiz-adv-x="523" 
d="M228 503l-14 14l124 214h48l7 -41zM372 -21l-27.001 14.0029l7 55c-31.333 -24 -57.333 -40.333 -78 -49s-42.667 -13 -66 -13c-36.667 0 -65.5 12.333 -86.5 37s-31.5 58.334 -31.5 101.001v214c0 27.333 -4 47.166 -12 59.499s-22.667 21.166 -44 26.499v24l135 18
l-3 -259l-1 -11c0 -18.667 0.333008 -34.334 1 -47.001s1.83398 -23.5 3.50098 -32.5s3.83398 -16.667 6.50098 -23s6 -12.166 10 -17.499c7.33301 -9.33301 17.666 -16.833 30.999 -22.5s27.666 -8.5 42.999 -8.5c14.667 0 28.334 2.16699 41.001 6.5s29.667 12.5 51 24.5
l7 255c0 14 -1.16699 25.833 -3.5 35.5s-6.33301 18 -12 25s-13.334 13 -23.001 18s-22.167 9.83301 -37.5 14.5v24l151 18l-6 -342c0 -16 0.833008 -29.333 2.5 -40s4.83398 -19.334 9.50098 -26.001s11 -11.834 19 -15.501s18.333 -6.5 31 -8.5v-20z" />
    <glyph glyph-name="ucircumflex" unicode="&#xfb;" horiz-adv-x="521" 
d="M379 510l-117 118l-138 -118l-14 14l152 193h17l118 -193zM372 -21l-27.001 14.0029l7 55c-31.333 -24 -57.333 -40.333 -78 -49s-42.667 -13 -66 -13c-36.667 0 -65.5 12.333 -86.5 37s-31.5 58.334 -31.5 101.001v214c0 27.333 -4 47.166 -12 59.499
s-22.667 21.166 -44 26.499v24l135 18l-3 -259l-1 -11c0 -18.667 0.333008 -34.334 1 -47.001s1.83398 -23.5 3.50098 -32.5s3.83398 -16.667 6.50098 -23s6 -12.166 10 -17.499c7.33301 -9.33301 17.666 -16.833 30.999 -22.5s27.666 -8.5 42.999 -8.5
c14.667 0 28.334 2.16699 41.001 6.5s29.667 12.5 51 24.5l7 255c0 14 -1.16699 25.833 -3.5 35.5s-6.33301 18 -12 25s-13.334 13 -23.001 18s-22.167 9.83301 -37.5 14.5v24l151 18l-6 -342c0 -16 0.833008 -29.333 2.5 -40s4.83398 -19.334 9.50098 -26.001
s11 -11.834 19 -15.501s18.333 -6.5 31 -8.5v-20z" />
    <glyph glyph-name="udieresis" unicode="&#xfc;" horiz-adv-x="521" 
d="M404 601c0 -18 -4.83203 -33.499 -14.499 -46.499s-21.167 -19.5 -34.5 -19.5c-14.667 0 -26.667 6.66699 -36 20s-13.333 28.666 -12 45.999c1.33301 14.667 6.66602 27 15.999 37s20 15 32 15c13.333 0 24.833 -5.16699 34.5 -15.5s14.5 -22.5 14.5 -36.5z
M242.001 601.001c0 -18 -4.83203 -33.499 -14.499 -46.499s-21.167 -19.5 -34.5 -19.5c-14.667 0 -26.667 6.66699 -36 20s-13.333 28.666 -12 45.999c1.33301 14.667 6.66602 27 15.999 37s20 15 32 15c13.333 0 24.833 -5.16699 34.5 -15.5s14.5 -22.5 14.5 -36.5z
M372.002 -20.998l-27.001 14.0029l7 55c-31.333 -24 -57.333 -40.333 -78 -49s-42.667 -13 -66 -13c-36.667 0 -65.5 12.333 -86.5 37s-31.5 58.334 -31.5 101.001v214c0 27.333 -4 47.166 -12 59.499s-22.667 21.166 -44 26.499v24l135 18l-3 -259l-1 -11
c0 -18.667 0.333008 -34.334 1 -47.001s1.83398 -23.5 3.50098 -32.5s3.83398 -16.667 6.50098 -23s6 -12.166 10 -17.499c7.33301 -9.33301 17.666 -16.833 30.999 -22.5s27.666 -8.5 42.999 -8.5c14.667 0 28.334 2.16699 41.001 6.5s29.667 12.5 51 24.5l7 255
c0 14 -1.16699 25.833 -3.5 35.5s-6.33301 18 -12 25s-13.334 13 -23.001 18s-22.167 9.83301 -37.5 14.5v24l151 18l-6 -342c0 -16 0.833008 -29.333 2.5 -40s4.83398 -19.334 9.50098 -26.001s11 -11.834 19 -15.501s18.333 -6.5 31 -8.5v-20z" />
    <glyph glyph-name="ydieresis" unicode="&#xff;" horiz-adv-x="407" 
d="M362 601c0 -18 -4.83203 -33.499 -14.499 -46.499s-21.167 -19.5 -34.5 -19.5c-14.667 0 -26.667 6.66699 -36 20s-13.333 28.666 -12 45.999c1.33301 14.667 6.66602 27 15.999 37s20 15 32 15c13.333 0 24.833 -5.16699 34.5 -15.5s14.5 -22.5 14.5 -36.5z
M200.001 601.001c0 -18 -4.83203 -33.499 -14.499 -46.499s-21.167 -19.5 -34.5 -19.5c-14.667 0 -26.667 6.66699 -36 20s-13.333 28.666 -12 45.999c1.33301 14.667 6.66602 27 15.999 37s20 15 32 15c13.333 0 24.833 -5.16699 34.5 -15.5s14.5 -22.5 14.5 -36.5z
M421.002 438.002c-8 -3.33301 -12.668 -5.66309 -14.001 -6.99609c-17.333 -11.333 -33.333 -35.333 -48 -72l-207 -497c-11.333 -26.667 -24 -46 -38 -58s-30.667 -18 -50 -18c-33.333 0 -50 13.667 -50 41c0 21.333 13.667 37.666 41 48.999l35 14
c12 5.33301 24.5 16 37.5 32s28.5 40.333 46.5 73l-133 391c-4.66699 14.667 -10.334 25.667 -17.001 33s-17 13.666 -31 18.999v17h186v-17c-3.33301 -1.33301 -6.66602 -2.5 -9.99902 -3.5s-6.66602 -2.16699 -9.99902 -3.5c-23.333 -8 -35 -20.667 -35 -38
c0 -10.667 2.33301 -22 7 -34l84 -255l82 234c8.66699 25.333 13 44 13 56c0 11.333 -4.33301 20.166 -13 26.499s-25 12.166 -49 17.499v17h173v-17z" />
    <glyph glyph-name="dotlessi" unicode="&#x131;" horiz-adv-x="269" 
d="M28 0l-0.000976562 23.999c14 2 25.167 5 33.5 9s15 9.83301 20 17.5s8.5 17.834 10.5 30.501s3.66699 29.334 5 50.001l6 166c0.666992 2.66699 1 5.33398 1 8.00098v8c0 17.333 -0.666992 31.833 -2 43.5s-3.83301 21.667 -7.5 30s-8.66699 15.166 -15 20.499
s-14.5 10 -24.5 14v20l119 28l13 -14l-8 -130v-194c0 -35.333 2.33301 -59.333 7 -72c6.66699 -16.667 27.334 -28.334 62.001 -35.001v-24h-220z" />
    <glyph glyph-name="OE" unicode="&#x152;" horiz-adv-x="888" 
d="M799 0l-343.001 -0.998047c-23.333 -4 -47.166 -7.33301 -71.499 -10s-43.166 -4 -56.499 -4c-40.667 0 -78.834 8.83301 -114.501 26.5s-66.834 41.834 -93.501 72.501s-47.667 66.667 -63 108s-23 85.666 -23 132.999c0 46 7.66699 89.167 23 129.5
s36.5 75.333 63.5 105s58.5 53 94.5 70s75 25.5 117 25.5c21.333 0 49 -3 83 -9l14 -2c4.66699 -0.666992 9.66699 -1.66699 15 -3h350l6 -144l-20 -7c-8 22.667 -15.833 39.667 -23.5 51s-18.834 22.333 -33.501 33c-15.333 10.667 -34.666 18.334 -57.999 23.001
s-55.333 7.66699 -96 9l-24 1v-255h14c25.333 0 46.166 0.166992 62.499 0.5s30 1.16602 41 2.49902s19.833 3.16602 26.5 5.49902s12.667 5.16602 18 8.49902c8.66699 5.33301 15.5 12 20.5 20s10.833 21 17.5 39h14v-194h-14c-6.66699 19.333 -13.167 34.5 -19.5 45.5
s-16.166 19.167 -29.499 24.5s-31.833 8.83301 -55.5 10.5s-55.5 2.5 -95.5 2.5v-179c0 -15.333 0.333008 -27.833 1 -37.5s2 -17.667 4 -24s4.66699 -11.333 8 -15s8 -6.83398 14 -9.50098c6.66699 -3.33301 16.334 -6.16602 29.001 -8.49902s25 -3.5 37 -3.5
c22 0 44.333 4.66699 67 14c10 4.66699 19 9.5 27 14.5s15.5 11 22.5 18s14 15.333 21 25s14.5 21.167 22.5 34.5l18 29l16 -5zM461.999 480.002c0 16 -0.666016 32.001 -1.99902 48.001s-5.33301 30.667 -12 44c-7.33301 14.667 -19.833 25.834 -37.5 33.501
s-37.834 11.5 -60.501 11.5c-34.667 0 -65.167 -7 -91.5 -21s-48.5 -33.667 -66.5 -59s-31.5 -55.833 -40.5 -91.5s-13.5 -74.834 -13.5 -117.501c0 -43.333 5.66699 -83.333 17 -120s27 -68.167 47 -94.5s43.667 -47 71 -62s57 -22.5 89 -22.5c34.667 0 60 7.16699 76 21.5
s24 39.166 24 74.499v355z" />
    <glyph glyph-name="oe" unicode="&#x153;" horiz-adv-x="783" 
d="M759 83c-5.33301 -14 -13.833 -26.666 -25.5 -37.999s-25.667 -21 -42 -29s-34.833 -14.333 -55.5 -19s-42.334 -7 -65.001 -7c-16 0 -30.167 1 -42.5 3s-23.833 5.66699 -34.5 11s-21.167 12.666 -31.5 21.999s-21.833 21.333 -34.5 36l-7 10l-19 -21.5
c-5.33301 -6.33301 -10.666 -11.833 -15.999 -16.5c-16.667 -15.333 -38.334 -27.166 -65.001 -35.499s-55.667 -12.5 -87 -12.5c-62 0 -109.667 18.833 -143 56.5s-50 91.5 -50 161.5c0 42 5.66699 79.5 17 112.5s27.5 61 48.5 84s46.667 40.667 77 53
s64.5 18.5 102.5 18.5c31.333 0 58 -4.33301 80 -13c12.667 -5.33301 24.167 -13 34.5 -23s22.833 -25.333 37.5 -46l24 24c38 34.667 87 52 147 52c45.333 0 80.5 -10.833 105.5 -32.5s37.5 -52.5 37.5 -92.5c0 -10 -0.666992 -21.333 -2 -34s-3 -26.334 -5 -41.001h-283
v-26c0 -118.667 50.333 -178 151 -178c10 0 19.333 0.333008 28 1s17.834 2 27.501 4s20 4.5 31 7.5s23.833 6.83301 38.5 11.5zM676 345.001c0 10.667 -2.16602 20.499 -6.49902 29.499s-10.333 17 -18 24s-16.667 12.5 -27 16.5s-21.5 6 -33.5 6
c-28.667 0 -53.334 -9.66699 -74.001 -29s-36.667 -47.666 -48 -84.999h193l14 17v21zM386.001 223c0 30 -3.16797 57.834 -9.50098 83.501s-15.333 47.667 -27 66s-25.5 32.666 -41.5 42.999s-33.333 15.5 -52 15.5c-18 0 -34.667 -4.83301 -50 -14.5s-28.5 -23 -39.5 -40
s-19.667 -37.333 -26 -61s-9.5 -49.5 -9.5 -77.5c0 -30.667 3.16699 -59 9.5 -85s15.333 -48.333 27 -67s25.334 -33.167 41.001 -43.5s33.167 -15.5 52.5 -15.5c18 0 34.667 4.83301 50 14.5s28.5 23.167 39.5 40.5s19.667 38 26 62s9.5 50.333 9.5 79z" />
    <glyph glyph-name="Ydieresis" unicode="&#x178;" horiz-adv-x="510" 
d="M397 751c0 -18 -4.83203 -33.499 -14.499 -46.499s-21.167 -19.5 -34.5 -19.5c-14.667 0 -26.667 6.66699 -36 20s-13.333 28.666 -12 45.999c1.33301 14.667 6.66602 27 15.999 37s20 15 32 15c13.333 0 24.833 -5.16699 34.5 -15.5s14.5 -22.5 14.5 -36.5z
M235.001 751.001c0 -18 -4.83203 -33.499 -14.499 -46.499s-21.167 -19.5 -34.5 -19.5c-14.667 0 -26.667 6.66699 -36 20s-13.333 28.666 -12 45.999c1.33301 14.667 6.66602 27 15.999 37s20 15 32 15c13.333 0 24.833 -5.16699 34.5 -15.5s14.5 -22.5 14.5 -36.5z
M517.002 621.002l-33.999 -18.9971c-9.33301 -5.33301 -16.333 -10.666 -21 -15.999c-8.66699 -10 -22.334 -33 -41.001 -69l-97 -186c-12 -23.333 -20.667 -46.5 -26 -69.5s-8 -48.167 -8 -75.5v-55c0 -34 9.16699 -59.167 27.5 -75.5s50.5 -27.833 96.5 -34.5v-21h-324v21
c43.333 7.33301 73.666 19.166 90.999 35.499s26 41.166 26 74.499v55c0 23.333 -2.16699 45.166 -6.5 65.499s-10.166 38.833 -17.499 55.5l-107 224l-19.5 38.5c-5 9.66699 -10 17.5 -15 23.5s-10.667 10.833 -17 14.5s-14.5 8.16699 -24.5 13.5v20h193v-20
c-18 -3.33301 -30.5 -8 -37.5 -14s-10.5 -14.667 -10.5 -26c0 -10.667 2.33301 -20.334 7 -29.001l117 -249l76 166c22.667 49.333 34 82 34 98c0 26.667 -23 44.667 -69 54v20h207v-20z" />
    <glyph glyph-name="florin" unicode="&#x192;" 
d="M583 650c0 -18 -17.332 -33.6631 -51.999 -46.9961l-14.5 21.5c-4.33301 6.33301 -8.83301 11.833 -13.5 16.5c-10 12 -22.667 21.333 -38 28s-31 10 -47 10c-43.333 0 -74.333 -15.833 -93 -47.5s-28 -84.834 -28 -159.501v-58h124v-48h-124v-232
c0 -31.333 -1 -59.333 -3 -84s-5.33301 -47.334 -10 -68.001s-10.667 -39.5 -18 -56.5s-16 -33.167 -26 -48.5c-38.667 -58 -98.667 -87 -180 -87c-79.333 0 -119 20.667 -119 62c0 14 3.16699 26.667 9.5 38s18.166 25 35.499 41c4.66699 -12.667 9.33398 -24 14.001 -34
c18.667 -42 44.667 -63 78 -63c21.333 0 41.666 7.16699 60.999 21.5s33.666 32.166 42.999 53.499c16.667 39.333 25 101.666 25 186.999v28l-7 242h-100v48h100v38c0 27.333 1 51 3 71s5.33301 38 10 54s11 30.333 19 43s18 25.667 30 39
c36.667 38.667 87.334 58 152.001 58c24 0 46.333 -1.66699 67 -5s38.5 -8 53.5 -14s26.833 -13 35.5 -21s13 -17 13 -27z" />
    <glyph glyph-name="circumflex" unicode="&#x2c6;" horiz-adv-x="450" 
d="M360 538l-127 95l-149 -91l-10 10l160 175l140 -179z" />
    <glyph glyph-name="caron" unicode="&#x2c7;" horiz-adv-x="450" 
d="M233 536l-159 176l11 10l148 -93l128 94l14 -10z" />
    <glyph glyph-name="breve" unicode="&#x2d8;" horiz-adv-x="450" 
d="M351 660c-13.333 -22 -30.833 -39.333 -52.5 -52s-44.5 -19 -68.5 -19c-23.333 0 -45.5 6 -66.5 18s-39.167 28.667 -54.5 50l-38 55l14 14l55 -45c23.333 -19.333 53.666 -29 90.999 -29c36.667 0 66.334 9.66699 89.001 29l48 44l14 -10z" />
    <glyph glyph-name="dotaccent" unicode="&#x2d9;" horiz-adv-x="450" 
d="M275 643c0 -11.333 -4 -21 -12 -29s-17.667 -12 -29 -12s-21.166 4 -29.499 12s-12.5 17.667 -12.5 29s4.16699 21.166 12.5 29.499s18.166 12.5 29.499 12.5s21 -4.16699 29 -12.5s12 -18.166 12 -29.499z" />
    <glyph glyph-name="ring" unicode="&#x2da;" horiz-adv-x="450" 
d="M303 605c0 -23.333 -8 -43 -24 -59s-35.333 -24 -58 -24c-23.333 0 -43 8 -59 24s-24 35.667 -24 59s8 43 24 59s35.667 24 59 24c22.667 0 42 -8 58 -24s24 -35.667 24 -59zM262 605c0 11.333 -4 21 -12 29s-17.667 12 -29 12s-21.166 -4 -29.499 -12
s-12.5 -17.667 -12.5 -29s4.16699 -21 12.5 -29s18.166 -12 29.499 -12s21 4 29 12s12 17.667 12 29z" />
    <glyph glyph-name="ogonek" unicode="&#x2db;" horiz-adv-x="450" 
d="M334 -206c-11.333 -9.33301 -21.498 -16.835 -30.498 -22.502s-17.5 -10.167 -25.5 -13.5s-16 -5.66602 -24 -6.99902s-16.333 -2 -25 -2c-41.333 0 -72.5 8 -93.5 24s-31.5 39 -31.5 69c0 16 5.83301 32 17.5 48s28.167 34.667 49.5 56l78 74h40l-75 -87
c-9.33301 -10.667 -16.333 -20 -21 -28s-8.33398 -15.167 -11.001 -21.5s-4.16699 -12.333 -4.5 -18s-0.5 -11.167 -0.5 -16.5c0 -13.333 6.66699 -26.333 20 -39s32 -19 56 -19c9.33301 0 17.833 1 25.5 3s14.5 4.66699 20.5 8
c7.33301 2.66699 13.666 6.33398 18.999 11.001l16 -19v0z" />
    <glyph glyph-name="tilde" unicode="&#x2dc;" horiz-adv-x="450" 
d="M351 559l-28.002 0.000976562c-6.66699 0 -18 3.66699 -34 11s-36.667 17.666 -62 30.999c-17.333 10 -32.666 15 -45.999 15c-11.333 0 -24.5 -4.83301 -39.5 -14.5s-34.833 -26.167 -59.5 -49.5l-21 14l97 117h28c6.66699 0 37.667 -16 93 -48
c16.667 -9.33301 31.667 -14 45 -14c12.667 0 25.834 4.5 39.501 13.5s32.5 25.167 56.5 48.5l21 -13z" />
    <glyph glyph-name="hungarumlaut" unicode="&#x2dd;" horiz-adv-x="450" 
d="M211 563l-14 14l134 134h48l7 -41zM41 563l-14 14l134 134h48l7 -41z" />
    <glyph glyph-name="pi" unicode="&#x3c0;" horiz-adv-x="508" 
d="M30 0v448h448v-448h-448z" />
    <glyph glyph-name="endash" unicode="&#x2013;" horiz-adv-x="497" 
d="M0 228v62h497v-62h-497z" />
    <glyph glyph-name="emdash" unicode="&#x2014;" horiz-adv-x="983" 
d="M0 228v62h993v-62h-993z" />
    <glyph glyph-name="quoteleft" unicode="&#x2018;" horiz-adv-x="269" 
d="M200 445c0 -16 -5.83203 -29.832 -17.499 -41.499s-25.5 -17.5 -41.5 -17.5c-20.667 0 -37.834 10.333 -51.501 31s-20.5 46.667 -20.5 78c0 12.667 1.5 24.667 4.5 36s8.5 23.833 16.5 37.5s18.667 28.667 32 45l50 58.5l28 -31l-16 -11
c-4.66699 -3.33301 -8.66699 -6.33301 -12 -9c-12 -11.333 -21.833 -24.5 -29.5 -39.5s-11.5 -29.5 -11.5 -43.5c0 -18.667 7 -31.334 21 -38.001l20 -10c8.66699 -4.66699 15.5 -11 20.5 -19s7.5 -16.667 7.5 -26z" />
    <glyph glyph-name="quoteright" unicode="&#x2019;" horiz-adv-x="269" 
d="M200 547c0 -12.667 -1.50098 -24.833 -4.50098 -36.5s-8.5 -24.334 -16.5 -38.001s-18.667 -28.667 -32 -45l-50 -58.5l-28 31l16 11c4.66699 3.33301 8.66699 6.66602 12 9.99902c12 10.667 21.833 23.667 29.5 39s11.5 29.666 11.5 42.999
c0 18.667 -7 31.334 -21 38.001l-20 11c-18.667 8.66699 -28 23.334 -28 44.001c0 16.667 5.66699 30.667 17 42s25.333 17 42 17c20.667 0 37.834 -10.167 51.501 -30.5s20.5 -46.166 20.5 -77.499z" />
    <glyph glyph-name="quotesinglbase" unicode="&#x201a;" horiz-adv-x="269" 
d="M200 1c0 -12 -1.66699 -23.8301 -5 -35.4971s-8.83301 -24.334 -16.5 -38.001s-18.167 -28.834 -31.5 -45.501s-30 -36 -50 -58l-28 31c10.667 6.66699 20 13.667 28 21c12 11.333 21.833 24.5 29.5 39.5s11.5 29.167 11.5 42.5c0 9.33301 -2 17.5 -6 24.5
s-9.33301 12.167 -16 15.5l-19 9c-8.66699 4 -15.5 10.167 -20.5 18.5s-7.5 17.166 -7.5 26.499c0 16 5.5 29.667 16.5 41s24.5 17 40.5 17c10 0 19.5 -2.83301 28.5 -8.5s16.833 -13.5 23.5 -23.5s12 -21.667 16 -35s6 -27.333 6 -42z" />
    <glyph glyph-name="quotedblleft" unicode="&#x201c;" horiz-adv-x="448" 
d="M379 445c0 -16 -5.66504 -29.832 -16.998 -41.499s-25.333 -17.5 -42 -17.5c-20.667 0 -37.834 10.333 -51.501 31s-20.5 46.667 -20.5 78c0 12.667 1.5 24.667 4.5 36s8.5 23.833 16.5 37.5s18.667 28.667 32 45s30.333 35.833 51 58.5l27 -31
c-6 -4 -11.167 -7.66699 -15.5 -11l-11.5 -9c-12.667 -11.333 -22.834 -24.5 -30.501 -39.5s-11.5 -29.5 -11.5 -43.5c0 -18.667 7 -31.334 21 -38.001l21 -10c18 -9.33301 27 -24.333 27 -45zM200.002 445.001c0 -16 -5.83203 -29.832 -17.499 -41.499
s-25.5 -17.5 -41.5 -17.5c-20.667 0 -37.834 10.333 -51.501 31s-20.5 46.667 -20.5 78c0 12.667 1.5 24.667 4.5 36s8.5 23.833 16.5 37.5s18.667 28.667 32 45l50 58.5l28 -31l-16 -11c-4.66699 -3.33301 -8.66699 -6.33301 -12 -9c-12 -11.333 -21.833 -24.5 -29.5 -39.5
s-11.5 -29.5 -11.5 -43.5c0 -18.667 7 -31.334 21 -38.001l20 -10c8.66699 -4.66699 15.5 -11 20.5 -19s7.5 -16.667 7.5 -26z" />
    <glyph glyph-name="quotedblright" unicode="&#x201d;" horiz-adv-x="448" 
d="M379 547c0 -12.667 -1.50098 -24.833 -4.50098 -36.5s-8.33301 -24.334 -16 -38.001s-18.167 -28.667 -31.5 -45s-30.333 -35.833 -51 -58.5l-28 31l16 11c4.66699 3.33301 8.66699 6.66602 12 9.99902c12.667 10.667 22.667 23.667 30 39s11 29.666 11 42.999
c0 18.667 -6.66699 31.334 -20 38.001l-21 11c-18.667 8.66699 -28 23.334 -28 44.001c0 16.667 5.83301 30.667 17.5 42s25.5 17 41.5 17c20.667 0 37.834 -10.167 51.501 -30.5s20.5 -46.166 20.5 -77.499zM199.999 547.001c0 -12.667 -1.50098 -24.833 -4.50098 -36.5
s-8.5 -24.334 -16.5 -38.001s-18.667 -28.667 -32 -45l-50 -58.5l-28 31l16 11c4.66699 3.33301 8.66699 6.66602 12 9.99902c12 10.667 21.833 23.667 29.5 39s11.5 29.666 11.5 42.999c0 18.667 -7 31.334 -21 38.001l-20 11c-18.667 8.66699 -28 23.334 -28 44.001
c0 16.667 5.66699 30.667 17 42s25.333 17 42 17c20.667 0 37.834 -10.167 51.501 -30.5s20.5 -46.166 20.5 -77.499z" />
    <glyph glyph-name="quotedblbase" unicode="&#x201e;" horiz-adv-x="448" 
d="M379 2c0 -12.667 -1.50098 -24.832 -4.50098 -36.499s-8.33301 -24.334 -16 -38.001s-18.167 -28.667 -31.5 -45s-30.333 -35.833 -51 -58.5l-28 31l16 11c4.66699 3.33301 8.66699 6.66602 12 9.99902c12.667 11.333 22.667 24.5 30 39.5s11 29.167 11 42.5
c0 18 -6.66699 31 -20 39l-21 10c-8.66699 4 -15.5 10 -20.5 18s-7.5 16.667 -7.5 26c0 16.667 5.83301 30.834 17.5 42.501s25.5 17.5 41.5 17.5c20.667 0 37.834 -10.333 51.501 -31s20.5 -46.667 20.5 -78zM199.999 2.00195c0 -12.667 -1.50098 -24.833 -4.50098 -36.5
s-8.5 -24.334 -16.5 -38.001s-18.667 -28.667 -32 -45l-50 -58.5l-28 31c10.667 6.66699 20 13.667 28 21c12 11.333 21.833 24.5 29.5 39.5s11.5 29.167 11.5 42.5c0 18.667 -7 31.667 -21 39l-20 10c-8.66699 4 -15.5 10 -20.5 18s-7.5 16.667 -7.5 26
c0 16.667 5.66699 30.834 17 42.501s25.333 17.5 42 17.5c20.667 0 37.834 -10.333 51.501 -31s20.5 -46.667 20.5 -78z" />
    <glyph glyph-name="dagger" unicode="&#x2020;" horiz-adv-x="497" 
d="M348 479l-20 18l20 24l131 13l-13 -34l13 -34zM148 476l-131 -10l14 34l-14 34l131 -17l21 -20zM279 -69l-34 -41l-35 41l-7 524l28 42l-21 65l14 128h48l14 -128l-20 -65l27 -45z" />
    <glyph glyph-name="daggerdbl" unicode="&#x2021;" horiz-adv-x="497" 
d="M345 497l-21 20l21 21l131 14l-14 -35l14 -34zM145 497l-124 -14l13 34l-13 35l124 -14l21 -21zM276 286l-28 -38l-27 38l-21 197l28 34l-21 49l14 110h48l14 -110l-21 -49l28 -34zM262 -62l21 -41l-14 -118h-48l-14 118l21 41l-25 34l18 194l27 41l28 -41l14 -194z
M345 -83l-21 21l21 21l131 10l-14 -35l14 -34zM145 -86l-124 -14l13 34l-13 35l124 -14l21 -21z" />
    <glyph glyph-name="bullet" unicode="&#x2022;" horiz-adv-x="441" 
d="M324 314c0 -14.667 -2.66602 -28.498 -7.99902 -41.498s-12.666 -24.333 -21.999 -34s-20.333 -17.334 -33 -23.001s-26 -8.5 -40 -8.5s-27.333 2.83301 -40 8.5s-23.834 13.5 -33.501 23.5s-17.167 21.667 -22.5 35s-8 27.666 -8 42.999
c0.666992 13.333 3.83398 26 9.50098 38s13.167 22.333 22.5 31s20.166 15.5 32.499 20.5s25.5 7.5 39.5 7.5s27.333 -2.66699 40 -8s23.667 -12.5 33 -21.5s16.666 -19.5 21.999 -31.5s8 -25 8 -39z" />
    <glyph glyph-name="ellipsis" unicode="&#x2026;" horiz-adv-x="807" 
d="M738 52c0 -18 -6.5 -33.501 -19.5 -46.501s-29.167 -19.5 -48.5 -19.5c-17.333 0 -32.166 6.33301 -44.499 19s-18.5 28 -18.5 46c0 18.667 6.5 34.334 19.5 47.001s29.167 19 48.5 19c17.333 0 32.166 -6.33301 44.499 -19s18.5 -28 18.5 -46zM469 51.999
c0 -18 -6.5 -33.501 -19.5 -46.501s-29.167 -19.5 -48.5 -19.5c-17.333 0 -32.166 6.33301 -44.499 19s-18.5 28 -18.5 46c0 18.667 6.5 34.334 19.5 47.001s29.167 19 48.5 19c17.333 0 32.166 -6.33301 44.499 -19s18.5 -28 18.5 -46zM200 51.998
c0 -18 -6.5 -33.501 -19.5 -46.501s-29.167 -19.5 -48.5 -19.5c-17.333 0 -32.166 6.33301 -44.499 19s-18.5 28 -18.5 46c0 18.667 6.5 34.334 19.5 47.001s29.167 19 48.5 19c17.333 0 32.166 -6.33301 44.499 -19s18.5 -28 18.5 -46z" />
    <glyph glyph-name="perthousand" unicode="&#x2030;" horiz-adv-x="1179" 
d="M352 472c0 -54 -15 -96.667 -45 -128s-70.333 -47 -121 -47s-90.834 15.667 -120.501 47s-44.5 74 -44.5 128s14.833 96.833 44.5 128.5s69.834 47.5 120.501 47.5s91 -15.833 121 -47.5s45 -74.5 45 -128.5zM324 -21l-55 21l207 662l55 -21zM784 166
c0 -54 -14.833 -96.833 -44.5 -128.5s-70.167 -47.5 -121.5 -47.5c-50.667 0 -90.834 15.833 -120.501 47.5s-44.5 74.5 -44.5 128.5s14.833 96.833 44.5 128.5s69.834 47.5 120.501 47.5c51.333 0 91.833 -15.833 121.5 -47.5s44.5 -74.5 44.5 -128.5zM1159 164
c0 -54 -15 -96.833 -45 -128.5s-70.333 -47.5 -121 -47.5s-90.834 15.833 -120.501 47.5s-44.5 74.5 -44.5 128.5s14.833 96.833 44.5 128.5s69.834 47.5 120.501 47.5s91 -15.833 121 -47.5s45 -74.5 45 -128.5zM283 472c0 42 -8.33398 74.167 -25.001 96.5
s-40.667 33.5 -72 33.5c-32 0 -56 -11.333 -72 -34s-24 -55.667 -24 -99c0 -40 8.33301 -71 25 -93s40.334 -33 71.001 -33c31.333 0 55.333 11 72 33s25 54 25 96zM714.999 166c0 42 -8.33496 73.999 -25.002 95.999s-40.667 33 -72 33s-55.166 -11.167 -71.499 -33.5
s-24.5 -55.166 -24.5 -98.499c0 -40 8.33301 -71.167 25 -93.5s40.334 -33.5 71.001 -33.5c31.333 0 55.333 11.167 72 33.5s25 54.5 25 96.5zM1090 163.999c0 42 -8.33398 73.999 -25.001 95.999s-40.667 33 -72 33c-32 0 -56 -11.167 -72 -33.5s-24 -55.166 -24 -98.499
c0 -40 8.33301 -71 25 -93s40.334 -33 71.001 -33c31.333 0 55.333 11 72 33s25 54 25 96z" />
    <glyph glyph-name="guilsinglleft" unicode="&#x2039;" horiz-adv-x="266" 
d="M210 48l-158 200l158 180l21 -7l-83 -173l83 -189z" />
    <glyph glyph-name="guilsinglright" unicode="&#x203a;" horiz-adv-x="265" 
d="M72 48l-20 11l82 189l-82 173l20 7l159 -180z" />
    <glyph glyph-name="fraction" unicode="&#x2044;" horiz-adv-x="200" 
d="M-109 -128l-55 34l482 828l55 -42z" />
    <glyph glyph-name="trademark" unicode="&#x2122;" horiz-adv-x="1182" 
d="M482 518c-10 15.333 -19.3301 28.168 -27.9971 38.501s-17.667 18.5 -27 24.5s-19.5 10.167 -30.5 12.5s-23.833 3.5 -38.5 3.5h-56v-238c0 -34.667 7.16699 -59.334 21.5 -74.001s40.166 -24.334 77.499 -29.001v-25h-266v25c18.667 2.66699 34 6.16699 46 10.5
s21.5 10.5 28.5 18.5s11.833 18.333 14.5 31s4 28.334 4 47.001v234h-56c-23.333 0 -44 -5.66699 -62 -17s-38.667 -32 -62 -62l-13 10l25 128c16.667 -4.66699 31 -8.33398 43 -11.001s24.167 -4.83398 36.5 -6.50098s26.166 -2.66699 41.499 -3s34.666 -0.5 57.999 -0.5
h26h31c22.667 0 41.5 0.166992 56.5 0.5s28.5 1.33301 40.5 3s23.833 3.83398 35.5 6.50098s25.5 6.33398 41.5 11.001l25 -125zM941.003 228.002l-0.00195312 23.9971c19.333 2 32.5 6.5 39.5 13.5s10.5 19.833 10.5 38.5l-13 252l-163 -338l-159 310l-5 -157
c-1.33301 -11.333 -1.66602 -20.5 -0.999023 -27.5s1 -13.833 1 -20.5c0 -18.667 4.5 -33.167 13.5 -43.5s24.5 -19.5 46.5 -27.5v-21h-186v21c24.667 8.66699 42.334 18.334 53.001 29.001s17.667 26.334 21 47.001l20 214c1.33301 4.66699 2 9 2 13v12
c0 15.333 -4 26.333 -12 33s-21.333 10.334 -40 11.001v31h120l148 -285l139 285h126v-28h-5c-30 0 -45 -11.667 -45 -35c0 -1.33301 0.166992 -4 0.5 -8s0.5 -9 0.5 -15l13 -256c0 -13.333 3.33301 -23.833 10 -31.5s17.667 -14.167 33 -19.5v-21h-168z" />
    <glyph glyph-name="Omega" unicode="&#x2126;" horiz-adv-x="508" 
d="M30 0v448h448v-448h-448zM414 388h-320v-328h320v328z" />
    <glyph glyph-name="partialdiff" unicode="&#x2202;" horiz-adv-x="724" 
d="M483 0l0.00683594 24c14 2 25.167 5 33.5 9s15 9.83301 20 17.5s8.66699 17.834 11 30.501s3.83301 29.334 4.5 50.001l7 166v6c0 31.333 -7.33301 55.833 -22 73.5s-34.667 26.5 -60 26.5c-8 0 -15.833 -0.5 -23.5 -1.5s-15.834 -2.83301 -24.501 -5.5
s-18.334 -6.33398 -29.001 -11.001s-23.334 -10.667 -38.001 -18v-12l-10 -234v-8v-31c0 -8.66699 1.83301 -16.334 5.5 -23.001s9.66699 -12.667 18 -18s21.166 -11 38.499 -17v-22l-30 -6c-7.33301 -1.33301 -14.666 -2.33301 -21.999 -3s-14 -1 -20 -1
c-20.667 0 -35.334 3.5 -44.001 10.5s-16 20.5 -22 40.5c-15.333 -10.667 -28.666 -19.5 -39.999 -26.5s-22.333 -12.5 -33 -16.5s-21.334 -6.66699 -32.001 -8s-22.667 -2 -36 -2c-33.333 0 -59.5 8.33301 -78.5 25s-28.5 40 -28.5 70c0 25.333 7.66699 45.833 23 61.5
s42 30.5 80 44.5l152 56v84c0 32.667 -5 54.834 -15 66.501s-28.667 17.5 -56 17.5c-12.667 0 -23.5 -1.33301 -32.5 -4s-17.167 -7.16699 -24.5 -13.5s-14 -14.833 -20 -25.5s-12 -24.334 -18 -41.001c-1.33301 -4 -3.16602 -8.83301 -5.49902 -14.5
s-5.16602 -12.167 -8.49902 -19.5c-36.667 4.66699 -55 18 -55 40c0 8.66699 3.16699 18 9.5 28s15.166 19.833 26.499 29.5s24.333 19 39 28s30.667 16.833 48 23.5c15.333 5.33301 32.666 10 51.999 14s35.666 6 48.999 6c52.667 0 82 -22.667 88 -68
c21.333 13.333 40.166 24.5 56.499 33.5s31.166 16.333 44.499 22s25.833 9.66699 37.5 12s23.5 3.5 35.5 3.5c13.333 0 27 -2.66699 41 -8s25 -12 33 -20c18 -18 27 -50 27 -96v-214c0 -20 0.666992 -36.167 2 -48.5s4 -22 8 -29s10.167 -12.667 18.5 -17
s19.5 -8.5 33.5 -12.5v-24h-214zM181.007 171c-45.333 -18.667 -67.999 -43.333 -67.999 -74c0 -14.667 5.66699 -27.667 17 -39s24.666 -17 39.999 -17c18.667 0 44 6 76 18c3.33301 1.33301 7.5 2.83301 12.5 4.5s10.833 3.5 17.5 5.5l7 144z" />
    <glyph glyph-name="Delta" unicode="&#x2206;" horiz-adv-x="688" 
d="M30 0v628h628v-628h-628zM588 563h-488v-498h488v498z" />
    <glyph glyph-name="product" unicode="&#x220f;" horiz-adv-x="688" 
d="M30 0v628h628v-628h-628z" />
    <glyph glyph-name="summation" unicode="&#x2211;" horiz-adv-x="1242" 
d="M1210 86c-3.33301 -12.667 -11.001 -24.8213 -23.001 -36.4883s-27 -22 -45 -31s-37.833 -16.167 -59.5 -21.5s-43.5 -8 -65.5 -8c-28 0 -53 2.66699 -75 8s-40.5 16 -55.5 32s-26.333 38.5 -34 67.5s-11.5 67.5 -11.5 115.5c0 6 -0.166992 13.667 -0.5 23
s-0.5 18.666 -0.5 27.999c-0.666992 10.667 -1 22 -1 34v7c0 31.333 -7 55.666 -21 72.999s-33.667 26 -59 26c-8 0 -15.5 -0.333008 -22.5 -1s-14.833 -2.16699 -23.5 -4.5s-18.834 -5.66602 -30.501 -9.99902l-43.5 -16.5v-240c0 -35.333 2.33301 -59.333 7 -72
c6.66699 -16.667 27.334 -28.334 62.001 -35.001v-24h-214v24c12.667 3.33301 23 7.16602 31 11.499s14.167 10.333 18.5 18s7.5 17.667 9.5 30s3.33301 28.166 4 47.499l6 193v160c-1.33301 18 -3.66602 34 -6.99902 48s-10.666 25.833 -21.999 35.5s-28.166 17 -50.499 22
s-52.5 7.5 -90.5 7.5h-69v-466c0 -13.333 1.16699 -26 3.5 -38s7 -22.833 14 -32.5s17.333 -17.834 31 -24.501s32.167 -11.667 55.5 -15v-21h-304v21c44 7.33301 74.5 19.166 91.5 35.499s25.5 41.166 25.5 74.499v466h-69c-15.333 0 -29.166 -1.66699 -41.499 -5
s-24.5 -9 -36.5 -17s-24 -18.333 -36 -31s-25 -28.334 -39 -47.001l-19 11l33 147c22 -6 41.167 -10.833 57.5 -14.5s33.166 -6.33398 50.499 -8.00098s36.833 -2.83398 58.5 -3.50098s49.5 -1 83.5 -1h80c22.667 0 43.667 0.5 63 1.5s38.166 3.16699 56.499 6.5
s38.5 8 60.5 14c13.333 5.33301 25.166 11.5 35.499 18.5s19.166 13.5 26.499 19.5c8.66699 7.33301 16.667 14.666 24 21.999l24 -13l-14 -298c22 13.333 41.333 24.5 58 33.5s31.834 16.167 45.501 21.5s26.167 9.16602 37.5 11.499s22.666 3.5 33.999 3.5
c12.667 0 25.834 -2.5 39.501 -7.5s25.167 -11.833 34.5 -20.5c9.33301 -8 16 -19.667 20 -35c40 40 92 60 156 60c46 0 81.333 -10.833 106 -32.5s37 -52.5 37 -92.5c0 -10 -0.5 -21.333 -1.5 -34s-2.83301 -26.334 -5.5 -41.001h-283v-26c0 -36.667 2.33301 -66.667 7 -90
s12.667 -41.666 24 -54.999s26.5 -22.5 45.5 -27.5s42.833 -7.5 71.5 -7.5c9.33301 0 18 0.5 26 1.5s16.667 2.5 26 4.5s19.833 5 31.5 9s25.5 9 41.5 15zM1128 345.013c0 21.333 -8.16699 39.334 -24.5 54.001s-36.5 22 -60.5 22c-14 0 -27.667 -2 -41 -6
s-25.5 -10.5 -36.5 -19.5s-20.5 -20.833 -28.5 -35.5s-13.333 -32.334 -16 -53.001h193l14 17v21z" />
    <glyph glyph-name="radical" unicode="&#x221a;" horiz-adv-x="766" 
d="M750 86c-3.33301 -12.667 -11.0039 -24.8301 -23.0039 -36.4971s-27 -22 -45 -31s-37.833 -16.167 -59.5 -21.5s-43.5 -8 -65.5 -8c-28 0 -53 2.66699 -75 8s-40.5 16 -55.5 32s-26.333 38.5 -34 67.5s-11.5 67.5 -11.5 115.5c0 6 -0.166992 13.667 -0.5 23
s-0.5 18.666 -0.5 27.999c-0.666992 10.667 -1 22 -1 34v7c0 31.333 -7 55.666 -21 72.999s-33.667 26 -59 26c-8 0 -15.5 -0.333008 -22.5 -1s-14.833 -2.16699 -23.5 -4.5s-18.834 -5.66602 -30.501 -9.99902l-43.5 -16.5v-240c0 -35.333 2.33301 -59.333 7 -72
c6.66699 -16.667 27.334 -28.334 62.001 -35.001v-24h-214v24c12.667 3.33301 22.834 7.16602 30.501 11.499s13.834 10.333 18.501 18s8 17.667 10 30s3.33301 28.166 4 47.499l6 193v200c0 26.667 -0.5 48.334 -1.5 65.001s-3.16699 30.167 -6.5 40.5
s-8.16602 18.333 -14.499 24s-14.833 10.834 -25.5 15.501v21l124 20l14 -13l-14 -298c22 13.333 41.333 24.5 58 33.5s31.834 16.167 45.501 21.5s26.167 9.16602 37.5 11.499s22.666 3.5 33.999 3.5c12.667 0 25.834 -2.5 39.501 -7.5s25.167 -11.833 34.5 -20.5
c9.33301 -8 16 -19.667 20 -35c40 40 92 60 156 60c46 0 81.333 -10.833 106 -32.5s37 -52.5 37 -92.5c0 -10 -0.5 -21.333 -1.5 -34s-2.83301 -26.334 -5.5 -41.001h-283v-26c0 -36.667 2.33301 -66.667 7 -90s12.667 -41.666 24 -54.999s26.5 -22.5 45.5 -27.5
s42.833 -7.5 71.5 -7.5c9.33301 0 18 0.5 26 1.5s16.667 2.5 26 4.5s19.833 5 31.5 9s25.5 9 41.5 15zM670.996 345.004c0 21.333 -8.16699 39.334 -24.5 54.001s-36.5 22 -60.5 22c-14 0 -27.667 -2 -41 -6s-25.5 -10.5 -36.5 -19.5s-20.5 -20.833 -28.5 -35.5
s-13.333 -32.334 -16 -53.001h193l14 17v21z" />
    <glyph glyph-name="infinity" unicode="&#x221e;" horiz-adv-x="1078" 
d="M1063 621c-20 -3.33301 -36 -7.16211 -48 -11.4951s-21.5 -10.5 -28.5 -18.5s-11.833 -18.333 -14.5 -31s-4.33398 -29.334 -5.00098 -50.001l-14 -496l-38 -36l-378 527l7 -374c0.666992 -20.667 2.33398 -37.5 5.00098 -50.5s7.83398 -23.5 15.501 -31.5
s18.167 -14 31.5 -18s30.666 -7.33301 51.999 -10v-21h-274v21c20 2.66699 36 6.16699 48 10.5s21.333 10.333 28 18s11.334 18 14.001 31s4.66699 29.833 6 50.5l9 154h-184l-65 -106l-16.5 -29l-16 -29.5c-5 -9.66699 -9 -18.667 -12 -27s-4.5 -15.5 -4.5 -21.5
c0 -28 20 -45 60 -51v-21h-241v21c11.333 3.33301 18.333 5.66602 21 6.99902c7.33301 3.33301 15.333 8.16602 24 14.499s17.334 13.5 26.001 21.5s17 16.5 25 25.5s15 18.167 21 27.5l140 212l24.5 37l34 49.5l37 54.5l34 52c10.333 16 18.666 29.5 24.999 40.5
s9.5 18.167 9.5 21.5c0 19.333 -19 32.666 -57 39.999v17h173l368 -510l-7 379c-0.666992 20 -2.33398 36.5 -5.00098 49.5s-7.5 23.5 -14.5 31.5s-16.667 14.167 -29 18.5s-28.5 8.16602 -48.5 11.499v20h262v-20zM482 408.004v73v14v24.5c0 9 -0.333008 18.333 -1 28
s-2 18.167 -4 25.5l-153 -242h158v77z" />
    <glyph glyph-name="integral" unicode="&#x222b;" 
d="M97 0l0.000976562 20.9971c23.333 4 42.666 9 57.999 15s27.333 14 36 24s14.667 22.333 18 37s5 33 5 55v151c0 23.333 -1.33301 42.5 -4 57.5s-7.66699 27.333 -15 37s-17.833 17.167 -31.5 22.5s-31.5 10 -53.5 14v21h290v-21
c-23.333 -3.33301 -42.166 -7.66602 -56.499 -12.999s-25.5 -12.666 -33.5 -21.999s-13.333 -21.666 -16 -36.999s-4 -35 -4 -59v-151c0 -22 1.66699 -40.333 5 -55s9.33301 -27 18 -37s20.667 -18 36 -24s34.666 -11 57.999 -15v-21h-310z" />
    <glyph glyph-name="approxequal" unicode="&#x2248;" horiz-adv-x="560" 
d="M411 274l-37.998 0.000976562c-3.33301 0 -9 1.16699 -17 3.5s-17.333 5.5 -28 9.5l-33 12.5c-11.333 4.33301 -21.666 8.5 -30.999 12.5l-32 12c-12 4.66699 -25.667 7 -41 7c-6 0 -18 -5.83301 -36 -17.5s-35.667 -28.834 -53 -51.501l-31 24l97 122h38
c1.33301 0 5.66602 -1.16699 12.999 -3.5s16.166 -5.5 26.499 -9.5s21.166 -8.5 32.499 -13.5l32 -14.5c8 -4 19.333 -8.5 34 -13.5s28 -7.5 40 -7.5c6.66699 0 18 4.66699 34 14s33.333 27 52 53l31 -23zM411.002 94.001l-37.998 0.000976562
c-3.33301 0 -9 1.16699 -17 3.5s-17.333 5.5 -28 9.5l-33 12.5c-11.333 4.33301 -21.666 8.5 -30.999 12.5l-32 12c-12 4.66699 -25.667 7 -41 7c-6 0 -18 -5.83301 -36 -17.5s-35.667 -28.834 -53 -51.501l-31 24l97 122h38c1.33301 0 5.66602 -1.16699 12.999 -3.5
s16.166 -5.5 26.499 -9.5s21.166 -8.5 32.499 -13.5l32 -14.5c8 -4 19.333 -8.5 34 -13.5s28 -7.5 40 -7.5c6.66699 0 18 4.66699 34 14s33.333 27 52 53l31 -23z" />
    <glyph glyph-name="notequal" unicode="&#x2260;" horiz-adv-x="560" 
d="M406 109l-130.001 -0.000976562l-75 -170l-58 41l58 129h-44l-124 -7l14 72l182 -2l62 137h-134l-124 -7l11 69h275l75 165l70 -32l-49 -84l-22 -49h2l142 3v-74l-131 9h-41l-31 -69c-4 -8.66699 -7.66699 -17 -11 -25s-6.66602 -15.333 -9.99902 -22
c-3.33301 -7.33301 -6.33301 -14.666 -9 -21.999h62l171 3v-72z" />
    <glyph glyph-name="lessequal" unicode="&#x2264;" horiz-adv-x="560" 
d="M446 -16l-103 69l-295 168l403 272l35 -69l-107 -65l-204 -131l313 -173zM406 -121h-249l-124 -7l14 72l319 -3l161 3v-72z" />
    <glyph glyph-name="greaterequal" unicode="&#x2265;" horiz-adv-x="560" 
d="M207 53l-103 -69l-42 71l313 173l-204 131l-107 65l35 69l403 -272zM393 -121h-249l-121 -7v72l161 -3l319 3l4 -70z" />
    <glyph glyph-name="lozenge" unicode="&#x25ca;" horiz-adv-x="1072" 
d="M1050 86c-3.33301 -12.667 -11.0039 -24.8301 -23.0039 -36.4971s-27 -22 -45 -31s-37.833 -16.167 -59.5 -21.5s-43.5 -8 -65.5 -8c-28 0 -53 2.66699 -75 8s-40.5 16 -55.5 32s-26.333 38.5 -34 67.5s-11.5 67.5 -11.5 115.5c0 6 -0.166992 13.667 -0.5 23
s-0.5 18.666 -0.5 27.999c-0.666992 10.667 -1 22 -1 34v7c0 31.333 -7 55.666 -21 72.999s-33.667 26 -59 26c-8 0 -15.5 -0.333008 -22.5 -1s-14.833 -2.16699 -23.5 -4.5s-18.834 -5.66602 -30.501 -9.99902l-43.5 -16.5v-240c0 -35.333 2.33301 -59.333 7 -72
c6.66699 -16.667 27.334 -28.334 62.001 -35.001v-24h-214v24c12.667 3.33301 22.834 7.16602 30.501 11.499s13.834 10.333 18.501 18s8 17.667 10 30s3.33301 28.166 4 47.499l6 193v200c0 26.667 -0.5 48.334 -1.5 65.001s-3.16699 30.167 -6.5 40.5
s-8.16602 18.333 -14.499 24s-14.833 10.834 -25.5 15.501v21l124 20l14 -13l-14 -298c22 13.333 41.333 24.5 58 33.5s31.834 16.167 45.501 21.5s26.167 9.16602 37.5 11.499s22.666 3.5 33.999 3.5c12.667 0 25.834 -2.5 39.501 -7.5s25.167 -11.833 34.5 -20.5
c9.33301 -8 16 -19.667 20 -35c40 40 92 60 156 60c46 0 81.333 -10.833 106 -32.5s37 -52.5 37 -92.5c0 -10 -0.5 -21.333 -1.5 -34s-2.83301 -26.334 -5.5 -41.001h-283v-26c0 -36.667 2.33301 -66.667 7 -90s12.667 -41.666 24 -54.999s26.5 -22.5 45.5 -27.5
s42.833 -7.5 71.5 -7.5c9.33301 0 18 0.5 26 1.5s16.667 2.5 26 4.5s19.833 5 31.5 9s25.5 9 41.5 15zM320.996 45.0039c-12 -11.333 -22.834 -20.665 -32.501 -27.998s-19.5 -13 -29.5 -17s-20.667 -6.66699 -32 -8s-24.666 -2 -39.999 -2
c-38.667 0 -66.334 8.5 -83.001 25.5s-25 45.833 -25 86.5l6 273l-47 53l3 27c14 7.33301 24.667 13.666 32 18.999s15 11.666 23 18.999c4.66699 4.66699 8.83398 9.16699 12.501 13.5s7.16699 8.83301 10.5 13.5s6.83301 10 10.5 16l13.5 22l27 -10l-8 -104l124 8
c18.667 0 28 -8.33301 28 -25c0 -11.333 -4.5 -20.333 -13.5 -27s-20.5 -10 -34.5 -10h-104v-245c0 -34 5.5 -59.833 16.5 -77.5s27.167 -26.5 48.5 -26.5c22.667 0 51.667 8.33301 87 25zM970.995 345.005c0 21.333 -8.16699 39.334 -24.5 54.001s-36.5 22 -60.5 22
c-14 0 -27.667 -2 -41 -6s-25.5 -10.5 -36.5 -19.5s-20.5 -20.833 -28.5 -35.5s-13.333 -32.334 -16 -53.001h193l14 17v21z" />
    <glyph glyph-name="fi" unicode="&#xfb01;" horiz-adv-x="572" 
d="M331 0v23.9941c14 2 25.167 5 33.5 9s15 9.83301 20 17.5s8.66699 17.834 11 30.501s3.83301 29.334 4.5 50.001l7 166v16c0 23.333 -3.5 42.5 -10.5 57.5s-17.167 22.5 -30.5 22.5h-17h-170v-262c0 -14.667 0.666992 -27.167 2 -37.5s3 -18.5 5 -24.5
c5.33301 -12.667 15 -22.5 29 -29.5s34.333 -12.167 61 -15.5v-24h-242v24c14 2 25.333 5.33301 34 10s15.667 11 21 19s9 18.333 11 31s3 28.334 3 47.001v236l-62 47v14l67 42c0 26 1 48.667 3 68s5.5 36.5 10.5 51.5s11.667 28.333 20 40s18.5 23.167 30.5 34.5
c17.333 16.667 39.833 29.667 67.5 39s56.5 14 86.5 14c22 0 42.833 -1.83301 62.5 -5.5s37 -8.66699 52 -15s27 -13.833 36 -22.5s13.5 -17.667 13.5 -27c0 -22.667 -17.333 -41.667 -52 -57c-5.33301 8.66699 -10.666 16.334 -15.999 23.001l-15 18
c-12.667 14 -27.834 25 -45.501 33s-35.834 12 -54.501 12c-42 0 -73.833 -17.5 -95.5 -52.5s-32.5 -86.5 -32.5 -154.5v-24h182c18 0 34 1.16699 48 3.5s26 5.16602 36 8.49902c12 3.33301 22.333 7.33301 31 12l14 -14l-7 -131v-193c0 -18 0.5 -33.167 1.5 -45.5
s2.83301 -21.166 5.5 -26.499c3.33301 -9.33301 9.83301 -16.666 19.5 -21.999s23.834 -9.66602 42.501 -12.999v-24h-221z" />
    <glyph glyph-name="fl" unicode="&#xfb02;" horiz-adv-x="562" 
d="M317 0v23.9912c14 2 25.167 5 33.5 9s15 9.83301 20 17.5s8.66699 18 11 31s3.83301 29.5 4.5 49.5l7 193v168c0 12 -0.166992 24.333 -0.5 37s-1 25 -2 37s-2.16699 22.833 -3.5 32.5s-3 17.167 -5 22.5c-8.66699 23.333 -20.334 38.333 -35.001 45s-31 10 -49 10
c-20.667 0 -38.167 -5 -52.5 -15s-27.166 -25.667 -38.499 -47c-4 -8 -7.5 -15.833 -10.5 -23.5s-5.66699 -16.167 -8 -25.5s-4.33301 -20.166 -6 -32.499s-2.83398 -27.166 -3.50098 -44.499v-43l194 7c8.66699 0.666992 15.167 -1.66602 19.5 -6.99902s6.5 -12 6.5 -20
c0 -13.333 -2.33301 -22 -7 -26s-15.667 -6 -33 -6h-180v-262c0 -14.667 0.666992 -27.167 2 -37.5s3 -18.5 5 -24.5c5.33301 -12.667 15 -22.5 29 -29.5s34.333 -12.167 61 -15.5v-24h-242v24c14 2 25.333 5.33301 34 10s15.667 11 21 19s9 18.333 11 31s3 28.334 3 47.001
v236l-62 47v14l67 42c1.33301 25.333 3.5 47.333 6.5 66s7.16699 35.334 12.5 50.001s12 27.834 20 39.501s17.667 23.167 29 34.5c18 18 39.5 32 64.5 42s51.167 15 78.5 15c24 0 54 -2 90 -6l54 13l14 -14l-8 -255v-324c0 -18 0.5 -33.167 1.5 -45.5
s2.83301 -21.166 5.5 -26.499c3.33301 -9.33301 9.83301 -16.666 19.5 -21.999s23.834 -9.66602 42.501 -12.999v-24h-221z" />
    <glyph glyph-name=".null" horiz-adv-x="0" 
 />
    <glyph glyph-name="nonmarkingreturn" horiz-adv-x="207" 
 />
    <glyph glyph-name="percent" horiz-adv-x="806" 
d="M352 472c0 -54 -15 -96.667 -45 -128s-70.333 -47 -121 -47s-90.834 15.667 -120.501 47s-44.5 74 -44.5 128s14.833 96.833 44.5 128.5s69.834 47.5 120.501 47.5s91 -15.833 121 -47.5s45 -74.5 45 -128.5zM324 -21l-55 21l207 662l55 -21zM784 166
c0 -54 -14.833 -96.833 -44.5 -128.5s-70.167 -47.5 -121.5 -47.5c-50.667 0 -90.834 15.833 -120.501 47.5s-44.5 74.5 -44.5 128.5s14.833 96.833 44.5 128.5s69.834 47.5 120.501 47.5c51.333 0 91.833 -15.833 121.5 -47.5s44.5 -74.5 44.5 -128.5zM283 472
c0 42 -8.33398 74.167 -25.001 96.5s-40.667 33.5 -72 33.5c-32 0 -56 -11.333 -72 -34s-24 -55.667 -24 -99c0 -40 8.33301 -71 25 -93s40.334 -33 71.001 -33c31.333 0 55.333 11 72 33s25 54 25 96zM714.999 166c0 42 -8.33496 73.999 -25.002 95.999s-40.667 33 -72 33
s-55.166 -11.167 -71.499 -33.5s-24.5 -55.166 -24.5 -98.499c0 -40 8.33301 -71.167 25 -93.5s40.334 -33.5 71.001 -33.5c31.333 0 55.333 11.167 72 33.5s25 54.5 25 96.5z" />
    <glyph glyph-name="apple" horiz-adv-x="759" 
d="M731 86c-4.66699 -13.333 -13.3369 -25.8291 -26.0039 -37.4961s-27.667 -21.834 -45 -30.501s-36.666 -15.667 -57.999 -21s-42.666 -8 -63.999 -8c-12 0 -23.167 1 -33.5 3s-20.5 5.16699 -30.5 9.5s-20.5 10.333 -31.5 18s-22.833 17.167 -35.5 28.5h-35
c-6.66699 -4.66699 -12.667 -8.66699 -18 -12s-9.66602 -6.33301 -12.999 -9c-23.333 -14.667 -44.5 -25.167 -63.5 -31.5s-38.833 -9.5 -59.5 -9.5c-26 0 -50 5.33301 -72 16s-40.667 25.834 -56 45.501s-27.333 43 -36 70s-13 57.167 -13 90.5
c0 37.333 5.66699 71.833 17 103.5s26.833 59.167 46.5 82.5s43 41.666 70 54.999s56.5 20 88.5 20c8 0 15.333 -0.333008 22 -1s13.667 -1.66699 21 -3s15.166 -3.5 23.499 -6.5l29.5 -10.5v78c0 25.333 -1.16699 46.5 -3.5 63.5s-6.5 31 -12.5 42s-14.167 19.5 -24.5 25.5
s-23.5 11 -39.5 15v21l155 17l14 -13l-14 -242v-34l7 -11l14.5 12.5l12.5 10.5c15.333 11.333 31.833 19.666 49.5 24.999s39.5 8 65.5 8c45.333 0 80.5 -10.833 105.5 -32.5s37.5 -51.834 37.5 -90.501c0 -20.667 -3 -46.334 -9 -77.001h-283
c0.666992 -16 1.33398 -29.333 2.00098 -40s1.66699 -20 3 -28s2.83301 -15.5 4.5 -22.5s3.83398 -14.833 6.50098 -23.5c9.33301 -28 25.833 -50.333 49.5 -67s51.5 -25 83.5 -25c9.33301 0 18 0.333008 26 1s16.667 2.16699 26 4.5s20 5.5 32 9.5l43 15zM647.997 345.004
c0 22 -7.66602 40.168 -22.999 54.501s-35.333 21.5 -60 21.5c-28.667 0 -53.834 -10.333 -75.501 -31s-36.5 -48.334 -44.5 -83.001h193l10 17v21zM378.998 93.0049c-2 6 -3.66797 10.834 -5.00098 14.501s-2 6.5 -2 8.5c-4 14 -7.16699 32.833 -9.5 56.5
s-3.5 46.5 -3.5 68.5v76c0 32 -8.16699 57.833 -24.5 77.5s-38.166 29.5 -65.499 29.5c-20 0 -38.833 -4.66699 -56.5 -14s-33 -22 -46 -38s-23.333 -35 -31 -57s-11.5 -45.333 -11.5 -70c0 -28.667 3.66699 -54.834 11 -78.501s17.5 -44 30.5 -61s28.667 -30.167 47 -39.5
s38.5 -14 60.5 -14c9.33301 0 17.833 0.666992 25.5 2s15.5 3.5 23.5 6.5s16.5 7.16699 25.5 12.5s19.5 12 31.5 20z" />
    </font>
</defs>
</svg>
