<?xml version="1.0" standalone="no"?>
<!DOCTYPE svg PUBLIC "-//W3C//DTD SVG 1.1//EN" "http://www.w3.org/Graphics/SVG/1.1/DTD/svg11.dtd" >
<svg xmlns="http://www.w3.org/2000/svg">
<metadata></metadata>
<defs>
<font id="quadraatsansproregular" horiz-adv-x="1073" >
<font-face units-per-em="2048" ascent="1559" descent="-489" />
<missing-glyph horiz-adv-x="417" />
<glyph horiz-adv-x="0" />
<glyph horiz-adv-x="0" />
<glyph horiz-adv-x="682" />
<glyph unicode="&#xd;" horiz-adv-x="417" />
<glyph unicode=" "  horiz-adv-x="417" />
<glyph unicode="&#x09;" horiz-adv-x="417" />
<glyph unicode="&#xa0;" horiz-adv-x="417" />
<glyph unicode="!" horiz-adv-x="540" d="M139 115q0 58 36 98.5t95 40.5t95 -40.5t36 -98.5t-36 -99t-95 -41t-95 41t-36 99zM172 1319h205l-41 -926l-139 -24z" />
<glyph unicode="&#x22;" horiz-adv-x="827" d="M147 1319h197l-49 -475h-98zM483 1319h197l-49 -475h-99z" />
<glyph unicode="#" horiz-adv-x="1343" d="M74 451l24 90h281l98 286h-305l25 91h313l162 466l90 -32l-152 -434h293l162 466l90 -32l-151 -434h266l-25 -91h-272l-101 -286h299l-24 -90h-305l-170 -492l-90 33l157 459h-290l-170 -492l-91 33l158 459h-272zM479 541h293l98 286h-290z" />
<glyph unicode="$" horiz-adv-x="876" d="M57 270q53 -46 123.5 -79.5t143.5 -45.5l61 426l-74 52q-113 78 -171 156.5t-58 187.5q0 165 119 270.5t299 105.5l24 164h74l-25 -168q131 -17 213 -77v-213q-95 106 -235 127l-64 -447l78 -49q126 -79 182 -155.5t56 -188.5q0 -164 -114 -262.5t-296 -98.5h-14 l-27 -188h-82l29 195q-126 13 -217 59zM279 991q0 -69 32.5 -117t104.5 -98l59 404q-87 -5 -141.5 -52.5t-54.5 -136.5zM401 139q89 2 147 48t58 132q0 38 -11.5 68.5t-37.5 56.5t-45 40t-55 38z" />
<glyph unicode="%" horiz-adv-x="1744" d="M49 967q0 173 94.5 274.5t249.5 101.5q157 0 250.5 -94.5t93.5 -273.5q0 -173 -94.5 -275t-249.5 -102q-157 0 -250.5 95t-93.5 274zM213 967q0 -125 48 -193.5t132 -68.5q86 0 133 70t47 200q0 125 -48 193.5t-132 68.5q-86 0 -133 -70t-47 -200zM557 0l524 1352 l107 -41l-524 -1352zM1008 352q0 173 94.5 275t249.5 102q157 0 250.5 -95t93.5 -274q0 -173 -94.5 -274.5t-249.5 -101.5q-157 0 -250.5 94.5t-93.5 273.5zM1171 352q0 -125 48.5 -193.5t132.5 -68.5q86 0 133 70t47 200q0 125 -48 194t-132 69q-86 0 -133.5 -70.5 t-47.5 -200.5z" />
<glyph unicode="&#x26;" horiz-adv-x="1384" d="M98 319q0 118 58 204t192 165q-74 100 -112.5 183.5t-38.5 168.5q0 140 100.5 221.5t259.5 81.5q166 0 255 -75.5t89 -202.5q0 -54 -17.5 -101t-53 -87.5t-73 -71t-93.5 -68.5l-82 -55q171 -203 358 -375q51 97 51 217q0 41 -8 82l-41 131h361l40 -131h-229q8 -33 8 -82 q0 -163 -86 -301q93 -79 176.5 -132t188.5 -91l-279 -57l-57 41q-49 34 -72.5 51t-29.5 22t-17.5 14.5t-27.5 22.5q-154 -119 -369 -119q-210 0 -330.5 96t-120.5 248zM295 377q0 -70 25 -123.5t68.5 -85t96 -47t113.5 -15.5q132 0 227 70q-233 212 -407 422 q-62 -49 -92.5 -109t-30.5 -112zM377 1049q0 -56 30.5 -120.5t100.5 -154.5l82 62q61 46 96 95.5t35 117.5q0 76 -43.5 119.5t-128.5 43.5q-68 0 -120 -45.5t-52 -117.5z" />
<glyph unicode="'" horiz-adv-x="491" d="M147 1319h197l-49 -475h-98z" />
<glyph unicode="(" horiz-adv-x="679" d="M139 500q0 202 41 381.5t133 334t228 242.5l106 -33q-159 -137 -247.5 -387t-88.5 -538t89 -538.5t247 -387.5l-106 -41q-135 88 -228 245t-133.5 338t-40.5 384z" />
<glyph unicode=")" horiz-adv-x="679" d="M33 -426q158 137 247 387.5t89 538.5t-88.5 538t-247.5 387l106 33q136 -88 228 -242.5t133 -334t41 -381.5q0 -203 -40.5 -384t-133.5 -338t-228 -245z" />
<glyph unicode="*" horiz-adv-x="983" d="M33 1049l41 139l368 -148l-24 394h147l-24 -394l368 148l41 -139l-385 -99l254 -303l-114 -90l-213 336l-213 -336l-115 90l254 303z" />
<glyph unicode="+" horiz-adv-x="1032" d="M98 590v123h353v360h139v-360h344v-123h-344v-369h-139v369h-353z" />
<glyph unicode="," horiz-adv-x="540" d="M131 115q0 61 37.5 100t93.5 39q69 0 108.5 -51.5t39.5 -153.5q0 -233 -189 -401l-82 73q140 120 140 254l-33 9q-115 28 -115 131z" />
<glyph unicode="-" horiz-adv-x="671" d="M82 573l491 58l17 -164l-492 -57z" />
<glyph unicode="." horiz-adv-x="540" d="M139 115q0 58 36 98.5t95 40.5t95 -40.5t36 -98.5t-36 -99t-95 -41t-95 41t-36 99z" />
<glyph unicode="/" horiz-adv-x="598" d="M98 -213l279 1573l123 -25l-279 -1573z" />
<glyph unicode="0" horiz-adv-x="1015" d="M74 467q0 222 121 356.5t313 134.5q200 0 317 -132.5t117 -358.5q0 -222 -121 -357t-313 -135q-199 0 -316.5 133t-117.5 359zM246 475q0 -170 69 -269.5t193 -99.5q123 0 192.5 93.5t69.5 259.5q0 170 -69 269t-193 99q-123 0 -192.5 -93t-69.5 -259z" />
<glyph unicode="1" horiz-adv-x="679" d="M49 696v99l443 163v-958h-189v729z" />
<glyph unicode="2" horiz-adv-x="892" d="M33 90l213 156q68 49 108 80.5t82.5 71t64 71.5t35 71.5t13.5 82.5q0 77 -57 120t-148 43q-128 0 -262 -41l57 181q124 32 254 32q160 0 256 -76.5t96 -209.5q0 -46 -9.5 -86t-33 -78t-47 -67.5t-67.5 -67.5t-77 -64.5t-93 -70.5l-99 -74h533l-49 -164h-721z" />
<glyph unicode="3" horiz-adv-x="851" d="M25 -336h213q58 0 110.5 10.5t100 33t82 55.5t55 81t20.5 107q0 237 -319 237h-181l50 148h186q93 53 162 131.5t69 163.5q0 91 -53 131.5t-160 40.5q-66 0 -154 -16.5t-149 -41.5l58 173q53 18 128.5 29t133.5 11q194 0 289.5 -78t95.5 -208q0 -55 -19.5 -105.5 t-45 -84.5t-67.5 -68.5t-68.5 -51.5t-67.5 -40q64 -15 117.5 -42t97.5 -68t69 -102t25 -135q0 -201 -151 -321.5t-398 -120.5q-57 0 -122 11.5t-107 29.5v90z" />
<glyph unicode="4" horiz-adv-x="1032" d="M33 147l532 762l189 49v-802h229l-57 -156h-172v-410l-181 -57v467h-507zM180 156h393v577z" />
<glyph unicode="5" horiz-adv-x="901" d="M57 -336h213q172 0 274.5 76.5t102.5 234.5q0 146 -130.5 219.5t-410.5 92.5l41 647h705l-57 -164h-510l-23 -334q95 -10 176 -29.5t157.5 -54t130 -81.5t86 -116.5t32.5 -154.5q0 -125 -45 -217.5t-124 -145.5t-176 -78.5t-212 -25.5q-57 0 -122.5 11.5t-107.5 29.5v90z " />
<glyph unicode="6" horiz-adv-x="1015" d="M66 606q0 187 52 347t142 270t213.5 172.5t263.5 62.5q120 0 213 -41v-90h-164q-111 0 -207.5 -48t-169 -138t-114 -229.5t-41.5 -313.5q0 -147 27.5 -253.5t87 -168t147.5 -61.5q102 0 165.5 89t63.5 255q0 167 -72.5 247t-205.5 80h-90v74q27 20 72 34.5t92 14.5 q182 0 287.5 -115t105.5 -327t-119 -352t-307 -140q-221 0 -331.5 166.5t-110.5 464.5z" />
<glyph unicode="7" horiz-adv-x="901" d="M33 754v180h811l33 -82l-582 -1319l-172 66l549 1155h-639z" />
<glyph unicode="8" horiz-adv-x="1024" d="M74 328q0 94 50.5 168.5t154.5 150.5l116 86l-92 70q-46 35 -75 62.5t-60.5 67.5t-46.5 89t-15 108q0 137 115.5 232.5t294.5 95.5q185 0 289 -85t104 -218q0 -100 -64 -189.5t-190 -179.5l-28 -20l135 -102q90 -70 139 -143t49 -169q0 -162 -122.5 -269.5t-327.5 -107.5 q-115 0 -210 39t-155.5 121t-60.5 193zM262 336q0 -105 70.5 -171.5t175.5 -66.5q109 0 181.5 61t72.5 169q0 82 -36 134.5t-128 119.5l-109 80l-96 -80q-131 -109 -131 -246zM287 1147q0 -78 35.5 -128.5t103.5 -100.5l106 -82l33 24q99 75 131.5 143t32.5 144 q0 86 -60 141t-153 55q-106 0 -167.5 -53.5t-61.5 -142.5z" />
<glyph unicode="9" horiz-adv-x="1015" d="M66 492q0 207 118 336.5t299 129.5q227 0 339 -166t112 -464q0 -366 -159 -580.5t-439 -214.5q-57 0 -122.5 11.5t-107.5 29.5v90h181q211 0 334.5 177.5t123.5 494.5q0 222 -69 352.5t-201 130.5q-95 0 -158 -79t-63 -240q0 -180 72.5 -266.5t205.5 -86.5h91v-73 q-65 -49 -164 -49q-182 0 -287.5 121.5t-105.5 345.5z" />
<glyph unicode=":" horiz-adv-x="540" d="M139 115q0 58 36 98.5t95 40.5t95 -40.5t36 -98.5t-36 -99t-95 -41t-95 41t-36 99zM139 680q0 58 36 98.5t95 40.5t95 -40.5t36 -98.5t-36 -98.5t-95 -40.5t-95 40.5t-36 98.5z" />
<glyph unicode=";" horiz-adv-x="540" d="M131 115q0 61 37.5 100t93.5 39q69 0 108.5 -51.5t39.5 -153.5q0 -233 -189 -401l-82 73q140 120 140 254l-33 9q-115 28 -115 131zM139 680q0 58 36 98.5t95 40.5t95 -40.5t36 -98.5t-36 -98.5t-95 -40.5t-95 40.5t-36 98.5z" />
<glyph unicode="&#x3c;" horiz-adv-x="1032" d="M123 655l696 410l82 -98l-541 -312l533 -319l-90 -98z" />
<glyph unicode="=" horiz-adv-x="1032" d="M98 385v123h836v-123h-836zM98 786v123h836v-123h-836z" />
<glyph unicode="&#x3e;" horiz-adv-x="1032" d="M131 336l541 311l-533 320l90 98l680 -418l-696 -409z" />
<glyph unicode="?" horiz-adv-x="770" d="M82 1245l80 139l280 -49q271 -49 271 -262q0 -157 -197 -336l-90 -82q-66 -62 -66 -106q0 -56 132 -82l-82 -107q-108 21 -165 58t-57 106q0 74 66 140l131 131q76 76 111.5 131.5t35.5 113.5q0 63 -51.5 103t-169.5 61zM180 115q0 58 36 98.5t95 40.5t95 -40.5t36 -98.5 t-36 -99t-95 -41t-95 41t-36 99z" />
<glyph unicode="@" horiz-adv-x="1785" d="M66 483q0 191 72.5 354.5t194.5 273t282 171t335 61.5q233 0 411 -90t277 -259.5t99 -395.5q0 -270 -149 -446.5t-376 -176.5q-58 0 -103 26.5t-62 86.5q-113 -113 -269 -113q-118 0 -186 60.5t-68 169.5q0 59 24 105.5t67.5 78t87.5 51t100 35.5l237 66v139 q0 76 -28 111.5t-94 35.5q-71 0 -189 -106l-90 -82l-107 123q221 196 451 196q121 0 180.5 -57.5t57.5 -163.5l-9 -516q-2 -80 8 -109.5t50 -29.5q60 0 115 33t99 95t70.5 163t26.5 225q0 132 -44 247t-124.5 200.5t-202 134.5t-268.5 49q-151 0 -284 -58t-227 -158 t-148 -240t-54 -298q0 -163 43 -302t116 -237t170 -168t205 -103.5t220 -33.5v-98q-140 0 -269 32t-248.5 105t-207 180.5t-140 270t-52.5 362.5zM705 221q0 -115 139 -115q47 0 101.5 19.5t94.5 46.5v258l-172 -53q-78 -24 -120.5 -58.5t-42.5 -97.5z" />
<glyph unicode="A" horiz-adv-x="1130" d="M16 0l441 1221l-39 98h213l483 -1319h-213l-115 311h-481l-108 -311h-181zM356 459h377l-192 524z" />
<glyph unicode="B" horiz-adv-x="1138" d="M180 33v1270q180 40 369 40q216 0 333 -87t117 -232q0 -199 -198 -322q117 -33 182.5 -118t65.5 -199q0 -187 -131 -298.5t-361 -111.5q-205 0 -377 58zM377 164q74 -33 180 -33q132 0 209.5 61.5t77.5 176.5q0 221 -303 221h-164v-426zM377 737h293q125 106 125 254 q0 205 -287 205h-131v-459z" />
<glyph unicode="C" horiz-adv-x="1277" d="M90 655q0 198 86 355t241 245t353 88q128 0 234.5 -35t166.5 -79v-189q-201 140 -401 140q-207 0 -337 -136.5t-130 -371.5t129.5 -384t337.5 -149q118 0 224 36.5t177 94.5v-180q-67 -46 -179 -80.5t-222 -34.5q-314 0 -497 183.5t-183 496.5z" />
<glyph unicode="D" horiz-adv-x="1343" d="M180 33v1278q196 32 369 32q338 0 521 -180.5t183 -498.5q0 -315 -183 -502t-497 -187q-182 0 -393 58zM377 164q94 -33 196 -33q212 0 344 141.5t132 382.5q0 252 -138.5 396.5t-386.5 144.5h-147v-1032z" />
<glyph unicode="E" horiz-adv-x="1007" d="M180 0v1319h721l-65 -156h-459v-418h434l-66 -155h-368v-434h549l-66 -156h-680z" />
<glyph unicode="F" horiz-adv-x="958" d="M180 0v1319h729l-65 -156h-467v-442h442l-65 -156h-377v-565h-197z" />
<glyph unicode="G" horiz-adv-x="1368" d="M90 655q0 198 88 355t245 245t355 88q129 0 240 -35t170 -79v-189q-79 55 -187 97.5t-223 42.5q-208 0 -341.5 -137t-133.5 -371q0 -235 129.5 -384t337.5 -149q129 0 238 41v361h-246l57 155h377v-721l-133 58q-148 -58 -293 -58q-314 0 -497 183.5t-183 496.5z" />
<glyph unicode="H" horiz-adv-x="1376" d="M180 0v1319h197v-557h622v557h197v-1319h-197v606h-622v-606h-197z" />
<glyph unicode="I" horiz-adv-x="557" d="M180 0v1319h197v-1319h-197z" />
<glyph unicode="J" horiz-adv-x="557" d="M-98 -238h82q107 0 151.5 57t44.5 181v1319h197v-1319q0 -209 -101.5 -305t-300.5 -96z" />
<glyph unicode="K" horiz-adv-x="1204" d="M180 0v1319h197v-1319h-197zM401 655l525 664h221l-524 -639l557 -680h-246z" />
<glyph unicode="L" horiz-adv-x="942" d="M180 0v1319h197v-1163h516l-66 -156h-647z" />
<glyph unicode="M" horiz-adv-x="1572" d="M98 1319h238l450 -655l492 655h115v-1319h-197v967l-442 -590l-410 588v-965h-164v1200z" />
<glyph unicode="N" horiz-adv-x="1359" d="M41 1319h246l729 -911v911h164v-1319h-82l-754 940v-940h-164v1145z" />
<glyph unicode="O" horiz-adv-x="1458" d="M90 664q0 198 80.5 353t226.5 240.5t332 85.5q286 0 462.5 -184.5t176.5 -494.5q0 -198 -80.5 -355.5t-226.5 -245.5t-332 -88q-285 0 -462 189t-177 500zM303 664q0 -235 111.5 -380t314.5 -145t314.5 145t111.5 380q0 234 -111 375t-315 141t-315 -141t-111 -375z" />
<glyph unicode="P" horiz-adv-x="1097" d="M180 0v1303q144 40 344 40q233 0 370.5 -110t137.5 -315q0 -201 -110 -322t-308 -121q-64 0 -122 17v90h32q147 0 225 82t78 245q0 65 -22 116t-57.5 82.5t-85 52t-101 28.5t-110.5 8h-74v-1196h-197z" />
<glyph unicode="Q" horiz-adv-x="1458" d="M90 664q0 198 80.5 353t226.5 240.5t332 85.5q286 0 462.5 -184.5t176.5 -494.5q0 -205 -86.5 -365t-237.5 -244l332 -383h-270l-254 316q-63 -13 -123 -13q-285 0 -462 189t-177 500zM303 664q0 -235 111.5 -380t314.5 -145t314.5 145t111.5 380q0 234 -111 375 t-315 141t-315 -141t-111 -375z" />
<glyph unicode="R" horiz-adv-x="1163" d="M180 0v1303q71 14 109 20t111 13t149 7q208 0 337.5 -97.5t129.5 -278.5q0 -71 -25 -135t-65.5 -109.5t-85 -77.5t-90.5 -51l413 -594h-229l-369 541h-188v-541h-197zM377 680h270q63 34 113.5 104.5t50.5 165.5q0 129 -76.5 187.5t-242.5 58.5h-115v-516z" />
<glyph unicode="S" horiz-adv-x="950" d="M82 270q71 -58 164.5 -94.5t187.5 -36.5q98 0 164 51.5t66 145.5q0 38 -12 70.5t-26 52.5t-44.5 43.5t-46 32.5t-52.5 30l-131 74q-134 75 -190 152t-56 192q0 165 119 262.5t316 97.5q88 0 166 -21t120 -52v-213q-50 50 -132 86.5t-163 36.5q-101 0 -165 -44.5 t-64 -136.5q0 -72 43.5 -117t136.5 -96l148 -81q54 -30 91.5 -58t73.5 -69t54 -95.5t18 -122.5q0 -181 -119.5 -283t-314.5 -102q-183 0 -328 66z" />
<glyph unicode="T" horiz-adv-x="1032" d="M25 1163v156h1007l-65 -156h-353v-1163h-196v1163h-393z" />
<glyph unicode="U" horiz-adv-x="1327" d="M164 500v819h196v-803q0 -171 80.5 -274t231.5 -103q153 0 240 94t87 259v827h164v-836q0 -223 -135.5 -365.5t-355.5 -142.5q-237 0 -372.5 137t-135.5 388z" />
<glyph unicode="V" horiz-adv-x="1105" d="M16 1319h205l336 -1065l352 1065h181l-467 -1311l-172 -33z" />
<glyph unicode="W" horiz-adv-x="1720" d="M16 1319h205l295 -1065l279 760l-90 305h196l303 -1065l320 1065h180l-434 -1311l-164 -33l-240 803l-293 -770l-163 -33z" />
<glyph unicode="X" horiz-adv-x="1130" d="M25 0l436 662l-420 657h221l311 -488l312 488h188l-411 -625l444 -694h-221l-336 522l-336 -522h-188z" />
<glyph unicode="Y" d="M16 1319h213l316 -580l323 580h189l-426 -750v-569h-197v549z" />
<glyph unicode="Z" horiz-adv-x="1064" d="M41 0l672 1163h-639v156h942l-672 -1163h705l-66 -156h-942z" />
<glyph unicode="[" horiz-adv-x="737" d="M221 -442v1874l451 24l16 -115l-311 -32v-1628l311 -33l-16 -115z" />
<glyph unicode="\" horiz-adv-x="598" d="M98 1335l123 25l279 -1573l-123 -25z" />
<glyph unicode="]" horiz-adv-x="737" d="M49 -352l311 33v1628l-311 32l17 115l450 -24v-1874l-450 -25z" />
<glyph unicode="^" horiz-adv-x="1032" d="M82 541l434 794l442 -778l-114 -74l-336 598l-311 -598z" />
<glyph unicode="_" horiz-adv-x="991" d="M0 -66h991v-131h-991v131z" />
<glyph unicode="`" d="M319 1327l123 90l222 -319l-74 -58z" />
<glyph unicode="a" horiz-adv-x="958" d="M90 205q0 59 24 105.5t67.5 78t87.5 51t100 35.5l237 66v139q0 75 -28.5 111t-94.5 36q-40 0 -83.5 -26t-104.5 -80l-90 -82l-107 123q221 196 451 196q121 0 180 -57q57 -55 57 -157v-7l-8 -516v-6q0 -66 22 -84q24 -19 118 -25l-25 -106q-59 -25 -131 -25q-47 0 -90 27 t-60 86q-113 -113 -268 -113q-118 0 -186 60.5t-68 169.5zM270 221q0 -115 140 -115q47 0 101.5 19.5t94.5 46.5v258l-172 -53q-78 -24 -121 -58.5t-43 -97.5z" />
<glyph unicode="b" horiz-adv-x="1097" d="M164 -25v1434l180 49v-622q116 122 279 122q185 0 285 -120t100 -346q0 -233 -128.5 -375t-338.5 -142q-115 0 -197 50zM344 180q74 -74 205 -74q119 0 194.5 100t75.5 269q0 344 -278 344q-100 0 -197 -65v-574z" />
<glyph unicode="c" horiz-adv-x="884" d="M82 459q0 119 37 215.5t100.5 157.5t146 93.5t175.5 32.5q104 0 178 -37t141 -110l-123 -139l-164 155h-32q-106 0 -188.5 -93.5t-82.5 -250.5q0 -166 73 -259t222 -93q118 0 254 74l-33 -156q-50 -36 -124.5 -55t-145.5 -19q-203 0 -318.5 128.5t-115.5 355.5z" />
<glyph unicode="d" horiz-adv-x="1097" d="M90 467q0 219 131.5 355t335.5 136q117 0 197 -49v500l180 49v-1442l-180 -41v113q-107 -113 -271 -113q-183 0 -288 134t-105 358zM279 483q0 -189 74 -278.5t204 -89.5q104 0 197 57v442q0 104 -59.5 158.5t-145.5 54.5q-119 0 -194.5 -93.5t-75.5 -250.5z" />
<glyph unicode="e" horiz-adv-x="970" d="M90 475q0 205 124 344t318 139q167 0 258 -78t91 -225q0 -58 -17 -155l-594 -25v-33q0 -144 78.5 -231.5t216.5 -87.5q87 0 150.5 14.5t136.5 50.5l-49 -163q-98 -50 -262 -50q-217 0 -334 134t-117 366zM279 590l417 16q9 35 9 74q0 62 -50 104.5t-123 42.5 q-197 0 -253 -237z" />
<glyph unicode="f" horiz-adv-x="557" d="M16 795l41 139h115v74q0 211 108.5 330.5t309.5 119.5q139 0 237 -49l-65 -139l-180 73h-33q-84 0 -140.5 -75.5t-56.5 -210.5v-123h238l-41 -139h-197v-795h-180v795h-156z" />
<glyph unicode="g" horiz-adv-x="1007" d="M49 -221q0 70 55.5 132.5t145.5 100.5q-51 25 -77 59t-26 85t35 92t97 82q-92 37 -144.5 111t-52.5 182q0 156 117 245.5t301 89.5q111 0 229 -32h311l-41 -148h-131q17 -53 17 -106q0 -170 -115 -273.5t-295 -103.5q-55 0 -113 10q-59 -44 -59 -92q0 -90 164 -90h229 q120 0 191 -56.5t71 -164.5q0 -151 -150.5 -260t-373.5 -109q-110 0 -194.5 25t-137.5 81.5t-53 139.5zM221 -180q0 -47 19.5 -81.5t54.5 -54t77.5 -28t94.5 -8.5q141 0 226 56.5t85 148.5q0 65 -37.5 88.5t-126.5 25.5l-305 8q-34 -23 -61 -66t-27 -89zM262 623 q0 -94 55.5 -149.5t157.5 -55.5q112 0 171 62t59 159q0 104 -25 156q-67 41 -180 41q-112 0 -175 -55t-63 -158z" />
<glyph unicode="h" horiz-adv-x="1089" d="M164 0v1409l180 49v-622q134 122 295 122q134 0 210.5 -71.5t76.5 -214.5v-672h-181v598q0 119 -38 170t-134 51q-116 0 -229 -98v-721h-180z" />
<glyph unicode="i" horiz-adv-x="507" d="M147 1319q0 51 30.5 83t84.5 32t84.5 -32t30.5 -83t-30.5 -83t-84.5 -32t-84.5 32t-30.5 83zM164 0v909l180 49v-958h-180z" />
<glyph unicode="j" horiz-adv-x="507" d="M-90 -328q147 0 200.5 67t53.5 220v950l180 49v-999q0 -211 -99 -318.5t-286 -107.5zM147 1319q0 51 30.5 83t84.5 32t84.5 -32t30.5 -83t-30.5 -83t-84.5 -32t-84.5 32t-30.5 83z" />
<glyph unicode="k" horiz-adv-x="999" d="M164 0v1409l180 49v-1458h-180zM377 500l360 434h230l-394 -410l402 -524h-213q-65 66 -176.5 212.5t-208.5 287.5z" />
<glyph unicode="l" horiz-adv-x="507" d="M164 0v1409l180 49v-1458h-180z" />
<glyph unicode="m" horiz-adv-x="1638" d="M164 0v909l180 49v-122q134 122 287 122q193 0 252 -141q141 141 313 141q130 0 204.5 -68t74.5 -210v-680h-181v598q0 119 -36.5 170t-127.5 51q-54 0 -115 -27t-108 -73q0 -6 1 -19.5t1 -19.5v-680h-180v598q0 119 -36.5 170t-127.5 51q-108 0 -221 -98v-721h-180z" />
<glyph unicode="n" horiz-adv-x="1089" d="M164 0v909l180 49v-122q134 122 295 122q134 0 210.5 -71.5t76.5 -214.5v-672h-181v598q0 119 -38 170t-134 51q-116 0 -229 -98v-721h-180z" />
<glyph unicode="o" d="M90 451q0 234 127 370.5t348 136.5q199 0 308.5 -122t109.5 -353q0 -234 -127.5 -371t-347.5 -137q-199 0 -308.5 122.5t-109.5 353.5zM279 475q0 -369 253 -369q118 0 190.5 98t72.5 263q0 187 -64 273.5t-190 86.5q-119 0 -190.5 -94t-71.5 -258z" />
<glyph unicode="p" horiz-adv-x="1097" d="M164 -467v1376l180 49v-122q116 122 279 122q185 0 285 -120t100 -346q0 -233 -128.5 -375t-338.5 -142q-115 0 -197 50v-443zM344 319q0 -104 59.5 -158.5t145.5 -54.5q119 0 194.5 100t75.5 269q0 344 -278 344q-100 0 -197 -65v-435z" />
<glyph unicode="q" horiz-adv-x="1097" d="M90 467q0 228 133.5 359.5t341.5 131.5q72 0 118 -12t95 -37l156 49v-1384l-180 -41v555q-107 -113 -271 -113q-184 0 -288.5 132t-104.5 360zM279 483q0 -189 74 -278.5t204 -89.5q104 0 197 57v582q-87 73 -197 73q-122 0 -200 -89t-78 -255z" />
<glyph unicode="r" horiz-adv-x="688" d="M164 0v909l180 49v-184q117 184 221 184q66 0 123 -57l-74 -180l-114 57q-49 0 -156 -137v-641h-180z" />
<glyph unicode="s" horiz-adv-x="794" d="M57 57l66 140q137 -82 262 -82q85 0 124.5 30.5t39.5 92.5q0 48 -31.5 80t-99.5 59l-139 57q-197 82 -197 254q0 129 96.5 199.5t239.5 70.5q165 0 295 -65l-58 -148q-134 74 -237 74q-63 0 -109.5 -28.5t-46.5 -85.5q0 -43 25 -71.5t82 -51.5l139 -58q53 -21 87 -40.5 t67.5 -50.5t50 -75.5t16.5 -103.5q0 -133 -93.5 -206t-250.5 -73q-191 0 -328 82z" />
<glyph unicode="t" horiz-adv-x="630" d="M0 795l41 139h123v196l196 66l-16 -262h262l-41 -139h-221v-516q0 -91 26.5 -127.5t88.5 -36.5q88 0 155 41l-41 -148q-85 -33 -163 -33q-125 0 -185.5 66.5t-60.5 212.5v541h-164z" />
<glyph unicode="u" horiz-adv-x="1081" d="M156 254v655l180 49v-622q0 -117 40 -169t132 -52q116 0 229 98v696l181 49v-933l-181 -50v123q-135 -123 -295 -123q-130 0 -208 69t-78 210z" />
<glyph unicode="v" horiz-adv-x="868" d="M16 934h189l237 -729l246 729h164l-338 -911l-178 -48z" />
<glyph unicode="w" horiz-adv-x="1376" d="M16 934h189l237 -729l191 457l-84 272h188l213 -729l246 729h164l-336 -909l-180 -50l-156 502l-196 -452l-156 -50z" />
<glyph unicode="x" horiz-adv-x="843" d="M16 0l318 455l-301 479h205l202 -324l207 324h180l-309 -447l309 -487h-204l-211 332l-215 -332h-181z" />
<glyph unicode="y" horiz-adv-x="860" d="M-33 -287h107q107 0 171 57.5t99 172.5l6 20l-334 971h189l235 -703l240 703h164l-369 -991q-18 -49 -32 -82.5t-37 -80t-45.5 -78.5t-55.5 -66.5t-69 -55t-84 -34t-103 -13.5z" />
<glyph unicode="z" horiz-adv-x="827" d="M49 0v66l475 720h-467l41 148h672v-74l-475 -713h491l-49 -147h-688z" />
<glyph unicode="{" horiz-adv-x="770" d="M41 459v90q157 12 212 63.5t50 173.5l-16 377q-6 155 86 225t323 70h33v-98q-63 0 -102.5 -3t-75 -13.5t-54 -27.5t-32.5 -48.5t-18.5 -73.5t-4.5 -104v-328q0 -103 -24 -153.5t-90 -76.5l-66 -24l66 -25q66 -26 90 -76.5t24 -152.5v-352q0 -62 4.5 -104t18.5 -73.5 t32.5 -49t54 -28t75 -13.5t102.5 -3v-98h-33q-231 0 -323 70t-86 225l16 401q5 121 -49.5 169.5t-212.5 60.5z" />
<glyph unicode="|" horiz-adv-x="745" d="M295 -492v2048h156v-2048h-156z" />
<glyph unicode="}" horiz-adv-x="770" d="M41 -369q63 0 102.5 3t75 13.5t54 28t32.5 49t18.5 73.5t4.5 104v352q0 102 24 152.5t90 76.5l66 25l-66 24q-66 26 -90 76.5t-24 153.5v328q0 62 -4.5 104t-18.5 73.5t-32.5 48.5t-54 27.5t-75 13.5t-102.5 3v98h33q231 0 323 -70t86 -225l-16 -377q-5 -122 50 -173.5 t212 -63.5v-90q-158 -12 -212.5 -60.5t-49.5 -169.5l16 -401q6 -155 -86 -225t-323 -70h-33v98z" />
<glyph unicode="~" horiz-adv-x="1032" d="M82 557l197 238h73l213 -74q72 -25 131 -25q35 0 66 22t74 77l32 41l82 -58l-196 -237h-74l-213 73q-72 25 -131 25q-35 0 -65.5 -21.5t-73.5 -76.5l-33 -41z" />
<glyph unicode="&#xa1;" horiz-adv-x="540" d="M139 819q0 58 36 98.5t95 40.5t95 -40.5t36 -98.5t-36 -98.5t-95 -40.5t-95 40.5t-36 98.5zM164 -385l41 926l139 24l25 -950h-205z" />
<glyph unicode="&#xa2;" horiz-adv-x="966" d="M66 664q0 266 127 443.5t331 221.5v178h82v-166q12 2 41 2q79 0 134 -14.5t112 -42.5v-188q-129 82 -254 82q-23 0 -33 -2v-1039h17q81 0 147.5 22.5t138.5 76.5v-181q-127 -82 -295 -82h-8v-188h-82v195q-214 31 -336 206.5t-122 475.5zM270 664q0 -196 66 -333 t188 -177v1005q-117 -41 -185.5 -168.5t-68.5 -326.5z" />
<glyph unicode="&#xa3;" horiz-adv-x="966" d="M33 0v115q56 8 98.5 34.5t67 61.5t39 84t19.5 95t5 102v147h-180l57 139h123v115q0 95 23 172.5t60 128t87 85t101.5 49.5t105.5 15q93 0 161.5 -22t141.5 -68l-82 -131l-221 107q-79 0 -133.5 -78t-54.5 -258v-115h319l-65 -139h-254v-115q0 -142 -48 -234.5 t-157 -133.5h663v-156h-876z" />
<glyph unicode="&#xa4;" horiz-adv-x="966" d="M82 385l127 113q-45 76 -45 166t45 163l-127 115l74 82l123 -117q89 76 204 76q116 0 205 -76l123 117l74 -82l-129 -115q47 -76 47 -163t-47 -166l129 -113l-74 -82l-123 115q-90 -74 -205 -74q-114 0 -204 74l-123 -115zM279 664q0 -96 59 -159t145 -63t145.5 63 t59.5 159t-59.5 158.5t-145.5 62.5t-145 -62.5t-59 -158.5z" />
<glyph unicode="&#xa5;" horiz-adv-x="1032" d="M0 1319h221l301 -582l322 582h188l-395 -705h336v-73h-367v-181h367v-73h-367v-287h-196v287h-344v73h344v181h-344v73h309z" />
<glyph unicode="&#xa6;" horiz-adv-x="745" d="M295 -164v574h156v-574h-156zM295 860v574h156v-574h-156z" />
<glyph unicode="&#xa7;" horiz-adv-x="917" d="M66 483q0 78 27 142.5t71 95.5l90 -66q-25 -46 -25 -106t32 -107.5t124 -105.5l156 -98q118 -74 177.5 -148t59.5 -172q0 -102 -57 -182t-149.5 -121t-202.5 -41q-163 0 -295 82v205q49 -56 129.5 -93.5t165.5 -37.5q94 0 153.5 44t59.5 120q0 58 -36 100t-120 96 l-156 98q-42 27 -73.5 52.5t-63.5 62t-49.5 82.5t-17.5 98zM139 1008q0 155 114 245t296 90q188 0 295 -81v-197q-55 58 -133 94.5t-162 36.5q-97 0 -155 -43.5t-58 -112.5q0 -59 35 -96.5t145 -107.5l156 -99q42 -26 74 -52t64 -62t49.5 -82t17.5 -99q0 -149 -99 -237 l-90 65q25 46 25 107q0 60 -32 107.5t-124 105.5l-156 98q-40 26 -55 35.5t-50.5 35t-51 40.5t-40.5 42t-36 50t-20 53.5t-9 63.5z" />
<glyph unicode="&#xa8;" d="M270 1221q0 49 28 81.5t71 32.5t70.5 -32t27.5 -82t-27.5 -82.5t-70.5 -32.5t-71 32.5t-28 82.5zM606 1221q0 49 28 81.5t71 32.5t70.5 -32t27.5 -82t-27.5 -82.5t-70.5 -32.5t-71 32.5t-28 82.5z" />
<glyph unicode="&#xa9;" horiz-adv-x="1425" d="M41 655q0 188 90.5 346.5t245 250t336.5 91.5q137 0 260.5 -52t213.5 -141.5t143.5 -216.5t53.5 -269q0 -141 -53.5 -269t-143.5 -220t-214 -146t-260 -54q-137 0 -260.5 52.5t-214 142t-144 216.5t-53.5 269zM131 655q0 -166 78 -303.5t211.5 -216t292.5 -78.5 q119 0 226.5 47t185 127.5t123.5 193.5t46 239q0 166 -77.5 303.5t-211 216t-292.5 78.5q-119 0 -226.5 -47t-185.5 -127.5t-124 -193.5t-46 -239zM393 664q0 148 98.5 237.5t253.5 89.5q136 0 213 -49v-115q-38 31 -100 52.5t-121 21.5q-95 0 -158 -62t-63 -167 q0 -101 65.5 -169.5t172.5 -68.5q115 0 204 66v-107q-30 -19 -91.5 -34t-121.5 -15q-162 0 -257 89.5t-95 230.5z" />
<glyph unicode="&#xaa;" horiz-adv-x="786" d="M57 762q0 45 19 80t54.5 59t72 39t84.5 27l188 49v106q0 56 -20 81.5t-70 25.5q-62 0 -156 -82l-73 -66l-90 107q178 147 368 147q106 0 156.5 -46.5t48.5 -133.5l-8 -377q-1 -52 17.5 -64.5t96.5 -17.5l-16 -90q-41 -16 -115 -16q-40 0 -78 19t-55 61q-84 -80 -219 -80 q-95 0 -150 45t-55 127zM221 778q0 -82 107 -82q75 0 147 35v203l-131 -41q-61 -19 -92 -45t-31 -70z" />
<glyph unicode="&#xab;" horiz-adv-x="876" d="M74 508l270 369l123 -17l-197 -352l197 -385l-123 -25zM418 508l270 369l123 -17l-197 -352l197 -385l-123 -25z" />
<glyph unicode="&#xac;" horiz-adv-x="1032" d="M82 639v123h836v-459h-140v336h-696z" />
<glyph unicode="&#xad;" horiz-adv-x="671" d="M82 573l491 58l17 -164l-492 -57z" />
<glyph unicode="&#xae;" horiz-adv-x="1425" d="M41 655q0 188 90.5 346.5t245 250t336.5 91.5q137 0 260.5 -52t213.5 -141.5t143.5 -216.5t53.5 -269q0 -141 -53.5 -269t-143.5 -220t-214 -146t-260 -54q-137 0 -260.5 52.5t-214 142t-144 216.5t-53.5 269zM131 655q0 -166 78 -303.5t211.5 -216t292.5 -78.5 q119 0 226.5 47t185 127.5t123.5 193.5t46 239q0 166 -77.5 303.5t-211 216t-292.5 78.5q-119 0 -226.5 -47t-185.5 -127.5t-124 -193.5t-46 -239zM492 369v606q114 24 213 24q107 0 176 -48t69 -132q0 -57 -36 -102.5t-95 -73.5l238 -274h-148l-196 241q-16 -4 -49 -4 q-40 0 -58 4v-241h-114zM606 672h131q90 51 90 139q0 61 -46 88t-150 27h-25v-254z" />
<glyph unicode="&#xaf;" d="M279 1163v131h516v-131h-516z" />
<glyph unicode="&#xb0;" horiz-adv-x="622" d="M57 1081q0 105 74.5 179.5t179.5 74.5t179.5 -74.5t74.5 -179.5t-74.5 -179.5t-179.5 -74.5t-179.5 74.5t-74.5 179.5zM147 1081q0 -71 46.5 -121.5t117.5 -50.5t117.5 50.5t46.5 121.5q0 70 -50.5 121t-121.5 51q-70 0 -113 -50.5t-43 -121.5z" />
<glyph unicode="&#xb1;" horiz-adv-x="1032" d="M98 0v123h836v-123h-836zM98 631v123h353v319h139v-319h344v-123h-344v-320h-139v320h-353z" />
<glyph unicode="&#xb2;" horiz-adv-x="786" d="M57 1008l205 172q127 108 156 142q41 47 41 95q0 53 -38.5 84t-117.5 31q-113 0 -205 -57l41 163q78 33 213 33q130 0 204.5 -55t74.5 -158q0 -39 -18 -78.5t-38.5 -66.5t-65 -65.5t-66 -54.5t-74.5 -54l-90 -66h417v-131h-598z" />
<glyph unicode="&#xb3;" horiz-adv-x="786" d="M90 958v123q100 -41 205 -41q93 0 149 27.5t56 79.5q0 44 -46 71t-143 27h-147l49 107h156q43 21 70.5 50t27.5 56q0 35 -38.5 58.5t-109.5 23.5q-109 0 -196 -41l49 148q71 24 205 24q123 0 188.5 -48t65.5 -124q0 -57 -43.5 -101t-104.5 -65q82 -15 131.5 -59.5 t49.5 -110.5q0 -63 -30.5 -110.5t-83 -74.5t-113.5 -39.5t-130 -12.5q-126 0 -217 32z" />
<glyph unicode="&#xb4;" d="M410 1098l221 319l123 -90l-271 -287z" />
<glyph unicode="&#xb5;" horiz-adv-x="1097" d="M156 -442v1351l180 49v-516q0 -39 1 -66t5 -64t11.5 -62t22.5 -53t35 -44t51 -27t70 -11q68 0 112.5 25t92.5 73v696l181 49v-737q0 -69 32.5 -89t130.5 -26l-24 -98q-68 -33 -156 -33q-24 0 -48 6t-49 18.5t-43 38t-24 60.5q-34 -56 -94.5 -89.5t-126.5 -33.5 q-112 0 -180 91v-508h-180z" />
<glyph unicode="&#xb6;" horiz-adv-x="1196" d="M57 901q0 173 124 295.5t302 122.5h123v-836h-123q-178 0 -302 122.5t-124 295.5zM238 -369l81 148l205 -90h33q78 0 137.5 74t59.5 221v1335h401l-41 -123h-180v-1147q0 -215 -110.5 -345t-307.5 -130q-76 0 -151.5 16t-126.5 41z" />
<glyph unicode="&#xb7;" horiz-adv-x="565" d="M147 545q0 58 38.5 96.5t97.5 38.5t97 -38t38 -97t-38 -97t-97 -38t-97.5 38.5t-38.5 96.5z" />
<glyph unicode="&#xb8;" d="M336 -410l45 91q74 -41 151 -41q44 0 71.5 21.5t27.5 51.5q0 40 -37 63t-152 52l66 172h82l-25 -98q106 -27 151.5 -70.5t45.5 -110.5q0 -86 -60.5 -137t-169.5 -51q-116 0 -196 57z" />
<glyph unicode="&#xb9;" horiz-adv-x="786" d="M147 1442v82l361 147v-729h-164v533z" />
<glyph unicode="&#xba;" horiz-adv-x="884" d="M74 950q0 181 106 283t287 102q165 0 254.5 -93t89.5 -267q0 -181 -106 -283t-287 -102q-165 0 -254.5 93t-89.5 267zM246 967q0 -142 49.5 -206.5t146.5 -64.5q89 0 143 70t54 192q0 142 -50 206.5t-147 64.5q-89 0 -142.5 -70t-53.5 -192z" />
<glyph unicode="&#xbb;" horiz-adv-x="876" d="M66 123l196 385l-196 352l122 17l271 -369l-271 -410zM410 123l196 385l-196 352l122 17l271 -369l-271 -410z" />
<glyph unicode="&#xbc;" horiz-adv-x="1601" d="M147 1114v82l361 147v-729h-164v533zM442 0l525 1352l106 -41l-524 -1352zM840 262l368 426l189 41v-450h147l-24 -115h-123v-164h-156v164h-377zM987 279h254v301z" />
<glyph unicode="&#xbd;" horiz-adv-x="1622" d="M147 1114v82l361 147v-729h-164v533zM434 0l524 1352l107 -41l-524 -1352zM893 66l205 172q123 104 159.5 145.5t36.5 91.5q0 53 -38 84t-117 31q-112 0 -205 -58l41 164q78 33 213 33q130 0 204 -55t74 -158q0 -39 -18 -78.5t-38.5 -66.5t-65 -65.5t-66 -54.5t-74.5 -54 l-90 -66h418v-131h-598z" />
<glyph unicode="&#xbe;" horiz-adv-x="1724" d="M90 631v123q100 -41 205 -41q93 0 149 27t56 79q0 45 -46 72t-143 27h-147l49 106h156q43 21 70.5 50t27.5 56q0 35 -38.5 58.5t-109.5 23.5q-109 0 -196 -41l49 148q71 24 205 24q123 0 188.5 -48t65.5 -124q0 -57 -43 -100.5t-105 -64.5q82 -15 131.5 -59.5 t49.5 -110.5q0 -63 -30.5 -111t-83 -74.5t-113.5 -39.5t-130 -13q-123 0 -217 33zM541 0l524 1352l106 -41l-524 -1352zM963 262l368 426l189 41v-450h147l-25 -115h-122v-164h-156v164h-377zM1110 279h254v301z" />
<glyph unicode="&#xbf;" horiz-adv-x="770" d="M57 -139q0 157 197 336l90 82q66 57 66 106q0 56 -131 82l81 106q109 -21 165.5 -57.5t56.5 -105.5q0 -74 -66 -140l-131 -131q-76 -76 -111.5 -131.5t-35.5 -113.5q0 -63 51.5 -103t169.5 -61l229 -41l-80 -140l-280 50q-137 25 -204 89.5t-67 172.5zM328 819 q0 58 36 98.5t95 40.5t95 -40.5t36 -98.5t-36 -98.5t-95 -40.5t-95 40.5t-36 98.5z" />
<glyph unicode="&#xc0;" horiz-adv-x="1130" d="M16 0l441 1221l-39 98h213l483 -1319h-213l-115 311h-481l-108 -311h-181zM330 1702l114 123l304 -320l-72 -78zM356 459h377l-192 524z" />
<glyph unicode="&#xc1;" horiz-adv-x="1130" d="M16 0l441 1221l-39 98h213l483 -1319h-213l-115 311h-481l-108 -311h-181zM334 1505l303 320l115 -123l-346 -275zM356 459h377l-192 524z" />
<glyph unicode="&#xc2;" horiz-adv-x="1130" d="M16 0l441 1221l-39 98h213l483 -1319h-213l-115 311h-481l-108 -311h-181zM238 1524l303 221l303 -221l-58 -82l-245 139l-246 -139zM356 459h377l-192 524z" />
<glyph unicode="&#xc3;" horiz-adv-x="1130" d="M16 0l441 1221l-39 98h213l483 -1319h-213l-115 311h-481l-108 -311h-181zM213 1524l123 164h49q62 0 164 -41t139 -41t74 49l24 33l74 -58l-123 -164h-49q-62 0 -164 41t-139 41t-74 -49l-24 -33zM356 459h377l-192 524z" />
<glyph unicode="&#xc4;" horiz-adv-x="1130" d="M16 0l441 1221l-39 98h213l483 -1319h-213l-115 311h-481l-108 -311h-181zM238 1565q0 50 27.5 82t70.5 32t70.5 -32t27.5 -82t-27.5 -82.5t-70.5 -32.5t-70.5 32.5t-27.5 82.5zM356 459h377l-192 524zM647 1565q0 50 27.5 82t70.5 32t71 -32.5t28 -81.5q0 -50 -28 -82.5 t-71 -32.5t-70.5 32.5t-27.5 82.5z" />
<glyph unicode="&#xc5;" horiz-adv-x="1130" d="M16 0l441 1221l-39 98h213l483 -1319h-213l-115 311h-481l-108 -311h-181zM344 1614q0 74 55 123t142 49t141.5 -49t54.5 -123t-54.5 -123t-141.5 -49t-142 49t-55 123zM356 459h377l-192 524zM434 1614q0 -42 30 -66t77 -24t76.5 24t29.5 66t-29.5 66t-76.5 24t-77 -24 t-30 -66z" />
<glyph unicode="&#xc6;" horiz-adv-x="1531" d="M-16 0l721 1319h720l-65 -156h-459v-418h434l-65 -155h-369v-434h549l-66 -156h-679v352h-357l-184 -352h-180zM426 500h279v528z" />
<glyph unicode="&#xc7;" horiz-adv-x="1277" d="M90 655q0 198 86 355t241 245t353 88q128 0 234.5 -35t166.5 -79v-189q-201 140 -401 140q-207 0 -337 -136.5t-130 -371.5t129.5 -384t337.5 -149q118 0 224 36.5t177 94.5v-180q-63 -43 -165 -76t-205 -37l-19 -75q106 -27 151.5 -70.5t45.5 -110.5q0 -86 -60 -137 t-169 -51q-117 0 -197 57l45 91q74 -41 152 -41q44 0 71 21.5t27 51.5q0 40 -37 63t-152 52l56 149q-290 17 -457.5 198.5t-167.5 479.5z" />
<glyph unicode="&#xc8;" horiz-adv-x="1007" d="M180 0v1319h721l-65 -156h-459v-418h434l-66 -155h-368v-434h549l-66 -156h-680zM338 1702l115 123l303 -320l-72 -78z" />
<glyph unicode="&#xc9;" horiz-adv-x="1007" d="M180 0v1319h721l-65 -156h-459v-418h434l-66 -155h-368v-434h549l-66 -156h-680zM342 1505l303 320l115 -123l-346 -275z" />
<glyph unicode="&#xca;" horiz-adv-x="1007" d="M180 0v1319h721l-65 -156h-459v-418h434l-66 -155h-368v-434h549l-66 -156h-680zM246 1524l303 221l303 -221l-57 -82l-246 139l-246 -139z" />
<glyph unicode="&#xcb;" horiz-adv-x="1007" d="M180 0v1319h721l-65 -156h-459v-418h434l-66 -155h-368v-434h549l-66 -156h-680zM246 1565q0 50 27.5 82t70.5 32t70.5 -32t27.5 -82t-27.5 -82.5t-70.5 -32.5t-70.5 32.5t-27.5 82.5zM655 1565q0 49 28 81.5t71 32.5t70.5 -32t27.5 -82t-27.5 -82.5t-70.5 -32.5 t-71 32.5t-28 82.5z" />
<glyph unicode="&#xcc;" horiz-adv-x="557" d="M68 1702l114 123l303 -320l-71 -78zM180 0v1319h197v-1319h-197z" />
<glyph unicode="&#xcd;" horiz-adv-x="557" d="M72 1505l303 320l114 -123l-346 -275zM180 0v1319h197v-1319h-197z" />
<glyph unicode="&#xce;" horiz-adv-x="557" d="M-25 1524l304 221l303 -221l-58 -82l-245 139l-246 -139zM180 0v1319h197v-1319h-197z" />
<glyph unicode="&#xcf;" horiz-adv-x="557" d="M-25 1565q0 49 28 81.5t71 32.5t70.5 -32t27.5 -82t-27.5 -82.5t-70.5 -32.5t-71 32.5t-28 82.5zM180 0v1319h197v-1319h-197zM385 1565q0 50 27.5 82t70.5 32t71 -32.5t28 -81.5q0 -50 -28 -82.5t-71 -32.5t-70.5 32.5t-27.5 82.5z" />
<glyph unicode="&#xd0;" horiz-adv-x="1343" d="M41 614l16 140h123v557q196 32 369 32q338 0 521 -180.5t183 -498.5q0 -315 -183 -502t-497 -187q-182 0 -393 58v581h-139zM377 164q94 -33 196 -33q212 0 344 141.5t132 382.5q0 252 -138.5 396.5t-386.5 144.5h-147v-442h262l-16 -140h-246v-450z" />
<glyph unicode="&#xd1;" horiz-adv-x="1359" d="M41 1319h246l729 -911v911h164v-1319h-82l-754 940v-940h-164v1145zM352 1524l123 164h49q62 0 164 -41t139 -41t74 49l25 33l73 -58l-122 -164h-50q-62 0 -164 41t-139 41q-36 0 -73 -49l-25 -33z" />
<glyph unicode="&#xd2;" horiz-adv-x="1458" d="M90 664q0 198 80.5 353t226.5 240.5t332 85.5q286 0 462.5 -184.5t176.5 -494.5q0 -198 -80.5 -355.5t-226.5 -245.5t-332 -88q-285 0 -462 189t-177 500zM303 664q0 -235 111.5 -380t314.5 -145t314.5 145t111.5 380q0 234 -111 375t-315 141t-315 -141t-111 -375z M518 1702l115 123l303 -320l-72 -78z" />
<glyph unicode="&#xd3;" horiz-adv-x="1458" d="M90 664q0 198 80.5 353t226.5 240.5t332 85.5q286 0 462.5 -184.5t176.5 -494.5q0 -198 -80.5 -355.5t-226.5 -245.5t-332 -88q-285 0 -462 189t-177 500zM303 664q0 -235 111.5 -380t314.5 -145t314.5 145t111.5 380q0 234 -111 375t-315 141t-315 -141t-111 -375z M522 1505l303 320l115 -123l-346 -275z" />
<glyph unicode="&#xd4;" horiz-adv-x="1458" d="M90 664q0 198 80.5 353t226.5 240.5t332 85.5q286 0 462.5 -184.5t176.5 -494.5q0 -198 -80.5 -355.5t-226.5 -245.5t-332 -88q-285 0 -462 189t-177 500zM303 664q0 -235 111.5 -380t314.5 -145t314.5 145t111.5 380q0 234 -111 375t-315 141t-315 -141t-111 -375z M426 1524l303 221l303 -221l-57 -82l-246 139l-246 -139z" />
<glyph unicode="&#xd5;" horiz-adv-x="1458" d="M90 664q0 198 80.5 353t226.5 240.5t332 85.5q286 0 462.5 -184.5t176.5 -494.5q0 -198 -80.5 -355.5t-226.5 -245.5t-332 -88q-285 0 -462 189t-177 500zM303 664q0 -235 111.5 -380t314.5 -145t314.5 145t111.5 380q0 234 -111 375t-315 141t-315 -141t-111 -375z M401 1524l123 164h49q62 0 164.5 -41t139.5 -41q36 0 73 49l25 33l74 -58l-123 -164h-49q-62 0 -164.5 41t-139.5 41q-36 0 -73 -49l-25 -33z" />
<glyph unicode="&#xd6;" horiz-adv-x="1458" d="M90 664q0 198 80.5 353t226.5 240.5t332 85.5q286 0 462.5 -184.5t176.5 -494.5q0 -198 -80.5 -355.5t-226.5 -245.5t-332 -88q-285 0 -462 189t-177 500zM303 664q0 -235 111.5 -380t314.5 -145t314.5 145t111.5 380q0 234 -111 375t-315 141t-315 -141t-111 -375z M426 1565q0 50 27.5 82t70.5 32t71 -32.5t28 -81.5q0 -50 -28 -82.5t-71 -32.5t-70.5 32.5t-27.5 82.5zM836 1565q0 50 27.5 82t70.5 32t70.5 -32t27.5 -82t-27.5 -82.5t-70.5 -32.5t-70.5 32.5t-27.5 82.5z" />
<glyph unicode="&#xd7;" horiz-adv-x="1032" d="M127 344l299 303l-299 303l90 90l299 -303l299 303l90 -90l-301 -303l301 -303l-90 -90l-299 303l-299 -303z" />
<glyph unicode="&#xd8;" horiz-adv-x="1458" d="M90 664q0 198 80.5 353t226.5 240.5t332 85.5q26 0 80 -4l27 152l82 -33l-23 -133q218 -52 345.5 -226t127.5 -435q0 -198 -80.5 -355.5t-226.5 -245.5t-332 -88q-10 0 -29 1t-28 1l-33 -198l-82 33l29 178q-227 45 -361.5 225t-134.5 449zM303 664q0 -198 80.5 -334.5 t230.5 -175.5l168 1022q-32 4 -53 4q-204 0 -315 -141t-111 -375zM698 139h31q203 0 314.5 145t111.5 380q0 189 -74 319.5t-213 175.5z" />
<glyph unicode="&#xd9;" horiz-adv-x="1327" d="M164 500v819h196v-803q0 -171 80.5 -274t231.5 -103q153 0 240 94t87 259v827h164v-836q0 -223 -135.5 -365.5t-355.5 -142.5q-237 0 -372.5 137t-135.5 388zM453 1702l114 123l303 -320l-71 -78z" />
<glyph unicode="&#xda;" horiz-adv-x="1327" d="M164 500v819h196v-803q0 -171 80.5 -274t231.5 -103q153 0 240 94t87 259v827h164v-836q0 -223 -135.5 -365.5t-355.5 -142.5q-237 0 -372.5 137t-135.5 388zM457 1505l303 320l114 -123l-346 -275z" />
<glyph unicode="&#xdb;" horiz-adv-x="1327" d="M164 500v819h196v-803q0 -171 80.5 -274t231.5 -103q153 0 240 94t87 259v827h164v-836q0 -223 -135.5 -365.5t-355.5 -142.5q-237 0 -372.5 137t-135.5 388zM360 1524l304 221l303 -221l-58 -82l-245 139l-246 -139z" />
<glyph unicode="&#xdc;" horiz-adv-x="1327" d="M164 500v819h196v-803q0 -171 80.5 -274t231.5 -103q153 0 240 94t87 259v827h164v-836q0 -223 -135.5 -365.5t-355.5 -142.5q-237 0 -372.5 137t-135.5 388zM360 1565q0 49 28 81.5t71 32.5t70.5 -32t27.5 -82t-27.5 -82.5t-70.5 -32.5t-71 32.5t-28 82.5zM770 1565 q0 50 27.5 82t70.5 32t71 -32.5t28 -81.5q0 -50 -28 -82.5t-71 -32.5t-70.5 32.5t-27.5 82.5z" />
<glyph unicode="&#xdd;" d="M16 1319h213l316 -580l323 580h189l-426 -750v-569h-197v549zM342 1505l303 320l115 -123l-346 -275z" />
<glyph unicode="&#xde;" horiz-adv-x="1097" d="M180 0v1319h197v-203q67 6 147 6q236 0 372 -103t136 -306q0 -190 -113.5 -300t-304.5 -110q-67 0 -122 16v91h32q303 0 303 303q0 55 -14.5 97.5t-42.5 70.5t-61.5 47t-78.5 29t-87 14t-92 4h-74v-975h-197z" />
<glyph unicode="&#xdf;" horiz-adv-x="1163" d="M164 0v975q0 101 22.5 182t62.5 137t97 93t123.5 54t144.5 17q175 0 276 -74t101 -213q0 -67 -28 -121.5t-67.5 -90t-79 -67t-67.5 -68.5t-28 -79q0 -49 24.5 -82.5t81.5 -64.5l74 -41q47 -25 79 -48.5t63.5 -57.5t47 -79.5t15.5 -101.5q0 -137 -95 -216t-241 -79 q-163 0 -287 74l66 131q103 -74 221 -74q81 0 118.5 40.5t37.5 107.5q0 62 -31.5 98.5t-99.5 73.5l-74 41q-84 47 -128 104.5t-44 149.5q0 56 28 104t67.5 83.5t79 70.5t67.5 82t28 102q0 77 -52.5 124.5t-152.5 47.5q-270 0 -270 -344v-991h-180z" />
<glyph unicode="&#xe0;" horiz-adv-x="958" d="M90 205q0 59 24 105.5t67.5 78t87.5 51t100 35.5l237 66v139q0 75 -28.5 111t-94.5 36q-40 0 -83.5 -26t-104.5 -80l-90 -82l-107 123q221 196 451 196q121 0 180 -57t57 -164l-8 -516q-1 -71 22.5 -90t117.5 -25l-25 -106q-59 -25 -131 -25q-47 0 -90 27t-60 86 q-113 -113 -268 -113q-118 0 -186 60.5t-68 169.5zM250 1327l123 90l221 -319l-74 -58zM270 221q0 -115 140 -115q47 0 101.5 19.5t94.5 46.5v258l-172 -53q-78 -24 -121 -58.5t-43 -97.5z" />
<glyph unicode="&#xe1;" horiz-adv-x="958" d="M90 205q0 59 24 105.5t67.5 78t87.5 51t100 35.5l237 66v139q0 75 -28.5 111t-94.5 36q-40 0 -83.5 -26t-104.5 -80l-90 -82l-107 123q221 196 451 196q121 0 180 -57t57 -164l-8 -516q-1 -71 22.5 -90t117.5 -25l-25 -106q-59 -25 -131 -25q-47 0 -90 27t-60 86 q-113 -113 -268 -113q-118 0 -186 60.5t-68 169.5zM270 221q0 -115 140 -115q47 0 101.5 19.5t94.5 46.5v258l-172 -53q-78 -24 -121 -58.5t-43 -97.5zM340 1098l221 319l123 -90l-270 -287z" />
<glyph unicode="&#xe2;" horiz-adv-x="958" d="M90 205q0 59 24 105.5t67.5 78t87.5 51t100 35.5l237 66v139q0 75 -28.5 111t-94.5 36q-40 0 -83.5 -26t-104.5 -80l-90 -82l-107 123q221 196 451 196q121 0 180 -57t57 -164l-8 -516q-1 -71 22.5 -90t117.5 -25l-25 -106q-59 -25 -131 -25q-47 0 -90 27t-60 86 q-113 -113 -268 -113q-118 0 -186 60.5t-68 169.5zM147 1130l320 295l319 -295l-73 -65l-246 197l-246 -197zM270 221q0 -115 140 -115q47 0 101.5 19.5t94.5 46.5v258l-172 -53q-78 -24 -121 -58.5t-43 -97.5z" />
<glyph unicode="&#xe3;" horiz-adv-x="958" d="M90 205q0 59 24 105.5t67.5 78t87.5 51t100 35.5l237 66v139q0 75 -28.5 111t-94.5 36q-40 0 -83.5 -26t-104.5 -80l-90 -82l-107 123q221 196 451 196q121 0 180 -57t57 -164l-8 -516q-1 -71 22.5 -90t117.5 -25l-25 -106q-59 -25 -131 -25q-47 0 -90 27t-60 86 q-113 -113 -268 -113q-118 0 -186 60.5t-68 169.5zM135 1155l156 205h49q38 0 89.5 -29t96.5 -57.5t68 -28.5q37 0 74 49l57 74l74 -57l-156 -205h-49q-38 0 -89.5 29t-96.5 57.5t-68 28.5q-36 0 -74 -50l-57 -73zM270 221q0 -115 140 -115q47 0 101.5 19.5t94.5 46.5v258 l-172 -53q-78 -24 -121 -58.5t-43 -97.5z" />
<glyph unicode="&#xe4;" horiz-adv-x="958" d="M90 205q0 59 24 105.5t67.5 78t87.5 51t100 35.5l237 66v139q0 75 -28.5 111t-94.5 36q-40 0 -83.5 -26t-104.5 -80l-90 -82l-107 123q221 196 451 196q121 0 180 -57t57 -164l-8 -516q-1 -71 22.5 -90t117.5 -25l-25 -106q-59 -25 -131 -25q-47 0 -90 27t-60 86 q-113 -113 -268 -113q-118 0 -186 60.5t-68 169.5zM201 1221q0 50 27.5 82t70.5 32t70.5 -32t27.5 -82t-27.5 -82.5t-70.5 -32.5t-70.5 32.5t-27.5 82.5zM270 221q0 -115 140 -115q47 0 101.5 19.5t94.5 46.5v258l-172 -53q-78 -24 -121 -58.5t-43 -97.5zM537 1221 q0 50 27.5 82t70.5 32t70.5 -32t27.5 -82t-27.5 -82.5t-70.5 -32.5t-70.5 32.5t-27.5 82.5z" />
<glyph unicode="&#xe5;" horiz-adv-x="958" d="M90 205q0 59 24 105.5t67.5 78t87.5 51t100 35.5l237 66v139q0 75 -28.5 111t-94.5 36q-40 0 -83.5 -26t-104.5 -80l-90 -82l-107 123q221 196 451 196q121 0 180 -57t57 -164l-8 -516q-1 -71 22.5 -90t117.5 -25l-25 -106q-59 -25 -131 -25q-47 0 -90 27t-60 86 q-113 -113 -268 -113q-118 0 -186 60.5t-68 169.5zM270 221q0 -115 140 -115q47 0 101.5 19.5t94.5 46.5v258l-172 -53q-78 -24 -121 -58.5t-43 -97.5zM270 1270q0 81 55 134.5t142 53.5t142 -53.5t55 -134.5t-55 -135t-142 -54t-142 54t-55 135zM360 1270q0 -49 30 -78 t77 -29t76.5 29t29.5 78t-29.5 77.5t-76.5 28.5t-77 -28.5t-30 -77.5z" />
<glyph unicode="&#xe6;" horiz-adv-x="1462" d="M90 205q0 58 23 104t65.5 77t87 51.5t103.5 37.5l221 66v139q0 75 -28.5 111t-94.5 36q-27 0 -56 -15t-50 -32t-66 -59l-90 -82l-107 123q111 98 214 147t220 49q171 0 216 -122q62 59 138.5 90.5t151.5 31.5q157 0 245.5 -78.5t88.5 -224.5q0 -64 -16 -155l-586 -25v-33 q0 -145 74.5 -232t212.5 -87q87 0 150 14t136 51l-49 -163q-98 -50 -262 -50q-238 0 -350 158q-41 -41 -67 -63t-67.5 -47.5t-91 -36.5t-112.5 -11q-118 0 -186 60.5t-68 169.5zM270 221q0 -115 148 -115q117 0 225 91q-47 100 -53 233l-164 -53q-83 -28 -119.5 -65 t-36.5 -91zM778 590l410 16q8 31 8 74q0 62 -49.5 104.5t-122.5 42.5q-190 0 -246 -237z" />
<glyph unicode="&#xe7;" horiz-adv-x="884" d="M82 459q0 119 37 215.5t100.5 157.5t146 93.5t175.5 32.5q104 0 178 -37t141 -110l-123 -139l-164 155h-32q-106 0 -188.5 -93.5t-82.5 -250.5q0 -166 73 -259t222 -93q118 0 254 74l-33 -156q-84 -61 -229 -72l-20 -83q106 -27 151 -70.5t45 -110.5q0 -86 -60 -137 t-169 -51q-117 0 -197 57l45 90q74 -41 152 -41q44 0 71 21.5t27 52.5q0 40 -37 63t-151 52l59 157q-185 14 -288 140.5t-103 341.5z" />
<glyph unicode="&#xe8;" horiz-adv-x="970" d="M90 475q0 205 124 344t318 139q167 0 258 -78t91 -225q0 -58 -17 -155l-594 -25v-33q0 -144 78.5 -231.5t216.5 -87.5q87 0 150.5 14.5t136.5 50.5l-49 -163q-98 -50 -262 -50q-217 0 -334 134t-117 366zM279 590l417 16q9 35 9 74q0 62 -50 104.5t-123 42.5 q-197 0 -253 -237zM299 1327l123 90l221 -319l-74 -58z" />
<glyph unicode="&#xe9;" horiz-adv-x="970" d="M90 475q0 205 124 344t318 139q167 0 258 -78t91 -225q0 -58 -17 -155l-594 -25v-33q0 -144 78.5 -231.5t216.5 -87.5q87 0 150.5 14.5t136.5 50.5l-49 -163q-98 -50 -262 -50q-217 0 -334 134t-117 366zM279 590l417 16q9 35 9 74q0 62 -50 104.5t-123 42.5 q-197 0 -253 -237zM389 1098l221 319l123 -90l-270 -287z" />
<glyph unicode="&#xea;" horiz-adv-x="970" d="M90 475q0 205 124 344t318 139q167 0 258 -78t91 -225q0 -58 -17 -155l-594 -25v-33q0 -144 78.5 -231.5t216.5 -87.5q87 0 150.5 14.5t136.5 50.5l-49 -163q-98 -50 -262 -50q-217 0 -334 134t-117 366zM197 1130l319 295l320 -295l-74 -65l-246 197l-246 -197zM279 590 l417 16q9 35 9 74q0 62 -50 104.5t-123 42.5q-197 0 -253 -237z" />
<glyph unicode="&#xeb;" horiz-adv-x="970" d="M90 475q0 205 124 344t318 139q167 0 258 -78t91 -225q0 -58 -17 -155l-594 -25v-33q0 -144 78.5 -231.5t216.5 -87.5q87 0 150.5 14.5t136.5 50.5l-49 -163q-98 -50 -262 -50q-217 0 -334 134t-117 366zM250 1221q0 50 27.5 82t70.5 32t70.5 -32t27.5 -82t-27.5 -82.5 t-70.5 -32.5t-70.5 32.5t-27.5 82.5zM279 590l417 16q9 35 9 74q0 62 -50 104.5t-123 42.5q-197 0 -253 -237zM586 1221q0 50 27.5 82t70.5 32t70.5 -32t27.5 -82t-27.5 -82.5t-70.5 -32.5t-70.5 32.5t-27.5 82.5z" />
<glyph unicode="&#xec;" horiz-adv-x="507" d="M37 1327l123 90l221 -319l-74 -58zM164 0v909l180 49v-958h-180z" />
<glyph unicode="&#xed;" horiz-adv-x="507" d="M127 1098l221 319l123 -90l-270 -287zM164 0v909l180 49v-958h-180z" />
<glyph unicode="&#xee;" horiz-adv-x="507" d="M-66 1130l320 295l319 -295l-73 -65l-246 197l-246 -197zM164 0v909l180 49v-958h-180z" />
<glyph unicode="&#xef;" horiz-adv-x="507" d="M-12 1221q0 50 27.5 82t70.5 32t70.5 -32t27.5 -82t-27.5 -82.5t-70.5 -32.5t-70.5 32.5t-27.5 82.5zM164 0v909l180 49v-958h-180zM324 1221q0 50 27.5 82t70.5 32t70.5 -32t27.5 -82t-27.5 -82.5t-70.5 -32.5t-70.5 32.5t-27.5 82.5z" />
<glyph unicode="&#xf0;" horiz-adv-x="999" d="M74 442q0 201 133 330t317 129q109 0 183 -47q-45 180 -134 299l-172 -129l-73 98l157 119q-114 86 -264 86h-65l65 131h33q204 0 360 -121l172 129l74 -98l-155 -117q108 -126 164.5 -308.5t56.5 -393.5q0 -259 -120.5 -416.5t-322.5 -157.5q-193 0 -301 125.5 t-108 341.5zM262 442q0 -88 21.5 -157t56 -108t73.5 -59t79 -20q253 0 253 443q0 83 -12 174q-71 63 -201 63q-121 0 -195.5 -86t-74.5 -250z" />
<glyph unicode="&#xf1;" horiz-adv-x="1089" d="M164 0v909l180 49v-122q134 122 295 122q134 0 210.5 -71.5t76.5 -214.5v-672h-181v598q0 119 -38 170t-134 51q-116 0 -229 -98v-721h-180zM217 1155l156 205h49q38 0 89.5 -29t96.5 -57.5t68 -28.5q37 0 74 49l57 74l74 -57l-156 -205h-49q-38 0 -89.5 29t-96.5 57.5 t-68 28.5q-36 0 -74 -50l-57 -73z" />
<glyph unicode="&#xf2;" d="M90 451q0 234 127 370.5t348 136.5q199 0 308.5 -122t109.5 -353q0 -234 -127.5 -371t-347.5 -137q-199 0 -308.5 122.5t-109.5 353.5zM279 475q0 -369 253 -369q118 0 190.5 98t72.5 263q0 187 -64 273.5t-190 86.5q-119 0 -190.5 -94t-71.5 -258zM324 1327l122 90 l222 -319l-74 -58z" />
<glyph unicode="&#xf3;" d="M90 451q0 234 127 370.5t348 136.5q199 0 308.5 -122t109.5 -353q0 -234 -127.5 -371t-347.5 -137q-199 0 -308.5 122.5t-109.5 353.5zM279 475q0 -369 253 -369q118 0 190.5 98t72.5 263q0 187 -64 273.5t-190 86.5q-119 0 -190.5 -94t-71.5 -258zM414 1098l221 319 l123 -90l-271 -287z" />
<glyph unicode="&#xf4;" d="M90 451q0 234 127 370.5t348 136.5q199 0 308.5 -122t109.5 -353q0 -234 -127.5 -371t-347.5 -137q-199 0 -308.5 122.5t-109.5 353.5zM221 1130l320 295l319 -295l-74 -65l-245 197l-246 -197zM279 475q0 -369 253 -369q118 0 190.5 98t72.5 263q0 187 -64 273.5 t-190 86.5q-119 0 -190.5 -94t-71.5 -258z" />
<glyph unicode="&#xf5;" d="M90 451q0 234 127 370.5t348 136.5q199 0 308.5 -122t109.5 -353q0 -234 -127.5 -371t-347.5 -137q-199 0 -308.5 122.5t-109.5 353.5zM209 1155l156 205h49q38 0 89.5 -29t96.5 -57.5t68 -28.5q36 0 73 49l58 74l73 -57l-155 -205h-49q-38 0 -89.5 29t-96.5 57.5 t-68 28.5q-36 0 -74 -50l-57 -73zM279 475q0 -369 253 -369q118 0 190.5 98t72.5 263q0 187 -64 273.5t-190 86.5q-119 0 -190.5 -94t-71.5 -258z" />
<glyph unicode="&#xf6;" d="M90 451q0 234 127 370.5t348 136.5q199 0 308.5 -122t109.5 -353q0 -234 -127.5 -371t-347.5 -137q-199 0 -308.5 122.5t-109.5 353.5zM274 1221q0 49 28 81.5t71 32.5t70.5 -32t27.5 -82t-27.5 -82.5t-70.5 -32.5t-71 32.5t-28 82.5zM279 475q0 -369 253 -369 q118 0 190.5 98t72.5 263q0 187 -64 273.5t-190 86.5q-119 0 -190.5 -94t-71.5 -258zM610 1221q0 49 28 81.5t71 32.5t70.5 -32t27.5 -82t-27.5 -82.5t-70.5 -32.5t-71 32.5t-28 82.5z" />
<glyph unicode="&#xf7;" horiz-adv-x="1032" d="M98 590v123h836v-123h-836zM410 311q0 51 34.5 87t87.5 36t88 -36t35 -87t-35 -87t-88 -36t-87.5 36t-34.5 87zM410 983q0 51 34.5 87t87.5 36t88 -36t35 -87t-35 -87t-88 -36t-87.5 36t-34.5 87z" />
<glyph unicode="&#xf8;" d="M90 451q0 234 127 370.5t348 136.5h27l39 189l82 -33l-35 -168q146 -33 225.5 -151t79.5 -312q0 -234 -127.5 -371t-347.5 -137h-29l-37 -180l-82 33l33 160q-146 33 -224.5 150t-78.5 313zM279 475q0 -278 143 -346l143 696q-8 2 -24 2q-119 0 -190.5 -94t-71.5 -258z M506 106h26q118 0 190.5 98t72.5 263q0 273 -146 340z" />
<glyph unicode="&#xf9;" horiz-adv-x="1081" d="M156 254v655l180 49v-622q0 -117 40 -169t132 -52q116 0 229 98v696l181 49v-933l-181 -50v123q-135 -123 -295 -123q-130 0 -208 69t-78 210zM324 1327l122 90l222 -319l-74 -58z" />
<glyph unicode="&#xfa;" horiz-adv-x="1081" d="M156 254v655l180 49v-622q0 -117 40 -169t132 -52q116 0 229 98v696l181 49v-933l-181 -50v123q-135 -123 -295 -123q-130 0 -208 69t-78 210zM414 1098l221 319l123 -90l-271 -287z" />
<glyph unicode="&#xfb;" horiz-adv-x="1081" d="M156 254v655l180 49v-622q0 -117 40 -169t132 -52q116 0 229 98v696l181 49v-933l-181 -50v123q-135 -123 -295 -123q-130 0 -208 69t-78 210zM221 1130l320 295l319 -295l-74 -65l-245 197l-246 -197z" />
<glyph unicode="&#xfc;" horiz-adv-x="1081" d="M156 254v655l180 49v-622q0 -117 40 -169t132 -52q116 0 229 98v696l181 49v-933l-181 -50v123q-135 -123 -295 -123q-130 0 -208 69t-78 210zM274 1221q0 49 28 81.5t71 32.5t70.5 -32t27.5 -82t-27.5 -82.5t-70.5 -32.5t-71 32.5t-28 82.5zM610 1221q0 49 28 81.5 t71 32.5t70.5 -32t27.5 -82t-27.5 -82.5t-70.5 -32.5t-71 32.5t-28 82.5z" />
<glyph unicode="&#xfd;" horiz-adv-x="860" d="M-33 -287h107q107 0 171 57.5t99 172.5l6 20l-334 971h189l235 -703l240 703h164l-369 -991q-18 -49 -32 -82.5t-37 -80t-45.5 -78.5t-55.5 -66.5t-69 -55t-84 -34t-103 -13.5zM315 1098l222 319l122 -90l-270 -287z" />
<glyph unicode="&#xfe;" horiz-adv-x="1097" d="M164 -467v1876l180 49v-622q116 122 279 122q185 0 285 -120t100 -346q0 -233 -128.5 -375t-338.5 -142q-115 0 -197 50v-443zM344 319q0 -104 59.5 -158.5t145.5 -54.5q119 0 194.5 100t75.5 269q0 344 -278 344q-100 0 -197 -65v-435z" />
<glyph unicode="&#xff;" horiz-adv-x="860" d="M-33 -287h107q107 0 171 57.5t99 172.5l6 20l-334 971h189l235 -703l240 703h164l-369 -991q-18 -49 -32 -82.5t-37 -80t-45.5 -78.5t-55.5 -66.5t-69 -55t-84 -34t-103 -13.5zM176 1221q0 50 27.5 82t70.5 32t71 -32.5t28 -81.5q0 -50 -28 -82.5t-71 -32.5t-70.5 32.5 t-27.5 82.5zM512 1221q0 50 27.5 82t70.5 32t71 -32.5t28 -81.5q0 -50 -28 -82.5t-71 -32.5t-70.5 32.5t-27.5 82.5z" />
<glyph unicode="&#x152;" horiz-adv-x="1875" d="M90 664q0 300 183 489.5t472 189.5q185 0 304 -94v70h720l-65 -156h-459v-418h434l-65 -155h-369v-434h549l-65 -156h-680v68q-140 -93 -320 -93q-137 0 -255 49.5t-203 138t-133 218t-48 283.5zM303 664q0 -234 115 -379.5t319 -145.5q197 0 312 115v795 q-107 131 -312 131t-319.5 -141.5t-114.5 -374.5z" />
<glyph unicode="&#x153;" horiz-adv-x="1675" d="M90 451q0 234 127 370.5t348 136.5q238 0 330 -174q59 82 146.5 128t195.5 46q167 0 257.5 -78t90.5 -225q0 -64 -16 -155l-594 -25v-33q0 -144 78.5 -231.5t216.5 -87.5q87 0 150 14t136 51l-49 -163q-98 -50 -262 -50q-252 0 -366 185q-115 -185 -371 -185 q-199 0 -308.5 122.5t-109.5 353.5zM279 475q0 -369 253 -369q118 0 190.5 98t72.5 263q0 187 -64 273.5t-190 86.5q-119 0 -190.5 -94t-71.5 -258zM983 590l418 16q8 31 8 74q0 62 -49.5 104.5t-122.5 42.5q-198 0 -254 -237z" />
<glyph unicode="&#x178;" d="M16 1319h213l316 -580l323 580h189l-426 -750v-569h-197v549zM246 1565q0 50 27.5 82t70.5 32t70.5 -32t27.5 -82t-27.5 -82.5t-70.5 -32.5t-70.5 32.5t-27.5 82.5zM655 1565q0 49 28 81.5t71 32.5t70.5 -32t27.5 -82t-27.5 -82.5t-70.5 -32.5t-71 32.5t-28 82.5z" />
<glyph unicode="&#x2c6;" d="M217 1130l320 295l319 -295l-74 -65l-245 197l-246 -197z" />
<glyph unicode="&#x2dc;" d="M205 1155l155 205h50q38 0 89.5 -29t96.5 -57.5t68 -28.5q36 0 73 49l58 74l73 -57l-155 -205h-49q-38 0 -89.5 29t-96.5 57.5t-68 28.5q-36 0 -74 -50l-57 -73z" />
<glyph unicode="&#x2000;" horiz-adv-x="912" />
<glyph unicode="&#x2001;" horiz-adv-x="1825" />
<glyph unicode="&#x2002;" horiz-adv-x="912" />
<glyph unicode="&#x2003;" horiz-adv-x="1825" />
<glyph unicode="&#x2004;" horiz-adv-x="608" />
<glyph unicode="&#x2005;" horiz-adv-x="456" />
<glyph unicode="&#x2006;" horiz-adv-x="304" />
<glyph unicode="&#x2007;" horiz-adv-x="304" />
<glyph unicode="&#x2008;" horiz-adv-x="228" />
<glyph unicode="&#x2009;" horiz-adv-x="365" />
<glyph unicode="&#x200a;" horiz-adv-x="101" />
<glyph unicode="&#x2010;" horiz-adv-x="671" d="M82 573l491 58l17 -164l-492 -57z" />
<glyph unicode="&#x2011;" horiz-adv-x="671" d="M82 573l491 58l17 -164l-492 -57z" />
<glyph unicode="&#x2012;" horiz-adv-x="671" d="M82 573l491 58l17 -164l-492 -57z" />
<glyph unicode="&#x2013;" horiz-adv-x="1015" d="M33 467v131h950v-131h-950z" />
<glyph unicode="&#x2014;" horiz-adv-x="2031" d="M33 467v131h1966v-131h-1966z" />
<glyph unicode="&#x2018;" horiz-adv-x="548" d="M139 999q0 87 45.5 186t143.5 191l82 -73q-140 -120 -140 -238l33 -8q52 -13 83.5 -44t31.5 -79q0 -61 -37.5 -100t-93.5 -39q-70 0 -109 51t-39 153z" />
<glyph unicode="&#x2019;" horiz-adv-x="548" d="M131 1196q0 61 37.5 100t93.5 39q69 0 108.5 -51.5t39.5 -153.5q0 -87 -45.5 -185.5t-143.5 -190.5l-82 73q140 120 140 238l-33 8q-52 13 -83.5 44t-31.5 79z" />
<glyph unicode="&#x201a;" horiz-adv-x="548" d="M131 98q0 61 37.5 100.5t93.5 39.5q69 0 108.5 -51.5t39.5 -153.5q0 -87 -45.5 -186t-143.5 -191l-82 74q140 120 140 237l-33 8q-52 13 -83.5 44t-31.5 79z" />
<glyph unicode="&#x201c;" horiz-adv-x="942" d="M139 999q0 87 45.5 186t143.5 191l82 -73q-140 -120 -140 -238l33 -8q52 -13 83.5 -44t31.5 -79q0 -61 -37.5 -100t-93.5 -39q-70 0 -109 51t-39 153zM532 999q0 87 45.5 186t143.5 191l82 -73q-139 -119 -139 -238l32 -8q52 -13 83.5 -44t31.5 -79q0 -61 -37.5 -100 t-93.5 -39q-70 0 -109 51t-39 153z" />
<glyph unicode="&#x201d;" horiz-adv-x="942" d="M131 1196q0 61 37.5 100t93.5 39q69 0 108.5 -51.5t39.5 -153.5q0 -87 -45.5 -185.5t-143.5 -190.5l-82 73q140 120 140 238l-33 8q-52 13 -83.5 44t-31.5 79zM524 1196q0 61 37.5 100t93.5 39q69 0 108.5 -51.5t39.5 -153.5q0 -87 -45.5 -185.5t-143.5 -190.5l-82 73 q140 120 140 238l-33 8q-52 13 -83.5 44t-31.5 79z" />
<glyph unicode="&#x201e;" horiz-adv-x="942" d="M131 98q0 61 37.5 100.5t93.5 39.5q69 0 108.5 -51.5t39.5 -153.5q0 -87 -45.5 -186t-143.5 -191l-82 74q140 120 140 237l-33 8q-52 13 -83.5 44t-31.5 79zM524 98q0 61 37.5 100.5t93.5 39.5q69 0 108.5 -51.5t39.5 -153.5q0 -87 -45.5 -186t-143.5 -191l-82 74 q140 120 140 237l-33 8q-52 13 -83.5 44t-31.5 79z" />
<glyph unicode="&#x2022;" horiz-adv-x="851" d="M197 549q0 97 67.5 163t161.5 66t161.5 -66t67.5 -163t-67.5 -163.5t-161.5 -66.5t-161.5 66.5t-67.5 163.5z" />
<glyph unicode="&#x2026;" horiz-adv-x="1622" d="M139 115q0 58 36 98.5t95 40.5t95 -40.5t36 -98.5t-36 -99t-95 -41t-95 41t-36 99zM680 115q0 58 36 98.5t95 40.5t95 -40.5t36 -98.5t-36 -99t-95 -41t-95 41t-36 99zM1221 115q0 58 36 98.5t95 40.5t95 -40.5t36 -98.5t-36 -99t-95 -41t-95 41t-36 99z" />
<glyph unicode="&#x202f;" horiz-adv-x="365" />
<glyph unicode="&#x2039;" horiz-adv-x="532" d="M74 508l270 369l123 -17l-197 -352l197 -385l-123 -25z" />
<glyph unicode="&#x203a;" horiz-adv-x="532" d="M66 123l196 385l-196 352l122 17l271 -369l-271 -410z" />
<glyph unicode="&#x205f;" horiz-adv-x="456" />
<glyph unicode="&#x20ac;" horiz-adv-x="1081" d="M57 524v74h125q-2 20 -2 66q0 42 2 65h-125v74h133q36 249 193.5 394.5t378.5 145.5q79 0 134 -14.5t112 -42.5v-188q-129 82 -254 82q-139 0 -235.5 -98t-123.5 -279h391v-74h-399q-2 -23 -2 -65q0 -46 2 -66h399v-74h-393q26 -177 114.5 -281t229.5 -104 q82 0 148.5 22.5t138.5 76.5v-181q-127 -82 -295 -82q-223 0 -367 141.5t-176 407.5h-129z" />
<glyph unicode="&#x2122;" horiz-adv-x="1761" d="M57 1212v107h648l-50 -107h-213v-565h-139v565h-246zM786 1319h172l279 -328l279 328h81v-672h-139v451l-246 -279l-237 279v-451h-115v586z" />
<glyph unicode="&#x25fc;" horiz-adv-x="931" d="M0 0v932h932v-932h-932z" />
<glyph unicode="&#xfb01;" horiz-adv-x="1056" d="M16 795l41 139h115v74q0 210 122 330t337 120q157 0 287 -65l-80 -154l-199 104h-49q-107 0 -172.5 -74.5t-65.5 -211.5v-123h451l90 24v-958h-180v795h-361v-795h-180v795h-156z" />
<glyph unicode="&#xfb02;" horiz-adv-x="1064" d="M16 795l41 139h115v74q0 211 108.5 330.5t309.5 119.5q105 0 196 -33l115 33v-1458h-180v1343h-172q-84 0 -140.5 -75.5t-56.5 -210.5v-123h238l-41 -139h-197v-795h-180v795h-156z" />
<glyph unicode="&#xfb03;" horiz-adv-x="1597" d="M16 795l41 139h115v41q0 209 116 329.5t318 120.5q150 0 262 -59q119 92 303 92q157 0 287 -65l-80 -154l-198 104h-50q-107 0 -172 -74.5t-65 -211.5v-123h450l91 24v-958h-181v795h-360v-795h-180v795h-361v-795h-180v795h-156zM352 934h361v74q0 137 51 233l-174 70 h-41q-84 0 -140.5 -76t-56.5 -211v-90z" />
<glyph unicode="&#xfb04;" horiz-adv-x="1605" d="M16 795l41 139h115v41q0 209 116 329.5t318 120.5q134 0 250 -53q109 86 274 86q106 0 197 -33l115 33v-1458h-180v1343h-172q-84 0 -140.5 -75.5t-56.5 -210.5v-123h237l-40 -139h-197v-795h-180v795h-361v-795h-180v795h-156zM352 934h361v74q0 139 45 235l-168 68h-41 q-84 0 -140.5 -76t-56.5 -211v-90z" />
</font>
</defs>
</svg>
